<?xml version="1.0" encoding="UTF-8"?>
<svg id="SVGRoot" width="24px" height="24px" version="1.1" viewBox="0 0 24 24" xmlns="http://www.w3.org/2000/svg">
 <path d="m24 11.34c-1.416 1.008-2.922 2.47-4.445 4.578-2.082 2.882-3.609 5.768-4.848 8.084h9.293v-12.66z" fill="#78ebf9" fill-opacity=".4179" stroke-width=".05864"/>
 <path d="m14.24 0.2654c8.594 1.391 8.924 7.496 9.042 11.44 0.1185 3.948-7.398 7.309-7.398 7.309l-8.015 3.219s-4.342-4.976-6.086-11.19c-1.744-6.216 3.863-12.17 12.46-10.78z" fill="#924019"/>
 <path d="m0 16.26v7.736h5.688c-1.442-2.007-3.085-4.319-5.072-6.951-0.2061-0.2728-0.411-0.5294-0.6152-0.7852zm3.578 15.26c0.05812 0.03555 0.1229 0.07952 0.1797 0.1133l0.1309-0.1133h-0.3105z" fill="#78ebf9" fill-opacity=".4179" stroke-width=".05864"/>
 <path d="m8.578 18.03c0.8384 2.248 0.1084 4.979-0.4082 5.967h5.727c-0.09808-0.6874-0.1723-1.446-0.1035-1.898l-5.215-4.068z" fill="#f9bb78"/>
 <path d="m11.14 23.02 2.602-0.5563-6.705-4.049 0.8024 3.049z" fill="#764a35" fill-opacity=".6624"/>
 <g>
  <path d="m21.04 11.67-1.147 3.078s-0.3484 3.168-0.8356 4.245c-0.4871 1.076-3.591 3.999-4.928 3.932-1.607-0.08055-5.42-2.983-6.159-3.855-2.81-2.572-2.751-5.317-3.218-8.827 0 0 1.029-8.107 9.383-7.811 8.353 0.2961 6.905 9.237 6.905 9.237z" fill="#f9bb78"/>
  <path d="m13.12 13.42c0.01078 0.4447-0.5598 1.218-1.281 1.179-0.7214-0.03811-1.014-0.3213-1.083-1.148-0.04764-0.5727 0.4873-0.9384 0.9045-0.9808 0.699-0.07106 1.441 0.1939 1.46 0.9497z" fill="#c65722" stop-color="#000000"/>
  <path d="m9.432 10.94c0.2842-0.1942 2.064-0.9987 2.968-0.9651 0.9042 0.03355 2.039 0.748 1.919 0.9115-0.08893 0.1771-1.053-0.3401-1.907-0.3434-0.854-0.0034-2.98 0.3971-2.98 0.3971z" fill="#924019"/>
  <path d="m13.11 19.22c-0.1373 0.2102 0.3327 0.3322 0.5005 0.467 0 0 0.5837 0.5414 1.244 0.5689 0.58-0.02592 0.7697-0.3622 0.8652-0.4391 0.1428-0.09279 0.2812-0.1815 0.2027-0.2846-0.1194 0.06999-0.1604 0.03998-0.3031 0.1329 0 0-0.6065 0.104-0.7623 0.09642-0.2038-0.0099-1.251-0.2807-1.251-0.2807-0.2451-0.1114-0.3696-0.1934-0.4965-0.2608z" color="#000000" color-rendering="auto" dominant-baseline="auto" fill="#ec4b4b" image-rendering="auto" shape-rendering="auto" solid-color="#000000" stop-color="#000000" style="font-feature-settings:normal;font-variant-alternates:normal;font-variant-caps:normal;font-variant-east-asian:normal;font-variant-ligatures:normal;font-variant-numeric:normal;font-variant-position:normal;font-variation-settings:normal;inline-size:0;isolation:auto;mix-blend-mode:normal;shape-margin:0;shape-padding:0;text-decoration-color:#000000;text-decoration-line:none;text-decoration-style:solid;text-indent:0;text-orientation:mixed;text-transform:none;white-space:normal"/>
 </g>
 <path d="m15.42 18.45 0.5562-0.3324-1.435-0.3233 0.5302 0.5343z" fill="#764a35" fill-opacity=".6624"/>
 <g fill="#924019">
  <path d="m16.35 6.69s4.856 2.641 4.96 6.665c0.4075-0.9513-0.06311-4.99 0.1301-5.999 0.1932-1.009 0.4822-1.436 2.13-0.1975-0.7579-3.202-3.976-5.689-5.525-5.599z"/>
  <path d="m17.86 11.58c-0.04409-0.2443 1.297-0.4744 1.91-0.276 0.6124 0.1984 1.346 0.8784 1.225 1.024 0 0-0.7738-0.5813-1.328-0.7272-0.5544-0.1459-1.783 0.2234-1.807-0.02112z"/>
  <path d="m17.09 6.642c-2.232 3.223-9.503 5.976-9.503 5.976l-3.911-0.6868 2.652-8.843 10.4-1.398 3.076 3.212z"/>
 </g>
 <g>
  <path d="m19.56 14.36c0 0.4448-0.6311 1.208-1.051 1.208s-0.7226-0.3007-0.7914-1.128c-0.04764-0.5727 0.4873-0.9384 0.9045-0.9808 0.699-0.07106 0.9376 0.456 0.9376 0.9008z" fill="#c65722" stop-color="#000000"/>
  <path d="m13.49 13.42c0.2371-0.4408-1.39-1.271-1.85-1.295-0.4601-0.02424-2.421 0.6991-2.352 1.181 0 0 1.818-0.6905 2.553-0.6425 0.7348 0.04805 1.387 1.046 1.649 0.756z" fill="#5e2910"/>
  <path d="m17.42 14.07c0.0517 0.1451 1.155-0.5588 1.623-0.4977 0.468 0.06112 0.7091 0.3855 0.9323 0.5659 0.1189-0.1866-0.2648-0.8223-0.8341-0.9454-0.5693-0.1231-1.876 0.5597-1.721 0.8772z" fill="#5e2910"/>
  <path d="m8.195 11.32s-0.8166 1.861-0.6199 3.626c-0.9026-0.6825-1.72-3.924-1.72-3.924z" fill="#924019"/>
  <path d="m3.48 13.15s-1.408 3.344-1.162 5.301c0.2056 1.639 2.336 4.588 3.055 5.547h4.359c-0.6137-1.558-1.914-3.236-1.914-3.236s0.9649-2.24-0.7695-5.031l-3.568-2.58z" fill="#924019"/>
  <path d="m6.524 12.52c-0.02464-0.7839-5.982-2.536-5.982-2.536 0.05982 1.659 3.857 3.589 3.857 3.589-0.06904 1.445 1.351 1.441 1.938 1.421z" fill="#f9bb78"/>
 </g>
</svg>
