<?xml version="1.0" encoding="UTF-8" standalone="no"?>
<svg
   width="600"
   height="800"
   version="1.1"
   viewBox="0 0 158.8 211.7"
   id="svg1509"
   sodipodi:docname="base.svg"
   inkscape:version="1.1.2 (1:1.1+202202050942+0a00cf5339)"
   xmlns:inkscape="http://www.inkscape.org/namespaces/inkscape"
   xmlns:sodipodi="http://sodipodi.sourceforge.net/DTD/sodipodi-0.dtd"
   xmlns="http://www.w3.org/2000/svg"
   xmlns:svg="http://www.w3.org/2000/svg"
   xmlns:rdf="http://www.w3.org/1999/02/22-rdf-syntax-ns#"
   xmlns:cc="http://creativecommons.org/ns#"
   xmlns:dc="http://purl.org/dc/elements/1.1/">
  <defs
     id="defs1513" />
  <sodipodi:namedview
     id="namedview1511"
     pagecolor="#ffffff"
     bordercolor="#999999"
     borderopacity="1"
     inkscape:pageshadow="0"
     inkscape:pageopacity="0"
     inkscape:pagecheckerboard="0"
     showgrid="false"
     inkscape:snap-global="false"
     inkscape:zoom="0.2246875"
     inkscape:cx="-1457.58"
     inkscape:cy="198.05285"
     inkscape:window-width="1920"
     inkscape:window-height="940"
     inkscape:window-x="0"
     inkscape:window-y="0"
     inkscape:window-maximized="1"
     inkscape:current-layer="svg1509" />
  <metadata
     id="metadata1449">
    <rdf:RDF>
      <cc:Work
         rdf:about="">
        <dc:format>image/svg+xml</dc:format>
        <dc:type
           rdf:resource="http://purl.org/dc/dcmitype/StillImage" />
      </cc:Work>
    </rdf:RDF>
  </metadata>
  <g
     fill="none"
     stroke-linecap="round"
     stroke-linejoin="round"
     id="g1467">
    <circle
       r="0"
       stroke="#c53822"
       stroke-width="2.257"
       style="paint-order:stroke markers fill"
       id="circle1453" />
    <g
       stroke="#924019"
       id="g1461">
      <circle
         r="0"
         stroke-width="1.288"
         style="paint-order:stroke markers fill"
         id="circle1455" />
      <circle
         transform="scale(1,-1)"
         r="0"
         stroke-width="3.595"
         style="paint-order:stroke markers fill"
         id="circle1457" />
      <circle
         transform="scale(1,-1)"
         r="0"
         stroke-width="3.595"
         style="paint-order:stroke markers fill"
         id="circle1459" />
    </g>
    <circle
       transform="scale(1,-1)"
       r="0"
       stroke="#4d4320"
       stroke-width="4.378"
       style="paint-order:stroke markers fill"
       id="circle1463" />
    <circle
       transform="scale(1,-1)"
       r="0"
       stroke="#4d4320"
       stroke-width="3.52"
       style="paint-order:stroke markers fill"
       id="circle1465" />
  </g>
  <path
     d="m -272.59761,32.684902 c -0.45963,0.135181 -0.69304,0.235879 -0.69304,0.235879 12.61437,13.147782 4.06986,52.51911 36.82819,79.475259 28.13909,23.15774 48.08482,39.84406 61.59906,47.88347 l 10.92209,-9.39892 15.42593,-12.24394 c -11.08671,-14.13383 -24.92377,-34.77153 -43.92644,-59.940208 -40.9372,-54.196702 -75.72139,-47.28138 -80.1532,-45.993835 z"
     fill="#78f991"
     fill-opacity="0.4179"
     stroke-width="0.317798"
     id="path1469"
     style="fill:#78ebf9;fill-opacity:0.4179" />
  <path
     d="m -283.19521,215.88721 c -0.009,0.47901 0.0163,0.7319 0.0163,0.7319 16.33493,-8.07195 51.30856,11.92692 86.87476,-11.19857 30.55356,-19.86377 52.46964,-33.86201 64.20396,-44.3297 l -5.67555,-13.24462 -7.03299,-18.39594 c -16.81543,6.31835 -40.66096,13.30186 -70.38218,23.84762 -64.00528,22.72577 -67.88055,57.97834 -67.98668,62.59217 z"
     fill="#78f991"
     fill-opacity="0.4179"
     stroke-width="0.317798"
     id="path1469-6"
     style="fill:#78ebf9;fill-opacity:0.4179" />
  <path
     d="M -15.157126,36.837598 C -19.032908,35.79581 -52.045464,24.653914 -86.508974,72.358423 -103.87446,96.401312 -114.71219,121.1541 -122.8504,133.99907 l 5.51254,3.58185 18.423692,10.76472 c 11.648025,-6.91492 28.602909,-20.02905 53.942884,-41.80763 27.881816,-23.954446 19.749554,-57.897179 30.437663,-69.524954 0,0 -0.203999,-0.08318 -0.604826,-0.191086 z"
     fill="#78f991"
     fill-opacity="0.4179"
     stroke-width="0.275358"
     id="path1471"
     style="fill:#78ebf9;fill-opacity:0.4179" />
  <path
     d="M 7.3083159,189.63632 C 6.4425799,185.71745 1.0804799,151.29044 -57.147808,142.7511 -86.492801,138.45085 -113.453,140.26847 -128.6045,138.98162 l -0.63143,6.54363 -1.04033,21.31266 c 11.51239,7.13844 30.974076,16.12128 61.993173,28.54046 34.122872,13.66898 60.4743359,-9.21865 75.7237059,-5.10799 0,0 -0.02043,-0.21936 -0.109814,-0.62471 z"
     fill="#78f991"
     fill-opacity="0.4179"
     stroke-width="0.275358"
     id="path1471-5"
     style="fill:#78ebf9;fill-opacity:0.4179"
     inkscape:transform-center-x="-2.3765705"
     inkscape:transform-center-y="-51.11352" />
  <path
     style="fill:#f9bb78;fill-opacity:1;stroke:none;stroke-width:0.264667px;stroke-linecap:butt;stroke-linejoin:miter;stroke-opacity:1"
     d="m -147.90426,84.206251 c 4.94874,13.269845 0.12527,29.565549 -2.75255,34.214959 l 33.96768,7.56464 c 0,0 -2.87293,-13.54804 -2.04001,-19.02874 z"
     id="path6751"
     sodipodi:nodetypes="ccccc" />
  <path
     style="fill:#bebebe;fill-opacity:1;stroke:none;stroke-width:0.264667px;stroke-linecap:butt;stroke-linejoin:miter;stroke-opacity:1"
     d="m -150.5348,109.98297 c 0,0 0.42588,4.62725 -6.8098,12.98027 -7.23568,8.35302 -28.32755,13.68143 -28.32755,13.68143 -21.88865,7.40684 -20.67018,42.54582 -23.66187,55.51796 -3.19993,7.55814 -9.05317,52.94598 -9.05317,52.94598 l 30.66689,-1.15015 c 4.08328,-11.56007 11.05739,-68.59585 20.97439,-67.76292 l 74.772824,6.25019 c 7.992491,1.98632 19.91534,48.21035 30.37244,63.44049 l 29.944592,-1.2022 c 0,0 -23.733452,-51.14512 -29.798179,-67.08292 -8.831922,-22.56866 -13.079508,-38.83995 -38.896897,-44.52889 l -16.99848,-10.09758 0.35139,-7.49794 c -5.37643,14.03176 -24.82105,2.52 -33.53658,-5.49372 z"
     id="path5519"
     sodipodi:nodetypes="czccccccccccccc" />
  <path
     style="fill:#5f624e;fill-opacity:1;stroke:none;stroke-width:0.264667px;stroke-linecap:butt;stroke-linejoin:miter;stroke-opacity:1"
     d="m -111.87989,126.04888 13.303604,23.97626 -14.582674,20.28788 -41.25414,-14.65426 -5.21066,-37.43277 -7.96484,8.28369 -15.08861,4.50462 13.24219,14.74373 -7.45727,10.94352 8.12426,11.71786 -7.82004,8.17795 2.35886,8.60092 -5.9476,18.29016 10.3547,39.13333 78.975307,1.675 5.943254,-17.72072 12.364961,-31.4632 -5.810009,-23.39102 0.0667,-14.70468 -7.387319,-10.97443 v -11.57309 l -12.481659,-4.90807 -13.297705,-8.32903 z"
     id="path20241"
     sodipodi:nodetypes="cccccccccccccccccccccccc" />
  <path
     style="fill:#924019;fill-opacity:1;stroke:none;stroke-width:0.271666px;stroke-linecap:butt;stroke-linejoin:miter;stroke-opacity:1"
     d="m -116.2532,-15.180245 c 48.069193,7.7790169 49.913031,41.930439 50.575632,64.013261 0.662601,22.082821 -41.378572,40.883685 -41.378572,40.883685 l -44.82966,18.005459 c 0,0 -24.28385,-27.830684 -34.0413,-62.600092 -9.75746,-34.769408 21.60471,-68.081329 69.6739,-60.302313 z"
     id="path30030"
     sodipodi:nodetypes="zzcczz" />
  <path
     style="fill:#764a35;fill-opacity:0.662428;stroke:none;stroke-width:0.271666px;stroke-linecap:butt;stroke-linejoin:miter;stroke-opacity:1"
     d="m -133.57669,112.07968 14.55351,-3.11176 -37.50071,-22.648939 4.48812,17.056489 z"
     id="path25627-3"
     sodipodi:nodetypes="ccccc" />
  <path
     style="fill:#f9bb78;fill-opacity:1;stroke:none;stroke-width:0.271666px;stroke-linecap:butt;stroke-linejoin:miter;stroke-opacity:1"
     d="m -78.214643,48.604085 -6.418232,17.218435 c 0,0 -1.948788,17.722444 -4.673547,23.742662 -2.72476,6.020219 -20.083288,22.370218 -27.561768,21.995338 -8.98811,-0.45056 -30.31824,-16.683963 -34.4514,-21.560488 -15.71838,-14.384541 -15.39003,-29.739553 -17.99946,-49.374248 0,0 5.75717,-45.3442061 52.48061,-43.6878372 46.723439,1.6563686 38.623797,51.6661382 38.623797,51.6661382 z"
     id="path1680"
     sodipodi:nodetypes="cczscczc" />
  <path
     id="path3107-3"
     style="fill:#c65722;fill-opacity:1;stroke:none;stroke-width:1.467;stop-color:#000000"
     d="m -122.49473,58.377265 c 0.0603,2.487362 -3.13102,6.809999 -7.16579,6.596824 -4.03477,-0.213176 -5.6733,-1.797365 -6.05806,-6.42255 -0.26646,-3.203287 2.72565,-5.248964 5.0594,-5.486185 3.90992,-0.397437 8.06204,1.0846 8.16445,5.311911 z"
     sodipodi:nodetypes="szsss" />
  <path
     style="fill:#924019;fill-opacity:1;stroke:none;stroke-width:0.271666px;stroke-linecap:butt;stroke-linejoin:miter;stroke-opacity:1"
     d="m -143.12359,44.515996 c 1.58941,-1.086009 11.54275,-5.585989 16.60034,-5.398311 5.0576,0.187679 11.40755,4.183891 10.73231,5.098245 -0.49741,0.990333 -5.88718,-1.902045 -10.66385,-1.92102 -4.77668,-0.01897 -16.6688,2.221086 -16.6688,2.221086 z"
     id="path4822"
     sodipodi:nodetypes="czczc" />
  <path
     d="m -122.52635,90.829155 c -0.76806,1.176 1.86065,1.858 2.7994,2.612 0,0 3.26508,3.028 6.95897,3.182 3.24401,-0.145 4.30498,-2.026 4.83915,-2.456 0.79883,-0.519 1.57301,-1.015 1.13366,-1.592 -0.66776,0.3915 -0.89723,0.2236 -1.69523,0.7433 0,0 -3.39256,0.5818 -4.26388,0.5393 -1.13999,-0.0556 -6.9948,-1.57 -6.9948,-1.57 -1.37072,-0.6232 -2.06714,-1.082 -2.77727,-1.459 z"
     color="#000000"
     color-rendering="auto"
     dominant-baseline="auto"
     fill="#ee5f5f"
     image-rendering="auto"
     solid-color="#000000"
     stop-color="#000000"
     style="font-variant-ligatures:normal;font-variant-position:normal;font-variant-caps:normal;font-variant-numeric:normal;font-variant-alternates:normal;font-variant-east-asian:normal;font-feature-settings:normal;font-variation-settings:normal;text-indent:0;text-decoration-line:none;text-decoration-style:solid;text-decoration-color:#000000;text-transform:none;text-orientation:mixed;white-space:normal;shape-padding:0;shape-margin:0;inline-size:0;isolation:auto;mix-blend-mode:normal;fill:#ec4b4b;fill-opacity:1;stroke:none;stroke-width:1.02645;shape-rendering:auto"
     id="path1505-5" />
  <path
     style="fill:#764a35;fill-opacity:0.662428;stroke:none;stroke-width:0.271666px;stroke-linecap:butt;stroke-linejoin:miter;stroke-opacity:1"
     d="m -109.64475,86.548519 3.11109,-1.859395 -8.02598,-1.808564 2.96539,2.988775 z"
     id="path25627"
     sodipodi:nodetypes="ccccc" />
  <path
     style="fill:#924019;fill-opacity:1;stroke:none;stroke-width:0.271666px;stroke-linecap:butt;stroke-linejoin:miter;stroke-opacity:1"
     d="m -104.41222,20.755894 c 0,0 27.160308,14.774768 27.742056,37.279717 2.279114,-5.320826 -0.352959,-27.910918 0.727906,-33.556165 1.080865,-5.645247 2.697311,-8.03 11.915178,-1.104778 C -68.266531,5.4627823 -86.26687,-8.4437291 -94.931939,-7.9398261 Z"
     id="path30028"
     sodipodi:nodetypes="ccsccc" />
  <path
     style="fill:#924019;fill-opacity:1;stroke:none;stroke-width:0.271666px;stroke-linecap:butt;stroke-linejoin:miter;stroke-opacity:1"
     d="m -96.009011,48.094878 c -0.246636,-1.366579 7.257301,-2.653648 10.682786,-1.543846 3.425486,1.109803 7.528473,4.913106 6.853858,5.729492 0,0 -4.328265,-3.251399 -7.429394,-4.067512 -3.10113,-0.816111 -9.972417,1.249388 -10.10725,-0.118134 z"
     id="path4820"
     sodipodi:nodetypes="czczc" />
  <path
     style="fill:#924019;fill-opacity:1;stroke:none;stroke-width:0.271666px;stroke-linecap:butt;stroke-linejoin:miter;stroke-opacity:1"
     d="m -100.27212,20.484418 c -12.48575,18.027886 -53.15361,33.427798 -53.15361,33.427798 l -21.87721,-3.84145 14.83211,-49.45935553 58.16744,-7.81990557 17.205166,17.9680691 z"
     id="path35382"
     sodipodi:nodetypes="ccccccc" />
  <path
     id="path3107"
     style="fill:#c65722;fill-opacity:1;stroke:none;stroke-width:1.467;stop-color:#000000"
     d="m -86.471388,63.683418 c 0,2.488019 -3.529765,6.754417 -5.876855,6.754418 -2.347091,0 -4.041976,-1.681757 -4.426732,-6.306942 -0.266473,-3.203287 2.725636,-5.248964 5.059381,-5.486185 3.909929,-0.397437 5.244206,2.550689 5.244206,5.038709 z"
     sodipodi:nodetypes="sssss" />
  <path
     style="fill:#5e2910;fill-opacity:1;stroke:none;stroke-width:0.298901px;stroke-linecap:butt;stroke-linejoin:miter;stroke-opacity:1"
     d="m -120.42921,58.390891 c 1.32634,-2.465694 -7.77486,-7.107844 -10.34813,-7.243412 -2.57328,-0.135569 -13.53966,3.910158 -13.15572,6.608383 0,0 10.16943,-3.862324 14.27968,-3.593578 4.11025,0.268746 7.75903,5.850381 9.22417,4.228607 z"
     id="path3736"
     sodipodi:nodetypes="czczc" />
  <path
     style="fill:#5e2910;fill-opacity:1;stroke:none;stroke-width:0.297682px;stroke-linecap:butt;stroke-linejoin:miter;stroke-opacity:1"
     d="m -98.420163,62.032139 c 0.289164,0.811776 6.458009,-3.125721 9.075793,-2.783882 2.617785,0.341837 3.966181,2.15604 5.214512,3.165345 0.665071,-1.043835 -1.480942,-4.599569 -4.665187,-5.288236 -3.184243,-0.688668 -10.495769,3.13056 -9.625118,4.906773 z"
     id="path2532"
     sodipodi:nodetypes="czczc" />
  <path
     style="fill:#924019;fill-opacity:1;stroke:none;stroke-width:0.271666px;stroke-linecap:butt;stroke-linejoin:miter;stroke-opacity:1"
     d="m -150.04354,46.675056 c 0,0 -4.56779,10.409108 -3.46741,20.282999 -5.04855,-3.817297 -9.62146,-21.946405 -9.62146,-21.946405 z"
     id="path43493"
     sodipodi:nodetypes="cccc" />
  <path
     style="fill:#924019;fill-opacity:1;stroke:none;stroke-width:0.264667px;stroke-linecap:butt;stroke-linejoin:miter;stroke-opacity:1"
     d="m -176.41478,56.898597 c 0,0 -7.8729,18.712549 -6.49994,29.656761 1.37296,10.944212 18.88069,33.417822 18.88069,33.417822 0,0 -7.35985,19.37832 -4.89668,32.94605 2.46317,13.56773 22.52105,29.6473 23.98886,43.21768 3.05181,-3.79492 4.71108,-9.30596 2.35521,-21.19457 3.81678,6.16804 8.19947,7.28514 11.97369,7.76368 -9.00705,-14.68849 -12.22056,-37.00981 -12.22056,-37.00981 0,0 4.42569,-12.84334 2.99172,-22.51332 -1.43397,-9.66998 -12.30552,-23.70783 -12.30552,-23.70783 0,0 5.39131,-12.531188 -4.30995,-28.141092 z"
     id="path38149"
     sodipodi:nodetypes="czczcccczccc" />
  <path
     d="m -159.38878,53.351348 c -0.13784,-4.38448 -33.46209,-14.18214 -33.46209,-14.18214 0.33462,9.27832 21.57148,20.07472 21.57148,20.07472 -0.38618,8.07982 7.55528,8.05985 10.83835,7.94999 z"
     fill="#f2c7b0"
     id="path72"
     style="fill:#f9bb78;fill-opacity:1;stroke:none;stroke-width:1.02516" />
  <path
     style="fill:#3c3e31;fill-opacity:1;stroke:#282828;stroke-width:0.264667px;stroke-linecap:butt;stroke-linejoin:miter;stroke-opacity:1"
     d="m -171.45388,236.563 2.47112,8.27393 83.328184,-0.34975 0.727179,-15.43187 -21.553533,-14.58757 -31.10451,15.12603 z"
     id="path45042"
     sodipodi:nodetypes="ccccccc" />
  <path
     d="m -329.60169,12.515231 c -3.96494,-1.36395 -37.73692,-15.9512796 -72.99324,46.50503 -17.76496,31.47775 -28.85199,63.884919 -37.17742,80.701979 l 5.63935,4.68947 18.84751,14.09353 c 11.91598,-9.05324 29.26088,-26.22269 55.1838,-54.73593 28.5232,-31.361959 20.20387,-75.800899 31.13785,-91.024359 0,0 -0.20869,-0.10893 -0.61875,-0.25018 z"
     fill="#78f991"
     fill-opacity="0.4179"
     stroke-width="0.318673"
     id="path1471-7"
     style="fill:#78ebf9;fill-opacity:0.4179" />
  <path
     d="m -584.59401,19.145281 c -0.47337,0.1484 -0.71376,0.25894 -0.71376,0.25894 12.99147,14.43342 4.19153,57.65464 37.92916,87.246659 28.98031,25.4222 49.52232,43.74017 63.44056,52.5657 l 11.24861,-10.31798 22.50419,-4.55448 c -11.41815,-15.51589 -32.28597,-47.058339 -51.85672,-74.688109 -42.16102,-59.49627 -77.98507,-51.90474 -82.54937,-50.49129 z"
     fill="#78f991"
     fill-opacity="0.4179"
     stroke-width="0.337914"
     id="path1469-9"
     style="fill:#78ebf9;fill-opacity:0.4179"
     sodipodi:nodetypes="ccccccccc" />
  <path
     style="fill:#5f624e;fill-opacity:1;stroke:none;stroke-width:0.22273px;stroke-linecap:butt;stroke-linejoin:miter;stroke-opacity:1"
     d="m -505.91951,215.85052 1.32612,-59.16833 38.12649,-23.75836 33.87887,8.10768 53.69716,62.80267 z"
     id="path28032"
     sodipodi:nodetypes="cccccc" />
  <path
     style="fill:#f9bb78;fill-opacity:1;stroke:none;stroke-width:0.22273px;stroke-linecap:butt;stroke-linejoin:miter;stroke-opacity:1"
     d="m -443.71975,233.59846 53.19996,-2.6757 23.30863,4.78965 13.89804,0.1819 -0.70561,-4.31728 -30.34421,-7.41992 -61.28566,-13.34058 z"
     id="path1405"
     sodipodi:nodetypes="cccccccc" />
  <path
     style="fill:#e8aa68;fill-opacity:1;stroke:none;stroke-width:0.22273px;stroke-linecap:butt;stroke-linejoin:miter;stroke-opacity:1"
     d="m -421.34578,216.71982 -35.19235,-10.37122 c 0,0 -10.46653,-1.96281 -14.33759,-4.50604 -3.87106,-2.54322 -7.97685,-7.91462 -7.97685,-7.91462 l -16.52112,-8.01211 c 0,0 1.10717,-2.01296 3.41999,-2.71981 2.31281,-0.70685 10.10955,0.79664 10.10955,0.79664 l 18.93491,-1.88685 15.93712,8.1532 29.48165,5.83916 z"
     id="path5073"
     sodipodi:nodetypes="cczcczccccc" />
  <path
     style="fill:#bebebe;fill-opacity:1;stroke:none;stroke-width:0.22273px;stroke-linecap:butt;stroke-linejoin:miter;stroke-opacity:1"
     d="m -423.74512,192.71267 c 8.55388,12.35627 -2.51439,22.15707 -2.51439,22.15707 -2.40289,7.87028 2.41023,5.21361 2.41023,5.21361 l 5.32949,-0.75109 2.58626,3.99014 5.3779,-2.50264 53.88169,13.58411 c 0,0 17.21853,-4.21516 19.16593,-12.60564 1.9474,-8.39049 -16.47992,-25.77754 -16.47992,-25.77754 0,0 -62.85805,0.17603 -69.75719,-3.30802 z"
     id="path18253"
     sodipodi:nodetypes="ccccccczcc" />
  <path
     d="m -563.02911,111.89247 c -0.32596,0.23729 -0.48279,0.38272 -0.48279,0.38272 13.71347,6.8596 18.06074,40.48386 51.64321,52.59993 28.84776,10.4097 49.3725,18.00359 62.35643,20.55947 l 6.00346,-10.53583 8.77018,-14.06331 c -12.78097,-8.07276 -29.57929,-20.52447 -51.75236,-35.10896 -47.7604,-31.400259 -73.38154,-16.09321 -76.5311,-13.82074 z"
     fill="#78f991"
     fill-opacity="0.4179"
     stroke-width="0.267442"
     id="path1469-6-2"
     style="fill:#78ebf9;fill-opacity:0.4179" />
  <path
     d="m -319.7312,89.214631 c -2.8188,-1.86049 -26.22638,-19.51897 -66.40855,9.43302 -20.24847,14.592759 -35.47216,31.484679 -45.38008,39.583239 l 3.4519,4.32336 11.8568,13.48586 c 11.13725,-2.43135 28.1577,-8.40522 54.17382,-19.07349 28.62349,-11.73145 31.1362,-40.996589 42.75748,-47.446419 0,0 -0.14083,-0.12058 -0.43231,-0.31309 z"
     fill="#78f991"
     fill-opacity="0.4179"
     stroke-width="0.231727"
     id="path1471-5-0"
     style="fill:#78ebf9;fill-opacity:0.4179"
     inkscape:transform-center-x="36.585929"
     inkscape:transform-center-y="-36.122945" />
  <path
     style="fill:#bebebe;fill-opacity:1;stroke:none;stroke-width:0.22273px;stroke-linecap:butt;stroke-linejoin:miter;stroke-opacity:1"
     d="m -464.20822,138.19988 -27.41321,-0.39755 c -34.54334,11.28978 -28.90069,34.67606 -40.07754,68.05993 l 3.47672,26.22497 c 4.35983,7.75732 68.35919,4.93487 68.35919,4.93487 l 10.4536,-0.32273 1.79263,-1.57406 2.49385,0.74669 c 6.49573,1.34081 10.96411,-18.22966 -0.20097,-25.80507 l -49.38402,-2.7608 1.38695,-4.09479 -4.92196,-1.75582 3.25198,-23.51697 48.43186,5.20773 -1.80222,-41.56405 z"
     id="path21959"
     sodipodi:nodetypes="cccccccccccccccc" />
  <path
     style="fill:#5f624e;fill-opacity:1;stroke:none;stroke-width:0.22273px;stroke-linecap:butt;stroke-linejoin:miter;stroke-opacity:1"
     d="m -495.93969,131.00019 1.83077,7.30843 0.9858,21.89154 -2.04613,5.97825 10.99698,6.45818 25.28973,11.18626 -1.82787,-38.73451 -5.91789,-12.34613 -10.29645,2.75446 -10.45674,-0.80923 z"
     id="path24848"
     sodipodi:nodetypes="ccccccccccc" />
  <path
     style="fill:#f9bb78;fill-opacity:1;stroke:none;stroke-width:0.22273px;stroke-linecap:butt;stroke-linejoin:miter;stroke-opacity:1"
     d="m -494.90328,182.21323 c -1.54727,2.19862 -9.82209,6.00833 -5.2822,-0.57652 l 5.08011,-4.24284 3.31499,-1.40718 c 0,0 -7.27395,0.8424 -11.81422,-0.2681 l -8.15891,0.54058 c -5.64929,-3.13124 1.74166,-3.85261 1.74166,-3.85261 l 5.48977,-1.23886 11.62937,-0.72578 c 0,0 -5.45601,0.0825 -9.38381,-1.91916 l -6.18438,0.35281 c -3.67749,-0.37772 -9.55369,-3.52957 -2.80483,-3.87537 l 9.63495,-0.65184 7.38992,-0.19534 -8.01219,-0.74668 c -4.09944,0.0939 -7.64108,-3.43637 -2.18029,-3.73489 l 8.7556,-0.91172 10.84896,3.5981 7.97515,8.7743 5.31922,2.89946 14.30073,10.7921 0.095,8.10169 c 0,0 1.24435,9.25766 -5.75858,7.29376 l -12.26312,-12.19673 c -2.50961,0.31833 -6.90941,-4.69795 -6.90941,-4.69795 -1.66134,0.25965 -6.78581,-2.18542 -6.78581,-2.18542 z"
     id="path5279"
     sodipodi:nodetypes="ccccccccccccccccccccccccccc" />
  <path
     style="fill:#a2704b;fill-opacity:0.625986;stroke:none;stroke-width:0.445476px;stroke-linecap:butt;stroke-linejoin:miter;stroke-opacity:1"
     d="m -458.38703,182.85828 58.36513,12.64613 -17.98177,7.18149 -31.17884,-1.51775 z"
     id="path2923-7-6"
     sodipodi:nodetypes="ccccc" />
  <path
     style="fill:#f9bb78;fill-opacity:1;stroke:none;stroke-width:0.445476px;stroke-linecap:butt;stroke-linejoin:miter;stroke-opacity:1"
     d="m -379.35407,191.42398 -22.64309,2.10386 c 0,0 -10.87425,4.35898 -18.42697,3.90608 -7.55273,-0.45289 -24.17959,-6.63639 -24.4267,-9.34448 -0.19485,-6.502 2.26257,-22.55576 6.4607,-29.02118 l 11.02661,-13.59414 23.57812,-15.8817 c 0,0 35.6845,0.57942 40.78825,23.81805 5.10375,23.23862 -16.35692,38.01351 -16.35692,38.01351 z"
     id="path2109-6"
     sodipodi:nodetypes="cczcccczc" />
  <path
     style="fill:#a2704b;fill-opacity:1;stroke:none;stroke-width:0.445476px;stroke-linecap:butt;stroke-linejoin:miter;stroke-opacity:1"
     d="m -425.33344,182.49943 1.79846,3.7748 -2.95085,-0.42575 -0.30713,-1.83865 z"
     id="path2923-7"
     sodipodi:nodetypes="ccccc" />
  <path
     style="fill:#ec4b4b;fill-opacity:1;stroke:none;stroke-width:0.445476px;stroke-linecap:butt;stroke-linejoin:miter;stroke-opacity:1"
     d="m -433.33865,179.78607 c 0,4.35719 1.04372,7.83316 2.91086,9.96273 -3.22912,-1.15866 -5.19743,-2.31982 -5.19743,-4.28551 -0.13277,-2.3749 2.28657,-5.67722 2.28657,-5.67722 z"
     id="path2925-5"
     sodipodi:nodetypes="cccc" />
  <path
     style="fill:#5e2910;fill-opacity:1;stroke:none;stroke-width:0.445476px;stroke-linecap:butt;stroke-linejoin:miter;stroke-opacity:1"
     d="m -419.35802,148.55112 c 2.62969,0.13815 0.28907,7.15549 1.1737,9.79088 0.88462,2.63539 4.16604,7.32793 3.09107,8.07441 -2.34478,0.56278 -5.10367,-3.27163 -5.91769,-7.81275 -0.81402,-4.54112 1.65292,-10.05254 1.65292,-10.05254 z"
     id="path2927-3"
     sodipodi:nodetypes="czczc" />
  <path
     style="fill:#5e2910;fill-opacity:1;stroke:none;stroke-width:0.445476px;stroke-linecap:butt;stroke-linejoin:miter;stroke-opacity:1"
     d="m -409.03788,181.95284 c 3.5684,0 3.04982,5.5569 4.53775,7.39726 1.48792,1.84036 2.94516,0.80116 2.94516,2.3421 0,0 -3.41235,0.89181 -5.08288,-1.37937 -1.67054,-2.27119 -2.40003,-8.35999 -2.40003,-8.35999 z"
     id="path2929-5"
     sodipodi:nodetypes="czczc" />
  <path
     style="fill:#924019;fill-opacity:1;stroke:none;stroke-width:0.445476px;stroke-linecap:butt;stroke-linejoin:miter;stroke-opacity:1"
     d="m -392.67344,185.29112 c 0.6471,1.12494 -1.04535,7.93635 -2.21784,7.65751 0,0 0.64074,-4.56944 0.39492,-7.0379 -0.24582,-2.46847 -3.07862,-7.24722 -1.98355,-7.56602 2.26368,1.23756 3.15939,5.82148 3.80647,6.94641 z"
     id="path3933-6"
     sodipodi:nodetypes="zczcz" />
  <path
     style="fill:#924019;fill-opacity:1;stroke:none;stroke-width:0.445476px;stroke-linecap:butt;stroke-linejoin:miter;stroke-opacity:1"
     d="m -400.81292,163.13973 c 0,0 -0.96631,-6.24472 -2.53129,-9.56689 -1.56499,-3.32218 -7.05742,-9.83011 -7.05742,-9.83011 0.85873,-1.28241 7.60741,5.86163 9.13918,9.42133 1.53177,3.5597 1.84198,9.90085 0.44953,9.97567 z"
     id="path4519-2"
     sodipodi:nodetypes="czczc" />
  <path
     style="fill:#924019;fill-opacity:1;stroke:none;stroke-width:0.22273px;stroke-linecap:butt;stroke-linejoin:miter;stroke-opacity:1"
     d="m -376.81979,158.59837 c -11.62131,-17.23687 -28.93886,-21.02898 -28.93886,-21.02898 -7.84974,2.4557 -33.97055,23.33651 -33.97055,23.33651 0,0 2.27327,-27.18119 17.86839,-36.74574 15.59512,-9.56454 8.24897,-9.44304 35.64379,-10.64041 27.39483,-1.19736 42.5421,22.71327 37.68498,36.41914 z"
     id="path11171"
     sodipodi:nodetypes="ccczzcc" />
  <path
     style="fill:#f9bb78;fill-opacity:1;stroke:none;stroke-width:0.22273px;stroke-linecap:butt;stroke-linejoin:miter;stroke-opacity:1"
     d="m -409.76934,135.29853 1.88506,-16.0985 c 0,0 -2.57584,-0.29555 -5.2004,2.4117 -2.62456,2.70724 -6.71724,18.47644 -6.71724,18.47644 l 5.64856,-3.85225 z"
     id="path11491"
     sodipodi:nodetypes="cczccc" />
  <path
     style="fill:#924019;fill-opacity:1;stroke:none;stroke-width:0.22273px;stroke-linecap:butt;stroke-linejoin:miter;stroke-opacity:1"
     d="m -427.6942,141.517 c 0,0 -18.87547,-8.19301 -28.54278,-0.75109 0,0 -12.62197,13.63269 -13.24378,22.22015 -0.6218,8.58745 9.87563,23.82648 9.87563,23.82648 0,0 -14.92379,10.75705 -13.3362,20.71356 1.58758,9.95652 27.82543,22.6177 27.82543,22.6177 0,0 -0.75402,-5.32509 0,-9.37538 0,0 17.2794,3.17599 22.75852,0.57652 -6.10845,1.10022 -20.80892,-15.02322 -20.80892,-15.02322 0,0 5.23929,-7.38692 5.41311,-12.96358 0.17382,-5.57665 -6.3549,-18.35909 -6.3549,-18.35909 l 11.23256,-19.90087 z"
     id="path15519"
     sodipodi:nodetypes="cczczcccczccc" />
  <path
     style="fill:#924019;fill-opacity:1;stroke:none;stroke-width:0.22273px;stroke-linecap:butt;stroke-linejoin:miter;stroke-opacity:1"
     d="m -377.0413,156.97443 c -1.09583,24.91496 -19.78369,40.3912 -12.1301,49.36775 7.77387,-9.58409 11.13086,-7.44624 15.16649,-9.95328 0,0 14.27363,5.25355 14.26483,11.18449 15.88471,-8.20573 16.71368,-24.35695 14.40659,-40.64035 1.74319,2.60622 2.38497,4.47222 3.09641,8.52209 4.75334,-12.20606 -3.71919,-42.20596 -15.1234,-32.54598 z"
     id="path10129"
     sodipodi:nodetypes="cccccccc" />
</svg>
