<?xml version="1.0" encoding="UTF-8" standalone="no"?>
<svg
   width="600"
   height="800"
   version="1.1"
   viewBox="0 0 158.8 211.7"
   id="svg1509"
   sodipodi:docname="base.svg"
   inkscape:version="1.1.2 (1:1.1+202202050942+0a00cf5339)"
   xmlns:inkscape="http://www.inkscape.org/namespaces/inkscape"
   xmlns:sodipodi="http://sodipodi.sourceforge.net/DTD/sodipodi-0.dtd"
   xmlns="http://www.w3.org/2000/svg"
   xmlns:svg="http://www.w3.org/2000/svg"
   xmlns:rdf="http://www.w3.org/1999/02/22-rdf-syntax-ns#"
   xmlns:cc="http://creativecommons.org/ns#"
   xmlns:dc="http://purl.org/dc/elements/1.1/">
  <defs
     id="defs1513" />
  <sodipodi:namedview
     id="namedview1511"
     pagecolor="#ffffff"
     bordercolor="#999999"
     borderopacity="1"
     inkscape:pageshadow="0"
     inkscape:pageopacity="0"
     inkscape:pagecheckerboard="0"
     showgrid="false"
     inkscape:snap-global="false"
     inkscape:zoom="0.2246875"
     inkscape:cx="-1457.58"
     inkscape:cy="198.05285"
     inkscape:window-width="1920"
     inkscape:window-height="940"
     inkscape:window-x="0"
     inkscape:window-y="0"
     inkscape:window-maximized="1"
     inkscape:current-layer="svg1509" />
  <metadata
     id="metadata1449">
    <rdf:RDF>
      <cc:Work
         rdf:about="">
        <dc:format>image/svg+xml</dc:format>
        <dc:type
           rdf:resource="http://purl.org/dc/dcmitype/StillImage" />
      </cc:Work>
    </rdf:RDF>
  </metadata>
  <g
     fill="none"
     stroke-linecap="round"
     stroke-linejoin="round"
     id="g1467">
    <circle
       r="0"
       stroke="#c53822"
       stroke-width="2.257"
       style="paint-order:stroke markers fill"
       id="circle1453" />
    <g
       stroke="#924019"
       id="g1461">
      <circle
         r="0"
         stroke-width="1.288"
         style="paint-order:stroke markers fill"
         id="circle1455" />
      <circle
         transform="scale(1,-1)"
         r="0"
         stroke-width="3.595"
         style="paint-order:stroke markers fill"
         id="circle1457" />
      <circle
         transform="scale(1,-1)"
         r="0"
         stroke-width="3.595"
         style="paint-order:stroke markers fill"
         id="circle1459" />
    </g>
    <circle
       transform="scale(1,-1)"
       r="0"
       stroke="#4d4320"
       stroke-width="4.378"
       style="paint-order:stroke markers fill"
       id="circle1463" />
    <circle
       transform="scale(1,-1)"
       r="0"
       stroke="#4d4320"
       stroke-width="3.52"
       style="paint-order:stroke markers fill"
       id="circle1465" />
  </g>
  <path
     d="m -272.59761,32.684902 c -0.45963,0.135181 -0.69304,0.235879 -0.69304,0.235879 12.61437,13.147782 4.06986,52.51911 36.82819,79.475259 28.13909,23.15774 48.08482,39.84406 61.59906,47.88347 l 10.92209,-9.39892 15.42593,-12.24394 c -11.08671,-14.13383 -24.92377,-34.77153 -43.92644,-59.940208 -40.9372,-54.196702 -75.72139,-47.28138 -80.1532,-45.993835 z"
     fill="#78f991"
     fill-opacity="0.4179"
     stroke-width="0.317798"
     id="path1469"
     style="fill:#78ebf9;fill-opacity:0.4179" />
  <path
     d="m -283.19521,215.88721 c -0.009,0.47901 0.0163,0.7319 0.0163,0.7319 16.33493,-8.07195 51.30856,11.92692 86.87476,-11.19857 30.55356,-19.86377 52.46964,-33.86201 64.20396,-44.3297 l -5.67555,-13.24462 -7.03299,-18.39594 c -16.81543,6.31835 -40.66096,13.30186 -70.38218,23.84762 -64.00528,22.72577 -67.88055,57.97834 -67.98668,62.59217 z"
     fill="#78f991"
     fill-opacity="0.4179"
     stroke-width="0.317798"
     id="path1469-6"
     style="fill:#78ebf9;fill-opacity:0.4179" />
  <path
     d="M -15.157126,36.837598 C -19.032908,35.79581 -52.045464,24.653914 -86.508974,72.358423 -103.87446,96.401312 -114.71219,121.1541 -122.8504,133.99907 l 5.51254,3.58185 18.423692,10.76472 c 11.648025,-6.91492 28.602909,-20.02905 53.942884,-41.80763 27.881816,-23.954446 19.749554,-57.897179 30.437663,-69.524954 0,0 -0.203999,-0.08318 -0.604826,-0.191086 z"
     fill="#78f991"
     fill-opacity="0.4179"
     stroke-width="0.275358"
     id="path1471"
     style="fill:#78ebf9;fill-opacity:0.4179" />
  <path
     d="M 7.3083159,189.63632 C 6.4425799,185.71745 1.0804799,151.29044 -57.147808,142.7511 -86.492801,138.45085 -113.453,140.26847 -128.6045,138.98162 l -0.63143,6.54363 -1.04033,21.31266 c 11.51239,7.13844 30.974076,16.12128 61.993173,28.54046 34.122872,13.66898 60.4743359,-9.21865 75.7237059,-5.10799 0,0 -0.02043,-0.21936 -0.109814,-0.62471 z"
     fill="#78f991"
     fill-opacity="0.4179"
     stroke-width="0.275358"
     id="path1471-5"
     style="fill:#78ebf9;fill-opacity:0.4179"
     inkscape:transform-center-x="-2.3765705"
     inkscape:transform-center-y="-51.11352" />
  <path
     style="fill:#f9bb78;fill-opacity:1;stroke:none;stroke-width:0.264667px;stroke-linecap:butt;stroke-linejoin:miter;stroke-opacity:1"
     d="m -147.90426,84.206251 c 4.94874,13.269845 0.12527,29.565549 -2.75255,34.214959 l 33.96768,7.56464 c 0,0 -2.87293,-13.54804 -2.04001,-19.02874 z"
     id="path6751"
     sodipodi:nodetypes="ccccc" />
  <path
     style="fill:#bebebe;fill-opacity:1;stroke:none;stroke-width:0.264667px;stroke-linecap:butt;stroke-linejoin:miter;stroke-opacity:1"
     d="m -150.5348,109.98297 c 0,0 0.42588,4.62725 -6.8098,12.98027 -7.23568,8.35302 -28.32755,13.68143 -28.32755,13.68143 -21.88865,7.40684 -20.67018,42.54582 -23.66187,55.51796 -3.19993,7.55814 -9.05317,52.94598 -9.05317,52.94598 l 30.66689,-1.15015 c 4.08328,-11.56007 11.05739,-68.59585 20.97439,-67.76292 l 74.772824,6.25019 c 7.992491,1.98632 19.91534,48.21035 30.37244,63.44049 l 29.944592,-1.2022 c 0,0 -23.733452,-51.14512 -29.798179,-67.08292 -8.831922,-22.56866 -13.079508,-38.83995 -38.896897,-44.52889 l -16.99848,-10.09758 0.35139,-7.49794 c -5.37643,14.03176 -24.82105,2.52 -33.53658,-5.49372 z"
     id="path5519"
     sodipodi:nodetypes="czccccccccccccc" />
  <path
     style="fill:#5f624e;fill-opacity:1;stroke:none;stroke-width:0.264667px;stroke-linecap:butt;stroke-linejoin:miter;stroke-opacity:1"
     d="m -111.87989,126.04888 13.303604,23.97626 -14.582674,20.28788 -41.25414,-14.65426 -5.21066,-37.43277 -7.96484,8.28369 -15.08861,4.50462 13.24219,14.74373 -7.45727,10.94352 8.12426,11.71786 -7.82004,8.17795 2.35886,8.60092 -5.9476,18.29016 10.3547,39.13333 78.975307,1.675 5.943254,-17.72072 12.364961,-31.4632 -5.810009,-23.39102 0.0667,-14.70468 -7.387319,-10.97443 v -11.57309 l -12.481659,-4.90807 -13.297705,-8.32903 z"
     id="path20241"
     sodipodi:nodetypes="cccccccccccccccccccccccc" />
  <path
     style="fill:#924019;fill-opacity:1;stroke:none;stroke-width:0.271666px;stroke-linecap:butt;stroke-linejoin:miter;stroke-opacity:1"
     d="m -116.2532,-15.180245 c 48.069193,7.7790169 49.913031,41.930439 50.575632,64.013261 0.662601,22.082821 -41.378572,40.883685 -41.378572,40.883685 l -44.82966,18.005459 c 0,0 -24.28385,-27.830684 -34.0413,-62.600092 -9.75746,-34.769408 21.60471,-68.081329 69.6739,-60.302313 z"
     id="path30030"
     sodipodi:nodetypes="zzcczz" />
  <path
     style="fill:#764a35;fill-opacity:0.662428;stroke:none;stroke-width:0.271666px;stroke-linecap:butt;stroke-linejoin:miter;stroke-opacity:1"
     d="m -133.57669,112.07968 14.55351,-3.11176 -37.50071,-22.648939 4.48812,17.056489 z"
     id="path25627-3"
     sodipodi:nodetypes="ccccc" />
  <path
     style="fill:#f9bb78;fill-opacity:1;stroke:none;stroke-width:0.271666px;stroke-linecap:butt;stroke-linejoin:miter;stroke-opacity:1"
     d="m -78.214643,48.604085 -6.418232,17.218435 c 0,0 -1.948788,17.722444 -4.673547,23.742662 -2.72476,6.020219 -20.083288,22.370218 -27.561768,21.995338 -8.98811,-0.45056 -30.31824,-16.683963 -34.4514,-21.560488 -15.71838,-14.384541 -15.39003,-29.739553 -17.99946,-49.374248 0,0 5.75717,-45.3442061 52.48061,-43.6878372 46.723439,1.6563686 38.623797,51.6661382 38.623797,51.6661382 z"
     id="path1680"
     sodipodi:nodetypes="cczscczc" />
  <path
     id="path3107-3"
     style="fill:#c65722;fill-opacity:1;stroke:none;stroke-width:1.467;stop-color:#000000"
     d="m -122.49473,58.377265 c 0.0603,2.487362 -3.13102,6.809999 -7.16579,6.596824 -4.03477,-0.213176 -5.6733,-1.797365 -6.05806,-6.42255 -0.26646,-3.203287 2.72565,-5.248964 5.0594,-5.486185 3.90992,-0.397437 8.06204,1.0846 8.16445,5.311911 z"
     sodipodi:nodetypes="szsss" />
  <path
     style="fill:#924019;fill-opacity:1;stroke:none;stroke-width:0.271666px;stroke-linecap:butt;stroke-linejoin:miter;stroke-opacity:1"
     d="m -143.12359,44.515996 c 1.58941,-1.086009 11.54275,-5.585989 16.60034,-5.398311 5.0576,0.187679 11.40755,4.183891 10.73231,5.098245 -0.49741,0.990333 -5.88718,-1.902045 -10.66385,-1.92102 -4.77668,-0.01897 -16.6688,2.221086 -16.6688,2.221086 z"
     id="path4822"
     sodipodi:nodetypes="czczc" />
  <path
     d="m -122.52635,90.829155 c -0.76806,1.176 1.86065,1.858 2.7994,2.612 0,0 3.26508,3.028 6.95897,3.182 3.24401,-0.145 4.30498,-2.026 4.83915,-2.456 0.79883,-0.519 1.57301,-1.015 1.13366,-1.592 -0.66776,0.3915 -0.89723,0.2236 -1.69523,0.7433 0,0 -3.39256,0.5818 -4.26388,0.5393 -1.13999,-0.0556 -6.9948,-1.57 -6.9948,-1.57 -1.37072,-0.6232 -2.06714,-1.082 -2.77727,-1.459 z"
     color="#000000"
     color-rendering="auto"
     dominant-baseline="auto"
     fill="#ee5f5f"
     image-rendering="auto"
     solid-color="#000000"
     stop-color="#000000"
     style="font-variant-ligatures:normal;font-variant-position:normal;font-variant-caps:normal;font-variant-numeric:normal;font-variant-alternates:normal;font-variant-east-asian:normal;font-feature-settings:normal;font-variation-settings:normal;text-indent:0;text-decoration-line:none;text-decoration-style:solid;text-decoration-color:#000000;text-transform:none;text-orientation:mixed;white-space:normal;shape-padding:0;shape-margin:0;inline-size:0;isolation:auto;mix-blend-mode:normal;fill:#ec4b4b;fill-opacity:1;stroke:none;stroke-width:1.02645;shape-rendering:auto"
     id="path1505-5" />
  <path
     style="fill:#764a35;fill-opacity:0.662428;stroke:none;stroke-width:0.271666px;stroke-linecap:butt;stroke-linejoin:miter;stroke-opacity:1"
     d="m -109.64475,86.548519 3.11109,-1.859395 -8.02598,-1.808564 2.96539,2.988775 z"
     id="path25627"
     sodipodi:nodetypes="ccccc" />
  <path
     style="fill:#924019;fill-opacity:1;stroke:none;stroke-width:0.271666px;stroke-linecap:butt;stroke-linejoin:miter;stroke-opacity:1"
     d="m -104.41222,20.755894 c 0,0 27.160308,14.774768 27.742056,37.279717 2.279114,-5.320826 -0.352959,-27.910918 0.727906,-33.556165 1.080865,-5.645247 2.697311,-8.03 11.915178,-1.104778 C -68.266531,5.4627823 -86.26687,-8.4437291 -94.931939,-7.9398261 Z"
     id="path30028"
     sodipodi:nodetypes="ccsccc" />
  <path
     style="fill:#924019;fill-opacity:1;stroke:none;stroke-width:0.271666px;stroke-linecap:butt;stroke-linejoin:miter;stroke-opacity:1"
     d="m -96.009011,48.094878 c -0.246636,-1.366579 7.257301,-2.653648 10.682786,-1.543846 3.425486,1.109803 7.528473,4.913106 6.853858,5.729492 0,0 -4.328265,-3.251399 -7.429394,-4.067512 -3.10113,-0.816111 -9.972417,1.249388 -10.10725,-0.118134 z"
     id="path4820"
     sodipodi:nodetypes="czczc" />
  <path
     style="fill:#924019;fill-opacity:1;stroke:none;stroke-width:0.271666px;stroke-linecap:butt;stroke-linejoin:miter;stroke-opacity:1"
     d="m -100.27212,20.484418 c -12.48575,18.027886 -53.15361,33.427798 -53.15361,33.427798 l -21.87721,-3.84145 14.83211,-49.45935553 58.16744,-7.81990557 17.205166,17.9680691 z"
     id="path35382"
     sodipodi:nodetypes="ccccccc" />
  <path
     id="path3107"
     style="fill:#c65722;fill-opacity:1;stroke:none;stroke-width:1.467;stop-color:#000000"
     d="m -86.471388,63.683418 c 0,2.488019 -3.529765,6.754417 -5.876855,6.754418 -2.347091,0 -4.041976,-1.681757 -4.426732,-6.306942 -0.266473,-3.203287 2.725636,-5.248964 5.059381,-5.486185 3.909929,-0.397437 5.244206,2.550689 5.244206,5.038709 z"
     sodipodi:nodetypes="sssss" />
  <path
     style="fill:#5e2910;fill-opacity:1;stroke:none;stroke-width:0.298901px;stroke-linecap:butt;stroke-linejoin:miter;stroke-opacity:1"
     d="m -120.42921,58.390891 c 1.32634,-2.465694 -7.77486,-7.107844 -10.34813,-7.243412 -2.57328,-0.135569 -13.53966,3.910158 -13.15572,6.608383 0,0 10.16943,-3.862324 14.27968,-3.593578 4.11025,0.268746 7.75903,5.850381 9.22417,4.228607 z"
     id="path3736"
     sodipodi:nodetypes="czczc" />
  <path
     style="fill:#5e2910;fill-opacity:1;stroke:none;stroke-width:0.297682px;stroke-linecap:butt;stroke-linejoin:miter;stroke-opacity:1"
     d="m -98.420163,62.032139 c 0.289164,0.811776 6.458009,-3.125721 9.075793,-2.783882 2.617785,0.341837 3.966181,2.15604 5.214512,3.165345 0.665071,-1.043835 -1.480942,-4.599569 -4.665187,-5.288236 -3.184243,-0.688668 -10.495769,3.13056 -9.625118,4.906773 z"
     id="path2532"
     sodipodi:nodetypes="czczc" />
  <path
     style="fill:#924019;fill-opacity:1;stroke:none;stroke-width:0.271666px;stroke-linecap:butt;stroke-linejoin:miter;stroke-opacity:1"
     d="m -150.04354,46.675056 c 0,0 -4.56779,10.409108 -3.46741,20.282999 -5.04855,-3.817297 -9.62146,-21.946405 -9.62146,-21.946405 z"
     id="path43493"
     sodipodi:nodetypes="cccc" />
  <path
     style="fill:#924019;fill-opacity:1;stroke:none;stroke-width:0.264667px;stroke-linecap:butt;stroke-linejoin:miter;stroke-opacity:1"
     d="m -176.41478,56.898597 c 0,0 -7.8729,18.712549 -6.49994,29.656761 1.37296,10.944212 18.88069,33.417822 18.88069,33.417822 0,0 -7.35985,19.37832 -4.89668,32.94605 2.46317,13.56773 22.52105,29.6473 23.98886,43.21768 3.05181,-3.79492 4.71108,-9.30596 2.35521,-21.19457 3.81678,6.16804 8.19947,7.28514 11.97369,7.76368 -9.00705,-14.68849 -12.22056,-37.00981 -12.22056,-37.00981 0,0 4.42569,-12.84334 2.99172,-22.51332 -1.43397,-9.66998 -12.30552,-23.70783 -12.30552,-23.70783 0,0 5.39131,-12.531188 -4.30995,-28.141092 z"
     id="path38149"
     sodipodi:nodetypes="czczcccczccc" />
  <path
     d="m -159.38878,53.351348 c -0.13784,-4.38448 -33.46209,-14.18214 -33.46209,-14.18214 0.33462,9.27832 21.57148,20.07472 21.57148,20.07472 -0.38618,8.07982 7.55528,8.05985 10.83835,7.94999 z"
     fill="#f2c7b0"
     id="path72"
     style="fill:#f9bb78;fill-opacity:1;stroke:none;stroke-width:1.02516" />
  <path
     style="fill:#3c3e31;fill-opacity:1;stroke:#282828;stroke-width:0.264667px;stroke-linecap:butt;stroke-linejoin:miter;stroke-opacity:1"
     d="m -171.45388,236.563 2.47112,8.27393 83.328184,-0.34975 0.727179,-15.43187 -21.553533,-14.58757 -31.10451,15.12603 z"
     id="path45042"
     sodipodi:nodetypes="ccccccc" />
</svg>
