<?xml version="1.0" encoding="UTF-8" standalone="no"?>
<svg
   width="600"
   height="800"
   version="1.1"
   viewBox="0 0 159 212"
   id="svg1099"
   sodipodi:docname="cheer.svg"
   inkscape:version="1.1.2 (1:1.1+202202050942+0a00cf5339)"
   xmlns:inkscape="http://www.inkscape.org/namespaces/inkscape"
   xmlns:sodipodi="http://sodipodi.sourceforge.net/DTD/sodipodi-0.dtd"
   xmlns="http://www.w3.org/2000/svg"
   xmlns:svg="http://www.w3.org/2000/svg"
   xmlns:rdf="http://www.w3.org/1999/02/22-rdf-syntax-ns#"
   xmlns:cc="http://creativecommons.org/ns#"
   xmlns:dc="http://purl.org/dc/elements/1.1/">
  <defs
     id="defs1103" />
  <sodipodi:namedview
     id="namedview1101"
     pagecolor="#ffffff"
     bordercolor="#999999"
     borderopacity="1"
     inkscape:pageshadow="0"
     inkscape:pageopacity="0"
     inkscape:pagecheckerboard="0"
     showgrid="false"
     inkscape:snap-global="false"
     inkscape:zoom="0.89875"
     inkscape:cx="299.86092"
     inkscape:cy="400"
     inkscape:window-width="1920"
     inkscape:window-height="940"
     inkscape:window-x="0"
     inkscape:window-y="0"
     inkscape:window-maximized="1"
     inkscape:current-layer="svg1099" />
  <metadata
     id="metadata1029">
    <rdf:RDF>
      <cc:Work
         rdf:about="">
        <dc:format>image/svg+xml</dc:format>
        <dc:type
           rdf:resource="http://purl.org/dc/dcmitype/StillImage" />
      </cc:Work>
    </rdf:RDF>
  </metadata>
  <g
     fill="none"
     stroke-linecap="round"
     stroke-linejoin="round"
     id="g1045">
    <circle
       r="0"
       stroke="#c53822"
       stroke-width="2.26"
       style="paint-order:stroke markers fill"
       id="circle1031" />
    <g
       stroke="#924019"
       id="g1039">
      <circle
         r="0"
         stroke-width="1.29"
         style="paint-order:stroke markers fill"
         id="circle1033" />
      <circle
         transform="scale(1,-1)"
         r="0"
         stroke-width="3.6"
         style="paint-order:stroke markers fill"
         id="circle1035" />
      <circle
         transform="scale(1,-1)"
         r="0"
         stroke-width="3.6"
         style="paint-order:stroke markers fill"
         id="circle1037" />
    </g>
    <circle
       transform="scale(1,-1)"
       r="0"
       stroke="#4d4320"
       stroke-width="4.38"
       style="paint-order:stroke markers fill"
       id="circle1041" />
    <circle
       transform="scale(1,-1)"
       r="0"
       stroke="#4d4320"
       stroke-width="3.52"
       style="paint-order:stroke markers fill"
       id="circle1043" />
  </g>
  <path
     transform="matrix(.265 0 0 .265 0 -.0167)"
     d="m600 230c-38.2 21.1-80.5 56.9-123 116-67.1 93-109 189-140 238l21.3 13.8 71.2 41.6c39.1-23.2 93.7-64.5 171-130v-280z"
     fill="#78ebf9"
     fill-opacity=".418"
     stroke-width="1.27"
     id="path1047" />
  <path
     d="m85.2 1.05c49.7 3.6 54.6 38.2 57.3 60.7 2.66 22.4-38.5 45.4-38.5 45.4l-44.1 22.4s-27.3-26.2-40.3-60.7c-13.1-34.6 15.9-71.3 65.6-67.7z"
     fill="#924019"
     id="path1049" />
  <g
     fill="#78ebf9"
     fill-opacity=".418"
     stroke-width="1.27"
     id="g1057">
    <path
       transform="matrix(.265 0 0 .265 0 -.0167)"
       d="m0 294v292c56.5 45.9 101 80.4 135 100l42.2-36.3 59.6-47.3c-42.9-54.6-96.4-134-170-232-22.9-30.3-45.3-55.7-67-76.9z"
       id="path1051" />
    <path
       transform="matrix(.265 0 0 .265 0 -.0167)"
       d="m251 568c-61 22.9-146 48.2-251 84.9v148h146c69.7-45.7 122-81.5 154-110l-21.9-51.2-27.2-71.1z"
       id="path1053" />
    <path
       transform="matrix(.265 0 0 .265 0 -.0167)"
       d="m314 604-2.44 25.3-4.02 82.4c37.2 23.1 96.4 51.3 185 87.9h108v-180c-3.28-0.539-6.6-1.06-9.97-1.56-113-16.6-218-9.6-276-14.6z"
       id="path1055" />
  </g>
  <g
     id="g1065">
    <path
       d="m63.3 104c5.06 13.6 0.128 30.3-2.82 35l34.8 7.74s-2.94-13.9-2.09-19.5z"
       fill="#f9bb78"
       id="path1059" />
    <path
       transform="matrix(.265 0 0 .265 0 -.0167)"
       d="m229 492s1.65 17.9-26.3 50.2c-28 32.3-110 52.9-110 52.9-79.5 26.9-80.2 149-89.5 205h130c9.88-31.2 20.9-52.8 33.1-51.8l289 24.2c6.91 1.72 14.6 12 22.8 27.6h114c-7.97-18.5-14.7-34.8-19.1-46.3-34.1-87.3-50.6-150-150-172l-65.7-39 1.36-29c-20.8 54.2-96 9.74-130-21.2z"
       fill="#bebebe"
       id="path1061" />
    <path
       transform="matrix(.265 0 0 .265 0 -.0167)"
       d="m194 524-30.8 32-58.3 17.4 51.2 57-28.8 42.3 31.4 45.3-30.2 31.6 9.12 33.3-5.52 17h393l-17.2-69.1 0.256-56.8-28.6-42.4v-44.7l-48.3-19-51.4-32.2-1.67 18.6 51.4 92.7-56.4 78.4-159-56.7-20.1-145z"
       fill="#5f624e"
       id="path1063" />
  </g>
  <path
     d="m79 132 14.6-4.48-40.3-19.7 6.11 17z"
     fill="#764a35"
     fill-opacity=".662"
     id="path1067" />
  <path
     d="m130 62.6-4.99 18.1s-0.391 18.2-2.63 24.6c-2.24 6.38-18.4 25.8-26 26.1-9.2 0.35-32.5-15.4-37.2-20-17.3-13.2-18.4-28.9-22.8-48.7 0 0 1.79-46.7 49.6-49.3 47.8-2.52 44 49.2 44 49.2z"
     fill="#f9bb78"
     id="path1069" />
  <path
     d="m63.2 64.3c1.52-1.25 11.3-6.73 16.4-7 5.17-0.264 12 3.24 11.4 4.23-0.418 1.05-6.17-1.41-11-0.998-4.87 0.411-16.8 3.76-16.8 3.76z"
     fill="#924019"
     id="path1071" />
  <path
     d="m102 102 2.64-2.61-8.42 0.157 3.67 2.25z"
     fill="#764a35"
     fill-opacity=".662"
     id="path1073" />
  <g
     fill="#924019"
     id="g1081">
    <path
       d="m101 36.6s29 12.6 31.6 35.5c1.84-5.63-2.87-28.4-2.28-34.3 0.593-5.85 2.03-8.43 12-2.2-5.93-17.9-25.5-30.4-34.3-29.1z"
       id="path1075" />
    <path
       d="m112 63.7c-0.374-1.37 7.16-3.36 10.7-2.54 3.59 0.823 8.12 4.33 7.5 5.22 0 0-4.7-2.92-7.94-3.48-3.23-0.553-10.1 2.17-10.3 0.79z"
       id="path1077" />
    <path
       d="m105 36c-11.1 19.5-51.2 38.9-51.2 38.9l-22.6-1.95 10.7-51.7 58.6-13.2 19.2 16.8z"
       id="path1079" />
  </g>
  <path
     d="m 88,81.2 c 1.13,-2.63 -8.71,-8.79 -11.3,-8.69 -2.64,0.0935 -13.3,7.45 -12.7,10.2 0,0 9.57,-5.02 13.8,-5.11 4.21,-0.0962 8.88,5.43 10.2,3.64 z"
     fill="#5e2910"
     id="path1083" />
  <path
     d="m 109,81.8 c 0.368,0.801 6.24,-4.43 8.94,-4.32 2.7,0.113 4.29,2.51 5.66,3.42 1.03,-2.38 -2.07,-6.55 -5.38,-6.97 -3.31,-0.415 -10.3,6.13 -9.22,7.87 z"
     fill="#5e2910"
     id="path1085" />
  <path
     d="m 61.52355,70.612613 c 0,0 -3.72,11 -1.71,21 -5.49,-3.44 -11.8,-21.5 -11.8,-21.5 z"
     fill="#924019"
     id="path1087" />
  <path
     d="m 94.3,118 c -5.16,0.03 -8.64,-5.24 -8.66,-9.09 7.41,1.26 16.6,0.61 20.8,-0.451 -3.44,4.8 -5.32,9.5 -12.1,9.54 z"
     fill="#f57d9d"
     style="paint-order:stroke markers fill"
     id="path1093" />
  <path
     d="m 85.6,109 c 0.0056,0.991 0.241,2.08 0.676,3.14 0.655,-2.32 3.46,-2 10.2,-1.89 3.78,0.0627 5.95,1.15 7.12,2.43 0.917,-1.29 1.8,-2.71 2.83,-4.13 -4.14,1.06 -13.4,1.71 -20.8,0.451 z"
     fill="#ef2e61"
     style="paint-order:stroke markers fill"
     id="path1095" />
  <path
     d="m 33.618559,88.715781 c 0,0 -7.578559,6.284219 -6.168559,17.484219 1.4,11.2 19.3,34.2 19.3,34.2 0,0 -10,14.5 -7.5,28.4 2.52,13.9 20.5,34.8 3.32,37.3 10.7,4.32 24.4,-2.02 21.9,-14.2 3.91,6.31 15.6,11 19.5,11.4 -9.22,-15 -15.5,-36.7 -15.5,-36.7 0,0 4.53,-13.1 3.06,-23 -1.47,-9.89 -12.6,-24.3 -12.6,-24.3 0,0 5.52,-12.8 -4.41,-28.8 z"
     fill="#924019"
     id="path1089"
     sodipodi:nodetypes="cccccccccccc" />
  <path
     d="M 47.4,74.8 C 46.865,70.34 12,63.4 12,63.4 c 1.18,9.43 23.8,18.5 23.8,18.5 0.334,8.27 8.43,7.53 11.8,7.13 z"
     fill="#f9bb78"
     id="path1091" />
</svg>
