<?xml version="1.0" encoding="UTF-8"?>
<svg width="600" height="800" version="1.1" viewBox="0 0 159 212" xmlns="http://www.w3.org/2000/svg" xmlns:cc="http://creativecommons.org/ns#" xmlns:dc="http://purl.org/dc/elements/1.1/" xmlns:rdf="http://www.w3.org/1999/02/22-rdf-syntax-ns#">
 <metadata>
  <rdf:RDF>
   <cc:Work rdf:about="">
    <dc:format>image/svg+xml</dc:format>
    <dc:type rdf:resource="http://purl.org/dc/dcmitype/StillImage"/>
   </cc:Work>
  </rdf:RDF>
 </metadata>
 <g fill="none" stroke-linecap="round" stroke-linejoin="round">
  <circle r="0" stroke="#c53822" stroke-width="2.26" style="paint-order:stroke markers fill"/>
  <g stroke="#924019">
   <circle r="0" stroke-width="1.29" style="paint-order:stroke markers fill"/>
   <circle transform="scale(1,-1)" r="0" stroke-width="3.6" style="paint-order:stroke markers fill"/>
   <circle transform="scale(1,-1)" r="0" stroke-width="3.6" style="paint-order:stroke markers fill"/>
  </g>
  <circle transform="scale(1,-1)" r="0" stroke="#4d4320" stroke-width="4.38" style="paint-order:stroke markers fill"/>
  <circle transform="scale(1,-1)" r="0" stroke="#4d4320" stroke-width="3.52" style="paint-order:stroke markers fill"/>
 </g>
 <path transform="matrix(.265 0 0 .265 0 -.0167)" d="m360 484-8.9 18-26.1 59.6c25.1 32.8 70.8 79.5 146 149 19.6 18.1 92.9 54.2 129 69.2v-181c-12-8.63-25.3-17.2-40.4-25.6-79-44.1-158-68.1-200-88.2z" fill="#78ebf9" fill-opacity=".418"/>
 <path d="m74.1 4.65c39.3 0.859 44.6 27.9 47.6 45.5 2.99 17.6-28.5 37.3-28.5 37.3l-33.8 19.4s-22.5-19.5-34.2-46.2c-11.7-26.7 9.68-56.8 49-56z" fill="#924019"/>
 <g fill="#78ebf9" fill-opacity=".418">
  <path transform="matrix(.265 0 0 .265 0 -.0167)" d="m174 480c-38.2 39.2-95 89.4-163 157-3.63 3.59-7.1 7.14-10.5 10.7v153h54.4c61.2-83.1 181-216 195-249l-32.8-29.2-43.2-41.7z"/>
  <path d="m65.2 121c-13.6 5.1-32.8 10.7-56.8 19.2-2.97 1.06-5.77 2.14-8.43 3.26v47.5c7.64-1.03 15.6-3.52 23.7-8.75 24.7-16 42.3-27.3 51.8-35.8l-4.58-10.7z" stroke-width=".265"/>
  <path transform="matrix(.265 0 0 .265 0 -.0167)" d="m323 487-4.6 19.5-11.9 64c31.8 26.3 86.9 61.4 176 112 41.7 23.7 81.8 26.5 118 23.5v-154c-17.8-8.67-38.4-16.7-62.3-23.6-86.9-25.1-169-30.6-214-40.8z"/>
 </g>
 <g>
  <path d="m62.7 84.2c3.99 10.7 0.101 23.9-2.22 27.6l27.4 6.1s-2.32-10.9-1.65-15.4z" fill="#f9bb78"/>
  <path transform="matrix(.265 0 0 .265 0 -.0167)" d="m229 397s1.3 14.1-20.8 39.6c-22.1 25.5-89.3 48.9-89.3 48.9-66.7 22.6-63.2 129-69.2 162-5.85 32.6-0.951 127-3.54 153h88.8c3.85-52 15.9-204 44.6-201l228 19.1c22.7 5.63 3.92 127 34.1 181h94.6c-2.27-20.6-18.5-151-35.7-196-26.9-68.8-39.9-118-119-136l-51.8-30.8 1.07-22.9c-16.4 42.8-75.7 7.68-102-16.7z" fill="#bebebe"/>
  <path d="m91.8 118 10.7 19.3-11.8 16.4-33.3-11.8-4.2-30.2-6.43 6.68-12.4 6.87 11 8.67-6.02 8.83 6.56 9.46-6.31 6.6 1.9 6.94-4.8 14.8 5.7 29.1 65.6-2.28 1.09-6.68 13.4-21.6-3.61-24.2 0.0538-11.9-5.96-8.86v-9.34l-10.1-3.96-10.7-6.72z" fill="#5f624e"/>
 </g>
 <path d="m74.4 108 11.3-4.11-32.5-13.9 5.49 13.1z" fill="#764a35" fill-opacity=".662"/>
 <g>
  <path d="m111 50.8-3.21 14.5s0.418 14.4-1.09 19.5c-1.51 5.11-13.6 20.1-19.6 20.7-7.23 0.642-26.1-9.95-29.9-13.4-14.2-9.74-15.6-22.1-19.9-37.5 0 0-0.453-36.9 37.1-40.8 37.5-3.88 36.6 37 36.6 37z" fill="#f9bb78"/>
  <path d="m78.3 64.9c1.06 1.7-0.626 6.25-4.54 6.41-3.91 0.161-5.06 1.24-6.15-2.35-0.751-2.48 1.38-3.31 3.19-3.89 3.02-0.974 7.04-0.911 7.5-0.174z" fill="#c65722" stop-color="#000000"/>
  <path d="m58 64.7c0.983-1.2 8.42-5.2 12.4-6.21 2.92-0.743 5.99-1.5 7.84-1.05 0.174-1.53 1.11-0.76 0.88 0.801-0.159 0.88-4.61 0.749-8.31 1.82-3.7 1.07-12.8 4.64-12.8 4.64z" fill="#924019"/>
  <path d="m84.8 94c1.48-1.91 4.13-2 5.07-2.16 0.934-0.167 2.78 1.54 2.78 1.54 0.218-0.399 0.185-0.613 0.141-0.999 0 0-2.34-1.76-2.82-1.7-0.635 0.0826-3.95 0.966-3.95 0.966l-1.26 1.05z" color="#000000" color-rendering="auto" dominant-baseline="auto" fill="#ec4b4b" image-rendering="auto" shape-rendering="auto" solid-color="#000000" stop-color="#000000" style="font-feature-settings:normal;font-variant-alternates:normal;font-variant-caps:normal;font-variant-east-asian:normal;font-variant-ligatures:normal;font-variant-numeric:normal;font-variant-position:normal;font-variation-settings:normal;inline-size:0;isolation:auto;mix-blend-mode:normal;shape-margin:0;shape-padding:0;text-decoration-color:#000000;text-decoration-line:none;text-decoration-style:solid;text-indent:0;text-orientation:mixed;text-transform:none;white-space:normal"/>
 </g>
 <path d="m90.7 85.2 2.28-1.83-6.62-0.551 2.7 2.06z" fill="#764a35" fill-opacity=".662"/>
 <g fill="#924019">
  <path d="m87.6 32s23.4 8.78 26.3 26.7c1.23-4.51-3.39-22.3-3.16-26.9 0.235-4.63 1.26-6.72 9.4-2.21-5.38-13.8-21.3-22.9-28.2-21.6z"/>
  <path d="m95 56.1c-0.357-1.06 5.64-1.05 8.5-0.567 2.86 0.486 6.43 1.13 5.99 1.86 0 0-4.04-0.513-6.61-0.802-2.57-0.289-7.61 0.585-7.88-0.491z"/>
  <path d="m90.9 31.4c-7.97 15.8-38.8 32.6-38.8 32.6l-17.9-0.631 6.34-41.2 45.6-12.7 15.8 12.4z"/>
 </g>
 <g>
  <path d="m107 64.4c0.277 1.99-2.12 3.5-4 3.76-1.88 0.262-3.36 1.4-4.19-2.25-0.57-2.53 1.87-3.28 3.71-3.73 3.08-0.753 4.2 0.236 4.48 2.22z" fill="#c65722" stop-color="#000000"/>
  <path d="m79.8 66.2c0.63-2.17-6.35-2.24-8.41-1.92-2.05 0.327-11 3.32-10.2 5.38 0 0 7.85-2.95 11.1-3.44 3.29-0.482 6.63 1.5 7.51-0.0307z" fill="#5e2910"/>
  <path d="m97 64.4c0.322 0.617 5.08-1.73 7.21-1.75 2.13-0.0186 3.14-0.207 4.25 0.46 0.415-0.908-1.36-1.45-3.94-1.79-2.58-0.339-8.42 1.76-7.52 3.08z" fill="#5e2910"/>
  <path d="m54 57.8s-2.49 8.83-0.51 16.6c-4.46-2.49-10.1-16.5-10.1-16.5z" fill="#924019"/>
  <path d="m35.5 66.7s-6.35 15.1-5.24 23.9c1.11 8.83 15.2 27 15.2 27s-5.94 15.6-3.95 26.6c1.99 10.9 18.2 23.9 19.4 34.9 2.46-3.06 3.8-7.51 1.9-17.1 3.08 4.98 6.62 5.88 9.66 6.26-7.27-11.9-9.86-29.9-9.86-29.9s3.57-10.4 2.41-18.2c-1.16-7.8-9.93-19.1-9.93-19.1s4.35-10.1-3.48-22.7z" fill="#924019"/>
  <path d="m47.3 64.2c-0.599-3.49-28.3-7.6-28.3-7.6 1.3 7.38 19.5 13.6 19.5 13.6 0.592 6.5 6.94 5.6 9.55 5.15z" fill="#f9bb78"/>
  <path d="m96.2 189-25 10.9-30.8 3.72 1.32 7.59 67.3 0.0176-2.54-9.63z" fill="#3c3e31"/>
 </g>
</svg>
