<?xml version="1.0" encoding="UTF-8"?>
<svg width="600" height="800" version="1.1" viewBox="0 0 159 212" xmlns="http://www.w3.org/2000/svg" xmlns:cc="http://creativecommons.org/ns#" xmlns:dc="http://purl.org/dc/elements/1.1/" xmlns:rdf="http://www.w3.org/1999/02/22-rdf-syntax-ns#">
 <metadata>
  <rdf:RDF>
   <cc:Work rdf:about="">
    <dc:format>image/svg+xml</dc:format>
    <dc:type rdf:resource="http://purl.org/dc/dcmitype/StillImage"/>
   </cc:Work>
  </rdf:RDF>
 </metadata>
 <path transform="matrix(.265 0 0 .265 0 -.0167)" d="m600 168c-41.4 0.734-108 19.6-176 114-52.9 73.3-86 149-111 188l16.8 10.9 56.2 32.8c35.5-21.1 87.2-61.1 164-127 23.8-20.4 38.9-43.2 49.2-66.2v-152z" fill="#78ebf9" fill-opacity=".418"/>
 <path d="m88.3 4.01c38.8 6.28 40.3 33.8 40.8 51.7 0.535 17.8-33.4 33-33.4 33l-36.2 14.5s-19.6-22.5-27.5-50.5c-7.87-28.1 17.4-54.9 56.2-48.7z" fill="#924019"/>
 <g fill="none" stroke-linecap="round" stroke-linejoin="round">
  <circle r="0" stroke="#c53822" stroke-width="2.26" style="paint-order:stroke markers fill"/>
  <g stroke="#924019">
   <circle r="0" stroke-width="1.29" style="paint-order:stroke markers fill"/>
   <circle transform="scale(1,-1)" r="0" stroke-width="3.6" style="paint-order:stroke markers fill"/>
   <circle transform="scale(1,-1)" r="0" stroke-width="3.6" style="paint-order:stroke markers fill"/>
  </g>
  <circle transform="scale(1,-1)" r="0" stroke="#4d4320" stroke-width="4.38" style="paint-order:stroke markers fill"/>
  <circle transform="scale(1,-1)" r="0" stroke="#4d4320" stroke-width="3.52" style="paint-order:stroke markers fill"/>
 </g>
 <g fill="#78ebf9" fill-opacity=".418">
  <path transform="matrix(.265 0 0 .265 0 -.0167)" d="m0 200v231c68.1 56.1 119 97.7 155 119l33.3-28.7 47-37.3c-33.8-43.1-76-106-134-183-35.9-47.5-70.2-79.6-101-101z"/>
  <path transform="matrix(.265 0 0 .265 0 -.0167)" d="m246 456c-51.3 19.3-124 40.6-215 72.7-11.2 3.99-21.8 8.1-31.9 12.3v180c28.9-3.89 59.1-13.3 89.4-33.1 93.1-60.6 160-103 196-135l-17.3-40.4-21.4-56.1z"/>
  <path transform="matrix(.265 0 0 .265 0 -.0167)" d="m296 485-1.92 20-3.17 65c35.1 21.8 94.4 49.1 189 87 44.7 17.9 85.1 15.2 120 7.32v-145c-23.4-9.76-51.8-17.8-86.3-22.9-89.5-13.1-172-7.57-218-11.5z"/>
 </g>
 <g>
  <path d="m62.7 84.2c3.99 10.7 0.101 23.9-2.22 27.6l27.4 6.1s-2.32-10.9-1.65-15.4z" fill="#f9bb78"/>
  <path transform="matrix(.265 0 0 .265 0 -.0167)" d="m229 397s1.3 14.1-20.8 39.6c-22.1 25.5-86.4 41.7-86.4 41.7-66.7 22.6-63 130-72.1 169-8.78 20.7-23.4 130-26.4 153h94c12.6-44.5 33.4-204 62.3-201l228 19.1c22.7 5.63 55.7 128 85.8 182h94.6c-9.34-20.2-70.3-152-87.4-197-26.9-68.8-39.9-118-119-136l-51.8-30.8 1.07-22.9c-16.4 42.8-75.7 7.68-102-16.7z" fill="#bebebe"/>
  <path d="m91.8 118 10.7 19.3-11.8 16.4-33.3-11.8-4.2-30.2-6.43 6.68-12.2 3.63 10.7 11.9-6.02 8.83 6.56 9.46-6.31 6.6 1.9 6.94-4.8 14.8 9 29.1 62.3-2.28 5.58-8.2 9.98-25.4-4.69-18.9 0.0538-11.9-5.96-8.86v-9.34l-10.1-3.96-10.7-6.72z" fill="#5f624e"/>
 </g>
 <path d="m74.3 107 11.7-2.51-30.3-18.3 3.62 13.8z" fill="#764a35" fill-opacity=".662"/>
 <g>
  <path d="m119 55.5-5.18 13.9s-1.57 14.3-3.77 19.2-16.2 18.1-22.2 17.7c-7.25-0.364-24.5-13.5-27.8-17.4-12.7-11.6-12.4-24-14.5-39.8 0 0 4.65-36.6 42.3-35.3 37.7 1.34 31.2 41.7 31.2 41.7z" fill="#f9bb78"/>
  <path d="m83.2 63.4c0.0487 2.01-2.53 5.49-5.78 5.32-3.26-0.172-4.58-1.45-4.89-5.18-0.215-2.58 2.2-4.24 4.08-4.43 3.15-0.321 6.51 0.875 6.59 4.29z" fill="#c65722" stop-color="#000000"/>
  <path d="m66.6 52.2c1.28-0.876 9.31-4.51 13.4-4.36 4.08 0.151 9.2 3.38 8.66 4.11-0.401 0.799-4.75-1.53-8.6-1.55-3.85-0.0153-13.5 1.79-13.5 1.79z" fill="#924019"/>
  <path d="m83.2 89.6c-0.62 0.949 1.5 1.5 2.26 2.11 0 0 2.63 2.44 5.62 2.57 2.62-0.117 3.47-1.63 3.9-1.98 0.645-0.419 1.27-0.819 0.915-1.28-0.539 0.316-0.724 0.18-1.37 0.6 0 0-2.74 0.469-3.44 0.435-0.92-0.0449-5.64-1.27-5.64-1.27-1.11-0.503-1.67-0.873-2.24-1.18z" color="#000000" color-rendering="auto" dominant-baseline="auto" fill="#ec4b4b" image-rendering="auto" shape-rendering="auto" solid-color="#000000" stop-color="#000000" style="font-feature-settings:normal;font-variant-alternates:normal;font-variant-caps:normal;font-variant-east-asian:normal;font-variant-ligatures:normal;font-variant-numeric:normal;font-variant-position:normal;font-variation-settings:normal;inline-size:0;isolation:auto;mix-blend-mode:normal;shape-margin:0;shape-padding:0;text-decoration-color:#000000;text-decoration-line:none;text-decoration-style:solid;text-indent:0;text-orientation:mixed;text-transform:none;white-space:normal"/>
 </g>
 <path d="m93.6 86.1 2.51-1.5-6.48-1.46 2.39 2.41z" fill="#764a35" fill-opacity=".662"/>
 <g fill="#924019">
  <path d="m97.8 33s21.9 11.9 22.4 30.1c1.84-4.29-0.285-22.5 0.587-27.1 0.872-4.56 2.18-6.48 9.61-0.891-3.42-14.5-17.9-25.7-24.9-25.3z"/>
  <path d="m105 55.1c-0.199-1.1 5.86-2.14 8.62-1.25 2.76 0.896 6.07 3.96 5.53 4.62 0 0-3.49-2.62-5.99-3.28-2.5-0.659-8.05 1.01-8.16-0.0953z"/>
  <path d="m101 32.8c-10.1 14.5-42.9 27-42.9 27l-17.7-3.1 12-39.9 46.9-6.31 13.9 14.5z"/>
 </g>
 <g>
  <path d="m112 67.7c0 2.01-2.85 5.45-4.74 5.45-1.89 0-3.26-1.36-3.57-5.09-0.215-2.58 2.2-4.24 4.08-4.43 3.15-0.321 4.23 2.06 4.23 4.07z" fill="#c65722" stop-color="#000000"/>
  <path d="m84.9 63.4c1.07-1.99-6.27-5.74-8.35-5.84-2.08-0.109-10.9 3.16-10.6 5.33 0 0 8.21-3.12 11.5-2.9 3.32 0.217 6.26 4.72 7.44 3.41z" fill="#5e2910"/>
  <path d="m103 66.3c0.233 0.655 5.21-2.52 7.32-2.25 2.11 0.276 3.2 1.74 4.21 2.55 0.537-0.842-1.19-3.71-3.76-4.27-2.57-0.556-8.47 2.53-7.77 3.96z" fill="#5e2910"/>
  <path d="m61 53.9s-3.69 8.4-2.8 16.4c-4.07-3.08-7.76-17.7-7.76-17.7z" fill="#924019"/>
  <path d="m39.7 62.2s-6.35 15.1-5.24 23.9c1.11 8.83 15.2 27 15.2 27s-5.94 15.6-3.95 26.6c1.99 10.9 18.2 23.9 19.4 34.9 2.46-3.06 3.8-7.51 1.9-17.1 3.08 4.98 6.62 5.88 9.66 6.26-7.27-11.9-9.86-29.9-9.86-29.9s3.57-10.4 2.41-18.2c-1.16-7.8-9.93-19.1-9.93-19.1s4.35-10.1-3.48-22.7z" fill="#924019"/>
  <path d="m53.5 59.3c-0.111-3.54-27-11.4-27-11.4 0.27 7.49 17.4 16.2 17.4 16.2-0.312 6.52 6.1 6.5 8.75 6.41z" fill="#f9bb78"/>
  <path transform="matrix(.265 0 0 .265 0 -.0167)" d="m363 715-94.8 46.1-103 21.2 4.82 16.1h257l1.84-39-65.7-44.5z" fill="#3c3e31" stroke="#282828" stroke-width=".807px"/>
 </g>
 <rect x="-529" y="25.6" width="51.6" height="175" fill="#78ebf9" fill-opacity=".418" stop-color="#000000" stroke="#282828" stroke-width="1.31"/>
</svg>
