<?xml version="1.0" encoding="UTF-8"?>
<svg width="600" height="800" version="1.1" viewBox="0 0 159 212" xmlns="http://www.w3.org/2000/svg" xmlns:cc="http://creativecommons.org/ns#" xmlns:dc="http://purl.org/dc/elements/1.1/" xmlns:rdf="http://www.w3.org/1999/02/22-rdf-syntax-ns#">
 <metadata>
  <rdf:RDF>
   <cc:Work rdf:about="">
    <dc:format>image/svg+xml</dc:format>
    <dc:type rdf:resource="http://purl.org/dc/dcmitype/StillImage"/>
   </cc:Work>
  </rdf:RDF>
 </metadata>
 <g fill="none" stroke-linecap="round" stroke-linejoin="round">
  <circle r="0" stroke="#c53822" stroke-width="2.26" style="paint-order:stroke markers fill"/>
  <g stroke="#924019">
   <circle r="0" stroke-width="1.29" style="paint-order:stroke markers fill"/>
   <circle transform="scale(1,-1)" r="0" stroke-width="3.6" style="paint-order:stroke markers fill"/>
   <circle transform="scale(1,-1)" r="0" stroke-width="3.6" style="paint-order:stroke markers fill"/>
  </g>
  <circle transform="scale(1,-1)" r="0" stroke="#4d4320" stroke-width="4.38" style="paint-order:stroke markers fill"/>
  <circle transform="scale(1,-1)" r="0" stroke="#4d4320" stroke-width="3.52" style="paint-order:stroke markers fill"/>
 </g>
 <g transform="translate(.296)" fill="#78ebf9" fill-opacity=".418" stroke-width=".265">
  <path d="m-0.296 51.5c11 0.194 28.5 5.18 46.5 30.1 14 19.4 22.8 39.4 29.3 49.7l-4.45 2.89-14.9 8.69c-9.4-5.58-23.1-16.2-43.5-33.7-6.29-5.4-10.3-11.4-13-17.5z"/>
  <path d="m159 60v61.1c-18 14.8-31.6 25.9-41 31.5l-8.81-7.58-12.4-9.88c8.95-11.4 20.1-28.1 35.4-48.4 9.5-12.6 18.6-21.1 26.8-26.8z"/>
  <path d="m93.3 128c13.6 5.1 32.8 10.7 56.8 19.2 2.97 1.06 5.77 2.14 8.43 3.26v47.5c-7.64-1.03-15.6-3.52-23.7-8.75-24.7-16-42.3-27.3-51.8-35.8l4.58-10.7z"/>
  <path d="m80.2 135 0.509 5.28 0.839 17.2c-9.29 5.76-25 13-50 23-11.8 4.74-22.5 4.03-31.8 1.94v-38.3c6.2-2.58 13.7-4.71 22.8-6.05 23.7-3.47 45.4-2 57.7-3.04z"/>
 </g>
 <g>
  <path d="m79.4 4.71c-35.5 5.59-36.8 30.1-37.3 46-0.489 15.9 30.5 29.4 30.5 29.4l33.1 12.9s24.6-13.7 31.8-38.6c7.2-25-22.6-55.2-58.1-49.6z" fill="#924019"/>
  <path d="m85.5 98.8-1.94 14.8 28.1-5.17c-4.56-7.67-7.78-25.5-7.78-25.5-2.53 2.2-17.6 17.5-18.4 15.9z" fill="#f9bb78"/>
  <path d="m120 64.8s-14.8 26-13.5 36.5c1.31 10.4 5.12 23.9 5.12 23.9s-8.89 15.4-5.64 22.2 25.3 37.5 26.7 50.4c2.91-3.62 4.49-8.87 2.25-20.2 3.64 5.88 7.82 6.95 11.4 7.4-8.59-14-18.4-42.5-18.4-42.5s5.04-6.19 3.68-15.4c-1.37-9.22-9.39-21.1-9.39-21.1s19.1-11.4 9.85-26.2z" fill="#924019"/>
  <path transform="matrix(.265 0 0 .265 0 -.0167)" d="m415 381c-58.1 27-68.2 43.6-106 17.5l6.37 28.5-74.6 18.6s-49.4 7.19-91.5 54.1c0 0-9.38 0.746-61.3 55.8 11.4-56.8 10.1-69.1 10.1-69.1-36.9-20.4-70.8-19-84.1-4.86 0 0-4.85 3.72-2.4 11.7 1.76 5.69-1.65 8.23-3.4 14.2-2.47 8.38-5.32 16.7-8.24 24.9v183c22.1 9.17 82-26.5 82-26.5s46-46.5 117-111l284 4.37 20.2 218h88.3l-11-149s11.4-162-64.3-182c0 0-61.1-29.9-82.7-57.7-21.6-27.8-18.1-30-18.1-30z" fill="#bebebe"/>
 </g>
 <path d="m92.7 112-9.37-0.987 26.8-27.9-4.28 16.3z" fill="#764a35" fill-opacity=".662"/>
 <g>
  <path d="m49.5 43.8 8.02 26.2s1.8 19.1 4.45 21.3c2.65 2.14 15.4 15.7 22.3 16.2 6.91 0.541 26-17 28.5-21.4 2.51-4.43 11.4-34.5 11.4-34.5s-2.47-43.4-39.4-41.9c-36.9 1.56-35.4 34.1-35.4 34.1z" fill="#f9bb78"/>
  <path transform="matrix(.265 0 0 .265 0 -.0167)" d="m435 402-2.73 8.45-18.6 78.1-89.3 37.7-32.7-36.3 11.9-59.8c-4.4-5.24-13.2-15.7-13.2-15.7l-41.4 22.2-34.1 4.55-10.5 36.4 10.8 28.3-20 27.2 11.3 31.4-29.3 104 45.8 111 6.6 21.3h245l23.9-66.3 3.37-149-19.4-42.4 15.7-18.8-19.4-35.4 31.4-36.2-40.2-15.9-34.7-34.4z" fill="#5f624e"/>
  <path d="m89.6 68.6c-0.048 2.37 3.08 6.49 7.05 6.29 3.97-0.203 5.58-1.71 5.96-6.12 0.262-3.05-2.35-0.711-4.65-0.937-3.84-0.379-8.32-0.987-8.36 0.771z" fill="#c65722" stop-color="#000000"/>
  <path d="m110 61.1c-1.56-1.04-11.3-5.33-16.3-5.15-4.97 0.179-11.2 3.99-10.6 4.86 0.489 0.944 5.79-1.81 10.5-1.83 4.7-0.0181 16.4 2.12 16.4 2.12z" fill="#924019"/>
  <path d="m66.6 61c0.324-1.56-3.57-2.73-5.73-2.31-2.16 0.412-5.43 1.5-5.14 2.65 0 0 3.11-0.739 5.04-0.888 1.93-0.149 5.57 2.14 5.83 0.553z" fill="#924019"/>
  <path d="m86.4 68.4c-1.3-2.35 4.5-1.51 9.88-1.67 5.38-0.159 13.6-1.51 13.2 1.07 0 0-9.65 1.46-13.7 1.72-4.04 0.256-7.98 0.433-9.42-1.11z" fill="#5e2910"/>
 </g>
 <path d="m58.5 72.3c0.0076-0.794 1.76-2.83 4.54-2.66 2.78 0.175 8.39 2.2 8.28 3.48-0.031 1.35-5.2-0.601-7.61-0.838-2.42-0.237-4.93 1.02-5.21 0.0153z" fill="#662f14" fill-opacity=".988"/>
 <g>
  <path d="m73.8 31.2s11.2 20.4 20.6 27.6c9.42 7.13 33.9 13.3 33.9 13.3s13.3-56.9-31.6-64.4c-26.5-2.6-22.8 23.5-22.8 23.5z" fill="#924019"/>
  <path d="m77.8 34.9s-15.5 10.9-19.6 17.6c-4.18 6.72-3.53 14-3.53 14s-9.66-17.6-8.95-35.6c-2.25 0.864-2.68 0.0651-6.87 5.35-1.56-14.7 33.3-29.6 33.3-29.6 26.7-0.832 5.69 28.3 5.69 28.3z" fill="#924019"/>
  <path d="m5.23 128s4.68-17.8 6.93-25.9c0.54-1.95 1.46-9.2 3.23-11.5 3.76-4.89 11.9-19.1 11.9-19.1 5.78-6.62 14.3-4.47 17.3-5.13 3.53 0.457 3.26 1.28 6.79 0.347l8.69 5.47-3.23 8.04-8.29 4.43 9.5-3.67 0.261 6.09s-9.17 7.17-15.2 10.4c-6.04 3.28-11.3 2.17-11.3 2.17l-7.26 30.3s-13.9 3.26-19.3-1.88z" fill="#f9bb78"/>
  <path d="m126 207-1.9 6.37-64.2-0.269-0.56-11.9 16.6-11.2 23.9 11.6z" fill="#3c3e31"/>
 </g>
 <path d="m31.3 91.1c-2.07-4.68-3.84-6.13-2.24-16.8l26.6-0.337-2 9.58s-19.5 3.05-22.3 7.55z" fill="#764a35" fill-opacity=".317"/>
 <g fill="#f8ba78">
  <path d="m39.5 67.9s8.51 4.66 8.85 7.09c0.339 2.42-4.36 8.66-5.66 9.46-1.3 0.793-6.75 0-6.75 0-0.613-3.48 4.66-4.03 4.66-4.03s0.396-3.29 2.18-4.42c-4.18-0.298-14.5-5.51-8.03-9.37 1.53-0.811 4.75 1.29 4.75 1.29z"/>
  <path d="m46.1 67s9.55 5.32 9.89 7.74c0.34 2.42-5.4 8.01-6.7 8.8-1.3 0.793-6.75 0-6.75 0-0.613-3.48 5.02-3.68 5.02-3.68s0.691-3 2.48-4.13c-4.18-0.298-15.2-6.15-8.68-10 1.53-0.811 4.75 1.29 4.75 1.29z"/>
  <path d="m53.6 68s6.73 3.27 7.07 5.69c0.339 2.42-1.21 9.9-2.9 9.97-1.69 0.0658-7.74 0.886-7.74 0.886-0.613-3.48 4.66-4.03 4.66-4.03s0.396-3.29 2.18-4.42c-4.18-0.298-14.5-5.51-8.03-9.37 1.53-0.811 4.75 1.29 4.75 1.29z"/>
  <path d="m33.7 70.4s7.82 4.29 8.13 6.51c0.312 2.22-4 7.96-5.2 8.69-1.2 0.729-6.2 0-6.2 0-0.563-3.2 4.28-3.7 4.28-3.7s0.364-3.02 2.01-4.06c-3.84-0.274-13.3-5.06-7.38-8.61 1.41-0.745 4.36 1.18 4.36 1.18z"/>
 </g>
 <path d="m78 97.3c-0.248-1.46 0.985-1.95 2.72-2.19 1.73-0.232 6.8 0.225 6.77 1.68 0.0809 1.73-4.35 1.59-4.35 1.59s-5.04 0.13-5.13-1.08z" fill="#ec4b4b"/>
 <path d="m75.6 88.1-2.37-1.42 6.11-1.38-2.26 2.28z" fill="#764a35" fill-opacity=".662"/>
 <path d="m114 66.4c0.105-3.34 25.5-10.8 25.5-10.8-0.255 7.06-16.4 15.3-16.4 15.3 0.294 6.15-5.75 6.14-8.25 6.05z" fill="#f9bb78"/>
</svg>
