<?xml version="1.0" encoding="UTF-8"?>
<svg width="600" height="800" version="1.1" viewBox="0 0 159 212" xmlns="http://www.w3.org/2000/svg" xmlns:cc="http://creativecommons.org/ns#" xmlns:dc="http://purl.org/dc/elements/1.1/" xmlns:rdf="http://www.w3.org/1999/02/22-rdf-syntax-ns#">
 <metadata>
  <rdf:RDF>
   <cc:Work rdf:about="">
    <dc:format>image/svg+xml</dc:format>
    <dc:type rdf:resource="http://purl.org/dc/dcmitype/StillImage"/>
   </cc:Work>
  </rdf:RDF>
 </metadata>
 <g fill="none" stroke-linecap="round" stroke-linejoin="round">
  <circle r="0" stroke="#c53822" stroke-width="2.26" style="paint-order:stroke markers fill"/>
  <g stroke="#924019">
   <circle r="0" stroke-width="1.29" style="paint-order:stroke markers fill"/>
   <circle transform="scale(1,-1)" r="0" stroke-width="3.6" style="paint-order:stroke markers fill"/>
   <circle transform="scale(1,-1)" r="0" stroke-width="3.6" style="paint-order:stroke markers fill"/>
  </g>
  <circle transform="scale(1,-1)" r="0" stroke="#4d4320" stroke-width="4.38" style="paint-order:stroke markers fill"/>
  <circle transform="scale(1,-1)" r="0" stroke="#4d4320" stroke-width="3.52" style="paint-order:stroke markers fill"/>
 </g>
 <g transform="matrix(.594 0 0 .594 46.2 84.7)">
  <path d="m178-11.9c-3.96-1.36-37.7-16-73 46.5-17.8 31.5-28.9 63.9-37.2 80.7l5.64 4.69 18.8 14.1c11.9-9.05 29.3-26.2 55.2-54.7 28.5-31.4 20.2-75.8 31.1-91 0 0-0.209-0.109-0.619-0.25z" fill="#78ebf9" fill-opacity=".418" stroke-width=".319"/>
  <path d="m-76.6-5.29c-0.473 0.148-0.714 0.259-0.714 0.259 13 14.4 4.19 57.7 37.9 87.2 29 25.4 49.5 43.7 63.4 52.6l11.2-10.3 22.5-4.55c-11.4-15.5-32.3-47.1-51.9-74.7-42.2-59.5-78-51.9-82.5-50.5z" fill="#78ebf9" fill-opacity=".418" stroke-width=".338"/>
  <g>
   <path d="m2.07 191 1.33-59.2 38.1-23.8 33.9 8.11 53.7 62.8z" fill="#5f624e"/>
   <path d="m64.3 209 53.2-2.68 23.3 4.79 13.9 0.182-0.706-4.32-30.3-7.42-61.3-13.3z" fill="#f9bb78"/>
   <path d="m86.6 192-35.2-10.4s-10.5-1.96-14.3-4.51c-3.87-2.54-7.98-7.91-7.98-7.91l-16.5-8.01s1.11-2.01 3.42-2.72 10.1 0.797 10.1 0.797l18.9-1.89 15.9 8.15 29.5 5.84z" fill="#e8aa68"/>
   <path d="m84.2 168c8.55 12.4-2.51 22.2-2.51 22.2-2.4 7.87 2.41 5.21 2.41 5.21l5.33-0.751 2.59 3.99 5.38-2.5 53.9 13.6s17.2-4.22 19.2-12.6c1.95-8.39-16.5-25.8-16.5-25.8s-62.9 0.176-69.8-3.31z" fill="#bebebe"/>
  </g>
  <path d="m-55 87.5c-0.326 0.237-0.483 0.383-0.483 0.383 13.7 6.86 18.1 40.5 51.6 52.6 28.8 10.4 49.4 18 62.4 20.6l6-10.5 8.77-14.1c-12.8-8.07-29.6-20.5-51.8-35.1-47.8-31.4-73.4-16.1-76.5-13.8z" fill="#78ebf9" fill-opacity=".418" stroke-width=".267"/>
  <path d="m188 64.8c-2.82-1.86-26.2-19.5-66.4 9.43-20.2 14.6-35.5 31.5-45.4 39.6l3.45 4.32 11.9 13.5c11.1-2.43 28.2-8.41 54.2-19.1 28.6-11.7 31.1-41 42.8-47.4 0 0-0.141-0.121-0.432-0.313z" fill="#78ebf9" fill-opacity=".418" stroke-width=".232"/>
  <g>
   <path d="m43.8 114-27.4-0.398c-34.5 11.3-28.9 34.7-40.1 68.1l3.48 26.2c4.36 7.76 68.4 4.93 68.4 4.93l10.5-0.323 1.79-1.57 2.49 0.747c6.5 1.34 11-18.2-0.201-25.8l-49.4-2.76 1.39-4.09-4.92-1.76 3.25-23.5 48.4 5.21-1.8-41.6z" fill="#bebebe"/>
   <path d="m12 107 1.83 7.31 0.986 21.9-2.05 5.98 11 6.46 25.3 11.2-1.83-38.7-5.92-12.3-10.3 2.75-10.5-0.809z" fill="#5f624e"/>
   <path d="m13.1 158c-1.55 2.2-9.82 6.01-5.28-0.577l5.08-4.24 3.31-1.41s-7.27 0.842-11.8-0.268l-8.16 0.541c-5.65-3.13 1.74-3.85 1.74-3.85l5.49-1.24 11.6-0.726s-5.46 0.0825-9.38-1.92l-6.18 0.353c-3.68-0.378-9.55-3.53-2.8-3.88l9.63-0.652 7.39-0.195-8.01-0.747c-4.1 0.0939-7.64-3.44-2.18-3.73l8.76-0.912 10.8 3.6 7.98 8.77 5.32 2.9 14.3 10.8 0.095 8.1s1.24 9.26-5.76 7.29l-12.3-12.2c-2.51 0.318-6.91-4.7-6.91-4.7-1.66 0.26-6.79-2.19-6.79-2.19z" fill="#f9bb78"/>
  </g>
  <path d="m49.6 158 58.4 12.6-18 7.18-31.2-1.52z" fill="#a2704b" fill-opacity=".626"/>
  <g>
   <path d="m129 167-22.6 2.1s-10.9 4.36-18.4 3.91c-7.55-0.453-24.2-6.64-24.4-9.34-0.195-6.5 2.26-22.6 6.46-29l11-13.6 23.6-15.9s35.7 0.579 40.8 23.8c5.1 23.2-16.4 38-16.4 38z" fill="#f9bb78"/>
   <path d="m82.7 158 1.8 3.77-2.95-0.426-0.307-1.84z" fill="#a2704b"/>
   <path d="m74.6 155c0 4.36 1.04 7.83 2.91 9.96-3.23-1.16-5.2-2.32-5.2-4.29-0.133-2.37 2.29-5.68 2.29-5.68z" fill="#ec4b4b"/>
   <path d="m88.6 124c2.63 0.138 0.289 7.16 1.17 9.79 0.885 2.64 4.17 7.33 3.09 8.07-2.34 0.563-5.1-3.27-5.92-7.81-0.814-4.54 1.65-10.1 1.65-10.1z" fill="#5e2910"/>
   <path d="m98.9 158c3.57 0 3.05 5.56 4.54 7.4 1.49 1.84 2.95 0.801 2.95 2.34 0 0-3.41 0.892-5.08-1.38-1.67-2.27-2.4-8.36-2.4-8.36z" fill="#5e2910"/>
  </g>
  <g fill="#924019">
   <path d="m115 161c0.647 1.12-1.05 7.94-2.22 7.66 0 0 0.641-4.57 0.395-7.04-0.246-2.47-3.08-7.25-1.98-7.57 2.26 1.24 3.16 5.82 3.81 6.95z"/>
   <path d="m107 139s-0.966-6.24-2.53-9.57c-1.56-3.32-7.06-9.83-7.06-9.83 0.859-1.28 7.61 5.86 9.14 9.42s1.84 9.9 0.45 9.98z"/>
   <path d="m131 134c-11.6-17.2-28.9-21-28.9-21-7.85 2.46-34 23.3-34 23.3s2.27-27.2 17.9-36.7c15.6-9.56 8.25-9.44 35.6-10.6 27.4-1.2 42.5 22.7 37.7 36.4z"/>
  </g>
  <g>
   <path d="m98.2 111 1.89-16.1s-2.58-0.296-5.2 2.41c-2.62 2.71-6.72 18.5-6.72 18.5l5.65-3.85z" fill="#f9bb78"/>
   <path d="m80.3 117s-18.9-8.19-28.5-0.751c0 0-12.6 13.6-13.2 22.2-0.622 8.59 9.88 23.8 9.88 23.8s-14.9 10.8-13.3 20.7c1.59 9.96 27.8 22.6 27.8 22.6s-0.754-5.33 0-9.38c0 0 17.3 3.18 22.8 0.577-6.11 1.1-20.8-15-20.8-15s5.24-7.39 5.41-13c0.174-5.58-6.35-18.4-6.35-18.4l11.2-19.9z" fill="#924019"/>
   <path d="m131 133c-1.1 24.9-19.8 40.4-12.1 49.4 7.77-9.58 11.1-7.45 15.2-9.95 0 0 14.3 5.25 14.3 11.2 15.9-8.21 16.7-24.4 14.4-40.6 1.74 2.61 2.38 4.47 3.1 8.52 4.75-12.2-3.72-42.2-15.1-32.5z" fill="#924019"/>
  </g>
 </g>
</svg>
