<?xml version="1.0" encoding="UTF-8" standalone="no"?>
<svg
   width="600"
   height="800"
   version="1.1"
   viewBox="0 0 159 212"
   id="svg1099"
   sodipodi:docname="talking.svg"
   inkscape:version="1.1.2 (1:1.1+202202050942+0a00cf5339)"
   xmlns:inkscape="http://www.inkscape.org/namespaces/inkscape"
   xmlns:sodipodi="http://sodipodi.sourceforge.net/DTD/sodipodi-0.dtd"
   xmlns="http://www.w3.org/2000/svg"
   xmlns:svg="http://www.w3.org/2000/svg"
   xmlns:rdf="http://www.w3.org/1999/02/22-rdf-syntax-ns#"
   xmlns:cc="http://creativecommons.org/ns#"
   xmlns:dc="http://purl.org/dc/elements/1.1/">
  <defs
     id="defs1103" />
  <sodipodi:namedview
     id="namedview1101"
     pagecolor="#ffffff"
     bordercolor="#999999"
     borderopacity="1"
     inkscape:pageshadow="0"
     inkscape:pageopacity="0"
     inkscape:pagecheckerboard="0"
     showgrid="false"
     inkscape:snap-global="false"
     inkscape:zoom="0.31775611"
     inkscape:cx="-476.78076"
     inkscape:cy="196.69173"
     inkscape:window-width="1920"
     inkscape:window-height="940"
     inkscape:window-x="0"
     inkscape:window-y="0"
     inkscape:window-maximized="1"
     inkscape:current-layer="svg1099" />
  <metadata
     id="metadata1029">
    <rdf:RDF>
      <cc:Work
         rdf:about="">
        <dc:format>image/svg+xml</dc:format>
        <dc:type
           rdf:resource="http://purl.org/dc/dcmitype/StillImage" />
      </cc:Work>
    </rdf:RDF>
  </metadata>
  <g
     fill="none"
     stroke-linecap="round"
     stroke-linejoin="round"
     id="g1045">
    <circle
       r="0"
       stroke="#c53822"
       stroke-width="2.26"
       style="paint-order:stroke markers fill"
       id="circle1031" />
    <g
       stroke="#924019"
       id="g1039">
      <circle
         r="0"
         stroke-width="1.29"
         style="paint-order:stroke markers fill"
         id="circle1033" />
      <circle
         transform="scale(1,-1)"
         r="0"
         stroke-width="3.6"
         style="paint-order:stroke markers fill"
         id="circle1035" />
      <circle
         transform="scale(1,-1)"
         r="0"
         stroke-width="3.6"
         style="paint-order:stroke markers fill"
         id="circle1037" />
    </g>
    <circle
       transform="scale(1,-1)"
       r="0"
       stroke="#4d4320"
       stroke-width="4.38"
       style="paint-order:stroke markers fill"
       id="circle1041" />
    <circle
       transform="scale(1,-1)"
       r="0"
       stroke="#4d4320"
       stroke-width="3.52"
       style="paint-order:stroke markers fill"
       id="circle1043" />
  </g>
  <path
     transform="matrix(.265 0 0 .265 0 -.0167)"
     d="m600 230c-38.2 21.1-80.5 56.9-123 116-67.1 93-109 189-140 238l21.3 13.8 71.2 41.6c39.1-23.2 93.7-64.5 171-130v-280z"
     fill="#78ebf9"
     fill-opacity=".418"
     stroke-width="1.27"
     id="path1047" />
  <path
     d="m 87.911372,1.434351 c 49.507438,5.6624687 52.965198,40.436222 54.727738,63.028996 1.72674,22.491198 -40.3536,43.760673 -40.3536,43.760673 l -44.99286,20.54781 c 0,0 -26.187515,-27.31198 -37.74243,-62.322459 C 7.8995478,31.334818 38.399778,-4.1282042 87.907216,1.5342646 Z"
     fill="#924019"
     id="path1049" />
  <g
     fill="#78ebf9"
     fill-opacity=".418"
     stroke-width="1.27"
     id="g1057">
    <path
       transform="matrix(.265 0 0 .265 0 -.0167)"
       d="m0 294v292c56.5 45.9 101 80.4 135 100l42.2-36.3 59.6-47.3c-42.9-54.6-96.4-134-170-232-22.9-30.3-45.3-55.7-67-76.9z"
       id="path1051" />
    <path
       transform="matrix(.265 0 0 .265 0 -.0167)"
       d="m251 568c-61 22.9-146 48.2-251 84.9v148h146c69.7-45.7 122-81.5 154-110l-21.9-51.2-27.2-71.1z"
       id="path1053" />
    <path
       transform="matrix(.265 0 0 .265 0 -.0167)"
       d="m314 604-2.44 25.3-4.02 82.4c37.2 23.1 96.4 51.3 185 87.9h108v-180c-3.28-0.539-6.6-1.06-9.97-1.56-113-16.6-218-9.6-276-14.6z"
       id="path1055" />
  </g>
  <path
     d="m 63.3,104 c 5.06,13.6 0.128,30.3 -2.82,35 l 34.8,7.74 c 0,0 -2.94,-13.9 -2.09,-19.5 z"
     fill="#f9bb78"
     id="path1059" />
  <path
     d="m 60.685,130.3633 c 0,0 0.43725,4.7435 -6.9695,13.303 -7.42,8.5595 -29.15,14.0185 -29.15,14.0185 -21.0675,7.1285 -21.253,39.485 -23.7175,54.325 h 34.45 c 2.6182,-8.268 5.5385,-13.992 8.7715,-13.727 l 92.2859,8.24146 6.44077,5.51364 16.26401,-0.0344 -0.067,-14.47947 c -3.20257,-3.9822 -8.70495,-11.18128 -9.87095,-14.22878 -3.99563,0.25996 -2.68305,1.17313 -1.67032,-3.28999 -4.76694,-13.37985 -17.19818,-21.82596 -35.35689,-25.84499 l -17.4105,-10.335 0.3604,-7.685 c -5.512,14.363 -25.44,2.5811 -34.45,-5.618 z"
     fill="#bebebe"
     id="path1061"
     style="fill:#c9c9c9;fill-opacity:1;stroke-width:0.265"
     sodipodi:nodetypes="ccccccccccccccccc" />
  <path
     d="m 51.41,138.8433 -8.162,8.48 -15.4495,4.611 13.568,15.105 -7.632,11.2095 8.321,12.0045 -8.003,8.374 2.4168,8.8245 -1.4628,4.505 h 104.145 l -4.558,-18.3115 0.0678,-15.052 -7.579,-11.236 v -11.8455 l -12.7995,-5.035 -13.621,-8.533 -0.44255,4.929 13.621,24.5655 -14.946,20.776 -42.135,-15.0255 -5.3265,-38.425 z"
     fill="#5f624e"
     id="path1063"
     style="stroke-width:0.265" />
  <path
     d="m 76.274323,132.01353 14.773578,-3.86934 -39.446429,-21.35789 5.398185,17.23925 z"
     fill="#764a35"
     fill-opacity="0.662"
     id="path1067" />
  <path
     d="m 130.11459,64.793101 -5.73794,17.876971 c 0,0 -1.14708,18.168028 -3.65013,24.469438 -2.50323,6.28139 -19.45638,25.01299 -27.062278,24.99687 -9.206597,-0.0327 -31.83188,-16.73743 -36.336639,-21.52879 -16.736447,-13.9076 -17.18299,-29.639752 -20.756282,-49.605512 0,0 3.72935,-46.585256 51.6061,-47.19598 47.863429,-0.531209 41.917179,50.986171 41.917179,50.986171 z"
     fill="#f9bb78"
     id="path1069" />
  <path
     d="m 63.301651,63.71536 c 1.570638,-1.185747 11.569941,-6.254546 16.676756,-6.312352 5.176505,-0.0489 11.854974,3.735932 11.214348,4.70014 -0.461278,1.03172 -6.106068,-1.665213 -10.949018,-1.454308 -4.882874,0.208243 -16.941754,3.058527 -16.941754,3.058527 z"
     fill="#924019"
     id="path1071" />
  <path
     d="m 100.50128,102.99535 2.74619,-2.49802 -8.419248,-0.19308 3.573316,2.40058 z"
     fill="#764a35"
     fill-opacity="0.662"
     id="path1073" />
  <g
     fill="#924019"
     id="g1081"
     transform="rotate(2.3819532,77.311795,66.452446)">
    <path
       d="m 101,36.6 c 0,0 29,12.6 31.6,35.5 1.84,-5.63 -2.87,-28.4 -2.28,-34.3 0.593,-5.85 2.03,-8.43 12,-2.2 -5.93,-17.9 -25.5,-30.4 -34.3,-29.1 z"
       id="path1075" />
    <path
       d="m 112,63.7 c -0.374,-1.37 7.16,-3.36 10.7,-2.54 3.59,0.823 8.12,4.33 7.5,5.22 0,0 -4.7,-2.92 -7.94,-3.48 -3.23,-0.553 -10.1,2.17 -10.3,0.79 z"
       id="path1077" />
    <path
       d="M 105,36 C 93.9,55.5 53.8,74.9 53.8,74.9 l -22.6,-1.95 10.7,-51.7 58.6,-13.2 19.2,16.8 z"
       id="path1079" />
  </g>
  <path
     d="m 61.364291,69.952844 c 0,0 -4.173956,10.835889 -2.581302,20.910786 C 53.440702,87.198433 47.886745,68.891788 47.886745,68.891788 Z"
     fill="#924019"
     id="path1087" />
  <path
     d="m 92.142956,118.66151 c -5.156788,-0.18448 -8.414755,-5.59456 -8.274728,-9.44207 7.351231,1.56688 16.560302,1.29939 20.800772,0.41386 -3.63652,4.65288 -5.710232,9.27069 -12.486037,9.02887 z"
     fill="#f57d9d"
     style="paint-order:stroke markers fill"
     id="path1093" />
  <path
     d="m 83.824522,109.3077 c -0.03559,0.99038 0.154345,2.08822 0.544914,3.16539 0.750856,-2.29078 3.540133,-1.85448 10.269738,-1.46445 3.774128,0.21975 5.897066,1.39629 7.012856,2.72381 0.96982,-1.25077 1.91107,-2.63284 2.9992,-4.00881 -4.18048,0.88702 -13.459491,1.15161 -20.800772,-0.41386 z"
     fill="#ef2e61"
     style="paint-order:stroke markers fill"
     id="path1095" />
  <path
     d="m 33.618559,88.715781 c 0,0 -7.578559,6.284219 -6.168559,17.484219 1.4,11.2 19.3,34.2 19.3,34.2 0,0 -10,14.5 -7.5,28.4 2.52,13.9 20.5,34.8 3.32,37.3 10.7,4.32 24.4,-2.02 21.9,-14.2 3.91,6.31 15.6,11 19.5,11.4 -9.22,-15 -15.5,-36.7 -15.5,-36.7 0,0 4.53,-13.1 3.06,-23 -1.47,-9.89 -12.6,-24.3 -12.6,-24.3 0,0 5.52,-12.8 -4.41,-28.8 z"
     fill="#924019"
     id="path1089"
     sodipodi:nodetypes="cccccccccccc" />
  <path
     d="M 47.078912,73.549625 C 46.729736,69.071243 12.183294,60.688217 12.183294,60.688217 c 0.787061,9.470894 23.010558,19.473166 23.010558,19.473166 -0.01,8.276736 8.109763,7.873853 11.493475,7.614259 z"
     fill="#f9bb78"
     id="path1091" />
  <path
     id="path5712"
     style="fill:#f9bb78;fill-opacity:1;stroke:none;stroke-width:0.799309px;stroke-linecap:butt;stroke-linejoin:miter;stroke-opacity:1"
     d="M 55.910156 429.1582 C 50.672213 428.77712 50.507243 442.10114 51.587891 445.66797 L 44.365234 496.61523 L 62.751953 545.56055 C 62.751953 545.56055 57.920506 594.79492 62.824219 620.9082 C 67.727977 647.02149 95.550781 695.44141 95.550781 695.44141 C 84.197152 724.82904 67.574206 789.52068 64.904297 800 L 132.59766 800 L 150.41797 721.94727 C 159.75799 716.91685 162.25977 670.07422 162.25977 670.07422 C 166.51895 646.52358 169.81234 656.01812 170.79492 629.43359 C 171.77747 602.84907 165.61328 575.44141 165.61328 575.44141 C 161.94815 548.0485 170.20793 541.45458 171.74219 506.78711 C 169.69098 480.26583 149.04045 474.10885 147.62305 499.31836 C 147.62305 499.31836 130.45696 563.76044 122.74805 559.24414 C 122.74805 559.24414 88.781584 511.06557 73.367188 498.625 L 68.90625 466.94727 L 68.867188 444.41016 C 62.788671 433.31718 58.653841 429.35782 55.910156 429.1582 z "
     transform="scale(0.265)" />
  <path
     style="fill:#f8ac5a;fill-opacity:1;stroke:none;stroke-width:0.211817px;stroke-linecap:butt;stroke-linejoin:miter;stroke-opacity:1"
     d="m 16.043412,159.03926 -0.06027,-21.31707 12.998771,-11.44291 c 8.948477,-7.46258 9.146411,-4.42867 6.477512,1.96231 l -5.289912,4.83512 -7.450617,9.7485 1.198654,10.85417 c 0,0 -3.23557,11.30896 -7.87414,5.35988 z"
     id="path9073"
     sodipodi:nodetypes="cccccccc" />
  <path
     style="fill:#f8ac5a;fill-opacity:1;stroke:none;stroke-width:0.211817px;stroke-linecap:butt;stroke-linejoin:miter;stroke-opacity:1"
     d="m 16.829631,163.38001 0.418423,-16.8387 12.599211,-11.1681 c 2.518836,-2.07647 7.360398,-4.10139 3.478585,4.40749 l -10.053685,9.53538 1.698552,12.97897 c 0,0 -2.467101,9.7963 -4.944861,9.74436 -1.080194,-0.0226 -2.631912,-6.05263 -3.196225,-8.6594 z"
     id="path8639"
     sodipodi:nodetypes="ccccccsc" />
  <path
     style="fill:#f8ac5a;fill-opacity:1;stroke:none;stroke-width:0.211817px;stroke-linecap:butt;stroke-linejoin:miter;stroke-opacity:1"
     d="m 19.707961,171.78394 2.467277,-14.38063 7.989183,-7.0635 c 5.749191,-6.39272 5.191694,0.53347 2.1179,4.24086 l -5.591413,7.24855 6.844971,20.24198 c 0.249359,4.36983 -4.747623,5.76131 -7.771436,1.23857 -0.781827,-1.16938 -5.197954,-8.89684 -6.056482,-11.52583 z"
     id="path8091"
     sodipodi:nodetypes="ccccccsc" />
  <path
     id="path3107-3"
     style="fill:#c65722;fill-opacity:1;stroke:none;stroke-width:1.51428;stop-color:#000000"
     d="m 84.72028,79.418199 c 0.343269,2.545244 -2.441984,7.341404 -6.60583,7.579178 -4.163847,0.237775 -6.024236,-1.202234 -6.942304,-5.904209 -0.635815,-3.256466 2.20268,-5.693892 4.570299,-6.20132 3.966663,-0.850153 8.394477,0.200657 8.977835,4.526351 z"
     sodipodi:nodetypes="szsss" />
  <path
     id="path3107"
     style="fill:#c65722;fill-opacity:1;stroke:none;stroke-width:1.51428;stop-color:#000000"
     d="m 122.28104,80.786664 c 0.2815,2.552749 -2.85739,7.329484 -5.26553,7.595035 -2.40815,0.265553 -4.3374,-1.26819 -5.25545,-5.970153 -0.63583,-3.256465 2.20265,-5.69389 4.57027,-6.201332 3.96667,-0.85014 5.66921,2.023713 5.95071,4.57645 z"
     sodipodi:nodetypes="sssss" />
  <path
     style="fill:#5e2910;fill-opacity:1;stroke:none;stroke-width:0.308535px;stroke-linecap:butt;stroke-linejoin:miter;stroke-opacity:1"
     d="m 86.841061,79.198487 c 1.08188,-2.679903 -8.781294,-6.413088 -11.436841,-6.261044 -2.655556,0.152059 -13.44947,5.543774 -12.750264,8.268746 0,0 9.996982,-5.113378 14.244561,-5.302672 4.247576,-0.189307 8.622783,5.124701 9.942544,3.29497 z"
     id="path3736"
     sodipodi:nodetypes="czczc" />
  <path
     style="fill:#5e2910;fill-opacity:1;stroke:none;stroke-width:0.307278px;stroke-linecap:butt;stroke-linejoin:miter;stroke-opacity:1"
     d="m 109.83461,80.444334 c 0.38853,0.800167 6.27236,-3.937706 8.99692,-3.88315 2.72455,0.05456 4.31328,1.763387 5.70828,2.657716 0.56427,-1.146232 -2.03987,-4.551662 -5.38485,-4.897981 -3.345,-0.346318 -10.41461,4.399494 -9.32035,6.123415 z"
     id="path2532"
     sodipodi:nodetypes="czczc" />
</svg>
