<?xml version="1.0" encoding="UTF-8"?>
<svg width="600" height="800" version="1.1" viewBox="0 0 159 212" xmlns="http://www.w3.org/2000/svg" xmlns:cc="http://creativecommons.org/ns#" xmlns:dc="http://purl.org/dc/elements/1.1/" xmlns:rdf="http://www.w3.org/1999/02/22-rdf-syntax-ns#">
 <metadata>
  <rdf:RDF>
   <cc:Work rdf:about="">
    <dc:format>image/svg+xml</dc:format>
    <dc:type rdf:resource="http://purl.org/dc/dcmitype/StillImage"/>
   </cc:Work>
  </rdf:RDF>
 </metadata>
 <g fill="none" stroke-linecap="round" stroke-linejoin="round">
  <circle r="0" stroke="#c53822" stroke-width="2.26" style="paint-order:stroke markers fill"/>
  <g stroke="#924019">
   <circle r="0" stroke-width="1.29" style="paint-order:stroke markers fill"/>
   <circle transform="scale(1,-1)" r="0" stroke-width="3.6" style="paint-order:stroke markers fill"/>
   <circle transform="scale(1,-1)" r="0" stroke-width="3.6" style="paint-order:stroke markers fill"/>
  </g>
  <circle transform="scale(1,-1)" r="0" stroke="#4d4320" stroke-width="4.38" style="paint-order:stroke markers fill"/>
  <circle transform="scale(1,-1)" r="0" stroke="#4d4320" stroke-width="3.52" style="paint-order:stroke markers fill"/>
 </g>
 <path transform="matrix(.265 0 0 .265 0 -.0167)" d="m600 230c-38.2 21.1-80.5 56.9-123 116-67.1 93-109 189-140 238l21.3 13.8 71.2 41.6c39.1-23.2 93.7-64.5 171-130v-280z" fill="#78ebf9" fill-opacity=".418" stroke-width="1.27"/>
 <path d="m87.9 1.43c49.5 5.66 53 40.4 54.7 63 1.73 22.5-40.4 43.8-40.4 43.8l-45 20.5s-26.2-27.3-37.7-62.3c-11.7-35.1 18.8-70.6 68.4-64.9z" fill="#924019"/>
 <g fill="#78ebf9" fill-opacity=".418" stroke-width="1.27">
  <path transform="matrix(.265 0 0 .265 0 -.0167)" d="m0 294v292c56.5 45.9 101 80.4 135 100l42.2-36.3 59.6-47.3c-42.9-54.6-96.4-134-170-232-22.9-30.3-45.3-55.7-67-76.9z"/>
  <path transform="matrix(.265 0 0 .265 0 -.0167)" d="m251 568c-61 22.9-146 48.2-251 84.9v148h146c69.7-45.7 122-81.5 154-110l-21.9-51.2-27.2-71.1z"/>
  <path transform="matrix(.265 0 0 .265 0 -.0167)" d="m314 604-2.44 25.3-4.02 82.4c37.2 23.1 96.4 51.3 185 87.9h108v-180c-3.28-0.539-6.6-1.06-9.97-1.56-113-16.6-218-9.6-276-14.6z"/>
 </g>
 <path d="m63.3 104c5.06 13.6 0.128 30.3-2.82 35l34.8 7.74s-2.94-13.9-2.09-19.5z" fill="#f9bb78"/>
 <path d="m60.7 130s0.437 4.74-6.97 13.3c-7.42 8.56-29.2 14-29.2 14-21.1 7.13-21.3 39.5-23.7 54.3h34.4c2.62-8.27 5.54-14 8.77-13.7l92.3 8.24 6.44 5.51 16.3-0.0344-0.067-14.5c-3.2-3.98-8.7-11.2-9.87-14.2-4 0.26-2.68 1.17-1.67-3.29-4.77-13.4-17.2-21.8-35.4-25.8l-17.4-10.3 0.36-7.68c-5.51 14.4-25.4 2.58-34.4-5.62z" fill="#c9c9c9" stroke-width=".265"/>
 <path d="m51.4 139-8.16 8.48-15.4 4.61 13.6 15.1-7.63 11.2 8.32 12-8 8.37 2.42 8.82-1.46 4.5h104l-4.56-18.3 0.0678-15.1-7.58-11.2v-11.8l-12.8-5.04-13.6-8.53-0.443 4.93 13.6 24.6-14.9 20.8-42.1-15-5.33-38.4z" fill="#5f624e" stroke-width=".265"/>
 <path d="m76.3 132 14.8-3.87-39.4-21.4 5.4 17.2z" fill="#764a35" fill-opacity=".662"/>
 <path d="m130 64.8-5.74 17.9s-1.15 18.2-3.65 24.5c-2.5 6.28-19.5 25-27.1 25-9.21-0.0327-31.8-16.7-36.3-21.5-16.7-13.9-17.2-29.6-20.8-49.6 0 0 3.73-46.6 51.6-47.2 47.9-0.531 41.9 51 41.9 51z" fill="#f9bb78"/>
 <path d="m63.3 63.7c1.57-1.19 11.6-6.25 16.7-6.31 5.18-0.0489 11.9 3.74 11.2 4.7-0.461 1.03-6.11-1.67-10.9-1.45-4.88 0.208-16.9 3.06-16.9 3.06z" fill="#924019"/>
 <path d="m101 103 2.75-2.5-8.42-0.193 3.57 2.4z" fill="#764a35" fill-opacity=".662"/>
 <g transform="rotate(2.38 77.3 66.5)" fill="#924019">
  <path d="m101 36.6s29 12.6 31.6 35.5c1.84-5.63-2.87-28.4-2.28-34.3 0.593-5.85 2.03-8.43 12-2.2-5.93-17.9-25.5-30.4-34.3-29.1z"/>
  <path d="m112 63.7c-0.374-1.37 7.16-3.36 10.7-2.54 3.59 0.823 8.12 4.33 7.5 5.22 0 0-4.7-2.92-7.94-3.48-3.23-0.553-10.1 2.17-10.3 0.79z"/>
  <path d="m105 36c-11.1 19.5-51.2 38.9-51.2 38.9l-22.6-1.95 10.7-51.7 58.6-13.2 19.2 16.8z"/>
 </g>
 <path d="m61.4 70s-4.17 10.8-2.58 20.9c-5.34-3.67-10.9-22-10.9-22z" fill="#924019"/>
 <path d="m92.1 119c-5.16-0.184-8.41-5.59-8.27-9.44 7.35 1.57 16.6 1.3 20.8 0.414-3.64 4.65-5.71 9.27-12.5 9.03z" fill="#f57d9d" style="paint-order:stroke markers fill"/>
 <path d="m83.8 109c-0.0356 0.99 0.154 2.09 0.545 3.17 0.751-2.29 3.54-1.85 10.3-1.46 3.77 0.22 5.9 1.4 7.01 2.72 0.97-1.25 1.91-2.63 3-4.01-4.18 0.887-13.5 1.15-20.8-0.414z" fill="#ef2e61" style="paint-order:stroke markers fill"/>
 <path d="m33.6 88.7s-7.58 6.28-6.17 17.5c1.4 11.2 19.3 34.2 19.3 34.2s-10 14.5-7.5 28.4c2.52 13.9 20.5 34.8 3.32 37.3 10.7 4.32 24.4-2.02 21.9-14.2 3.91 6.31 15.6 11 19.5 11.4-9.22-15-15.5-36.7-15.5-36.7s4.53-13.1 3.06-23c-1.47-9.89-12.6-24.3-12.6-24.3s5.52-12.8-4.41-28.8z" fill="#924019"/>
 <path d="m47.1 73.5c-0.349-4.48-34.9-12.9-34.9-12.9 0.787 9.47 23 19.5 23 19.5-0.01 8.28 8.11 7.87 11.5 7.61z" fill="#f9bb78"/>
 <path transform="scale(.265)" d="m55.9 429c-5.24-0.381-5.4 12.9-4.32 16.5l-7.22 50.9 18.4 48.9s-4.83 49.2 0.0723 75.3c4.9 26.1 32.7 74.5 32.7 74.5-11.4 29.4-28 94.1-30.6 105h67.7l17.8-78.1c9.34-5.03 11.8-51.9 11.8-51.9 4.26-23.6 7.55-14.1 8.54-40.6 0.983-26.6-5.18-54-5.18-54-3.67-27.4 4.59-34 6.13-68.7-2.05-26.5-22.7-32.7-24.1-7.47 0 0-17.2 64.4-24.9 59.9 0 0-34-48.2-49.4-60.6l-4.46-31.7-0.0391-22.5c-6.08-11.1-10.2-15.1-13-15.3z" fill="#f9bb78"/>
 <g fill="#f8ac5a">
  <path d="m16 159-0.0603-21.3 13-11.4c8.95-7.46 9.15-4.43 6.48 1.96l-5.29 4.84-7.45 9.75 1.2 10.9s-3.24 11.3-7.87 5.36z"/>
  <path d="m16.8 163 0.418-16.8 12.6-11.2c2.52-2.08 7.36-4.1 3.48 4.41l-10.1 9.54 1.7 13s-2.47 9.8-4.94 9.74c-1.08-0.0226-2.63-6.05-3.2-8.66z"/>
  <path d="m19.7 172 2.47-14.4 7.99-7.06c5.75-6.39 5.19 0.533 2.12 4.24l-5.59 7.25 6.84 20.2c0.249 4.37-4.75 5.76-7.77 1.24-0.782-1.17-5.2-8.9-6.06-11.5z"/>
 </g>
 <g>
  <path d="m84.7 79.4c0.343 2.55-2.44 7.34-6.61 7.58-4.16 0.238-6.02-1.2-6.94-5.9-0.636-3.26 2.2-5.69 4.57-6.2 3.97-0.85 8.39 0.201 8.98 4.53z" fill="#c65722" stop-color="#000000"/>
  <path d="m122 80.8c0.282 2.55-2.86 7.33-5.27 7.6-2.41 0.266-4.34-1.27-5.26-5.97-0.636-3.26 2.2-5.69 4.57-6.2 3.97-0.85 5.67 2.02 5.95 4.58z" fill="#c65722" stop-color="#000000"/>
  <path d="m86.8 79.2c1.08-2.68-8.78-6.41-11.4-6.26-2.66 0.152-13.4 5.54-12.8 8.27 0 0 10-5.11 14.2-5.3 4.25-0.189 8.62 5.12 9.94 3.29z" fill="#5e2910"/>
  <path d="m110 80.4c0.389 0.8 6.27-3.94 9-3.88 2.72 0.0546 4.31 1.76 5.71 2.66 0.564-1.15-2.04-4.55-5.38-4.9-3.34-0.346-10.4 4.4-9.32 6.12z" fill="#5e2910"/>
 </g>
</svg>
