<?xml version="1.0" encoding="UTF-8" standalone="no"?>
<svg
   width="600"
   height="800"
   version="1.1"
   viewBox="0 0 159 212"
   id="svg2818"
   sodipodi:docname="yoko_boy1-3.svg"
   inkscape:version="1.2 (56b05e47e7, 2022-06-09, custom)"
   xmlns:inkscape="http://www.inkscape.org/namespaces/inkscape"
   xmlns:sodipodi="http://sodipodi.sourceforge.net/DTD/sodipodi-0.dtd"
   xmlns="http://www.w3.org/2000/svg"
   xmlns:svg="http://www.w3.org/2000/svg"
   xmlns:rdf="http://www.w3.org/1999/02/22-rdf-syntax-ns#"
   xmlns:cc="http://creativecommons.org/ns#"
   xmlns:dc="http://purl.org/dc/elements/1.1/">
  <defs
     id="defs2822" />
  <sodipodi:namedview
     id="namedview2820"
     pagecolor="#ffffff"
     bordercolor="#999999"
     borderopacity="1"
     inkscape:pageshadow="0"
     inkscape:pageopacity="0"
     inkscape:pagecheckerboard="0"
     showgrid="false"
     inkscape:snap-global="false"
     inkscape:zoom="0.63551222"
     inkscape:cx="625.47971"
     inkscape:cy="446.88362"
     inkscape:window-width="1920"
     inkscape:window-height="935"
     inkscape:window-x="0"
     inkscape:window-y="0"
     inkscape:window-maximized="1"
     inkscape:current-layer="svg2818"
     inkscape:showpageshadow="2"
     inkscape:deskcolor="#d1d1d1" />
  <metadata
     id="metadata2728">
    <rdf:RDF>
      <cc:Work
         rdf:about="">
        <dc:format>image/svg+xml</dc:format>
        <dc:type
           rdf:resource="http://purl.org/dc/dcmitype/StillImage" />
      </cc:Work>
    </rdf:RDF>
  </metadata>
  <g
     fill="none"
     stroke-linecap="round"
     stroke-linejoin="round"
     id="g2806">
    <circle
       r="0"
       stroke="#c53822"
       stroke-width="2.26"
       style="paint-order:stroke markers fill"
       id="circle2792" />
    <g
       stroke="#924019"
       id="g2800">
      <circle
         r="0"
         stroke-width="1.29"
         style="paint-order:stroke markers fill"
         id="circle2794" />
      <circle
         transform="scale(1,-1)"
         r="0"
         stroke-width="3.6"
         style="paint-order:stroke markers fill"
         id="circle2796" />
      <circle
         transform="scale(1,-1)"
         r="0"
         stroke-width="3.6"
         style="paint-order:stroke markers fill"
         id="circle2798" />
    </g>
    <circle
       transform="scale(1,-1)"
       r="0"
       stroke="#4d4320"
       stroke-width="4.38"
       style="paint-order:stroke markers fill"
       id="circle2802" />
    <circle
       transform="scale(1,-1)"
       r="0"
       stroke="#4d4320"
       stroke-width="3.52"
       style="paint-order:stroke markers fill"
       id="circle2804" />
  </g>
  <path
     style="fill:#e4ba9e;fill-opacity:1;stroke:none;stroke-width:0.264932px;stroke-linecap:butt;stroke-linejoin:miter;stroke-opacity:1"
     d="m 70.922602,121.1202 -3.345617,12.87656 -12.245347,8.84579 1.174747,11.46295 19.35397,18.46971 23.839314,-13.63455 c 0,0 9.380241,-4.10266 13.712061,-14.76808 -6.29214,-2.28857 -12.23555,-10.91331 -12.5304,-17.61893 l 2.84951,-25.27171 z"
     id="path3032"
     sodipodi:nodetypes="cccccccccc" />
  <path
     style="fill:#69615b;fill-opacity:0.378461;stroke:none;stroke-width:0.264932px;stroke-linecap:butt;stroke-linejoin:miter;stroke-opacity:1"
     d="m 92.994168,116.16688 -23.0028,23.58412 -12.891979,0.93218 10.105622,-6.59803 3.336534,-9.03921 23.697004,-12.8665 z"
     id="path3139" />
  <path
     style="fill:#e4ba9e;fill-opacity:1;stroke:none;stroke-width:0.259417px;stroke-linecap:butt;stroke-linejoin:miter;stroke-opacity:1"
     d="m 145.3921,194.37839 2.10988,20.20543 c 0,0 -21.91714,1.55846 -22.89293,0.18212 -0.97579,-1.37636 -0.6488,-19.21345 -0.6488,-19.21345 z"
     id="path3028" />
  <path
     style="fill:#e4ba9e;fill-opacity:1;stroke:none;stroke-width:0.259417px;stroke-linecap:butt;stroke-linejoin:miter;stroke-opacity:1"
     d="m 23.531193,194.70402 20.410202,12.31494 -4.139296,6.95642 -21.812474,-2.0536 z"
     id="path3030" />
  <path
     style="fill:#3a65e4;fill-opacity:1;stroke:none;stroke-width:0.259417px;stroke-linecap:butt;stroke-linejoin:miter;stroke-opacity:1"
     d="m 64.256462,136.18501 -17.538214,7.89804 c 0,0 -10.313731,3.7677 -14.153266,7.86811 -3.839534,4.10042 -6.105563,14.71823 -6.105563,14.71823 l -6.397115,30.68831 19.691348,8.95211 1.356424,6.50743 83.042224,-0.18045 -0.43859,-8.56774 24.76233,-2.53198 c 0,0 -1.26029,-36.23336 -6.32531,-44.29229 -5.06503,-8.05893 -31.82381,-15.6274 -31.82381,-15.6274 l -15.248429,15.42919 c 0,0 -10.037885,6.03624 -19.874702,5.60624 C 64.69901,161.96207 61.501537,151.0422 61.501537,151.0422 c -0.348087,-3.54102 2.754925,-14.85719 2.754925,-14.85719 z"
     id="path3026"
     sodipodi:nodetypes="cczccccccczccccc" />
  <path
     style="fill:#69615b;fill-opacity:1;stroke:none;stroke-width:0.347493px;stroke-linecap:butt;stroke-linejoin:miter;stroke-opacity:1"
     d="m 136.70837,73.882229 c 0,0 -22.93279,27.629281 -21.11339,32.528101 0,7.2694 3.49567,13.39965 7.60659,16.44766 -9.00035,0.39321 -17.47206,-9.45008 -17.47206,-9.45008 L 106.0974,126.70798 54.427842,75.24836 43.059196,82.750822 32.671858,66.664918 Z"
     id="path3034"
     sodipodi:nodetypes="ccccccccc" />
  <path
     style="fill:#e4ba9e;fill-opacity:1;stroke:none;stroke-width:0.281143px;stroke-linecap:butt;stroke-linejoin:miter;stroke-opacity:1"
     d="m 47.674655,92.409812 c -1.7e-4,6.087627 0.08245,18.588598 3.515284,22.543268 3.432809,3.95467 16.773171,14.43875 16.773171,14.43875 11.692514,-0.94784 32.42776,-17.01374 32.42776,-17.01374 6.7849,-4.29737 20.30415,-39.975188 20.30415,-39.975188 15.1369,-27.711936 -18.28307,-55.428956 -41.605538,-53.461517 -30.835677,0.730103 -42.267211,29.408089 -37.636531,48.167927 0.916888,4.760591 4.898672,19.694264 6.221704,25.3005 z"
     id="path398"
     sodipodi:nodetypes="czcccccc" />
  <path
     d="M 75.906392,6.0584196 C 73.374878,6.090204 70.815338,6.7005647 68.374116,8.1051218 85.266473,4.1498543 86.340728,17.63401 86.371872,18.303149 c -0.0033,-8.06e-4 -0.0055,-0.0017 -0.01106,-0.0027 -0.967921,-5.00333 -21.37621,-14.7514622 -31.947537,0.470297 1.313541,-0.41086 2.568864,-0.751892 3.780143,-1.04388 -27.199028,7.307296 -27.167884,39.375252 -44.994351,33.089401 3.470327,2.008687 6.484463,5.451964 12.75253,2.980704 -5.843032,3.387515 0.639418,12.926544 -11.570847,10.969824 2.822646,2.950292 7.086995,3.173332 11.030606,2.084717 -0.918257,3.003524 -3.352001,7.659606 -6.893944,8.498565 6.182435,1.107627 8.274409,-0.848075 12.861033,-2.387863 0.466923,3.89444 0.449177,7.652571 9.190685,15.046055 -4.093945,-8.220432 -2.12094,-14.849191 6.309656,-24.734196 8.430617,-9.882464 21.331834,-5.982674 33.133116,-4.449234 11.804402,1.528378 16.547856,3.341788 18.945474,8.594776 2.397604,5.252988 4.113004,16.918451 0.544617,26.442677 6.036907,-4.350727 9.161487,-8.511448 11.168007,-14.193669 4.20417,4.546679 -0.46143,18.526509 -7.94054,27.952517 9.87651,4.08843 21.37719,-28.208757 21.42789,-33.897594 5.31681,1.239045 0.51468,19.646738 0.50845,22.144592 4.03237,-0.654943 11.93658,-14.493383 9.69979,-18.030438 4.10866,1.82999 4.86029,9.046674 4.86029,9.046674 0.17031,-6.164186 0.65376,-17.820137 -1.53524,-20.031596 4.65202,2.753868 9.50798,4.450789 14.77341,1.439661 -9.32271,-0.327723 -15.0988,-7.24012 -18.51152,-13.306727 3.09199,4.868998 3.81128,5.259325 7.40773,6.958787 -4.23477,-4.070595 -0.35297,-18.895557 -10.75662,-20.112178 5.91621,-0.06649 9.45816,3.775311 14.57414,-0.562559 -20.27084,-0.714888 -14.08372,-27.487901 -40.6662,-20.086824 2.76506,-6.34541 9.35385,-6.053928 13.52789,-5.274534 C 110.2939,9.089038 97.628537,14.197556 95.339913,19.8827 96.017307,15.395161 86.196235,5.9296402 75.894244,6.0563704 Z"
     fill="#69615b"
     id="path268-1"
     style="stroke:none;stroke-width:1.40465"
     sodipodi:nodetypes="cccccccccccccccscccccccccccccccccc" />
  <path
     d="m 45.495252,45.600089 c 0,0 -11.415114,4.246987 1.483425,35.32868 1.007662,-22.172468 17.159424,-25.600936 17.159424,-25.600936"
     fill="url(#linearGradient1197)"
     id="path300-5"
     style="fill:#69615b;fill-opacity:1;stroke:none;stroke-width:1.588"
     sodipodi:nodetypes="ccc" />
  <path
     id="path552"
     style="fill:#3f2716;fill-opacity:1;stroke:none;stroke-width:1.05235;paint-order:stroke fill markers"
     d="m 84.32633,86.1193 c 0,3.037629 -1.177313,5.469373 -3.836415,5.469376 -2.659101,-3e-6 -4.814725,-2.462488 -4.814725,-5.500117 0,-3.03763 2.155624,-5.500115 4.814725,-5.500117 2.659102,2e-6 3.836415,2.49323 3.836415,5.530858 z"
     sodipodi:nodetypes="sssss" />
  <path
     id="path556"
     style="fill:#3f2716;fill-opacity:1;stroke:none;stroke-width:1.05235;paint-order:stroke fill markers"
     d="m 53.621135,85.793951 c 0,2.6803 -0.133859,4.725505 -1.793552,4.725503 -1.659681,2e-6 -3.158944,-1.918342 -3.158944,-4.598644 0,-2.680301 0.679009,-5.065473 2.338702,-5.065471 1.659692,-2e-6 2.613794,2.25831 2.613794,4.938612 z"
     sodipodi:nodetypes="sssss" />
  <path
     style="fill:#3f2716;fill-opacity:1;stroke:none;stroke-width:0.284116px;stroke-linecap:butt;stroke-linejoin:miter;stroke-opacity:1"
     d="m 72.693006,84.996283 c 0.4827,-0.846986 5.092947,-6.390419 10.029415,-6.061465 4.936468,0.328954 13.91127,6.43188 11.910811,8.682199 -0.787151,-0.373134 -7.849537,-6.437658 -11.910811,-6.213933 -4.061274,0.223722 -10.029415,3.593199 -10.029415,3.593199 z"
     id="path498"
     sodipodi:nodetypes="czczc" />
  <path
     style="fill:#3f2716;fill-opacity:1;stroke:none;stroke-width:0.284116px;stroke-linecap:butt;stroke-linejoin:miter;stroke-opacity:1"
     d="m 57.913388,84.18132 c -1.650852,-2.743013 -6.878432,-5.917688 -11.6624,-4.861599 l 0.821095,4.626078 c 0,0 0.03684,-2.866783 0.762291,-2.882473 1.733963,-0.03922 7.653468,1.416819 10.079014,3.117994 z"
     id="path554"
     sodipodi:nodetypes="ccccc" />
  <path
     d="m 80.336442,20.926384 c 0,0 -41.134914,33.423952 -10.218804,59.332547 -12.740594,-21.554576 23.217359,-49.28812 23.217359,-49.28812"
     fill="url(#linearGradient1213)"
     id="path270-3"
     style="fill:#69615b;fill-opacity:1;stroke:none;stroke-width:1.588" />
  <path
     d="M 71.352671,47.700141 C 69.146309,55.613049 81.682864,68.922736 103.72944,74.793155 87.913813,62.970484 99.303183,56.395708 99.674837,46.877085"
     fill="url(#linearGradient1147)"
     id="path276-9"
     style="fill:#69615b;fill-opacity:1;stroke:none;stroke-width:1.96413"
     inkscape:transform-center-x="-313.13184"
     inkscape:transform-center-y="-22.072367"
     sodipodi:nodetypes="ccc" />
  <path
     style="fill:#3f2716;fill-opacity:1;stroke:none;stroke-width:0.284115px;stroke-linecap:butt;stroke-linejoin:miter;stroke-opacity:1"
     d="M 77.039594,70.20682 84.834147,68.869965 95.801506,71.985647 84.956245,64.68734 Z"
     id="path560" />
  <path
     style="fill:#3f2716;fill-opacity:1;stroke:none;stroke-width:0.284115px;stroke-linecap:butt;stroke-linejoin:miter;stroke-opacity:1"
     d="m 44.055505,74.172067 3.216082,-2.546893 7.704173,1.737177 -9.485754,-6.929684 z"
     id="path562"
     sodipodi:nodetypes="ccccc" />
  <path
     style="fill:#69615b;fill-opacity:0.378461;stroke:none;stroke-width:0.284115px;stroke-linecap:butt;stroke-linejoin:miter;stroke-opacity:1"
     d="m 60.481328,95.763022 -2.654586,3.74878 3.848728,5.794808 -5.173621,-0.8559 -0.662165,-6.452949 z"
     id="path3105"
     sodipodi:nodetypes="cccccc" />
  <path
     style="fill:#e48273;fill-opacity:0.798219;stroke:none;stroke-width:0.284115px;stroke-linecap:butt;stroke-linejoin:miter;stroke-opacity:1"
     d="m 65.654357,110.57679 c 6.844753,-0.10736 14.67305,-2.9447 14.516421,-0.57421 0.241554,1.82737 -7.545896,5.46651 -12.685363,5.67028 -3.331876,0.0992 -8.085286,-4.12696 -8.450443,-5.35202 -0.465064,-1.56028 3.082399,0.42759 6.619385,0.25595 z"
     id="path3107"
     sodipodi:nodetypes="cccsc" />
  <path
     style="fill:#e4ba9e;fill-opacity:1;stroke:none;stroke-width:0.284115px;stroke-linecap:butt;stroke-linejoin:miter;stroke-opacity:1"
     d="m 108.17078,85.899029 c 0.886,-12.028724 11.53699,-6.320273 10.47893,-0.450937 -1.05807,5.86933 -1.77516,12.078025 -5.59681,15.311788 -3.82166,3.23375 -5.85063,6.45515 -7.6664,2.38775 z"
     id="path5154"
     sodipodi:nodetypes="czzcc" />
  <rect
     style="fill:#ffffff;fill-opacity:0.989509;stroke-width:0.311872;paint-order:stroke fill markers"
     id="rect3469"
     width="1.7098887"
     height="2.6053514"
     x="81.238159"
     y="82.696609"
     rx="4.4955959"
     ry="0" />
  <rect
     style="fill:#ffffff;fill-opacity:0.989509;stroke-width:0.189544;paint-order:stroke fill markers"
     id="rect3469-5"
     width="0.63158774"
     height="2.6053514"
     x="51.244617"
     y="82.4002"
     rx="1.6605544"
     ry="0.0062227291" />
</svg>
