<?xml version="1.0" encoding="UTF-8" standalone="no"?>
<svg
   xmlns:dc="http://purl.org/dc/elements/1.1/"
   xmlns:cc="http://creativecommons.org/ns#"
   xmlns:rdf="http://www.w3.org/1999/02/22-rdf-syntax-ns#"
   xmlns:svg="http://www.w3.org/2000/svg"
   xmlns="http://www.w3.org/2000/svg"
   xmlns:sodipodi="http://sodipodi.sourceforge.net/DTD/sodipodi-0.dtd"
   xmlns:inkscape="http://www.inkscape.org/namespaces/inkscape"
   width="24.0px"
   height="24.0px"
   viewBox="0 0 24.0 24.0"
   version="1.1"
   id="SVGRoot"
   sodipodi:docname="rouma.svg"
   inkscape:version="1.0.2 (e86c870879, 2021-01-15)">
  <defs
     id="defs1025" />
  <sodipodi:namedview
     id="base"
     pagecolor="#ffffff"
     bordercolor="#666666"
     borderopacity="1.0"
     inkscape:pageopacity="0.0"
     inkscape:pageshadow="2"
     inkscape:zoom="18.966054"
     inkscape:cx="13.827505"
     inkscape:cy="11.540072"
     inkscape:document-units="px"
     inkscape:current-layer="layer1"
     inkscape:document-rotation="0"
     showgrid="true"
     inkscape:window-width="1848"
     inkscape:window-height="1016"
     inkscape:window-x="0"
     inkscape:window-y="0"
     inkscape:window-maximized="1">
    <inkscape:grid
       type="xygrid"
       id="grid1595" />
  </sodipodi:namedview>
  <metadata
     id="metadata1028">
    <rdf:RDF>
      <cc:Work
         rdf:about="">
        <dc:format>image/svg+xml</dc:format>
        <dc:type
           rdf:resource="http://purl.org/dc/dcmitype/StillImage" />
        <dc:title></dc:title>
      </cc:Work>
    </rdf:RDF>
  </metadata>
  <g
     inkscape:label="レイヤー 1"
     inkscape:groupmode="layer"
     id="layer1">
    <path
       d="m 0.99147539,1.3338004 c -0.028781,-0.00151 -0.0491899,0.00151 -0.0605709,0.00929 C 0.7170755,1.4877869 0.89263869,5.153179 1.1542444,8.2072644 A 12.035806,10.286852 0 0 0 0.04130633,12.525104 12.035806,10.286852 0 0 0 12.077109,22.811957 12.035806,10.286852 0 0 0 24.112916,12.525104 12.035806,10.286852 0 0 0 23,8.2072611 C 23.261591,5.1497905 23.437427,1.4860161 23.223415,1.3430909 23.03671,1.2167524 20.456684,2.3571077 17.972794,3.5610641 A 12.035806,10.286852 0 0 0 12.079014,2.2427677 12.035806,10.286852 0 0 0 6.1852258,3.5610641 C 3.8525397,2.4304505 1.4348452,1.3562549 0.994785,1.333688 Z M 12.188537,5.3733181 c 0.678144,0.00569 0.969256,0.088313 1.673729,0.3294047 2.283794,0.781575 3.331662,2.6365935 2.51774,4.4570082 -0.447581,1.001606 -2.025776,1.904667 -3.750656,2.146888 l -0.645419,0.09057 0.519043,0.575463 c 0.285547,0.31643 0.900049,1.253228 1.364933,2.081443 1.115569,1.986283 1.30739,2.256713 2.035932,2.871667 0.509266,0.429904 0.730047,0.520549 1.266392,0.520549 0.988442,0 1.562775,-0.408842 1.562775,-1.112183 0,-0.646548 -0.381384,-1.001606 -1.075323,-1.001606 -0.634889,0 -0.933527,0.317558 -0.686795,0.730423 0.241243,0.403576 0.450591,0.412226 0.799254,0.03273 0.259333,-0.282277 0.26979,-0.283256 0.26979,-0.0264 0,0.369914 -0.328353,0.584115 -0.895163,0.584115 -0.83912,0 -1.105414,-0.762017 -0.478799,-1.36945 0.28743,-0.278592 0.503623,-0.347234 1.082846,-0.343886 1.061032,0.0061 1.850129,0.600664 1.850129,1.394648 0,1.146036 -2.315389,1.920464 -3.748778,1.254358 -0.807527,-0.375405 -1.301747,-0.941426 -2.581303,-2.956673 -1.22991,-1.93701 -1.7309,-2.494796 -2.519248,-2.80547 C 9.7081464,12.416185 9.7220594,12.383839 9.7220594,15.20962 v 2.576039 H 8.9423649 L 8.9260116,13.986857 C 8.9137802,11.158065 8.8369483,9.838263 8.6248918,8.8227422 8.2849959,7.1915147 8.0005359,6.4189665 7.7082919,6.3332111 7.3709861,6.2345175 5.9698662,6.9229653 5.3075259,7.5130963 4.5485144,8.189358 4.2882433,8.7892673 4.393176,9.621619 4.6019618,11.278423 7.1279379,11.531175 7.4107823,9.9237553 7.4863454,9.4942275 7.4334146,9.3464127 7.129933,9.1369145 6.6872433,8.8315058 6.204679,8.980449 6.1132801,9.4505224 6.0380246,9.8375479 5.6641998,9.7300916 5.5972448,9.3024439 5.5351043,8.9056388 6.2452994,8.4054005 6.8711599,8.4054005 c 0.573211,0 1.2915956,0.7074799 1.2915956,1.2716583 0,1.0166502 -0.9564681,1.7666302 -2.252577,1.7666302 -0.9982201,0 -1.6361163,-0.338394 -2.0972388,-1.11256 C 3.2167891,9.3302771 3.492484,8.3245347 4.6264844,7.3627991 6.0102248,6.189308 8.1939695,5.5126702 10.949041,5.4039718 c 0.543115,-0.021474 0.931272,-0.034792 1.239693,-0.032157 z M 9.8908262,5.8946189 c -0.8387471,1.89e-4 -0.7552433,0.1022666 -0.5269387,1.7192394 0.08718,0.6175873 0.210964,1.8181586 0.2749753,2.6678107 0.1161837,1.541336 0.1173869,1.544721 0.5765922,1.603772 0.818437,0.105312 2.347358,-0.05609 3.095082,-0.32666 2.450792,-0.887263 2.779519,-3.2857746 0.646172,-4.7165304 -0.920364,-0.6175873 -2.183748,-0.9448112 -3.647598,-0.9448112 -0.15974,0 -0.29834,-0.0019 -0.4182456,-0.0019 z"
       fill="#483737"
       fill-opacity="0.97"
       stroke-linecap="round"
       stroke-linejoin="round"
       stroke-width="0.0250308"
       id="path1015"
       style="fill:#000000" />
  </g>
</svg>
