<?xml version="1.0" encoding="UTF-8"?>
<svg width="109.8mm" height="202.4mm" version="1.1" viewBox="0 0 109.8 202.4" xmlns="http://www.w3.org/2000/svg">
 <defs>
  <linearGradient id="linearGradient6669" x1="57.11" x2="57.46" y1="155.4" y2="202.5" gradientTransform="matrix(.99909 0 0 .99434 .22709 .78843)" gradientUnits="userSpaceOnUse">
   <stop stop-color="#715916" offset="0"/>
   <stop stop-color="#f3dd9d" offset="1"/>
  </linearGradient>
 </defs>
 <path d="m-0.2273 89.09 25.074-25.213 21.386 14.131 21.01-29.381 9.3449 10.598 7.3362-5.2601 17.201 18.147 8.6764-8.6759-1.5e-4 75.76-110.03 4e-3z" fill="#5ea646"/>
 <rect x="3.747e-15" y="139.2" width="109.8" height="63.2" ry="0" fill="url(#linearGradient6669)" stroke-width=".99671" style="paint-order:stroke markers fill"/>
 <g fill="#806f37" stroke-opacity="0">
  <path d="m85.25 0h13.05v167.2h-15.58z" style="paint-order:stroke markers fill"/>
  <path d="m40.752 0 4.5091 0.02584 3.437 150.7h-9.4833z" style="paint-order:stroke markers fill"/>
  <path d="m0 0h18.394l17.08 178.3h-24.314z" style="paint-order:stroke markers fill"/>
  <path d="m74.43 0 2.874 0.02651-5.165 154.7h-6.044z" style="paint-order:stroke markers fill"/>
  <path d="m104.3 0 1.716 0.02489 1.308 145.1h-3.609z" style="paint-order:stroke markers fill"/>
 </g>
</svg>
