<?xml version="1.0" encoding="UTF-8"?>
<svg width="109.8mm" height="202.4mm" version="1.1" viewBox="0 0 109.8 202.4" xmlns="http://www.w3.org/2000/svg">
 <defs>
  <linearGradient id="linearGradient4401" x1="80.587" x2="35.169" y1="154.62" y2="184.58" gradientUnits="userSpaceOnUse">
   <stop stop-color="#9ee78e" offset="0"/>
   <stop stop-color="#4dc170" offset="1"/>
  </linearGradient>
 </defs>
 <rect x=".03522" y="150.4" width="109.9" height="52.1" fill="url(#linearGradient4401)" stroke-linecap="round" stroke-linejoin="round" stroke-opacity=".5367" stroke-width="1.67" style="paint-order:stroke markers fill"/>
 <g>
  <path d="m12.963 100.63c-0.03332-2e-3 -0.06725 9e-3 -0.09405 0.0334l-1.1958 1.0802c-0.05361 0.0484-0.05783 0.13103-0.0093 0.18497l13.358 14.848-1.571 37.929-3.0685 6.3655 14.112 0.53063-3.5404-4.4948-1.6588-30.205 16.53-24.471c0.05718-0.0846 0.03771-0.20079-0.04341-0.26046l-1.8097-1.3314c-0.08112-0.0597-0.19241-0.0393-0.2496 0.0453l-14.664 21.709-1.038-28.911-1.6519-0.32399-1.2365 20.741-12.079-13.427c-0.02426-0.027-0.05711-0.0419-0.09043-0.0437z" fill="#bea05c" stroke-width=".44755"/>
  <ellipse cx="25.475" cy="88.506" rx="23.794" ry="18.595" fill="#ade68f" stroke-width=".5752"/>
  <ellipse cx="46.29" cy="101.04" rx="11.836" ry="7.1954" fill="#ade68f" stroke-width=".43811"/>
  <ellipse cx="16.206" cy="103.69" rx="14.589" ry="11.155" fill="#88db5d" stroke-width=".5619"/>
 </g>
</svg>
