<?xml version="1.0" encoding="UTF-8"?>
<svg width="109.8mm" height="202.4mm" version="1.1" viewBox="0 0 109.8 202.4" xmlns="http://www.w3.org/2000/svg" xmlns:cc="http://creativecommons.org/ns#" xmlns:dc="http://purl.org/dc/elements/1.1/" xmlns:rdf="http://www.w3.org/1999/02/22-rdf-syntax-ns#">
 <metadata>
  <rdf:RDF>
   <cc:Work rdf:about="">
    <dc:format>image/svg+xml</dc:format>
    <dc:type rdf:resource="http://purl.org/dc/dcmitype/StillImage"/>
    <dc:title/>
   </cc:Work>
  </rdf:RDF>
 </metadata>
 <defs>
  <linearGradient id="linearGradient2920" x1="90.98" x2="94.69" y1="118.4" y2="230.2" gradientTransform="translate(-51.153 -116.47)" gradientUnits="userSpaceOnUse">
   <stop stop-color="#fff3bb" offset="0"/>
   <stop stop-color="#fff" stop-opacity="0" offset="1"/>
  </linearGradient>
  <filter id="filter903" x="-1.944e-5" y="-1.897e-5" width="1" height="1" color-interpolation-filters="sRGB">
   <feGaussianBlur stdDeviation="0.00071872469"/>
  </filter>
  <radialGradient id="radialGradient923" cx="54.9" cy="117.8" r="54.9" gradientTransform="matrix(1.0056 0 0 .55987 -3.0689e-6 75.931)" gradientUnits="userSpaceOnUse">
   <stop stop-color="#efe6c7" offset="0"/>
   <stop stop-color="#dea682" offset="1"/>
  </radialGradient>
 </defs>
 <g stroke-linecap="round" stroke-linejoin="round" stroke-opacity=".5367">
  <path d="m0.37138 0v143.79h109.8v-59.038h-67.464v-57.713h67.464v-27.037z" fill="#fefbd1" stroke-width=".26458" style="paint-order:stroke markers fill"/>
  <g stroke-width="1.1461">
   <rect x="5.5511e-17" y=".24645" width="9.1439" height="144.19" fill="#eef3e3" style="paint-order:stroke markers fill"/>
   <rect x="16.376" y=".24645" width="9.1439" height="144.19" fill="#f8f3c7" style="paint-order:stroke markers fill"/>
   <rect x="34.207" y=".24645" width="9.1439" height="144.19" fill="#f8f3c7" style="paint-order:stroke markers fill"/>
  </g>
  <rect x="52.038" y="84.996" width="9.1439" height="59.459" fill="#eef3e3" stroke-width=".736" style="paint-order:stroke markers fill"/>
  <rect x="69.182" y="84.996" width="9.1439" height="59.497" fill="#f8f3c7" stroke-width=".73623" style="paint-order:stroke markers fill"/>
  <rect x="87.3" y="84.996" width="9.1439" height="59.614" fill="#f8f3c7" stroke-width=".73696" style="paint-order:stroke markers fill"/>
  <rect x="103.31" y="84.996" width="6.8618" height="60.521" fill="#eef3e3" stroke-width=".64324" style="paint-order:stroke markers fill"/>
 </g>
 <rect y="141.27" width="110.41" height="61.469" fill="url(#radialGradient923)" stroke-linecap="round" stroke-linejoin="round" stroke-opacity=".5367" stroke-width=".77478" style="paint-order:stroke markers fill"/>
 <path d="m34.207 0.24645 13.83 0.1875s38.4 82.97 41.48 87.07c-24.09 26.62-72.32 23.39-88.51-1.958 9.514-25.6 33.2-85.3 33.2-85.3z" fill="url(#linearGradient2920)" filter="url(#filter903)" stroke-linecap="round" stroke-linejoin="round" stroke-opacity=".5367" stroke-width="1.663" style="paint-order:stroke markers fill"/>
 <g stroke-linecap="round" stroke-linejoin="round" stroke-opacity=".5367">
  <rect x="52.038" y=".24621" width="9.1439" height="26.883" fill="#eef3e3" stroke-width=".49489" style="paint-order:stroke markers fill"/>
  <rect x="69.182" y=".24621" width="9.1439" height="26.9" fill="#f8f3c7" stroke-width=".49505" style="paint-order:stroke markers fill"/>
  <rect x="87.3" y=".24621" width="9.1439" height="26.953" fill="#f8f3c7" stroke-width=".49554" style="paint-order:stroke markers fill"/>
  <rect x="103.31" y=".24621" width="6.8618" height="27.363" fill="#eef3e3" stroke-width=".43252" style="paint-order:stroke markers fill"/>
 </g>
</svg>
