<?xml version="1.0" encoding="UTF-8"?>
<svg width="600" height="800" version="1.1" viewBox="0 0 158.8 211.7" xmlns="http://www.w3.org/2000/svg" xmlns:cc="http://creativecommons.org/ns#" xmlns:dc="http://purl.org/dc/elements/1.1/" xmlns:rdf="http://www.w3.org/1999/02/22-rdf-syntax-ns#">
 <metadata>
  <rdf:RDF>
   <cc:Work rdf:about="">
    <dc:format>image/svg+xml</dc:format>
    <dc:type rdf:resource="http://purl.org/dc/dcmitype/StillImage"/>
   </cc:Work>
  </rdf:RDF>
 </metadata>
 <path d="m153.9 210.8c-1.016-2.032-7.496-17.08-14.22-22.86s-24.14-10.33-24.14-10.33l-62.35-6.011s-17.71 6.7-23.73 13.8-8.126 25.9-8.126 25.9" fill="#fff"/>
 <g fill="none" stroke-linecap="round" stroke-linejoin="round">
  <circle r="0" stroke="#c53822" stroke-width="2.257" style="paint-order:stroke markers fill"/>
  <g stroke="#924019">
   <circle r="0" stroke-width="1.288" style="paint-order:stroke markers fill"/>
   <circle transform="scale(1,-1)" r="0" stroke-width="3.595" style="paint-order:stroke markers fill"/>
   <circle transform="scale(1,-1)" r="0" stroke-width="3.595" style="paint-order:stroke markers fill"/>
  </g>
  <circle transform="scale(1,-1)" r="0" stroke="#4d4320" stroke-width="4.378" style="paint-order:stroke markers fill"/>
  <circle transform="scale(1,-1)" r="0" stroke="#4d4320" stroke-width="3.52" style="paint-order:stroke markers fill"/>
 </g>
 <path d="m4.341 99.18c-0.2564 4e-3 -0.3912 0.0225-0.3912 0.0225 4.625 8.586-5.415 27.67 7.624 46.26 11.2 15.97 19.1 27.43 24.92 33.51l6.978-3.285 9.708-4.108c-3.696-8.876-7.88-21.5-14.08-37.2-13.36-33.81-32.29-35.22-34.76-35.19z" fill="#78f991" fill-opacity=".4179" stroke-width=".1701"/>
 <path d="m154.5 100.1c-2.479-0.0329-23.94-1.671-37.3 32.14-6.731 17.04-9.446 33.51-12.36 42.44l3.846 1.304 12.67 3.636c5.919-5.915 14.07-16.35 25.92-33.25 13.04-18.59 2.998-37.67 7.624-46.26 0 0-0.1348-0.0187-0.3912-0.0222z" fill="#78f991" fill-opacity=".4179" stroke-width=".1701"/>
 <path d="m96.14 144.8s-1.636 14.26 1.847 20.32 17.54 12.47 17.54 12.47l-23.09 17.54-39.26-23.56s7.887-2.461 11.54-8.313 4.618-26.78 4.618-26.78z" fill="#f9bb78" stroke-width="1.222"/>
 <ellipse transform="matrix(.9935 -.1139 .119 .9929 0 0)" cx="21.82" cy="124.8" rx="16.32" ry="23.14" fill="#924019" stroke-width="1.222" style="paint-order:stroke markers fill"/>
 <path d="m156.8 75.68c-2.9 29.98-8.726 37.7-63.83 31.91-34.78-3.657-69.2-6.394-69.98-36.5-1.692-64.75 36.58-73.52 71.4-70.15 34.8 3.367 65.33 44.76 62.43 74.74z" fill="#924019" stroke-width="1.222" style="paint-order:stroke markers fill"/>
 <path d="m139.2 93.36c-4.705 22.06-7.991 32.3-10.72 35.96-3.224 4.322-27.2 18.9-34.43 18.79-24.8-0.3608-55.15-22.93-51.17-64.07 4.357-45.04 24.84-55.66 62.91-51.81 26.15 2.641 38.39 11.22 33.43 61.13z" fill="#f9bb78" stroke-width="1.222" style="paint-order:stroke markers fill"/>
 <g stroke-width="1.222">
  <path d="m106.4 38.29c37.05 17.63 32.75 55.1 32.75 55.1s32.24-57.51-3.036-72.74c-35.27-15.22-38.26-7.518-38.26-7.518z" fill="#924019"/>
  <path d="m116.5 35.52c-37.95 37.87-65.28 46.58-70.91 42.33-5.62-4.256-17.54-24.9-5.311-36.23 12.23-11.35 31.56-19.51 46.53-20.55 14.98-1.041 29.68 14.47 29.68 14.47z" fill="#924019"/>
  <path d="m49.3 92.65c-14.07-15.54-20.38-27.49-21.93-18.19-1.549 9.302 1.612 26.94 7.57 29.09 5.958 2.151 11.31 0.4641 11.31 0.4641" fill="#f9bb78"/>
 </g>
 <g shape-rendering="auto">
  <path d="m79.39 66.22c-5.56 0.1411-12.84 2.251-12.84 2.251a2.005 2.005 0 0 0-1.388 2.472 2.005 2.005 0 0 0 2.472 1.387s7.284-1.985 11.86-2.101c4.26-0.1081 8.766 2.524 8.766 2.524a2.005 2.005 0 0 0 2.758-0.6586 2.005 2.005 0 0 0-0.6586-2.758s-5.089-3.264-10.97-3.115z" color="#000000" color-rendering="auto" dominant-baseline="auto" fill="#924019" image-rendering="auto" solid-color="#000000" stop-color="#000000" style="font-feature-settings:normal;font-variant-alternates:normal;font-variant-caps:normal;font-variant-east-asian:normal;font-variant-ligatures:normal;font-variant-numeric:normal;font-variant-position:normal;font-variation-settings:normal;inline-size:0;isolation:auto;mix-blend-mode:normal;shape-margin:0;shape-padding:0;text-decoration-color:#000000;text-decoration-line:none;text-decoration-style:solid;text-indent:0;text-orientation:mixed;text-transform:none;white-space:normal"/>
  <path d="m127.3 69.94c-5.057-0.6878-9.352 2.277-9.352 2.277a2.005 2.005 0 0 0-0.5965 2.771 2.005 2.005 0 0 0 2.774 0.5944s3.527-2.092 6.634-1.669c1.577 0.2144 3.694 1.138 5.319 2.042 1.625 0.9037 2.753 1.726 2.753 1.726a2.005 2.005 0 0 0 2.801-0.4339 2.005 2.005 0 0 0-0.4362-2.802s-1.325-0.9683-3.171-1.994-4.221-2.17-6.726-2.511z" color="#000000" color-rendering="auto" dominant-baseline="auto" fill="#924019" image-rendering="auto" solid-color="#000000" stop-color="#000000" style="font-feature-settings:normal;font-variant-alternates:normal;font-variant-caps:normal;font-variant-east-asian:normal;font-variant-ligatures:normal;font-variant-numeric:normal;font-variant-position:normal;font-variation-settings:normal;inline-size:0;isolation:auto;mix-blend-mode:normal;shape-margin:0;shape-padding:0;text-decoration-color:#000000;text-decoration-line:none;text-decoration-style:solid;text-indent:0;text-orientation:mixed;text-transform:none;white-space:normal"/>
  <path d="m112.4 106.1a1.245 1.245 0 0 0-0.1914-4e-3 1.245 1.245 0 0 0-1.179 1.308s-0.0833 2.508-1.214 3.236c-1.395 0.8984-3.716 0.6211-3.716 0.6211a1.245 1.245 0 0 0-1.436 1.019 1.245 1.245 0 0 0 1.021 1.437s2.987 0.6208 5.477-0.983c2.755-1.774 2.355-5.459 2.355-5.459a1.245 1.245 0 0 0-1.116-1.175z" color="#000000" color-rendering="auto" dominant-baseline="auto" fill="#7f3816" image-rendering="auto" solid-color="#000000" stop-color="#000000" style="font-feature-settings:normal;font-variant-alternates:normal;font-variant-caps:normal;font-variant-east-asian:normal;font-variant-ligatures:normal;font-variant-numeric:normal;font-variant-position:normal;font-variation-settings:normal;inline-size:0;isolation:auto;mix-blend-mode:normal;shape-margin:0;shape-padding:0;text-decoration-color:#000000;text-decoration-line:none;text-decoration-style:solid;text-indent:0;text-orientation:mixed;text-transform:none;white-space:normal"/>
  <path d="m79.07 86.23c-6.87-0.4569-10.54 5.367-10.54 5.367a1.812 1.812 0 0 0 0.5781 2.496 1.812 1.812 0 0 0 2.496-0.5781s2.459-3.985 7.221-3.668c4.25 0.2827 6.783 5.186 6.783 5.186a1.812 1.812 0 0 0 2.418 0.8496 1.812 1.812 0 0 0 0.8496-2.42s-3.086-6.785-9.81-7.232z" color="#000000" color-rendering="auto" dominant-baseline="auto" fill="#5e2910" image-rendering="auto" solid-color="#000000" stop-color="#000000" style="font-feature-settings:normal;font-variant-alternates:normal;font-variant-caps:normal;font-variant-east-asian:normal;font-variant-ligatures:normal;font-variant-numeric:normal;font-variant-position:normal;font-variation-settings:normal;inline-size:0;isolation:auto;mix-blend-mode:normal;shape-margin:0;shape-padding:0;text-decoration-color:#000000;text-decoration-line:none;text-decoration-style:solid;text-indent:0;text-orientation:mixed;text-transform:none;white-space:normal"/>
  <path d="m124.4 90.7c-6.87-0.4569-10.54 5.367-10.54 5.367a1.812 1.812 0 0 0 0.5781 2.496 1.812 1.812 0 0 0 2.498-0.5762s2.457-3.987 7.219-3.67c4.25 0.2827 6.783 5.186 6.783 5.186a1.812 1.812 0 0 0 2.418 0.8496 1.812 1.812 0 0 0 0.8496-2.42s-3.086-6.785-9.811-7.232z" color="#000000" color-rendering="auto" dominant-baseline="auto" fill="#5e2910" image-rendering="auto" solid-color="#000000" stop-color="#000000" style="font-feature-settings:normal;font-variant-alternates:normal;font-variant-caps:normal;font-variant-east-asian:normal;font-variant-ligatures:normal;font-variant-numeric:normal;font-variant-position:normal;font-variation-settings:normal;inline-size:0;isolation:auto;mix-blend-mode:normal;shape-margin:0;shape-padding:0;text-decoration-color:#000000;text-decoration-line:none;text-decoration-style:solid;text-indent:0;text-orientation:mixed;text-transform:none;white-space:normal"/>
 </g>
 <ellipse transform="matrix(.9816 -.1908 .2342 .9722 0 0)" cx="20.19" cy="151.5" rx="17.17" ry="22.31" fill="#924019" stroke-width="1.222" style="paint-order:stroke markers fill"/>
 <path d="m105.5 127.5c-1.563 3.518-6.609 6.323-11.75 5.899-5.141-0.424-6.913-6.876-6.596-10.71 0.3165-3.837 3.696-3.517 9.611-2.901 10.92 1.138 10.5 3.737 8.735 7.715z" fill="#ef2e61" style="paint-order:stroke markers fill"/>
 <path d="m104.4 128.4c-1.565 3.517-5.547 5.417-10.69 4.993-5.141-0.424-6.913-6.876-6.596-10.71 0.3165-3.837 3.107-2.549 8.953-1.456 10.16 1.9 8.955 5.772 8.33 7.175z" fill="#ff7fa1" style="paint-order:stroke markers fill"/>
</svg>
