<?xml version="1.0" encoding="UTF-8"?>
<svg width="600" height="800" version="1.1" viewBox="0 0 158.8 211.7" xmlns="http://www.w3.org/2000/svg" xmlns:cc="http://creativecommons.org/ns#" xmlns:dc="http://purl.org/dc/elements/1.1/" xmlns:rdf="http://www.w3.org/1999/02/22-rdf-syntax-ns#">
 <metadata>
  <rdf:RDF>
   <cc:Work rdf:about="">
    <dc:format>image/svg+xml</dc:format>
    <dc:type rdf:resource="http://purl.org/dc/dcmitype/StillImage"/>
   </cc:Work>
  </rdf:RDF>
 </metadata>
 <path d="m153.9 210.8c-1.016-2.032-7.496-17.08-14.22-22.86s-24.14-10.33-24.14-10.33l-62.35-6.011s-17.71 6.7-23.73 13.8-8.126 25.9-8.126 25.9" fill="#fff"/>
 <g fill="none" stroke-linecap="round" stroke-linejoin="round">
  <circle r="0" stroke="#c53822" stroke-width="2.257" style="paint-order:stroke markers fill"/>
  <g stroke="#924019">
   <circle r="0" stroke-width="1.288" style="paint-order:stroke markers fill"/>
   <circle transform="scale(1,-1)" r="0" stroke-width="3.595" style="paint-order:stroke markers fill"/>
   <circle transform="scale(1,-1)" r="0" stroke-width="3.595" style="paint-order:stroke markers fill"/>
  </g>
  <circle transform="scale(1,-1)" r="0" stroke="#4d4320" stroke-width="4.378" style="paint-order:stroke markers fill"/>
  <circle transform="scale(1,-1)" r="0" stroke="#4d4320" stroke-width="3.52" style="paint-order:stroke markers fill"/>
 </g>
 <path d="m4.341 99.18c-0.2564 4e-3 -0.3912 0.0225-0.3912 0.0225 4.625 8.586-5.415 27.67 7.624 46.26 11.2 15.97 19.1 27.43 24.92 33.51l6.978-3.285 9.708-4.108c-3.696-8.876-7.88-21.5-14.08-37.2-13.36-33.81-32.29-35.22-34.76-35.19z" fill="#78f991" fill-opacity=".4179" stroke-width=".1701"/>
 <path d="m154.5 100.1c-2.479-0.0329-23.94-1.671-37.3 32.14-6.731 17.04-9.446 33.51-12.36 42.44l3.846 1.304 12.67 3.636c5.919-5.915 14.07-16.35 25.92-33.25 13.04-18.59 2.998-37.67 7.624-46.26 0 0-0.1348-0.0187-0.3912-0.0222z" fill="#78f991" fill-opacity=".4179" stroke-width=".1701"/>
 <ellipse transform="matrix(.9779 -.209 .214 .9768 0 0)" cx="9.847" cy="131.4" rx="16.32" ry="23.14" fill="#924019" stroke-width="1.222" style="paint-order:stroke markers fill"/>
 <path d="m153.1 69.17c0 30.12-5.056 38.36-60.47 37.91-34.97-0.2914-69.5 0.2979-73.17-29.59-7.918-64.29 29.34-76.7 64.32-76.7 34.97 0 69.34 38.27 69.34 68.38z" fill="#924019" stroke-width="1.222" style="paint-order:stroke markers fill"/>
 <path d="m136.7 90.81c-3.272 22.32-4.702 31.31-7.33 35.04-1.762 2.505-23.25 18.55-30.47 18.91-24.77 1.24-60.24-15.73-58.92-57.04 1.442-45.23 21.2-57.14 59.44-55.77 26.26 0.9488 39.03 8.721 37.3 58.85z" fill="#f9bb78" stroke-width="1.222" style="paint-order:stroke markers fill"/>
 <g stroke-width="1.222">
  <rect x="72.18" y="83.22" width="12.34" height="17.19" ry="6.091" fill="#c65722" style="paint-order:stroke markers fill"/>
  <path d="m99.32 36.8c38.57 13.98 37.9 51.69 37.9 51.69s26.55-60.34-10.02-72.11c-36.57-11.76-38.8-3.8-38.8-3.8z" fill="#924019"/>
  <rect x="116.7" y="82.73" width="12.34" height="17.19" ry="6.091" fill="#c65722" style="paint-order:stroke markers fill"/>
  <path d="m109.1 33.08c-34.12 41.34-60.49 52.65-66.5 48.96-6.004-3.695-19.85-23.09-8.775-35.55 11.08-12.47 29.53-22.46 44.34-24.94 14.81-2.478 30.94 11.54 30.94 11.54z" fill="#924019"/>
  <path d="m47.68 96.41c-15.5-14.11-22.93-25.4-23.58-15.99-0.646 9.408 4.198 26.66 10.34 28.22 6.137 1.568 11.3-0.6271 11.3-0.6271" fill="#f9bb78"/>
  <path d="m96.14 144.8s-1.636 14.26 1.847 20.32 17.54 12.47 17.54 12.47l-23.09 17.54-39.26-23.56s7.887-2.461 11.54-8.313 4.618-26.78 4.618-26.78z" fill="#f9bb78"/>
 </g>
 <ellipse transform="matrix(.9816 -.1908 .2342 .9722 0 0)" cx="20.19" cy="151.5" rx="17.17" ry="22.31" fill="#924019" stroke-width="1.222" style="paint-order:stroke markers fill"/>
 <g shape-rendering="auto">
  <path d="m74.46 81.04c-5.555 0.68-8.832 3.968-8.832 3.968a1.584 1.584 0 0 0 0.01197 2.241 1.584 1.584 0 0 0 2.241-0.01222s2.452-2.5 6.963-3.052c2.158-0.2642 4.469 0.2323 6.2 0.8615 0.8654 0.3146 1.589 0.6593 2.052 0.9211 0.2007 0.1134 0.3235 0.1994 0.3985 0.253a1.584 1.584 0 0 0 0.0024 0.0024 1.584 1.584 0 0 0 1.248 0.6061 1.584 1.584 0 0 0 1.584-1.584c0-0.9162-0.3402-1.021-0.4796-1.172-0.1395-0.151-0.2503-0.2404-0.3699-0.3317-0.2391-0.1827-0.5044-0.3482-0.8257-0.5298-0.6425-0.3631-1.499-0.7692-2.527-1.143-2.057-0.7477-4.792-1.38-7.667-1.028z" color="#000000" color-rendering="auto" dominant-baseline="auto" fill="#5e2910" image-rendering="auto" solid-color="#000000" stop-color="#000000" style="font-feature-settings:normal;font-variant-alternates:normal;font-variant-caps:normal;font-variant-east-asian:normal;font-variant-ligatures:normal;font-variant-numeric:normal;font-variant-position:normal;font-variation-settings:normal;inline-size:0;isolation:auto;mix-blend-mode:normal;shape-margin:0;shape-padding:0;text-decoration-color:#000000;text-decoration-line:none;text-decoration-style:solid;text-indent:0;text-orientation:mixed;text-transform:none;white-space:normal"/>
  <path d="m120.6 80.33c-4.542 0.7063-7.109 4.035-7.109 4.035a1.405 1.405 0 0 0 0.2434 1.971 1.405 1.405 0 0 0 1.974-0.2458s1.943-2.459 5.324-2.985c1.582-0.2461 3.328 0.2209 4.653 0.8328 0.6625 0.306 1.217 0.6437 1.57 0.8972 0.1536 0.1102 0.2457 0.1912 0.3007 0.241a1.405 1.405 0 0 0 1.203 0.6801 1.405 1.405 0 0 0 1.406-1.406c0-0.6468-0.2106-0.7823-0.315-0.9259-0.1043-0.1436-0.1927-0.2361-0.2887-0.3293-0.1921-0.1865-0.4072-0.356-0.6658-0.5417-0.5172-0.3714-1.205-0.7844-2.033-1.167-1.656-0.765-3.882-1.427-6.262-1.057z" color="#000000" color-rendering="auto" dominant-baseline="auto" fill="#5e2910" image-rendering="auto" solid-color="#000000" stop-color="#000000" style="font-feature-settings:normal;font-variant-alternates:normal;font-variant-caps:normal;font-variant-east-asian:normal;font-variant-ligatures:normal;font-variant-numeric:normal;font-variant-position:normal;font-variation-settings:normal;inline-size:0;isolation:auto;mix-blend-mode:normal;shape-margin:0;shape-padding:0;text-decoration-color:#000000;text-decoration-line:none;text-decoration-style:solid;text-indent:0;text-orientation:mixed;text-transform:none;white-space:normal"/>
  <path d="m75.09 67.21c-5.52 0.6757-12.57 3.477-12.57 3.477a2.005 2.005 0 0 0-1.143 2.594 2.005 2.005 0 0 0 2.594 1.143s7.059-2.677 11.6-3.233c4.23-0.5178 8.968 1.668 8.968 1.668a2.005 2.005 0 0 0 2.682-0.9211 2.005 2.005 0 0 0-0.9211-2.682s-5.38-2.759-11.22-2.045z" color="#000000" color-rendering="auto" dominant-baseline="auto" fill="#924019" image-rendering="auto" solid-color="#000000" stop-color="#000000" style="font-feature-settings:normal;font-variant-alternates:normal;font-variant-caps:normal;font-variant-east-asian:normal;font-variant-ligatures:normal;font-variant-numeric:normal;font-variant-position:normal;font-variation-settings:normal;inline-size:0;isolation:auto;mix-blend-mode:normal;shape-margin:0;shape-padding:0;text-decoration-color:#000000;text-decoration-line:none;text-decoration-style:solid;text-indent:0;text-orientation:mixed;text-transform:none;white-space:normal"/>
  <path d="m123.1 66.3c-5.1-0.1977-9.089 3.167-9.089 3.167a2.005 2.005 0 0 0-0.3269 2.816 2.005 2.005 0 0 0 2.818 0.3245s3.31-2.422 6.443-2.3c1.59 0.06158 3.786 0.7771 5.491 1.52 1.705 0.743 2.906 1.453 2.906 1.453a2.005 2.005 0 0 0 2.747-0.7016 2.005 2.005 0 0 0-0.704-2.747s-1.412-0.8362-3.348-1.68c-1.936-0.8437-4.41-1.754-6.937-1.852z" color="#000000" color-rendering="auto" dominant-baseline="auto" fill="#924019" image-rendering="auto" solid-color="#000000" stop-color="#000000" style="font-feature-settings:normal;font-variant-alternates:normal;font-variant-caps:normal;font-variant-east-asian:normal;font-variant-ligatures:normal;font-variant-numeric:normal;font-variant-position:normal;font-variation-settings:normal;inline-size:0;isolation:auto;mix-blend-mode:normal;shape-margin:0;shape-padding:0;text-decoration-color:#000000;text-decoration-line:none;text-decoration-style:solid;text-indent:0;text-orientation:mixed;text-transform:none;white-space:normal"/>
  <path d="m111.8 103.8a1.245 1.245 0 0 0-0.1909 0.0143 1.245 1.245 0 0 0-1.048 1.415s0.1585 2.504-0.8972 3.338c-1.302 1.028-3.639 0.976-3.639 0.976a1.245 1.245 0 0 0-1.332 1.153 1.245 1.245 0 0 0 1.155 1.332s3.032 0.3304 5.357-1.506c2.571-2.031 1.818-5.66 1.818-5.66a1.245 1.245 0 0 0-1.224-1.062z" color="#000000" color-rendering="auto" dominant-baseline="auto" fill="#7f3816" image-rendering="auto" solid-color="#000000" stop-color="#000000" style="font-feature-settings:normal;font-variant-alternates:normal;font-variant-caps:normal;font-variant-east-asian:normal;font-variant-ligatures:normal;font-variant-numeric:normal;font-variant-position:normal;font-variation-settings:normal;inline-size:0;isolation:auto;mix-blend-mode:normal;shape-margin:0;shape-padding:0;text-decoration-color:#000000;text-decoration-line:none;text-decoration-style:solid;text-indent:0;text-orientation:mixed;text-transform:none;white-space:normal"/>
  <path d="m91.07 117.8c-0.729 1.176 1.766 1.858 2.657 2.612 0 0 3.099 3.028 6.605 3.182 3.079-0.145 4.086-2.026 4.593-2.456 0.7582-0.519 1.493-1.015 1.076-1.592-0.6338 0.3915-0.8516 0.2236-1.609 0.7433 0 0-3.22 0.5818-4.047 0.5393-1.082-0.0556-6.639-1.57-6.639-1.57-1.301-0.6232-1.962-1.082-2.636-1.459z" color="#000000" color-rendering="auto" dominant-baseline="auto" fill="#ee5f5f" image-rendering="auto" solid-color="#000000" stop-color="#000000" style="font-feature-settings:normal;font-variant-alternates:normal;font-variant-caps:normal;font-variant-east-asian:normal;font-variant-ligatures:normal;font-variant-numeric:normal;font-variant-position:normal;font-variation-settings:normal;inline-size:0;isolation:auto;mix-blend-mode:normal;shape-margin:0;shape-padding:0;text-decoration-color:#000000;text-decoration-line:none;text-decoration-style:solid;text-indent:0;text-orientation:mixed;text-transform:none;white-space:normal"/>
 </g>
</svg>
