<?xml version="1.0" encoding="UTF-8" standalone="no"?>
<svg
   width="600"
   height="800"
   version="1.1"
   viewBox="0 0 158.8 211.7"
   id="svg1123"
   sodipodi:docname="sleep.svg"
   inkscape:version="1.1.2 (1:1.1+202202050942+0a00cf5339)"
   xmlns:inkscape="http://www.inkscape.org/namespaces/inkscape"
   xmlns:sodipodi="http://sodipodi.sourceforge.net/DTD/sodipodi-0.dtd"
   xmlns="http://www.w3.org/2000/svg"
   xmlns:svg="http://www.w3.org/2000/svg"
   xmlns:rdf="http://www.w3.org/1999/02/22-rdf-syntax-ns#"
   xmlns:cc="http://creativecommons.org/ns#"
   xmlns:dc="http://purl.org/dc/elements/1.1/">
  <defs
     id="defs1127" />
  <sodipodi:namedview
     id="namedview1125"
     pagecolor="#ffffff"
     bordercolor="#999999"
     borderopacity="1"
     inkscape:pageshadow="0"
     inkscape:pageopacity="0"
     inkscape:pagecheckerboard="0"
     showgrid="false"
     inkscape:zoom="0.31775611"
     inkscape:cx="-108.57384"
     inkscape:cy="127.45624"
     inkscape:window-width="1920"
     inkscape:window-height="940"
     inkscape:window-x="0"
     inkscape:window-y="0"
     inkscape:window-maximized="1"
     inkscape:current-layer="svg1123"
     inkscape:snap-global="false" />
  <metadata
     id="metadata1067">
    <rdf:RDF>
      <cc:Work
         rdf:about="">
        <dc:format>image/svg+xml</dc:format>
        <dc:type
           rdf:resource="http://purl.org/dc/dcmitype/StillImage" />
      </cc:Work>
    </rdf:RDF>
  </metadata>
  <path
     style="fill:#f2c7b0;fill-opacity:1;stroke:none;stroke-width:0.264667px;stroke-linecap:butt;stroke-linejoin:miter;stroke-opacity:1"
     d="m 124.83144,137.47558 4.20597,13.46762 c 3.70042,2.95227 8.64619,12.77196 8.64619,12.77196 l 6.34944,2.71636 c 0,0 -1.75028,2.97307 -5.35328,1.40316 -6.99405,-2.62646 -15.54297,-6.26909 -15.54297,-6.26909 0,0 -6.34238,0.28293 -9.14848,-2.90533 -2.8061,-3.18828 1.17134,-10.34849 1.17134,-10.34849 l -1.29448,-11.98497 z"
     id="path2065-7"
     sodipodi:nodetypes="cccccczccc" />
  <path
     style="fill:#b7a68d;fill-opacity:0.594456;stroke:none;stroke-width:0.264667px;stroke-linecap:butt;stroke-linejoin:miter;stroke-opacity:1"
     d="m 116.2012,138.66275 3.40998,18.30532 c 0,0 15.17114,4.53932 15.41583,3.88074 0.2447,-0.65857 -6.93664,-13.96107 -6.93664,-13.96107 l -3.9364,-16.12539 z"
     id="path1679-5"
     sodipodi:nodetypes="ccsccc" />
  <path
     style="font-variation-settings:normal;vector-effect:none;fill:#78b438;fill-opacity:1;stroke:none;stroke-width:0.264667px;stroke-linecap:butt;stroke-linejoin:miter;stroke-miterlimit:4;stroke-dasharray:none;stroke-dashoffset:0;stroke-opacity:1;-inkscape-stroke:none;stop-color:#000000"
     d="m 113.26753,147.07822 14.1886,-4.85937 -6.82234,-33.06194 -6.73592,-12.218211 -11.5131,-0.122994 -3.831656,12.875405 z"
     id="path15559"
     sodipodi:nodetypes="ccccccc" />
  <path
     style="fill:#f2c7b0;fill-opacity:1;stroke:none;stroke-width:0.264667px;stroke-linecap:butt;stroke-linejoin:miter;stroke-opacity:1"
     d="m 131.11384,132.49267 6.12493,12.7103 c 4.09139,2.38109 10.41627,11.37459 10.41627,11.37459 l 6.67769,1.7614 c 0,0 -1.29803,3.19652 -5.09144,2.16881 -7.3023,-1.57845 -16.29101,-3.93548 -16.29101,-3.93548 0,0 -6.23333,1.20479 -9.47437,-1.54019 -3.24104,-2.74498 -0.35025,-10.40867 -0.35025,-10.40867 l -3.02836,-11.66808 z"
     id="path2065"
     sodipodi:nodetypes="cccccczccc" />
  <path
     style="fill:#95d452;fill-opacity:1;stroke:none;stroke-width:0.264667px;stroke-linecap:butt;stroke-linejoin:miter;stroke-opacity:1"
     d="m 87.867716,139.33405 19.986404,-46.522907 13.12076,3.146041 4.05928,12.467156 8.32883,24.55505 2.02697,2.82359 -17.02141,7.09392 1.31894,-4.89932 -6.8652,-17.53691 c 0,0 5.17883,28.6804 1.89123,36.69387 -3.2876,8.01348 -9.85431,10.96619 -9.85431,10.96619 0,0 -14.525425,6.86846 -22.3138,-0.36419 -7.788375,-7.23266 -5.317108,-15.84855 -5.317108,-15.84855 z"
     id="path2030"
     sodipodi:nodetypes="ccccccccczczcc" />
  <path
     style="fill:#f2c7b0;fill-opacity:1;stroke:none;stroke-width:0.264667px;stroke-linecap:butt;stroke-linejoin:miter;stroke-opacity:1"
     d="m 124.89882,113.32879 3.48164,-1.4362 6.63568,5.67678 -0.51725,4.94366 -2.41962,3.96841 -0.91747,-0.95537 0.6628,-2.29411 -2.49463,-2.87716 -2.87792,1.19121 z"
     id="path19875" />
  <path
     style="fill:#f2c7b0;fill-opacity:1;stroke:none;stroke-width:0.264667px;stroke-linecap:butt;stroke-linejoin:miter;stroke-opacity:1"
     d="m 127.75876,121.65334 0.72673,2.43504 -3.01158,3.67286 c -0.7419,1.9158 0.53654,1.68754 1.27688,1.36117 l 3.63065,-2.84695 -4.18123,4.2013 c -0.92867,1.45388 0.28781,2.09337 1.30786,1.89719 l 4.3721,-4.12726 c 0,0 0.78995,-1.42572 0.51981,-2.86817 -0.27015,-1.44245 -3.07661,-5.02297 -3.07661,-5.02297 z"
     id="path19910"
     sodipodi:nodetypes="cccccccczcc" />
  <path
     style="fill:#f2c7b0;fill-opacity:1;stroke:none;stroke-width:0.264667px;stroke-linecap:butt;stroke-linejoin:miter;stroke-opacity:1"
     d="m 131.14083,128.76205 c 0.94038,0.20569 0.87489,2.77968 -0.32412,3.31865 l -3.36346,3.00565 c -1.13146,0.52576 -1.98861,-0.30742 -1.05644,-1.5534 z"
     id="path19912"
     sodipodi:nodetypes="ccccc" />
  <path
     style="fill:#e7bf91;fill-opacity:1;stroke:none;stroke-width:0.264667px;stroke-linecap:butt;stroke-linejoin:miter;stroke-opacity:1"
     d="m 97.877579,80.286984 -19.811404,8.936889 17.512727,7.80156 5.852118,-6.639745 -0.29045,-11.582463 z"
     id="path20981" />
  <path
     style="fill:#c2e69b;fill-opacity:1;stroke:none;stroke-width:0.264667px;stroke-linecap:butt;stroke-linejoin:miter;stroke-opacity:1"
     d="m 89.071063,85.590982 -8.906909,1.624015 c 0,0 -8.627281,3.472629 -12.409209,20.919713 -3.781929,17.44708 2.560679,27.86869 2.560679,27.86869 l 1.438819,13.59843 1.895788,15.76516 16.033585,-6.79413 3.85237,-35.56652 4.602011,-31.025138 z"
     id="path1995"
     sodipodi:nodetypes="cczccccccc" />
  <path
     style="fill:#b7a68d;fill-opacity:0.594456;stroke:none;stroke-width:0.264667px;stroke-linecap:butt;stroke-linejoin:miter;stroke-opacity:1"
     d="m 83.94587,95.110834 6.355004,34.930006 c 0,0 10.571386,4.97559 10.816076,4.31701 0.24469,-0.65858 -3.470242,-23.08746 -3.470242,-23.08746 l -3.93641,-16.125379 z"
     id="path1679"
     sodipodi:nodetypes="ccsccc" />
  <path
     style="fill:#b7a68d;fill-opacity:1;stroke:none;stroke-width:0.34184px;stroke-linecap:butt;stroke-linejoin:miter;stroke-opacity:1"
     d="m 95.409981,80.414611 -5.056262,6.073721 4.229968,5.201392 6.067063,-1.440392 1.44298,-12.090972 z"
     id="path29071" />
  <path
     style="fill:#f2c7b0;fill-opacity:1;stroke:none;stroke-width:0.34184px;stroke-linecap:butt;stroke-linejoin:miter;stroke-opacity:1"
     d="m 101.46288,72.878026 7.97882,-9.198116 c 3.74079,-1.770366 21.48289,-6.027284 24.37035,8.822285 2.88745,14.849569 -9.04874,20.776425 -16.75169,20.084065 -3.52213,2.3847 -14.96558,3.821381 -18.02617,1.227326 -0.860232,-0.474282 -1.547181,-11.830714 -1.547181,-11.830714 z"
     id="path20983"
     sodipodi:nodetypes="cczcccc" />
  <path
     style="fill:#8e6224;fill-opacity:1;stroke:none;stroke-width:0.34184px;stroke-linecap:butt;stroke-linejoin:miter;stroke-opacity:1"
     d="m 117.54502,88.183051 c -2.94187,-2.681446 -2.70098,-7.129776 -2.70098,-7.129776 -0.59839,0.150621 -2.01,-1.788728 -2.01,-1.788728 0,0 1.27686,2.359126 0.95086,2.744507 0,0 -0.72533,2.112385 -0.0651,3.296123 0.66018,1.183739 2.54003,3.727299 3.82527,2.877874 z"
     id="path24564"
     sodipodi:nodetypes="cccczc" />
  <path
     style="fill:#71c837;fill-opacity:1;stroke:none;stroke-width:0.34184px;stroke-linecap:butt;stroke-linejoin:miter;stroke-opacity:1"
     d="m 133.68678,69.867956 c 4.38147,1.711491 4.75293,9.241899 3.72652,13.720194 -1.0264,4.478296 -5.67158,9.026506 -8.84031,10.440022 -3.16874,1.413515 -6.81827,-0.07402 -6.81827,-0.07402 10.89564,-5.559864 11.93206,-24.086193 11.93206,-24.086193 z"
     id="path8301"
     sodipodi:nodetypes="czzcc" />
  <path
     style="fill:#e7bf91;fill-opacity:1;stroke:none;stroke-width:0.34184px;stroke-linecap:butt;stroke-linejoin:miter;stroke-opacity:1"
     d="m 116.93268,90.869057 c 0,0 -0.0372,3.038313 -1.98174,3.679841 -1.5506,-0.29162 -2.56371,-1.511299 -2.56371,-1.511299 z"
     id="path10335"
     sodipodi:nodetypes="cccc" />
  <path
     style="fill:#d58f6f;fill-opacity:1;stroke:none;stroke-width:0.34184px;stroke-linecap:butt;stroke-linejoin:miter;stroke-opacity:1"
     d="m 108.78038,93.564256 -2.61726,-3.015242 -1.35518,-2.000055 c -0.2062,0.582352 2.19621,4.705626 2.19621,4.705626 0,0 0.66876,0.967944 1.77623,0.309671 z"
     id="path10617"
     sodipodi:nodetypes="ccccc" />
  <path
     style="font-variation-settings:normal;vector-effect:none;fill:#8e6224;fill-opacity:1;stroke:none;stroke-width:0.34184px;stroke-linecap:butt;stroke-linejoin:miter;stroke-miterlimit:4;stroke-dasharray:none;stroke-dashoffset:0;stroke-opacity:1;-inkscape-stroke:none;stop-color:#000000"
     d="m 118.98243,91.063706 1.18245,1.366333 c 0,0 0.20265,0.609783 0.73092,1.193364 -1.07147,-0.428784 -2.28472,-1.175583 -2.93468,-2.055943 z"
     id="path13637"
     sodipodi:nodetypes="ccccc" />
  <path
     d="m 123.31688,80.954027 c -0.97758,-1.793941 -2.66057,-3.373436 -5.07186,-3.914757 l -0.27007,0.939187 c 2.06267,0.460545 3.51208,1.813145 4.38847,3.418535 0.87556,1.605687 1.14015,3.469366 0.84215,4.766653 l 1.02884,0.178265 c 0.3572,-1.578904 0.0438,-3.598453 -0.9305,-5.393603 z"
     color="#000000"
     fill="#845816"
     style="stroke-width:0.848043;-inkscape-stroke:none"
     id="path71-7-2-5" />
  <path
     style="fill:#71c837;fill-opacity:1;stroke:none;stroke-width:0.34184px;stroke-linecap:butt;stroke-linejoin:miter;stroke-opacity:1"
     d="m 137.12941,78.929215 c 0,0 -5.09181,5.21307 -11.20911,4.422607 -6.1173,-0.790463 -17.32198,-13.124384 -17.32198,-13.124384 l -0.0783,-3.121514 23.61472,-0.07195 z"
     id="path4727"
     sodipodi:nodetypes="czcccc" />
  <path
     style="fill:#71c837;fill-opacity:1;stroke:none;stroke-width:0.34184px;stroke-linecap:butt;stroke-linejoin:miter;stroke-opacity:1"
     d="m 134.38041,69.821821 c -0.0832,-3.316609 -2.94665,-7.488132 -7.55278,-9.657472 -4.60613,-2.169339 -12.1806,-2.365275 -18.17048,0.09067 -5.98987,2.45595 -14.359153,14.402929 -14.359153,14.402929 0,0 -13.620329,3.675963 -17.892651,8.59491 -4.272322,4.918948 -6.919607,16.235319 -6.733507,23.319252 1.429074,-5.78014 4.536088,-9.469902 4.536088,-9.469902 0.234785,9.362482 4.439099,15.931442 4.439099,15.931442 -2.169445,-9.95198 1.152448,-21.285725 1.152448,-21.285725 C 80.823765,87.479569 96.267139,81.4342 96.267139,81.4342 l 14.429181,-7.013603 z"
     id="path8925"
     sodipodi:nodetypes="czzczccccccc" />
  <path
     style="fill:#f2c7b0;fill-opacity:1;stroke:none;stroke-width:0.34184px;stroke-linecap:butt;stroke-linejoin:miter;stroke-opacity:1"
     d="m 111.61274,71.244897 c 0,0 -0.22712,-15.615664 -1.57786,-17.04032 -3.85135,0.08933 -3.93098,15.456254 -3.93098,15.456254 -2.58158,0.154543 -2.97677,4.408565 -2.97677,4.408565 l 1.7752,1.218584 z"
     id="path6083"
     sodipodi:nodetypes="cccccc" />
  <path
     id="path16006"
     style="font-variation-settings:normal;vector-effect:none;fill:#6fc835;fill-opacity:0.360784;stroke:none;stroke-width:1px;stroke-linecap:butt;stroke-linejoin:miter;stroke-miterlimit:4;stroke-dasharray:none;stroke-dashoffset:0;stroke-opacity:1;-inkscape-stroke:none;stop-color:#000000"
     d="M 283.83203 375.37891 C 283.83203 375.37891 119.32801 417.40178 0 455.42188 L 0 557.67383 C 6.6576779 558.17684 13.368646 558.21802 20.072266 557.68359 L 284.73242 422.08594 L 283.83203 375.37891 z "
     transform="matrix(0.26466667,0,0,0.26466667,0,-0.01666667)" />
  <path
     style="font-variation-settings:normal;vector-effect:none;fill:#6fc835;fill-opacity:0.360784;stroke:none;stroke-width:0.264667px;stroke-linecap:butt;stroke-linejoin:miter;stroke-miterlimit:4;stroke-dasharray:none;stroke-dashoffset:0;stroke-opacity:1;-inkscape-stroke:none;stop-color:#000000"
     d="m 74.803024,104.37702 0.444261,13.76948 c 0,0 -52.056637,48.4945 -57.014273,45.05687 0,0 -0.705646,-19.9514 8.57815,-32.26633 9.283794,-12.31494 47.991862,-26.56002 47.991862,-26.56002 z"
     id="path16250"
     sodipodi:nodetypes="ccczc" />
  <path
     style="font-variation-settings:normal;opacity:1;vector-effect:none;fill:#f2c7b0;fill-opacity:1;stroke:none;stroke-width:0.264667px;stroke-linecap:butt;stroke-linejoin:miter;stroke-miterlimit:4;stroke-dasharray:none;stroke-dashoffset:0;stroke-opacity:1;-inkscape-stroke:none;stop-color:#000000;stop-opacity:1"
     d="m 84.691772,96.991585 c -0.690578,-0.778832 -0.866091,-8.087257 1.800748,-10.407244 5.168155,-4.495978 11.233195,0.343869 12.466816,6.804417 0,0 8.273974,25.201312 7.832254,28.796072 2.47406,-4.17827 19.86328,-9.18982 19.86328,-9.18982 l 2.78021,6.76262 c 0,0 -21.68813,14.85919 -26.80199,15.53513 -4.439968,-1.01459 -6.403534,-5.6344 -6.403534,-5.6344 0,0 -10.931276,-30.009525 -11.537784,-32.666775 z"
     id="path18371"
     sodipodi:nodetypes="csccccccc" />
</svg>
