<?xml version="1.0" encoding="UTF-8" standalone="no"?>
<svg
   width="600"
   height="800"
   version="1.1"
   viewBox="0 0 158.8 211.7"
   id="svg60"
   sodipodi:docname="waving.svg"
   inkscape:version="1.1.2 (1:1.1+202202050942+0a00cf5339)"
   xmlns:inkscape="http://www.inkscape.org/namespaces/inkscape"
   xmlns:sodipodi="http://sodipodi.sourceforge.net/DTD/sodipodi-0.dtd"
   xmlns="http://www.w3.org/2000/svg"
   xmlns:svg="http://www.w3.org/2000/svg"
   xmlns:rdf="http://www.w3.org/1999/02/22-rdf-syntax-ns#"
   xmlns:cc="http://creativecommons.org/ns#"
   xmlns:dc="http://purl.org/dc/elements/1.1/">
  <defs
     id="defs64" />
  <sodipodi:namedview
     id="namedview62"
     pagecolor="#ffffff"
     bordercolor="#999999"
     borderopacity="1"
     inkscape:pageshadow="0"
     inkscape:pageopacity="0"
     inkscape:pagecheckerboard="0"
     showgrid="false"
     inkscape:snap-nodes="false"
     inkscape:snap-global="false"
     inkscape:zoom="1"
     inkscape:cx="398.5"
     inkscape:cy="446.5"
     inkscape:window-width="1920"
     inkscape:window-height="940"
     inkscape:window-x="0"
     inkscape:window-y="0"
     inkscape:window-maximized="1"
     inkscape:current-layer="svg60" />
  <metadata
     id="metadata2">
    <rdf:RDF>
      <cc:Work
         rdf:about="">
        <dc:format>image/svg+xml</dc:format>
        <dc:type
           rdf:resource="http://purl.org/dc/dcmitype/StillImage" />
      </cc:Work>
    </rdf:RDF>
  </metadata>
  <path
     style="fill:#71c837;stroke:none;stroke-width:0.264667px;stroke-linecap:butt;stroke-linejoin:miter;stroke-opacity:1;fill-opacity:0.36113471"
     d="m 84.201218,121.6535 43.998762,14.57734 c 0,0 21.4256,21.64684 14.55254,34.84295 l -60.329531,-37.5227 z"
     id="path63150"
     sodipodi:nodetypes="ccccc" />
  <path
     style="fill:#71c837;stroke:none;stroke-width:0.264667px;stroke-linecap:butt;stroke-linejoin:miter;stroke-opacity:1;fill-opacity:0.36113471"
     d="m 61.667334,120.94427 -22.858516,8.02685 c 0,0 -19.734208,18.33644 -12.999682,32.26452 l 37.334541,-30.55039 z"
     id="path63152"
     sodipodi:nodetypes="ccccc" />
  <path
     style="fill:#71c837;stroke:none;stroke-width:0.264667px;stroke-linecap:butt;stroke-linejoin:miter;stroke-opacity:1;fill-opacity:0.36113471"
     d="m 64.70273,109.65872 c 0,0 -50.154334,-56.40088 -57.8172613,-57.449209 -12.4372656,8.758813 10.1110933,43.16548 10.1110933,43.16548 L 66.01986,119.54236 Z"
     id="path60165"
     sodipodi:nodetypes="ccccc" />
  <path
     style="fill:#71c837;fill-opacity:0.36113471;stroke:none;stroke-width:0.264667px;stroke-linecap:butt;stroke-linejoin:miter;stroke-opacity:1"
     d="m 78.900022,108.19349 c 4.649407,-1.25752 68.506548,-66.838467 74.312608,-63.92486 13.16573,16.050053 -10.63297,44.30072 -10.63297,44.30072 L 84.598719,118.906 Z"
     id="path40277"
     sodipodi:nodetypes="ccccc" />
  <g
     fill="none"
     stroke-linecap="round"
     stroke-linejoin="round"
     id="g20">
    <circle
       r="0"
       stroke="#c53822"
       stroke-width="2.257"
       style="paint-order:stroke markers fill"
       id="circle6" />
    <g
       stroke="#924019"
       id="g14">
      <circle
         r="0"
         stroke-width="1.288"
         style="paint-order:stroke markers fill"
         id="circle8" />
      <circle
         transform="scale(1,-1)"
         r="0"
         stroke-width="3.595"
         style="paint-order:stroke markers fill"
         id="circle10" />
      <circle
         transform="scale(1,-1)"
         r="0"
         stroke-width="3.595"
         style="paint-order:stroke markers fill"
         id="circle12" />
    </g>
    <circle
       transform="scale(1,-1)"
       r="0"
       stroke="#4d4320"
       stroke-width="4.378"
       style="paint-order:stroke markers fill"
       id="circle16" />
    <circle
       transform="scale(1,-1)"
       r="0"
       stroke="#4d4320"
       stroke-width="3.52"
       style="paint-order:stroke markers fill"
       id="circle18" />
  </g>
  <path
     style="opacity:0.835895;fill:#71c837;stroke:none;stroke-width:0.264667px;stroke-linecap:butt;stroke-linejoin:miter;stroke-opacity:1"
     d="M 53.371391,47.838231 C 39.561448,46.941862 33.938396,63.139142 36.405445,74.517013 c 0,0 5.881061,24.147874 8.60173,36.419277 2.720669,12.2714 0.321948,28.34953 2.714232,36.89995 2.392283,8.55043 8.828761,14.69334 8.828761,14.69334 l 15.581533,-14.89746 28.549609,13.29668 c 0,0 9.69065,-20.09649 9.99357,-29.57498 0.30293,-9.47849 -4.0771,-16.69335 -7.34595,-26.56117 C 100.06008,94.924828 85.323458,72.889394 85.323458,72.889394 84.723981,51.7206 68.908188,42.857769 53.371391,47.838231 Z"
     id="path20725"
     sodipodi:nodetypes="cczzccczzcc" />
  <g
     id="g50657"
     style="stroke:none;stroke-opacity:1;fill:#f2c7b0;fill-opacity:1">
    <path
       style="fill:#f2c7b0;stroke:none;stroke-width:0.264667px;stroke-linecap:butt;stroke-linejoin:miter;stroke-opacity:1;fill-opacity:1;opacity:1"
       d="m 119.91041,114.08115 -1.02667,-5.55003 c -1.27399,-6.03953 -1.05523,-8.644017 -1.39966,-10.788031 l -1.36055,-4.537168 c 0,0 1.85242,-0.318204 3.10474,0.682143 1.25232,1.000347 3.26817,8.400136 4.91878,7.664616 l 4.95905,-6.2339 4.28784,-14.049776 c 0,-1.766611 2.20258,-2.443288 2.25521,-0.816729 -0.20584,5.387943 -1.78214,9.788319 -2.78458,14.656242 0.56709,0.144091 0.7994,0.522004 0.7994,0.522004 l 9.17413,-14.054093 c 1.74155,-1.830217 3.42521,-1.12011 2.8459,0.696521 l -8.32058,15.371499 0.85066,0.64562 c 0,0 6.44728,-7.06558 11.17138,-11.761205 1.06951,-1.038168 2.41482,0.05061 1.4126,1.510088 l -9.69638,13.213489 0.70084,1.39793 c 4.19236,-3.068491 8.77238,-6.472009 8.77238,-6.472009 1.96303,-1.395344 1.34386,1.412311 0.60535,2.105381 0,0 -5.02972,4.760458 -8.00281,7.483148 -3.52495,5.87861 -12.27683,13.75443 -12.27683,13.75443 z"
       id="path1739"
       sodipodi:nodetypes="cccczccccccccccccccccccc" />
    <path
       style="fill:#f2c7b0;stroke:none;stroke-width:0.264667px;stroke-linecap:butt;stroke-linejoin:miter;stroke-opacity:1;fill-opacity:1"
       d="m 28.604546,180.22136 -3.821379,14.57605 c -0.131425,2.27534 0.741097,5.02002 0.741097,5.02002 0,0 -0.160758,3.44724 0.346823,5.50229 0.658848,1.60988 3.322999,6.26783 3.322999,6.26783 0,0 0.91537,-2.21611 0.399162,-3.30144 l 2.65e-4,-0.6945 3.862503,2.3944 c 1.081593,-0.46646 0.02818,-3.20078 -1.255004,-3.97639 0.697097,-0.22805 0.370761,-1.80514 0.370761,-1.80514 -0.572286,-1.52044 -2.896806,-2.64403 -2.896806,-2.64403 l 0.619162,-1.35767 1.589749,0.71321 c 0.48745,-1.2898 -1.073827,-2.35328 0.147242,-3.63848 l 1.628285,6.04754 c 0.694221,2.43207 2.580177,0.96886 2.478661,-0.22 0,0 -0.219199,-7.40258 0.390246,-13.20429 0.613123,-1.53223 -1.04248,-4.11126 -0.956781,-5.67771 l 0.345097,-4.41782 z"
       id="path21998"
       sodipodi:nodetypes="cccccccccccccccccccc" />
  </g>
  <path
     style="fill:#f2c7b0;fill-opacity:1;stroke:none;stroke-width:0.264667px;stroke-linecap:butt;stroke-linejoin:miter;stroke-opacity:1"
     d="m 80.906926,77.256383 c 0,0 -0.467307,9.72082 -2.948281,14.313488 C 75.477671,96.162539 69.855441,102.65042 66.121804,103.3584 62.388167,104.06638 53.766663,99.317394 50.502699,95.46257 47.238735,91.607746 40.83422,74.441541 40.83422,74.441541 36.47564,51.406292 84.426919,54.433944 80.906926,77.256383 Z"
     id="path8915"
     sodipodi:nodetypes="czzzcc" />
  <path
     style="fill:#f2c7b0;fill-opacity:1;stroke:none;stroke-width:0.264667px;stroke-linecap:butt;stroke-linejoin:miter;stroke-opacity:1"
     d="m 73.873843,96.525472 c 0,0 2.531052,4.883638 5.997503,7.071038 3.466451,2.18741 8.862796,1.10277 13.889571,5.32354 5.026775,4.22076 5.037484,8.75513 7.213253,14.92585 0.0903,2.21011 5.09057,9.87178 6.82555,14.51915 0,0 12.19939,-17.19848 12.11069,-24.2839 6.00094,-1.91673 10.9902,5.44017 10.9902,5.44017 -3.1026,2.26724 -16.60335,34.38052 -16.60335,34.38052 -1.2014,2.49877 -8.93085,4.44592 -11.60369,1.09877 L 90.043955,133.36576 87.7318,152.01368 c 8.926277,3.25727 13.66996,12.78812 16.28055,23.58333 2.61059,10.79522 2.66889,20.9722 2.28421,36.17705 l -23.955178,0.52582 -1.158377,-19.88911 -3.182948,-4.47591 c 0,0 -1.891862,15.85782 -6.086577,24.20983 l -17.476673,0.0425 c -2.00585,-16.02606 2.442281,-51.50727 4.074373,-53.66645 l 2.541821,-4.37702 -2.443967,-8.1232 -2.325069,-2.74094 c -18.488498,36.73041 -22.416906,38.53562 -22.4165,42.81412 l -5.195581,-5.87321 16.766146,-38.04614 4.613283,-29.25916 c 1.140797,-3.79533 7.131392,-7.1559 7.131392,-7.1559 l 6.014974,-1.38281 -3.51539,-7.81531 z"
     id="path1774"
     sodipodi:nodetypes="czzcccccccczcccccccccccccccccc" />
  <path
     style="fill:#f2c7b0;fill-opacity:1;stroke:none;stroke-width:0.264667px;stroke-linecap:butt;stroke-linejoin:miter;stroke-opacity:1"
     d="m 80.72367,77.978852 c 0.906942,-0.361964 16.110245,-8.839243 16.110245,-8.839243 1.270128,2.90588 -13.197858,12.244145 -13.197858,12.244145 0,0 -1.610538,3.709928 -4.234981,4.176414 z"
     id="path29290"
     sodipodi:nodetypes="ccccc" />
  <path
     style="fill:#f2c7b0;fill-opacity:1;stroke:none;stroke-width:0.264667px;stroke-linecap:butt;stroke-linejoin:miter;stroke-opacity:1"
     d="m 44.921768,85.103443 c 0,0 -8.531776,-5.612883 -9.874703,-3.176336 0,0 11.375836,9.193072 13.169795,8.785557 z"
     id="path29325"
     sodipodi:nodetypes="cccc" />
  <path
     style="fill:#6ea363;fill-opacity:1;stroke:none;stroke-width:0.328347px;stroke-linecap:butt;stroke-linejoin:miter;stroke-opacity:1"
     d="m 60.252839,153.5917 -7.208125,13.0694 -4.381417,27.53294 9.251908,-1.91493 13.032963,12.64787 15.762177,-7.31556 15.814455,2.44928 2.1269,-15.04002 11.55207,5.33442 -1.74269,-13.45005 -9.61861,-16.62924 -16.939564,-9.44476 z"
     id="path44203"
     sodipodi:nodetypes="ccccccccccccc" />
  <g
     inkscape:groupmode="layer"
     id="layer1"
     inkscape:label="Layer 1">
    <path
       style="fill:#f2f2f2;stroke:none;stroke-width:0.264667px;stroke-linecap:butt;stroke-linejoin:miter;stroke-opacity:1;fill-opacity:1"
       d="m 51.956883,122.73224 9.507859,4.21099 11.451892,-2.31169 11.837444,1.83259 1.990394,-0.13177 3.807537,7.82656 -2.726525,17.22786 -21.614538,5.94841 -5.797931,-3.76443 -1.859439,-7.78507 -8.005505,-9.01819 z"
       id="path29829" />
  </g>
  <path
     style="fill:#536c53;fill-opacity:0.368628;stroke:none;stroke-width:0.264667px;stroke-linecap:butt;stroke-linejoin:miter;stroke-opacity:1"
     d="m 74.258748,97.070216 -4.838118,8.698524 -4.603043,-0.61493 -2.148498,-2.05517 3.226969,0.37112 c 3.326726,-1.3546 4.946468,-2.76892 8.36269,-6.399544 z"
     id="path30421"
     sodipodi:nodetypes="cccccc" />
  <path
     id="path32434"
     style="opacity:1;fill:#80b617;fill-opacity:1;stroke:none;stroke-width:0.794;stroke-miterlimit:4;stroke-dasharray:none;stroke-opacity:1"
     d="m 67.582084,78.868157 c -0.02308,0.43233 0.01445,0.870899 0.111139,1.299037 0.502036,2.213648 2.440576,3.66084 4.329783,3.232344 1.889183,-0.428593 3.013518,-2.570569 2.511231,-4.784159 -0.197452,-0.866934 -0.629504,-1.655765 -1.231322,-2.248116 -0.08456,-0.04301 -1.079858,-0.08052 -2.034814,-0.412559 -2.449348,-0.02127 -3.247133,0.630795 -3.691114,2.903985 z"
     sodipodi:nodetypes="cccccccc" />
  <path
     style="fill:#845816;fill-opacity:1;stroke:none;stroke-width:0.264667px;stroke-linecap:butt;stroke-linejoin:miter;stroke-opacity:1"
     d="m 65.740184,82.06359 c 0.982952,-8.484506 7.236981,-6.407307 9.216115,-2.629354 l 1.49082,-2.834399 c -1.629722,0.495215 -4.141679,-2.279842 -8.142861,-1.171893 -1.305043,0.607084 -3.077119,2.207184 -2.564074,6.635646 z"
     id="path32629"
     sodipodi:nodetypes="ccccc" />
  <ellipse
     style="fill:#80b617;fill-opacity:1;stroke:none;stroke-width:0.756434;stroke-miterlimit:4;stroke-dasharray:none;stroke-opacity:1"
     id="path32434-5"
     cx="35.390865"
     cy="94.550827"
     rx="3.1973789"
     ry="4.0919056"
     transform="matrix(0.97009724,-0.24271658,0.20151553,0.97948532,0,0)" />
  <path
     style="fill:#845816;stroke:none;stroke-width:0.264667px;stroke-linecap:butt;stroke-linejoin:miter;stroke-opacity:1;fill-opacity:1"
     d="m 57.204202,83.940632 c -3.849273,-6.064798 -8.854622,-1.618219 -8.543747,1.72031 0,0 -1.316259,-0.544101 -3.03916,-1.471552 1.474404,0.04313 3.327891,-3.30143 5.627965,-4.072723 1.44909,-1.006304 5.069209,-0.232345 5.954942,3.823965 z"
     id="path33742"
     sodipodi:nodetypes="ccccc" />
  <path
     style="fill:#a22c2c;fill-opacity:0.532101;stroke:none;stroke-width:0.219193px;stroke-linecap:butt;stroke-linejoin:miter;stroke-opacity:1"
     d="m 63.95842,94.826933 c 1.733284,-0.43271 5.826645,-2.564942 6.167626,-2.836725 0.787027,1.049079 -2.505398,5.027662 -4.728858,5.475829 -2.223459,0.448168 -5.290353,-2.399389 -5.290353,-2.399389 0,0 2.118301,0.192996 3.851585,-0.239715 z"
     id="path36409"
     sodipodi:nodetypes="zczcz" />
  <path
     style="fill:#a22c2c;fill-opacity:0.532101;stroke:none;stroke-width:0.219193px;stroke-linecap:butt;stroke-linejoin:miter;stroke-opacity:1"
     d="m 64.188969,95.765414 c 1.733284,-0.43271 3.998081,-0.771786 4.557463,-0.668668 -1.075138,1.214366 -1.982655,1.965192 -3.349244,2.369291 -1.366589,0.404099 -3.091732,-0.830128 -3.091732,-0.830128 0,0 0.15023,-0.437784 1.883513,-0.870495 z"
     id="path36409-6"
     sodipodi:nodetypes="zczcz" />
  <path
     style="color:#000000;fill:#845816;-inkscape-stroke:none;fill-opacity:1"
     d="m 69.720703,68.431641 c -2.481346,0.244301 -5.011633,1.318659 -6.646484,3.605468 l 0.96875,0.691407 c 1.399701,-1.957885 3.570655,-2.892338 5.794922,-3.111329 2.224267,-0.21899 4.479405,0.314045 5.853515,1.1875 l 0.638672,-1.003906 c -1.673383,-1.063688 -4.128029,-1.613442 -6.609375,-1.36914 z"
     id="path36733" />
  <path
     style="color:#000000;fill:#845816;-inkscape-stroke:none;fill-opacity:1"
     d="m 50.564453,73.708984 c -1.365576,0.153046 -2.519751,0.678352 -3.423828,1.316407 -1.808155,1.276108 -2.712891,2.982421 -2.712891,2.982421 l 1.048828,0.560547 c 0,0 0.798401,-1.474165 2.351563,-2.570312 1.553162,-1.096147 3.759551,-1.833419 6.902344,-0.300781 L 55.251953,74.625 c -1.745705,-0.851323 -3.321924,-1.069061 -4.6875,-0.916016 z"
     id="path36735" />
  <path
     style="fill:#b7a58d;fill-opacity:1;stroke:none;stroke-width:0.316215px;stroke-linecap:butt;stroke-linejoin:miter;stroke-opacity:1"
     d="m 61.57322,90.791717 2.398794,-0.372442 -1.455702,1.869566 -1.348557,-0.528485 z"
     id="path37131" />
  <path
     style="fill:#90aa78;fill-opacity:0.94902;stroke:none;stroke-width:0.264667px;stroke-linecap:butt;stroke-linejoin:miter;stroke-opacity:1"
     d="m 107.83459,138.40217 -2.28714,4.03477 c 0,0 0.95879,-3.96833 0.60507,-7.92401 0.9887,2.69579 1.68207,3.88924 1.68207,3.88924 z"
     id="path37790"
     sodipodi:nodetypes="cccc" />
  <ellipse
     style="opacity:1;fill:#ffffff;fill-opacity:1;stroke:none;stroke-width:0.794;stroke-miterlimit:4;stroke-dasharray:none;stroke-opacity:1"
     id="path55777"
     cx="49.203465"
     cy="94.230415"
     rx="0.75855088"
     ry="1.0994922"
     transform="rotate(-15.113838)"
     inkscape:transform-center-x="-0.044045479"
     inkscape:transform-center-y="-0.036003981" />
  <ellipse
     style="fill:#ffffff;fill-opacity:1;stroke:none;stroke-width:0.794;stroke-miterlimit:4;stroke-dasharray:none;stroke-opacity:1"
     id="path55777-3"
     cx="31.092566"
     cy="93.993958"
     rx="0.75855088"
     ry="1.0994922"
     transform="rotate(-15.113838)"
     inkscape:transform-center-x="-0.044045479"
     inkscape:transform-center-y="-0.036003981" />
  <path
     style="fill:#8dd35f;stroke:none;stroke-width:0.264667px;stroke-linecap:butt;stroke-linejoin:miter;stroke-opacity:1"
     d="m 57.867877,65.568772 c -1.010908,5.747888 -14.06779,20.440799 -14.06779,20.440799 -4.629886,-7.59311 -5.906122,-14.079828 -3.596053,-20.226059 2.310069,-6.146231 10.542509,-11.46572 15.094308,-10.08863 2.898966,1.179433 3.580443,4.126002 2.569535,9.87389 z"
     id="path21602"
     sodipodi:nodetypes="zczcz" />
  <path
     style="fill:#8dd35f;stroke:none;stroke-width:0.264667px;stroke-linecap:butt;stroke-linejoin:miter;stroke-opacity:1"
     d="m 55.561069,58.824041 c 0,0 5.994615,7.404669 10.703562,9.993461 4.708947,2.588792 16.125698,3.958016 16.125698,3.958016 0,0 -0.98191,-11.895518 -9.747813,-16.591782 -8.765902,-4.696264 -15.846703,-0.549045 -15.846703,-0.549045 z"
     id="path23705"
     sodipodi:nodetypes="czczcc" />
</svg>
