<svg id="SVGRoot" width="24" height="28" version="1.1" viewBox="0 0 24 28" xmlns="http://www.w3.org/2000/svg">
 <path d="m10.87 2e-3c-4.156 0.2091-8.046 1.565-10.87 3.791v16.13c8.107 0.03787 16.85 0.0029 24-2e-3v-16.13c-2.828-2.226-6.718-3.582-10.88-3.791z" fill="#82cee4" stroke-linecap="round" stroke-linejoin="round" stroke-width="1.44"/>
 <path d="m0 19.21v5c2.824 2.226 6.713 3.582 10.87 3.791l2.25 2e-3c4.162-0.209 8.053-1.565 10.88-3.791v-5.002z" fill="#705a00" stroke-width="1.394"/>
 <path d="m10.87 13.5c-4.156 0.05997-8.046 0.4488-10.87 1.087v4.625c8.107 0.01095 16.85 8.37e-4 24-5.73e-4v-4.625c-2.828-0.6383-6.718-1.027-10.88-1.087z" fill="#38372a" stroke-linecap="round" stroke-linejoin="round" stroke-width="1.44"/>
 <path d="m18.01 1.207-1.998 6.564h0.8486l-1.51 3.719h5.26l-1.51-3.719h0.9071l-1.998-6.564z" fill="#000b01"/>
 <path d="m4.054 0.207-1.998 6.564h0.673l-1.334 3.283h0.9695l-1.756 3.283h1.475l-2.083 3.281h8.049l-2.083-3.281h1.475l-1.756-3.283h0.9695l-1.334-3.283h0.7315l-1.998-6.564z" fill="#000b01"/>
 <rect x="3.5" y="16.62" width="1" height="2.571" fill="#281400" fill-opacity=".9869" opacity=".96"/>
 <path d="m8.029 2.207-2 5.545h0.6719l-1.334 2.771h0.9688l-1.756 2.771h1.479l-2.088 2.773h8.059l-2.088-2.773h1.479l-1.756-2.771h0.9687l-1.334-2.771h0.7305l-2-5.545z" fill="#003305"/>
 <path d="m12.53 5.207-2 4h0.6719l-1.334 2h0.9707l-1.758 2h1.479l-2.088 2h8.059l-2.088-2h1.479l-1.758-2h0.9707l-1.334-2h0.7305l-2-4z" fill="#003305"/>
 <rect x="12" y="15.21" width="1" height="4" fill="#0a0500" fill-opacity=".9869" opacity=".96"/>
 <path d="m16.53 3.207-2 5.199h0.6738l-1.336 2.602h0.9688l-1.756 2.6h1.477l-2.086 2.6h8.059l-2.086-2.6h1.477l-1.756-2.6h0.9688l-1.336-2.602h0.7324l-2-5.199z" fill="#002404"/>
 <rect x="16" y="16.21" width="1" height="3" fill="#110900" fill-opacity=".9869" opacity=".96"/>
 <path d="m20 4.215-1.997 4.4h0.671l-1.332 2.199h0.9676l-1.754 2.199h1.477l-2.085 2.201h8.049l-2.085-2.201h1.477l-1.754-2.199h0.9676l-1.332-2.199h0.7296l-1.997-4.4z" fill="#00780c" stroke-width=".9994"/>
 <rect x="19.48" y="15.22" width=".9987" height="4.139" fill="#3f2000" opacity=".96" stroke-width=".9994"/>
 <path d="m18.64 11.21-1.997 3.6h0.6729l-1.334 1.801h0.9656l-1.754 1.799h6.833l-1.754-1.799h0.9656l-1.332-1.801h0.7315l-1.997-3.6z" fill="#005408"/>
 <rect x="18.11" y="18.41" width=".9987" height="1.8" fill="#8d4800" opacity=".96"/>
 <rect x="7.49" y="16.07" width=".9987" height="4.139" fill="#5b2e00" opacity=".96"/>
 <path d="m17.18 17.91-5.193 1.3-1.298 5.2-1.298-5.2-5.193-1.3 5.193-1.3 1.298-5.2 1.298 5.2z" fill="#ffc522" opacity=".96"/>
 <ellipse cx="9.232" cy="18.76" rx=".9987" ry="1" fill="#24ffb1" opacity=".96"/>
 <ellipse cx="12.37" cy="16.71" rx=".9987" ry="1" fill="#9a5fff" opacity=".96"/>
</svg>
