<svg id="SVGRoot" width="24" height="28" version="1.1" viewBox="0 0 24 28" xmlns="http://www.w3.org/2000/svg">
 <path d="m10.87 0c-4.156 0.2091-8.046 1.565-10.87 3.791v16.13c8.107 0.03787 16.85 0.0029 24-2e-3v-16.13c-2.828-2.226-6.718-3.582-10.88-3.791z" fill="#82cee4" stroke-linecap="round" stroke-linejoin="round" stroke-width="1.44"/>
 <path d="m0 19v5.207c2.824 2.226 6.713 3.582 10.87 3.791l2.25 0.001953c4.162-0.209 8.053-1.565 10.88-3.791v-5.209h-24z" fill="#2d841c" stroke-width="1.402"/>
 <path d="m1 10.6 6-5 6 5v9h-12z" fill="#e5dfd8"/>
 <path d="m13 10.6h8v9h-8z" fill="#c8beb7"/>
 <path d="m21 10.6v-1l-6-5h-8l-6 5v1l6-5 6 5z" fill="#cc3025"/>
 <g transform="translate(0 .599)" fill="#2c68c6">
  <rect x="5" y="12" width="4" height="7"/>
  <circle cx="6.921" cy="8" r="1"/>
  <path d="m14 12h2v2h-2z"/>
  <path d="m17 12h2v2h-2z"/>
  <path d="m14 15h2v2h-2z"/>
  <path d="m17 15h2v2h-2z"/>
 </g>
 <rect x="19" y="9" width="1" height="11.36" fill="#784421" stroke-width="1.066"/>
 <ellipse cx="19.57" cy="5.51" rx="3.44" ry="5.487" fill="#2e772e" stroke-width="1.05"/>
</svg>
