<svg id="SVGRoot" width="24" height="28" version="1.1" viewBox="0 0 24 28" xmlns="http://www.w3.org/2000/svg">
 <path d="m10.87 0c-4.156 0.2091-8.046 1.565-10.87 3.791v16.13c8.107 0.03787 16.85 0.0029 24-2e-3v-16.13c-2.828-2.226-6.718-3.582-10.88-3.791z" fill="#82cee4" stroke-linecap="round" stroke-linejoin="round" stroke-width="1.44"/>
 <path d="m0 19v5.207c2.824 2.226 6.713 3.582 10.87 3.791l2.25 0.001953c4.162-0.209 8.053-1.565 10.88-3.791v-5.209h-24z" fill="#588b13" stroke-linecap="round" stroke-linejoin="round" stroke-width=".3202"/>
 <rect x="13.22" y="12.69" width=".9375" height="7.125" rx=".4688" ry=".625" fill="#b06412"/>
 <rect x="23.06" y="12.56" width=".9375" height="7.125" rx=".4688" ry=".625" fill="#b06412"/>
 <g fill="#3b5b10">
  <path d="m6.722 10.74c-2.424-0.5408-1.212-3.245 0-4.326 1.212 1.082 2.424 3.785 0 4.326z"/>
  <rect x="6.259" y="10.22" width=".7755" height="9.688" stroke-linecap="round" stroke-linejoin="round" stroke-width=".2011"/>
  <path d="m8.342 12.75c-0.7381-2.277 2.31-2.642 3.896-2.186-0.3615 1.549-2.184 3.917-3.896 2.186z"/>
  <path d="m5.504 12.64c0.7381-2.277-2.31-2.642-3.896-2.186 0.3615 1.549 2.184 3.917 3.896 2.186z"/>
  <rect transform="matrix(.5366 .8438 -.8801 .4747 0 0)" x="14.75" y="-2.182" width=".7565" height="4.185" stroke-width=".08531"/>
  <rect transform="matrix(-.4406 .8977 .8197 .5728 0 0)" x="7.029" y="8.081" width=".8109" height="4.135" ry=".02009" stroke-width=".09847"/>
  <path d="m4.042 15.64c0.7381-2.277-2.31-2.642-3.896-2.186 0.3615 1.549 2.184 3.917 3.896 2.186z"/>
  <path d="m9.255 15.97c-0.7381-2.277 2.31-2.642 3.896-2.186-0.3615 1.549-2.184 3.917-3.896 2.186z"/>
  <rect transform="matrix(-.4406 .8977 .8197 .5728 0 0)" x="10.23" y="9.808" width=".8471" height="4.078" stroke-width=".09847"/>
  <rect transform="matrix(.5366 .8438 -.8801 .4747 0 0)" x="18.1" y=".0003393" width=".7863" height="4.132" stroke-width=".08531"/>
 </g>
 <rect x="14.02" y="15.75" width="9.062" height="1.01" fill="#9f5405" stroke-width=".7737"/>
 <rect x="14.03" y="11.75" width="9.052" height="4.002" fill="#b06412" stroke-width="1.261"/>
 <g fill="#753e03">
  <rect x="15.42" y="11.75" width=".7223" height="4.002"/>
  <rect x="16.81" y="11.75" width=".7223" height="4.002"/>
  <rect x="18.2" y="11.75" width=".7223" height="4.002"/>
  <rect x="19.59" y="11.75" width=".7223" height="4.002"/>
  <rect x="20.98" y="11.75" width=".7223" height="4.002"/>
  <rect x="14.03" y="11.75" width=".7223" height="4.002"/>
  <rect x="22.37" y="11.75" width=".7223" height="4.002"/>
 </g>
</svg>
