<?xml version="1.0" encoding="UTF-8"?>
<svg width="600" height="800" version="1.1" viewBox="0 0 158.8 211.7" xmlns="http://www.w3.org/2000/svg" xmlns:cc="http://creativecommons.org/ns#" xmlns:dc="http://purl.org/dc/elements/1.1/" xmlns:rdf="http://www.w3.org/1999/02/22-rdf-syntax-ns#">
 <metadata>
  <rdf:RDF>
   <cc:Work rdf:about="">
    <dc:format>image/svg+xml</dc:format>
    <dc:type rdf:resource="http://purl.org/dc/dcmitype/StillImage"/>
   </cc:Work>
  </rdf:RDF>
 </metadata>
 <path d="m153.9 210.8c-1.016-2.032-7.496-17.08-14.22-22.86s-24.14-10.33-24.14-10.33l-62.35-6.011s-17.71 6.7-23.73 13.8-8.126 25.9-8.126 25.9" fill="#fff"/>
 <g fill="none" stroke-linecap="round" stroke-linejoin="round">
  <circle r="0" stroke="#c53822" stroke-width="2.257" style="paint-order:stroke markers fill"/>
  <g stroke="#924019">
   <circle r="0" stroke-width="1.288" style="paint-order:stroke markers fill"/>
   <circle transform="scale(1,-1)" r="0" stroke-width="3.595" style="paint-order:stroke markers fill"/>
   <circle transform="scale(1,-1)" r="0" stroke-width="3.595" style="paint-order:stroke markers fill"/>
  </g>
  <circle transform="scale(1,-1)" r="0" stroke="#4d4320" stroke-width="4.378" style="paint-order:stroke markers fill"/>
  <circle transform="scale(1,-1)" r="0" stroke="#4d4320" stroke-width="3.52" style="paint-order:stroke markers fill"/>
 </g>
 <path d="m4.341 99.18c-0.2564 4e-3 -0.3912 0.0225-0.3912 0.0225 4.625 8.586-5.415 27.67 7.624 46.26 11.2 15.97 19.1 27.43 24.92 33.51l6.978-3.285 9.708-4.108c-3.696-8.876-7.88-21.5-14.08-37.2-13.36-33.81-32.29-35.22-34.76-35.19z" fill="#78f991" fill-opacity=".4196" stroke-width=".1701"/>
 <path d="m157 108.8c-2.424-0.5236-23.14-6.384-42.93 24.11-9.975 15.37-15.9 30.97-20.53 39.15l3.511 2.04 11.7 6.074c6.974-4.625 17.03-13.23 32-27.45 16.46-15.64 10.4-36.33 16.64-43.83 0 0-0.1284-0.0451-0.379-0.0993z" fill="#78f991" fill-opacity=".4179" stroke-width=".1701"/>
 <ellipse transform="matrix(.9779 -.209 .214 .9768 0 0)" cx="9.847" cy="131.4" rx="16.32" ry="23.14" fill="#924019" stroke-width="1.222" style="paint-order:stroke markers fill"/>
 <path d="m153.1 69.17c0 30.12-5.056 38.36-60.47 37.91-34.97-0.2914-69.5 0.2979-73.17-29.59-7.918-64.29 29.34-76.7 64.32-76.7 34.97 0 69.34 38.27 69.34 68.38z" fill="#924019" stroke-width="1.222" style="paint-order:stroke markers fill"/>
 <path d="m135.3 92.39c-3.272 22.32-4.702 31.31-7.33 35.04-1.762 2.505-23.25 18.55-30.47 18.91-24.77 1.24-60.24-15.73-58.92-57.04 1.442-45.23 21.2-57.14 59.44-55.77 26.26 0.9488 39.03 8.721 37.3 58.85z" fill="#f9bb78" stroke-width="1.222" style="paint-order:stroke markers fill"/>
 <g stroke-width="1.222">
  <rect x="72.18" y="83.22" width="12.34" height="17.19" ry="6.091" fill="#c65722" style="paint-order:stroke markers fill"/>
  <path d="m99.32 36.8c38.57 13.98 37.9 51.69 37.9 51.69s26.55-60.34-10.02-72.11c-36.57-11.76-38.8-3.8-38.8-3.8z" fill="#924019"/>
  <rect x="116.7" y="82.73" width="12.34" height="17.19" ry="6.091" fill="#c65722" style="paint-order:stroke markers fill"/>
  <path d="m109.1 33.08c-34.12 41.34-60.49 52.65-66.5 48.96-6.004-3.695-19.85-23.09-8.775-35.55 11.08-12.47 29.53-22.46 44.34-24.94 14.81-2.478 30.94 11.54 30.94 11.54z" fill="#924019"/>
  <path d="m47.68 96.41c-15.5-14.11-22.93-25.4-23.58-15.99-0.646 9.408 4.198 26.66 10.34 28.22 6.137 1.568 11.3-0.6271 11.3-0.6271" fill="#f9bb78"/>
  <path d="m96.14 144.8s-1.636 14.26 1.847 20.32 17.54 12.47 17.54 12.47l-23.09 17.54-39.26-23.56s7.887-2.461 11.54-8.313 4.618-26.78 4.618-26.78z" fill="#f9bb78"/>
 </g>
 <ellipse transform="matrix(.9816 -.1908 .2342 .9722 0 0)" cx="20.19" cy="151.5" rx="17.17" ry="22.31" fill="#924019" stroke-width="1.222" style="paint-order:stroke markers fill"/>
 <g shape-rendering="auto">
  <path d="m74.46 81.04c-5.555 0.68-8.832 3.968-8.832 3.968a1.584 1.584 0 0 0 0.01197 2.241 1.584 1.584 0 0 0 2.241-0.01222s2.452-2.5 6.963-3.052c2.158-0.2642 4.469 0.2323 6.2 0.8615 0.8654 0.3146 1.589 0.6593 2.052 0.9211 0.2007 0.1134 0.3235 0.1994 0.3985 0.253a1.584 1.584 0 0 0 0.0024 0.0024 1.584 1.584 0 0 0 1.248 0.6061 1.584 1.584 0 0 0 1.584-1.584c0-0.9162-0.3402-1.021-0.4796-1.172-0.1395-0.151-0.2503-0.2404-0.3699-0.3317-0.2391-0.1827-0.5044-0.3482-0.8257-0.5298-0.6425-0.3631-1.499-0.7692-2.527-1.143-2.057-0.7477-4.792-1.38-7.667-1.028z" color="#000000" color-rendering="auto" dominant-baseline="auto" fill="#5e2910" image-rendering="auto" solid-color="#000000" stop-color="#000000" style="font-feature-settings:normal;font-variant-alternates:normal;font-variant-caps:normal;font-variant-east-asian:normal;font-variant-ligatures:normal;font-variant-numeric:normal;font-variant-position:normal;font-variation-settings:normal;inline-size:0;isolation:auto;mix-blend-mode:normal;shape-margin:0;shape-padding:0;text-decoration-color:#000000;text-decoration-line:none;text-decoration-style:solid;text-indent:0;text-orientation:mixed;text-transform:none;white-space:normal"/>
  <path d="m120.6 81.47c-4.542 0.7063-7.109 4.035-7.109 4.035a1.405 1.405 0 0 0 0.2434 1.971 1.405 1.405 0 0 0 1.974-0.2458s1.943-2.459 5.324-2.985c1.582-0.2461 3.328 0.2209 4.653 0.8328 0.6625 0.306 1.217 0.6437 1.57 0.8972 0.1536 0.1102 0.2457 0.1912 0.3007 0.241a1.405 1.405 0 0 0 1.203 0.6801 1.405 1.405 0 0 0 1.406-1.406c0-0.6468-0.2106-0.7823-0.315-0.9259-0.1043-0.1436-0.1927-0.2361-0.2887-0.3293-0.1921-0.1865-0.4072-0.356-0.6658-0.5417-0.5172-0.3714-1.205-0.7844-2.033-1.167-1.656-0.765-3.882-1.427-6.262-1.057z" color="#000000" color-rendering="auto" dominant-baseline="auto" fill="#5e2910" image-rendering="auto" solid-color="#000000" stop-color="#000000" style="font-feature-settings:normal;font-variant-alternates:normal;font-variant-caps:normal;font-variant-east-asian:normal;font-variant-ligatures:normal;font-variant-numeric:normal;font-variant-position:normal;font-variation-settings:normal;inline-size:0;isolation:auto;mix-blend-mode:normal;shape-margin:0;shape-padding:0;text-decoration-color:#000000;text-decoration-line:none;text-decoration-style:solid;text-indent:0;text-orientation:mixed;text-transform:none;white-space:normal"/>
  <path d="m73.13 69.19c-5.382 1.401-12 5.11-12 5.11a2.005 2.005 0 0 0-0.7895 2.722 2.005 2.005 0 0 0 2.722 0.7895s6.642-3.588 11.07-4.741c4.124-1.073 9.11 0.466 9.11 0.466a2.005 2.005 0 0 0 2.537-1.268 2.005 2.005 0 0 0-1.268-2.537s-5.697-2.023-11.39-0.5421z" color="#000000" color-rendering="auto" dominant-baseline="auto" fill="#924019" image-rendering="auto" solid-color="#000000" stop-color="#000000" style="font-feature-settings:normal;font-variant-alternates:normal;font-variant-caps:normal;font-variant-east-asian:normal;font-variant-ligatures:normal;font-variant-numeric:normal;font-variant-position:normal;font-variation-settings:normal;inline-size:0;isolation:auto;mix-blend-mode:normal;shape-margin:0;shape-padding:0;text-decoration-color:#000000;text-decoration-line:none;text-decoration-style:solid;text-indent:0;text-orientation:mixed;text-transform:none;white-space:normal"/>
  <path d="m122.7 68.68c-5.06-0.671-9.344 2.308-9.344 2.308a2.005 2.005 0 0 0-0.5873 2.773 2.005 2.005 0 0 0 2.776 0.5851s3.52-2.104 6.629-1.691c1.577 0.2091 3.697 1.126 5.326 2.024 1.628 0.8983 2.759 1.717 2.759 1.717a2.005 2.005 0 0 0 2.8-0.4432 2.005 2.005 0 0 0-0.4456-2.8s-1.328-0.9639-3.177-1.984c-1.849-1.02-4.228-2.156-6.735-2.489z" color="#000000" color-rendering="auto" dominant-baseline="auto" fill="#924019" image-rendering="auto" solid-color="#000000" stop-color="#000000" style="font-feature-settings:normal;font-variant-alternates:normal;font-variant-caps:normal;font-variant-east-asian:normal;font-variant-ligatures:normal;font-variant-numeric:normal;font-variant-position:normal;font-variation-settings:normal;inline-size:0;isolation:auto;mix-blend-mode:normal;shape-margin:0;shape-padding:0;text-decoration-color:#000000;text-decoration-line:none;text-decoration-style:solid;text-indent:0;text-orientation:mixed;text-transform:none;white-space:normal"/>
  <path d="m111.8 103.8a1.245 1.245 0 0 0-0.1909 0.0143 1.245 1.245 0 0 0-1.048 1.415s0.1585 2.504-0.8972 3.338c-1.302 1.028-3.639 0.976-3.639 0.976a1.245 1.245 0 0 0-1.332 1.153 1.245 1.245 0 0 0 1.155 1.332s3.032 0.3304 5.357-1.506c2.571-2.031 1.818-5.66 1.818-5.66a1.245 1.245 0 0 0-1.224-1.062z" color="#000000" color-rendering="auto" dominant-baseline="auto" fill="#7f3816" image-rendering="auto" solid-color="#000000" stop-color="#000000" style="font-feature-settings:normal;font-variant-alternates:normal;font-variant-caps:normal;font-variant-east-asian:normal;font-variant-ligatures:normal;font-variant-numeric:normal;font-variant-position:normal;font-variation-settings:normal;inline-size:0;isolation:auto;mix-blend-mode:normal;shape-margin:0;shape-padding:0;text-decoration-color:#000000;text-decoration-line:none;text-decoration-style:solid;text-indent:0;text-orientation:mixed;text-transform:none;white-space:normal"/>
  <path d="m94.08 124.9c0.2775 0.7828 4.22-1.414 5.049-1.267 0 0 1.307 0.4795 4.808 0.2534 3.046-0.478 2.621-1.365 3.079-1.848 0.6974-0.5982 1.257 0.753 1.374 0.2238 0.3416-0.6859-1.488-1.308-2.563-2.021-3.724 0.8677-8.686 3.173-8.686 3.173-1.144 0.291-3.23 1.061-3.06 1.485z" color="#000000" color-rendering="auto" dominant-baseline="auto" fill="#ee5f5f" image-rendering="auto" solid-color="#000000" stop-color="#000000" style="font-feature-settings:normal;font-variant-alternates:normal;font-variant-caps:normal;font-variant-east-asian:normal;font-variant-ligatures:normal;font-variant-numeric:normal;font-variant-position:normal;font-variation-settings:normal;inline-size:0;isolation:auto;mix-blend-mode:normal;shape-margin:0;shape-padding:0;text-decoration-color:#000000;text-decoration-line:none;text-decoration-style:solid;text-indent:0;text-orientation:mixed;text-transform:none;white-space:normal"/>
 </g>
</svg>
