<?xml version="1.0" encoding="UTF-8"?>
<svg width="600" height="800" version="1.1" viewBox="0 0 158.8 211.7" xmlns="http://www.w3.org/2000/svg" xmlns:cc="http://creativecommons.org/ns#" xmlns:dc="http://purl.org/dc/elements/1.1/" xmlns:rdf="http://www.w3.org/1999/02/22-rdf-syntax-ns#">
 <metadata>
  <rdf:RDF>
   <cc:Work rdf:about="">
    <dc:format>image/svg+xml</dc:format>
    <dc:type rdf:resource="http://purl.org/dc/dcmitype/StillImage"/>
   </cc:Work>
  </rdf:RDF>
 </metadata>
 <path d="m4.341 99.18c-0.2564 4e-3 -0.3912 0.0225-0.3912 0.0225 4.625 8.586-5.415 27.67 7.624 46.26 11.2 15.97 19.1 27.43 24.92 33.51l6.978-3.285 9.708-4.108c-3.696-8.876-7.88-21.5-14.08-37.2-13.36-33.81-32.29-35.22-34.76-35.19z" fill="#78f991" fill-opacity=".4179" stroke-width=".1701"/>
 <path d="m141.8 102.2c-2.479-0.0329-23.94-1.671-37.3 32.14-6.731 17.04-9.446 33.51-12.36 42.44l3.846 1.304 12.67 3.636c5.919-5.915 14.07-16.35 25.92-33.25 13.04-18.59 2.998-37.67 7.624-46.26 0 0-0.1348-0.0187-0.3912-0.0222z" fill="#78f991" fill-opacity=".4179" stroke-width=".1701"/>
 <path d="m149 212.3c-1.092-2.032-3.118-18.57-10.35-24.34s-25.94-10.33-25.94-10.33l-67.01-6.011s-19.04 6.7-25.5 13.8c-6.467 7.101-8.734 25.9-8.734 25.9" fill="#fff"/>
 <g fill="none" stroke-linecap="round" stroke-linejoin="round">
  <circle r="0" stroke="#c53822" stroke-width="2.257" style="paint-order:stroke markers fill"/>
  <g stroke="#924019">
   <circle r="0" stroke-width="1.288" style="paint-order:stroke markers fill"/>
   <circle transform="scale(1,-1)" r="0" stroke-width="3.595" style="paint-order:stroke markers fill"/>
   <circle transform="scale(1,-1)" r="0" stroke-width="3.595" style="paint-order:stroke markers fill"/>
  </g>
  <circle transform="scale(1,-1)" r="0" stroke="#4d4320" stroke-width="4.378" style="paint-order:stroke markers fill"/>
  <circle transform="scale(1,-1)" r="0" stroke="#4d4320" stroke-width="3.52" style="paint-order:stroke markers fill"/>
 </g>
 <path d="m83.48 146.9s-1.636 14.26 1.847 20.32 18.23 8.316 18.23 8.316l-23.78 21.7-39.26-23.56s7.887-2.461 11.54-8.313 4.618-26.78 4.618-26.78z" fill="#f9bb78" stroke-width="1.222"/>
 <ellipse transform="matrix(.9935 -.1139 .119 .9929 0 0)" cx="8.999" cy="125.5" rx="16.32" ry="23.14" fill="#924019" stroke-width="1.222" style="paint-order:stroke markers fill"/>
 <path d="m144.2 77.82c-2.9 29.98-8.726 37.7-63.83 31.91-34.78-3.657-69.2-6.394-69.98-36.5-1.692-64.75 36.58-73.52 71.4-70.15 34.8 3.367 65.33 44.76 62.43 74.74z" fill="#924019" stroke-width="1.222" style="paint-order:stroke markers fill"/>
 <path d="m126.5 95.53c-4.705 22.06-7.991 32.3-10.72 35.96-3.224 4.322-27.2 18.9-34.43 18.79-24.8-0.3608-55.15-22.93-51.17-64.07 4.357-45.04 24.84-55.66 62.91-51.81 26.15 2.641 38.39 11.22 33.43 61.13z" fill="#f9bb78" stroke-width="1.222" style="paint-order:stroke markers fill"/>
 <g transform="translate(-12.66 2.139)" stroke-width="1.222">
  <path d="m106.4 38.29c37.05 17.63 32.75 55.1 32.75 55.1s32.24-57.51-3.036-72.74c-35.27-15.22-38.26-7.518-38.26-7.518z" fill="#924019"/>
  <path d="m116.5 35.52c-37.95 37.87-65.28 46.58-70.91 42.33-5.62-4.256-17.54-24.9-5.311-36.23 12.23-11.35 31.56-19.51 46.53-20.55 14.98-1.041 29.68 14.47 29.68 14.47z" fill="#924019"/>
  <path d="m49.3 92.65c-14.07-15.54-20.38-27.49-21.93-18.19-1.549 9.302 1.612 26.94 7.57 29.09 5.958 2.151 11.31 0.4641 11.31 0.4641" fill="#f9bb78"/>
 </g>
 <g shape-rendering="auto">
  <path d="m66.73 68.36c-5.56 0.1411-12.84 2.251-12.84 2.251a2.005 2.005 0 0 0-1.388 2.472 2.005 2.005 0 0 0 2.472 1.387s7.284-1.985 11.86-2.101c4.26-0.1081 8.766 2.524 8.766 2.524a2.005 2.005 0 0 0 2.758-0.6586 2.005 2.005 0 0 0-0.6586-2.758s-5.089-3.264-10.97-3.115z" color="#000000" color-rendering="auto" dominant-baseline="auto" fill="#924019" image-rendering="auto" solid-color="#000000" stop-color="#000000" style="font-feature-settings:normal;font-variant-alternates:normal;font-variant-caps:normal;font-variant-east-asian:normal;font-variant-ligatures:normal;font-variant-numeric:normal;font-variant-position:normal;font-variation-settings:normal;inline-size:0;isolation:auto;mix-blend-mode:normal;shape-margin:0;shape-padding:0;text-decoration-color:#000000;text-decoration-line:none;text-decoration-style:solid;text-indent:0;text-orientation:mixed;text-transform:none;white-space:normal"/>
  <path d="m114.6 72.08c-5.057-0.6878-9.352 2.277-9.352 2.277a2.005 2.005 0 0 0-0.5965 2.771 2.005 2.005 0 0 0 2.774 0.5944s3.527-2.092 6.634-1.669c1.577 0.2144 3.694 1.138 5.319 2.042 1.625 0.9037 2.753 1.726 2.753 1.726a2.005 2.005 0 0 0 2.801-0.4339 2.005 2.005 0 0 0-0.4362-2.802s-1.325-0.9683-3.171-1.994-4.221-2.17-6.726-2.511z" color="#000000" color-rendering="auto" dominant-baseline="auto" fill="#924019" image-rendering="auto" solid-color="#000000" stop-color="#000000" style="font-feature-settings:normal;font-variant-alternates:normal;font-variant-caps:normal;font-variant-east-asian:normal;font-variant-ligatures:normal;font-variant-numeric:normal;font-variant-position:normal;font-variation-settings:normal;inline-size:0;isolation:auto;mix-blend-mode:normal;shape-margin:0;shape-padding:0;text-decoration-color:#000000;text-decoration-line:none;text-decoration-style:solid;text-indent:0;text-orientation:mixed;text-transform:none;white-space:normal"/>
  <path d="m99.71 108.3a1.245 1.245 0 0 0-0.1914-4e-3 1.245 1.245 0 0 0-1.179 1.308s-0.0833 2.508-1.214 3.236c-1.395 0.8984-3.716 0.6211-3.716 0.6211a1.245 1.245 0 0 0-1.436 1.019 1.245 1.245 0 0 0 1.021 1.437s2.987 0.6208 5.477-0.983c2.755-1.774 2.355-5.459 2.355-5.459a1.245 1.245 0 0 0-1.116-1.175z" color="#000000" color-rendering="auto" dominant-baseline="auto" fill="#7f3816" image-rendering="auto" solid-color="#000000" stop-color="#000000" style="font-feature-settings:normal;font-variant-alternates:normal;font-variant-caps:normal;font-variant-east-asian:normal;font-variant-ligatures:normal;font-variant-numeric:normal;font-variant-position:normal;font-variation-settings:normal;inline-size:0;isolation:auto;mix-blend-mode:normal;shape-margin:0;shape-padding:0;text-decoration-color:#000000;text-decoration-line:none;text-decoration-style:solid;text-indent:0;text-orientation:mixed;text-transform:none;white-space:normal"/>
  <path d="m66.41 88.37c-6.87-0.4569-10.54 5.367-10.54 5.367a1.812 1.812 0 0 0 0.5781 2.496 1.812 1.812 0 0 0 2.496-0.5781s2.459-3.985 7.221-3.668c4.25 0.2827 6.783 5.186 6.783 5.186a1.812 1.812 0 0 0 2.418 0.8496 1.812 1.812 0 0 0 0.8496-2.42s-3.086-6.785-9.81-7.232z" color="#000000" color-rendering="auto" dominant-baseline="auto" fill="#5e2910" image-rendering="auto" solid-color="#000000" stop-color="#000000" style="font-feature-settings:normal;font-variant-alternates:normal;font-variant-caps:normal;font-variant-east-asian:normal;font-variant-ligatures:normal;font-variant-numeric:normal;font-variant-position:normal;font-variation-settings:normal;inline-size:0;isolation:auto;mix-blend-mode:normal;shape-margin:0;shape-padding:0;text-decoration-color:#000000;text-decoration-line:none;text-decoration-style:solid;text-indent:0;text-orientation:mixed;text-transform:none;white-space:normal"/>
  <path d="m111.8 92.84c-6.87-0.4569-10.54 5.367-10.54 5.367a1.812 1.812 0 0 0 0.5781 2.496 1.812 1.812 0 0 0 2.498-0.5762s2.457-3.987 7.219-3.67c4.25 0.2827 6.783 5.186 6.783 5.186a1.812 1.812 0 0 0 2.418 0.8496 1.812 1.812 0 0 0 0.8496-2.42s-3.086-6.785-9.811-7.232z" color="#000000" color-rendering="auto" dominant-baseline="auto" fill="#5e2910" image-rendering="auto" solid-color="#000000" stop-color="#000000" style="font-feature-settings:normal;font-variant-alternates:normal;font-variant-caps:normal;font-variant-east-asian:normal;font-variant-ligatures:normal;font-variant-numeric:normal;font-variant-position:normal;font-variation-settings:normal;inline-size:0;isolation:auto;mix-blend-mode:normal;shape-margin:0;shape-padding:0;text-decoration-color:#000000;text-decoration-line:none;text-decoration-style:solid;text-indent:0;text-orientation:mixed;text-transform:none;white-space:normal"/>
 </g>
 <ellipse transform="matrix(.9816 -.1908 .2342 .9722 0 0)" cx="7.373" cy="151.2" rx="17.17" ry="22.31" fill="#924019" stroke-width="1.222" style="paint-order:stroke markers fill"/>
 <path d="m111.5 193.6-1.321-14.96c-4.565-6.366-3.226-11.64-3.951-19.35l1.618-13.23s2.082-5.767 3.842-9.695c2.738 0.2534 3.336 2.393 3.491 5.728 0.1547 3.335-1.207 8.823-0.7295 13.68 3.462-6.228 8.37-12.36 8.37-12.36l5.309-11.94s3.35-8.922 5.53-9.679c2.18-0.7565 3.34 1.621 3.34 1.621s-4.69 17.06-8.708 23.84c3.471-4.317 5.254-10.18 5.254-10.18l4.117-7.858s3.707-6.686 5.258-7.734c1.551-1.047 3.417 1.008 3.417 1.008l-3.939 9.064-7.402 17.84 0.6712 0.618 9.321-12.94s3.985-6.816 6.345-6.871c2.36-0.055 1.347 3.894 1.347 3.894l-12.39 20.87 0.7249 1.442s12.62-10.39 14.98-10.53c2.355-0.1462 2.007 0.6344 1.367 1.826s-10.61 11.83-13.93 14.98c-3.927 6.717-8.334 15.89-11.4 19.11-1.749 5.461 2.907 16.73 2.907 16.73l-5.639 13.51-18.9-2.169z" fill="#f9bb78"/>
 <g transform="rotate(4.715 81.71 -10.78)">
  <g transform="translate(1.534 -2.385)">
   <path d="m104 129.1c-1.269 3.635-6.067 6.844-11.22 6.844-5.158 0-7.454-6.284-7.454-10.13-1e-6 -3.85 3.394-3.809 9.34-3.681 10.98 0.2367 10.77 2.861 9.34 6.971z" fill="#ef2e61" style="paint-order:stroke markers fill"/>
   <path d="m103 130.1c-1.271 3.634-5.083 5.855-10.24 5.855-5.158 0-7.454-6.284-7.454-10.13-1e-6 -3.85 2.887-2.796 8.803-2.187 10.28 1.058 9.399 5.017 8.892 6.466z" fill="#ff7fa1" style="paint-order:stroke markers fill"/>
  </g>
 </g>
</svg>
