<?xml version="1.0" encoding="UTF-8"?>
<svg width="600" height="800" version="1.1" viewBox="0 0 159 212" xml:space="preserve" xmlns="http://www.w3.org/2000/svg" xmlns:cc="http://creativecommons.org/ns#" xmlns:dc="http://purl.org/dc/elements/1.1/" xmlns:rdf="http://www.w3.org/1999/02/22-rdf-syntax-ns#" xmlns:xlink="http://www.w3.org/1999/xlink"><defs><linearGradient id="linearGradient6113" x1="126" x2="128" y1="58" y2="99.3" gradientTransform="matrix(1.31 0 0 1.31 -28.1 -18)" gradientUnits="userSpaceOnUse"><stop stop-color="#f0711c" offset="0"/><stop stop-color="#e69000" offset="1"/></linearGradient><linearGradient id="linearGradient7273" x1="87.2" x2="83.8" y1="67.8" y2="58.9" gradientTransform="matrix(1.31 0 0 1.31 -28.1 -18)" gradientUnits="userSpaceOnUse"><stop stop-color="#e69000" offset="0"/><stop stop-color="#f07c00" offset="1"/></linearGradient><linearGradient id="linearGradient7281" x1="34.1" x2="35.3" y1="70" y2="51.2" gradientTransform="matrix(1.31 0 0 1.31 -28.1 -18)" gradientUnits="userSpaceOnUse"><stop stop-color="#e69000" offset="0"/><stop stop-color="#f07c00" offset="1"/></linearGradient></defs><metadata><rdf:RDF><cc:Work rdf:about=""><dc:format>image/svg+xml</dc:format><dc:type rdf:resource="http://purl.org/dc/dcmitype/StillImage"/></cc:Work></rdf:RDF></metadata><g fill="none" stroke-linecap="round" stroke-linejoin="round"><circle r="0" stroke="#c53822" stroke-width="2.26" style="paint-order:stroke markers fill"/><g stroke="#924019"><circle r="0" stroke-width="1.29" style="paint-order:stroke markers fill"/><circle transform="scale(1,-1)" r="0" stroke-width="3.6" style="paint-order:stroke markers fill"/><circle transform="scale(1,-1)" r="0" stroke-width="3.6" style="paint-order:stroke markers fill"/></g><circle transform="scale(1,-1)" r="0" stroke="#4d4320" stroke-width="4.38" style="paint-order:stroke markers fill"/><circle transform="scale(1,-1)" r="0" stroke="#4d4320" stroke-width="3.52" style="paint-order:stroke markers fill"/></g><path d="m41.2 8.99 14 4.7-9.88 14.5 2 18.2-19.7-5.2 11.2-13.5z" fill="#f00"/><g><path d="m107 25.6c30.3 23 20.9 62.3 20.9 62.3-4.98 19.7-21.7 42.6-43.5 42.6l-52-2.39-6.01 7.04s-7.42-12.4-7.55-16l-4.07 3.3s-1.22-17.6 2.13-24.7c0 0-4.29-20.7-2.98-26.3l-0.677-33s5.18-13.3 13.7-16.6c6.92-2.92 9.74 2.63 9.74 2.63 16.6-12 70.3 1.04 70.3 1.04z" fill="#f07c00"/><path d="m50.6 133 35-15.8s-4.39 20.7 1.34 30.3c2.68 5.61 12.3 9.04 12.3 9.04l-48.1 23.4-18.8-22c4.52-0.144 18-5.54 18-5.54 4.35-6.27 0.188-19.3 0.188-19.3z" fill="#ffc7a0"/><path d="m51.6 156 26.7-22.4 5.05 7.61 1.06-18.8-30.6 15.7z" fill="#cc9d7c"/></g><path d="m94.4 154c-26.7 29-54 17.8-52.8 0.946-8.66 2.18-17.3 2.82-17.3 2.82-17.6 8.16-18.6 26-16.8 33.1 0 0 1.27 10.4 3.1 20.7h126c-1.48-8.98-2.62-18-3.32-27.3 0 0-7.08-29.2-38.9-30.3z" fill="#f55"/><g><path d="m18.7 63.5 2.2 29.4c-0.426 6.15-1.11 24.6-1.11 24.6 0.417 4.7 9.24 22.8 18.2 24.7 14.4 2.41 43.1-9.61 49.1-23.7 9.95 5.48 40.2-24.5 20.9-23.8 0.618-7.91 12.1-29.3 12.1-29.3 8.28-48.8-106-66.8-102-1.94z" fill="#ffc7a0"/><path d="m47.7 98.7c-0.768-7.31 5.51-9.04 11-8.47 5.44 0.578 8.97 7.13 8.97 7.13 0.926-3.74 3.18-3.31 4.87-4.84-2.67-0.163-5.46-4.34-13.3-4.59-10.3-0.327-13.6 3.58-11.5 10.8z" fill="#351c04"/><ellipse cx="55.7" cy="97.3" rx="6.37" ry="8.77" fill="#351c04" style="paint-order:stroke fill markers"/><path d="m11 74.1 15.4 6.94s0.412-16.8 6.45-23.9c-3.74 11.1-2.22 17.4-1.89 23.7 7.3 2.36 23 2.55 28.3 0.839 0.496-6.42 0.544-11.3 2.65-18.7 0.185 7.71 0.668 13.8 0.622 18.9 8.8 0.0093 28.5-0.947 28.5-0.947 3.79 16.2 2.18 12.2 7.07 17.3 9.89-2.56 25.4-24.2 25.4-24.2 19.8-40.9-45.6-71.8-55.4-51.9-5.83-14-80.1-6.84-57.1 51.9z" fill="#f07c00"/></g><path d="m67.9 21.2" fill="none"/><g><path d="m73.2 43.5s11.4 50.3 5.41 66.3c10.9-15.4 14.4-44 2.88-68.2z" fill="url(#linearGradient7273)"/><ellipse cx="25.7" cy="91.6" rx="3.26" ry="7.44" fill="#351c04" style="paint-order:stroke fill markers"/><path d="m31 97.1c-0.173-3.06-2.21-12.2-4.97-12.2-2.43 0-4.89 1.75-4.35 4.03 0 0-1.07-1.96-3.38-2.53 2.26-0.206 4.1-3.03 8.14-3.18 4.88 1.22 5.17 9.64 4.56 13.9z" fill="#351c04"/></g><path d="m29 110 2.34 0.151 2.23 3.93-4.94-0.76c0.184-1.01 0.0954-2.32 0.363-3.32z" fill="#4d4d4d" fill-opacity=".283"/><path d="m17.5 45.8 8.14 1.65s-10.8 21.1-7.78 57.1c-12.7-38.4-5.99-50.3-0.36-58.8z" fill="url(#linearGradient7281)"/><path d="m45 132c6.11 0.028 10.2-4.88 10.2-8.47-8.77 1.17-19.6 0.569-24.6-0.42 4.07 4.47 6.29 8.85 14.3 8.89z" fill="#f57d9d" style="paint-order:stroke markers fill"/><path d="m55.3 124c-0.0071 0.924-0.285 1.94-0.8 2.93-0.775-2.16-4.09-1.86-12.1-1.76-4.47 0.0584-7.04 1.07-8.42 2.26-1.08-1.2-2.13-2.53-3.35-3.85 4.9 0.988 15.9 1.59 24.6 0.42z" fill="#ef2e61" style="paint-order:stroke markers fill"/><path d="m40.3 155c1.93 8.48 3.28 14.7 12.4 16.5 14.9 2.12 37.3-4.06 40.8-17.7" fill="none" stroke="#594545" stroke-width="4.17"/><path d="m105 33.1 10.8-10.1 8.07 15.6 17 6.87-13.9 14.9-6.57-16.3z" fill="#f00"/><g><path d="m121 36.9c16.1-17.9 38.8 2.37 33.9 28.8-4.37 17.7-2.35 58.2-2.35 58.2 2.3 6.35-0.891 24.7-0.891 24.7s-2.66-17.5-6-20.3c1.34 16.6-5.38 22-14.7 28.9 8.12-9.67 7.52-21.5 5.33-29.7-0.274 10.3-5.7 12.3-11.2 17.2 8.89-11.3 7.37-29 7.37-29s-3.43-32.2-6.02-54.4c0.547-4.22-11.1-0.36-10.2-14.1z" fill="url(#linearGradient6113)"/><ellipse cx="68.8" cy="111" rx="5.26" ry="3.37" fill="#ffa3a3" style="paint-order:stroke fill markers"/><ellipse cx="58.1" cy="93.7" rx="1.67" ry="1.96" fill="#fff" style="paint-order:stroke fill markers"/><ellipse cx="26.4" cy="89.1" rx="1.67" ry="1.96" fill="#fff" style="paint-order:stroke fill markers"/></g></svg>
