<?xml version="1.0" encoding="UTF-8"?>
<svg width="100mm" height="100mm" version="1.1" viewBox="0 0 100 100" xmlns="http://www.w3.org/2000/svg" xmlns:xlink="http://www.w3.org/1999/xlink">
 <g transform="matrix(.683 0 0 .683 -3.59 -3.46)">
  <g>
   <path d="m125 90.1 3.5 4.82-4.39 3.16 2.12 2.97-4.21 3.1 0.924 0.932-1.36 2.02-0.0436 6.8-4.38 2.18 0.231 3.5-5.85 2.33-12.7-3.53 18.9-33.1z" fill="#483745"/>
   <path d="m37.3 110c-2.05e-4 6.55 1.26 16.9 5.4 21.1 4.14 4.26 12.4 17.3 21.4 16.9 13.1 2.38 36.9-16.6 36.9-16.6 8.19-4.63 24.5-43 24.5-43 18.3-29.8-22.1-59.7-50.2-57.6-37.2 0.786-51 31.7-45.4 51.9 1.11 5.12 5.91 21.2 7.51 27.2z" fill="#e4ba9e"/>
   <path d="m110 97.5c1.07-14.5 13.9-7.63 12.7-0.544-1.28 7.09-2.14 14.6-6.76 18.5-4.61 3.9-7.06 7.79-9.26 2.88z" fill="#e4ba9e"/>
  </g>
  <path d="m83.3 22.4c-0.763-6.07-7.25-14.5-14.1-12.9 1.94 2.68 5.07 5.97 5.83 11.4-6.92-3.97-16.5-6.6-21.9-4.13 2.26 2.62 3.98 3.99 5.59 7.71-6.66-3.47-14.9-1.52-20.5 2.38-6.14 3.09-12.2 5.8-15.1 14.3 2.38-1.13 3.83-2.52 6.15-1.88-2.11 2.33-9.66 7.58-8.55 12.3 1.78-1.59 2.57-2.55 4.48-2.62-2.19 2.68-4.91 6-5.68 9.76-0.769 3.76-1.93 9.74-1.11 13.7 0.819 4.01 2.92 10.7 5.76 11.3-0.352-1.34-0.306-6.01 0.179-7.52 1.7 5.66 4.43 6.21 7.05 10.1-2.04-7.77-2.23-8.84-1.16-16.2-0.73 7.98 3.45 7.01 4.31 9.09 8.16-15 5.58-10.6 13.2-20.9-1.7 3.28-2.5 4.97-2.04 8.52 5.15-5.23 14.4-10.6 22.2-13.6-2.64 3.52-4.02 7.88-4.53 10.5 5.01-3.64 8.08-7.86 12.1-9.19 0.263 7.75-6.29 17.5-7.22 20 13.6-3.24 20.6-9.95 22.7-15.9 2.81 4.84 4.04 7.91 4.42 10.8 3.17-2.24 8.16-7.11 7.19-10.7 6.31 3.21-1.17 15.9 4.44 19.4 1.11-3.17 3.52-5.91 5.02-8.57-1.19 7.73-3.76 18.1-3.54 20.5 2.02 7.97 3.4 10.6 6.23 14.5 4.5-11.8 14.7-12.6 16-19.2 1.37-6.6 1.84-17.9 1.74-21.8-0.0938-3.98-0.0616-8.53-1.33-9.88 1.57-1.62 2.15-0.312 3.73 0.368-1.21-4.77-11.2-17.3-14.4-18 1.28-1.35 3.45-0.633 6.25 0.336-5.67-5.52-16.1-7.69-21.6-6.2 3.39-1.61 7.58-3.03 13.8-2.34-6.79-5.76-14.3-4.42-18.9-2.08 2.05-2.7 5.08-2.91 7.59-3.17-3.43-2.2-7.92-1.79-13 0.991 2.05-7.13 4.81-11.2 8.61-16.4-9.54 1.46-19.2 9.85-19.9 15.1z" fill="#483745" stroke-width="1.58"/>
  <path d="m80.3 84.6c-5.6 0.0161-9.17 0.77-11.6 2.3-1.12 0.709-1.92 1.59-2.49 2.57l-2.53-0.53c-1.81-0.379-3.25-0.377-4.66-0.115-1.21 0.225-2.4 0.605-3.95 1.05-0.567-0.943-1.35-1.79-2.43-2.48-2.76-1.75-7.04-2.49-14.1-2.26-7.24 0.227-11.9 2.62-14.3 6.04-2.39 3.42-2.34 7.66-0.694 11.1 1.69 3.53 5.18 5.94 9.15 7.13 3.97 1.2 8.48 1.21 12.5-0.246 7.72-2.83 11.7-8.72 11.3-14.5-0.047-0.706-0.139-1.42-0.297-2.12 1.42-0.408 2.56-0.752 3.44-0.916 1.1-0.205 2-0.219 3.53 0.102l2.11 0.442c-0.141 0.658-0.225 1.33-0.269 1.99-0.384 5.77 3.59 11.7 11.3 14.5 3.98 1.46 8.49 1.44 12.5 0.246 3.97-1.2 7.47-3.6 9.15-7.13 1.65-3.45 1.7-7.69-0.694-11.1-2.39-3.42-7.09-5.81-14.3-6.04-0.885-0.0277-1.73-0.0405-2.53-0.0382zm0.0175 2.85c0.76-0.0053 1.57 0.0053 2.42 0.0319 6.66 0.208 10.3 2.31 12.1 4.81 1.75 2.5 1.73 5.6 0.458 8.27-1.24 2.59-4 4.61-7.39 5.62-3.39 1.02-7.32 1.02-10.6-0.191-6.83-2.51-9.73-7.26-9.44-11.6 0.157-2.36 0.575-3.87 2.46-5.07 1.65-1.05 4.74-1.82 10.1-1.85zm-39.3 0.498c5.32 0.0331 8.4 0.803 10.1 1.85 1.88 1.2 2.3 2.71 2.46 5.07 0.291 4.37-2.61 9.13-9.44 11.6-3.3 1.21-7.23 1.21-10.6 0.191-3.38-1.02-6.15-3.03-7.39-5.62-1.27-2.67-1.29-5.78 0.458-8.28 1.75-2.5 5.4-4.61 12.1-4.81 0.853-0.0267 1.66-0.0366 2.42-0.0319z" color="#000000" color-rendering="auto" dominant-baseline="auto" fill="#61687e" image-rendering="auto" shape-rendering="auto" solid-color="#000000" stop-color="#000000" stroke-width=".357" style="font-feature-settings:normal;font-variant-alternates:normal;font-variant-caps:normal;font-variant-east-asian:normal;font-variant-ligatures:normal;font-variant-numeric:normal;font-variant-position:normal;font-variation-settings:normal;inline-size:0;isolation:auto;mix-blend-mode:normal;shape-margin:0;shape-padding:0;text-decoration-color:#000000;text-decoration-line:none;text-decoration-style:solid;text-indent:0;text-orientation:mixed;text-transform:none;white-space:normal"/>
  <path d="m57.7 115c-0.554 1.56-1.76 4.66-3.62 4.41-1.86-0.247-3.99-2.68-3.6-4.54 0.392-1.86 0.968-3.46 3.04-2.85 1.58 2.17 5.23 0.199 4.17 2.98z" fill="#bb7a4f" stroke-width="1.85"/>
  <path d="m75.1 82.3c-4.41-1.52-4.92-2.68-2.4-3.78 2.52-1.1 5.03-1.3 6.49 1.5 1.46 2.81 0.313 3.8-4.09 2.28z" fill="#483745" stroke-width="1.21"/>
  <path d="m44.2 77.1c-2.51-1.64-2.72-2.57-6.03 1.21-3.31 3.78-1.63 4.97 2.88 2.79 4.51-2.18 5.66-2.36 3.15-4z" fill="#483745" stroke-width="1.21"/>
  <g transform="matrix(2.08 0 0 2.08 -442 -57.1)" shape-rendering="auto">
   <path d="m249 72.1c-0.817-0.0659-1.56-0.0276-2.26 0.0587l0.129 1.05c1.32-0.161 2.63-0.151 4.55 0.464l1.99 0.638 0.325-1.01-1.99-0.638c-1.03-0.329-1.92-0.499-2.74-0.565z" color="#000000" color-rendering="auto" dominant-baseline="auto" fill="#714e22" fill-opacity=".604" image-rendering="auto" solid-color="#000000" stop-color="#000000" style="font-feature-settings:normal;font-variant-alternates:normal;font-variant-caps:normal;font-variant-east-asian:normal;font-variant-ligatures:normal;font-variant-numeric:normal;font-variant-position:normal;font-variation-settings:normal;inline-size:0;isolation:auto;mix-blend-mode:normal;shape-margin:0;shape-padding:0;text-decoration-color:#000000;text-decoration-line:none;text-decoration-style:solid;text-indent:0;text-orientation:mixed;text-transform:none;white-space:normal"/>
   <path d="m251 72.9c-1.77-0.065-3.9 0.0329-6.11 0.423l0.37 2.09c2.04-0.359 4.03-0.449 5.66-0.389 1.63 0.0598 2.95 0.3 3.4 0.466l1.37 0.501 0.726-2-1.37-0.499c-0.917-0.334-2.28-0.53-4.05-0.595z" color="#000000" color-rendering="auto" dominant-baseline="auto" image-rendering="auto" solid-color="#000000" stop-color="#000000" style="font-feature-settings:normal;font-variant-alternates:normal;font-variant-caps:normal;font-variant-east-asian:normal;font-variant-ligatures:normal;font-variant-numeric:normal;font-variant-position:normal;font-variation-settings:normal;inline-size:0;isolation:auto;mix-blend-mode:normal;shape-margin:0;shape-padding:0;text-decoration-color:#000000;text-decoration-line:none;text-decoration-style:solid;text-indent:0;text-orientation:mixed;text-transform:none;white-space:normal"/>
  </g>
  <g transform="matrix(1.21 0 0 2.08 -20.3 -79.8)" shape-rendering="auto">
   <path d="m54.8 82.9c0.817-0.0659 1.56-0.0276 2.26 0.0587l-0.129 1.05c-1.32-0.161-2.63-0.151-4.55 0.464l-1.99 0.638-0.325-1.01 1.99-0.638c1.03-0.329 1.92-0.499 2.74-0.565z" color="#000000" color-rendering="auto" dominant-baseline="auto" fill="#714e22" fill-opacity=".604" image-rendering="auto" solid-color="#000000" stop-color="#000000" style="font-feature-settings:normal;font-variant-alternates:normal;font-variant-caps:normal;font-variant-east-asian:normal;font-variant-ligatures:normal;font-variant-numeric:normal;font-variant-position:normal;font-variation-settings:normal;inline-size:0;isolation:auto;mix-blend-mode:normal;shape-margin:0;shape-padding:0;text-decoration-color:#000000;text-decoration-line:none;text-decoration-style:solid;text-indent:0;text-orientation:mixed;text-transform:none;white-space:normal"/>
   <path d="m52.2 83.8c1.77-0.065 3.9 0.0329 6.11 0.423l-0.37 2.09c-2.04-0.359-4.03-0.449-5.66-0.389-1.63 0.0598-2.95 0.3-3.4 0.466l-1.37 0.501-0.726-2 1.37-0.499c0.917-0.334 2.28-0.53 4.05-0.595z" color="#000000" color-rendering="auto" dominant-baseline="auto" image-rendering="auto" solid-color="#000000" stop-color="#000000" style="font-feature-settings:normal;font-variant-alternates:normal;font-variant-caps:normal;font-variant-east-asian:normal;font-variant-ligatures:normal;font-variant-numeric:normal;font-variant-position:normal;font-variation-settings:normal;inline-size:0;isolation:auto;mix-blend-mode:normal;shape-margin:0;shape-padding:0;text-decoration-color:#000000;text-decoration-line:none;text-decoration-style:solid;text-indent:0;text-orientation:mixed;text-transform:none;white-space:normal"/>
  </g>
  <path d="m50 129-0.619 1.12c3.27 1.8 5.22 1.98 6.95 1.62 1.73-0.362 3.14-1.13 5.86-1.21 2.69-0.0867 4.45 0.456 6.15 0.949 1.69 0.494 3.35 0.944 5.52 0.505l3.2-0.645-0.253-1.25-3.2 0.645c-1.9 0.382-3.23 8e-3 -4.91-0.482-1.68-0.49-3.66-1.09-6.54-0.999-2.94 0.0949-4.58 0.93-6.08 1.24-1.49 0.312-2.95 0.238-6.07-1.48z" color="#000000" color-rendering="auto" dominant-baseline="auto" fill="#bb7a4f" image-rendering="auto" shape-rendering="auto" solid-color="#000000" stop-color="#000000" stroke-width="1.21" style="font-feature-settings:normal;font-variant-alternates:normal;font-variant-caps:normal;font-variant-east-asian:normal;font-variant-ligatures:normal;font-variant-numeric:normal;font-variant-position:normal;font-variation-settings:normal;inline-size:0;isolation:auto;mix-blend-mode:normal;shape-margin:0;shape-padding:0;text-decoration-color:#000000;text-decoration-line:none;text-decoration-style:solid;text-indent:0;text-orientation:mixed;text-transform:none;white-space:normal"/>
 </g>
</svg>
