<?xml version="1.0" encoding="UTF-8"?>
<svg width="109.8mm" height="202.4mm" version="1.1" viewBox="0 0 109.8 202.4" xmlns="http://www.w3.org/2000/svg" xmlns:cc="http://creativecommons.org/ns#" xmlns:dc="http://purl.org/dc/elements/1.1/" xmlns:rdf="http://www.w3.org/1999/02/22-rdf-syntax-ns#">
 <metadata>
  <rdf:RDF>
   <cc:Work rdf:about="">
    <dc:format>image/svg+xml</dc:format>
    <dc:type rdf:resource="http://purl.org/dc/dcmitype/StillImage"/>
    <dc:title/>
   </cc:Work>
  </rdf:RDF>
 </metadata>
 <defs>
  <linearGradient id="linearGradient3298" x1="56.924" x2="79.943" y1="10.121" y2="166.53" gradientUnits="userSpaceOnUse">
   <stop stop-color="#4f37a2" offset="0"/>
   <stop stop-color="#120a0a" offset="1"/>
  </linearGradient>
 </defs>
 <g stroke-linecap="round" stroke-linejoin="round">
  <rect x="5.5511e-17" y=".24645" width="109.8" height="202.35" fill="url(#linearGradient3298)" opacity=".99" stroke-width="1.647" style="paint-order:stroke markers fill"/>
  <path d="m88.946 14.951-0.33538-1.658-1.4759-0.46658 1.5697-0.35426 0.44172-1.559 0.33538 1.658 1.4759 0.46658-1.5697 0.35426z" fill="#dce1df" fill-opacity=".68651" stroke-width="1.1298" style="paint-order:stroke markers fill"/>
  <path d="m64.787 25.384-0.61088-2.7481-2.6883-0.77332 2.8591-0.58716 0.80456-2.5839 0.61088 2.7481 2.6883 0.77332-2.8591 0.58716z" fill="#dce1df" fill-opacity=".68651" stroke-width="1.963" style="paint-order:stroke markers fill"/>
  <circle cx="61.704" cy="12.953" r=".50308" fill="#f8d23c" stroke-width="1.647" style="paint-order:stroke markers fill"/>
 </g>
 <g fill="#dce1df" stroke-linecap="round" stroke-linejoin="round" stroke-width="1.647">
  <circle cx="91.919" cy="38.522" r=".50308" fill-opacity=".68651" style="paint-order:stroke markers fill"/>
  <circle cx="39.167" cy="30.522" r=".50308" fill-opacity=".68651" style="paint-order:stroke markers fill"/>
  <circle cx="39.144" cy="46.926" r=".50308" style="paint-order:stroke markers fill"/>
  <circle cx="16.607" cy="64.495" r=".50308" style="paint-order:stroke markers fill"/>
  <circle cx="11.489" cy="9.658" r=".50308" fill-opacity=".68651" style="paint-order:stroke markers fill"/>
 </g>
</svg>
