<?xml version="1.0" encoding="UTF-8"?>
<svg width="109.8mm" height="202.4mm" version="1.1" viewBox="0 0 109.8 202.4" xmlns="http://www.w3.org/2000/svg" xmlns:cc="http://creativecommons.org/ns#" xmlns:dc="http://purl.org/dc/elements/1.1/" xmlns:rdf="http://www.w3.org/1999/02/22-rdf-syntax-ns#">
 <metadata>
  <rdf:RDF>
   <cc:Work rdf:about="">
    <dc:format>image/svg+xml</dc:format>
    <dc:type rdf:resource="http://purl.org/dc/dcmitype/StillImage"/>
   </cc:Work>
  </rdf:RDF>
 </metadata>
 <defs>
  <linearGradient id="linearGradient3298" x1="56.92" x2="79.94" y1="10.12" y2="166.5" gradientUnits="userSpaceOnUse">
   <stop stop-color="#c3c3b1" offset="0"/>
   <stop stop-color="#e6f2f5" offset="1"/>
  </linearGradient>
 </defs>
 <rect x="5.551e-17" y=".2465" width="109.8" height="202.4" fill="url(#linearGradient3298)" opacity=".99" stroke-linecap="round" stroke-linejoin="round" stroke-width="1.647" style="paint-order:stroke markers fill"/>
 <g fill="#d8e5e9" stroke-linecap="round" stroke-linejoin="round">
  <path d="m62.18 16.38c-4.538 0.8509-6.786 5.253-4.058 8.631h-10.71c-5.645 0.5827-4.163 7.788 0 7.913h15.83c-0.3261 1.724 1.289 3.3 2.618 3.341h37.82c3.97-0.62 2.902-5.303 0-5.391h-17.5c0.6518-1.291 0.6015-2.802-0.08459-3.96h23.71v-10.53z" stroke-width="1.03" style="paint-order:stroke markers fill"/>
  <path d="m51.05 39.54c-2.713 0.4237-1.983 3.624 0 3.685h16.75c0.198 0.1268 0.4328 0.2009 0.6863 0.2009h25.03c1.872-0.2926 1.37-2.503 0-2.543h-10.25c-0.2172-0.7755-0.9265-1.341-1.773-1.341z" stroke-width=".7568" style="paint-order:stroke markers fill"/>
  <rect x="79.53" y="51.91" width="26.13" height="1.737" ry=".8683" stroke-width=".4546" style="paint-order:stroke markers fill"/>
  <rect x="40.42" y="50.21" width="26.13" height="1.737" ry=".8683" stroke-width=".4546" style="paint-order:stroke markers fill"/>
  <rect x="54.69" y="55.27" width="21.18" height="1.258" ry=".6289" stroke-width=".3484" style="paint-order:stroke markers fill"/>
  <rect x="15.84" y="60.31" width="21.18" height="1.258" ry=".6289" stroke-width=".3484" style="paint-order:stroke markers fill"/>
 </g>
</svg>
