<svg width="109.8mm" height="202.4mm" version="1.1" viewBox="0 0 109.8 202.4" xmlns="http://www.w3.org/2000/svg" xmlns:cc="http://creativecommons.org/ns#" xmlns:dc="http://purl.org/dc/elements/1.1/" xmlns:rdf="http://www.w3.org/1999/02/22-rdf-syntax-ns#">
 <metadata>
  <rdf:RDF>
   <cc:Work rdf:about="">
    <dc:format>image/svg+xml</dc:format>
    <dc:type rdf:resource="http://purl.org/dc/dcmitype/StillImage"/>
   </cc:Work>
  </rdf:RDF>
 </metadata>
 <defs>
  <linearGradient id="linearGradient3298" x1="56.92" x2="79.94" y1="10.12" y2="166.5" gradientUnits="userSpaceOnUse">
   <stop stop-color="#5b5866" offset="0"/>
   <stop stop-color="#120a0a" offset="1"/>
  </linearGradient>
 </defs>
 <rect x="5.551e-17" y=".2464" width="109.8" height="202.4" fill="url(#linearGradient3298)" opacity=".99" stroke-linecap="round" stroke-linejoin="round" stroke-width="1.647" style="paint-order:stroke markers fill"/>
 <g fill="#2b2b2b" stroke-linecap="round" stroke-linejoin="round">
  <path d="m0 29.69v17.54h43.79c0.5792 0.7771 1.358 1.396 2.26 1.783h-28.24c-7.935 0.8187-5.851 10.94 0 11.12h20.76c-0.4317 2.286 1.71 4.375 3.472 4.428h44.68c5.263-0.8223 3.848-7.032 0-7.148h-12.96c1.67-3 0.0379-6.756-2.583-7.95h28.24c7.935-0.8188 5.851-10.94 0-11.12h-33.32c-0.06164-4.806-3.97-8.657-8.819-8.657z" stroke-width="1.375" style="paint-order:stroke markers fill"/>
  <rect x="43.89" y="78.05" width="37.01" height="2.276" ry="1.138" stroke-width=".3481" style="paint-order:stroke markers fill"/>
  <path d="m75.08 70.7h34.72v2.276h-34.72c-0.6341 0-1.145-0.5076-1.145-1.138s0.5105-1.138 1.145-1.138z" stroke-width=".3481" style="paint-order:stroke markers fill"/>
  <rect x="34.94" y="67.28" width="27.35" height="4.114" ry="2.057" stroke-width=".4023" style="paint-order:stroke markers fill"/>
  <path d="m47.11 5.156h62.79v22.32h-62.79c-6.183 0-11.16-4.978-11.16-11.16 0-6.183 4.978-11.16 11.16-11.16z" stroke-width="2.978" style="paint-order:stroke markers fill"/>
 </g>
</svg>
