<?xml version="1.0" encoding="UTF-8"?>
<svg width="109.8mm" height="202.4mm" version="1.1" viewBox="0 0 109.8 202.4" xmlns="http://www.w3.org/2000/svg" xmlns:cc="http://creativecommons.org/ns#" xmlns:dc="http://purl.org/dc/elements/1.1/" xmlns:rdf="http://www.w3.org/1999/02/22-rdf-syntax-ns#">
 <metadata>
  <rdf:RDF>
   <cc:Work rdf:about="">
    <dc:format>image/svg+xml</dc:format>
    <dc:type rdf:resource="http://purl.org/dc/dcmitype/StillImage"/>
   </cc:Work>
  </rdf:RDF>
 </metadata>
 <defs>
  <linearGradient id="linearGradient3298" x1="56.92" x2="79.94" y1="10.12" y2="166.5" gradientUnits="userSpaceOnUse">
   <stop stop-color="#5b5866" offset="0"/>
   <stop stop-color="#120a0a" offset="1"/>
  </linearGradient>
 </defs>
 <rect x="5.551e-17" y=".2464" width="109.8" height="202.4" fill="url(#linearGradient3298)" opacity=".99" stroke-linecap="round" stroke-linejoin="round" stroke-width="1.647" style="paint-order:stroke markers fill"/>
 <g fill="#2b2b2b" stroke-linecap="round" stroke-linejoin="round">
  <path d="m0 29.69v11.38h28.4c0.3757 0.5041 0.8809 0.9055 1.466 1.157h-18.32c-5.147 0.531-3.795 7.096 0 7.213h13.47c-0.28 1.483 1.109 2.838 2.252 2.872h28.98c3.414-0.5334 2.496-4.561 0-4.636h-8.406c1.083-1.946 0.02458-4.382-1.675-5.157h18.32c5.147-0.5311 3.795-7.096 0-7.213h-21.61c-0.03998-3.117-2.575-5.615-5.72-5.615z" stroke-width=".8919" style="paint-order:stroke markers fill"/>
  <rect x="43.89" y="78.05" width="37.01" height="2.276" ry="1.138" stroke-width=".3481" style="paint-order:stroke markers fill"/>
  <path d="m75.08 70.7h34.72v2.276h-34.72c-0.6341 0-1.145-0.5076-1.145-1.138s0.5105-1.138 1.145-1.138z" stroke-width=".3481" style="paint-order:stroke markers fill"/>
  <rect x="34.94" y="67.28" width="27.35" height="4.114" ry="2.057" stroke-width=".4023" style="paint-order:stroke markers fill"/>
  <path d="m72.23 5.156h37.67v13.39h-37.67c-3.71 0-6.696-2.987-6.696-6.696 0-3.71 2.987-6.696 6.696-6.696z" stroke-width="1.787" style="paint-order:stroke markers fill"/>
 </g>
</svg>
