<svg width="109.8mm" height="202.4mm" version="1.1" viewBox="0 0 109.8 202.4" xmlns="http://www.w3.org/2000/svg" xmlns:cc="http://creativecommons.org/ns#" xmlns:dc="http://purl.org/dc/elements/1.1/" xmlns:rdf="http://www.w3.org/1999/02/22-rdf-syntax-ns#" xmlns:xlink="http://www.w3.org/1999/xlink">
 <metadata>
  <rdf:RDF>
   <cc:Work rdf:about="">
    <dc:format>image/svg+xml</dc:format>
    <dc:type rdf:resource="http://purl.org/dc/dcmitype/StillImage"/>
   </cc:Work>
  </rdf:RDF>
 </metadata>
 <defs>
  <linearGradient id="linearGradient3298" x1="56.92" x2="79.94" y1="10.12" y2="166.5" gradientUnits="userSpaceOnUse">
   <stop stop-color="#4f37a2" offset="0"/>
   <stop stop-color="#120a0a" offset="1"/>
  </linearGradient>
 </defs>
 <g stroke-linecap="round" stroke-linejoin="round">
  <rect x="5.551e-17" y=".2465" width="109.8" height="202.4" fill="url(#linearGradient3298)" opacity=".99" stroke-width="1.647" style="paint-order:stroke markers fill"/>
  <path d="m74.71 56.54c-8.558-0.3237-17.39 7.637-18.63 15.99-2.843-1.348-5.472-1.655-11.04-1.557-5.564 0.09816-23.5 4.919-22.52 13.24-2.383-3.465-7.073-2.892-9.189 1.384 4.56-13.9-4.643-18.51-12.49-15.86l-0.06104 25.25c35.68 0.05012 51.9-1.372 86.39-0.3255 8.688 1.39e-4 15.73-5.478 15.73-12.24 2e-5 -3.121-1.534-6.125-4.287-8.396 2.105-0.7657 3.452-2.419 3.452-4.238-5.2e-4 -2.58-2.669-4.671-5.96-4.671-3.291 1.39e-4 -5.959 2.091-5.96 4.671-1.849-6.567-6.896-12.94-15.45-13.26z" fill="#6f6fcf" stroke-width="1.996" style="paint-order:stroke markers fill"/>
  <path d="m110.1 16.76c-2.921 0.0568-12.33 2.847-11.82 7.662-1.251-2.005-3.713-1.673-4.823 0.801 2.394-8.046-6.908-12.68-11.44-7.011-4.404-1.544-9.48 2.772-8.442 6.702-1.786-0.2475-3.7 0.7829-3.8 2.64-0.1 1.857 1.401 2.703 3.128 2.703 18.73 0.029 19.09 2e-3 37.2 0.6078z" fill="#6f6fcf" stroke-width="1.1" style="paint-order:stroke markers fill"/>
  <path d="m46.04-0.06552c-4.878-8.4e-5 -8.91 4.767-9.19 10.87-3.379-3.277-7.338 2.287-4.138 5.281-2.786 1.269-4.646 4.226-4.759 7.565-4.162 1.023-7.361 3.274-8.645 6.082-1.153-0.9621-2.631-1.677-4.28-2.071 2.97-2.868 1.254-7.039-2.607-6.899-3.861 0.1396-5.382 4.231-2.746 6.776-4.307 0.8131-7.323 3.698-7.323 7.005-1.39e-5 3.991 1.548 8.608 6.911 8.608 19.42-2e-3 41.46 0.5299 55.94 0.4405 2.516-2.3e-4 4.93-0.9176 6.715-2.552 3.458-0.3631 6.01-2.377 6.01-4.745 1.94e-4 -1.751-1.666-4.285-3.674-4.207-0.4409-3.654-4.227-6.865-9.229-6.039 4.801-7.762-0.9062-17.42-9.797-13.93 1.531-5.671-1.399-12.09-9.191-12.18z" fill="#7f7fd4" stroke-width="1.567" style="paint-order:stroke markers fill"/>
  <path d="m33.33 32.04c-9.787 0.0164-17.59 7.269-14.5 17.51-5.039-1.621-8.796 2.627-8.83 6.628-1.69e-4 3.743 3.269 6.778 7.301 6.778 16.52-0.4218 26.88-0.3382 38.82 3e-3 5.515 1.4e-4 9.986-4.139 9.986-9.245-0.0111-5.825-5.516-10.66-10.86-9.209 2.662-6.942-5.658-12.44-10.92-7.782-2.725-3.084-5.754-4.629-10.99-4.686z" fill="#6f6fcf" stroke-width="2.528" style="paint-order:stroke markers fill"/>
 </g>
</svg>
