<svg width="109.8mm" height="202.4mm" version="1.1" viewBox="0 0 109.8 202.4" xmlns="http://www.w3.org/2000/svg" xmlns:cc="http://creativecommons.org/ns#" xmlns:dc="http://purl.org/dc/elements/1.1/" xmlns:rdf="http://www.w3.org/1999/02/22-rdf-syntax-ns#" xmlns:xlink="http://www.w3.org/1999/xlink">
 <metadata>
  <rdf:RDF>
   <cc:Work rdf:about="">
    <dc:format>image/svg+xml</dc:format>
    <dc:type rdf:resource="http://purl.org/dc/dcmitype/StillImage"/>
   </cc:Work>
  </rdf:RDF>
 </metadata>
 <defs>
  <linearGradient id="linearGradient3298" x1="56.92" x2="79.94" y1="10.12" y2="166.5" gradientUnits="userSpaceOnUse">
   <stop stop-color="#a5d5f9" offset="0"/>
   <stop stop-color="#fff" stop-opacity="0" offset="1"/>
  </linearGradient>
 </defs>
 <g stroke-linecap="round" stroke-linejoin="round">
  <rect x="5.551e-17" y=".2465" width="109.8" height="202.4" fill="url(#linearGradient3298)" opacity=".99" stroke-width="1.647" style="paint-order:stroke markers fill"/>
  <path d="m38.81 68.34c-4.492-0.1873-9.13 4.419-9.777 9.253-1.492-0.7803-2.872-0.9575-5.793-0.9007-2.921 0.05678-12.33 2.847-11.82 7.662-1.251-2.005-3.713-1.673-4.823 0.801 2.394-8.046-2.437-10.71-6.555-9.176l-0.03204 14.61c18.73 0.02899 27.24-0.7942 45.35-0.1884 4.56 8.2e-5 8.257-3.17 8.257-7.08 1e-5 -1.806-0.8051-3.544-2.251-4.858 1.105-0.443 1.812-1.4 1.812-2.453-2.7e-4 -1.493-1.401-2.703-3.128-2.703-1.728 8.8e-5 -3.128 1.21-3.128 2.703-0.9707-3.8-3.62-7.485-8.112-7.672z" fill="#fff" stroke-width="1.1" style="paint-order:stroke markers fill"/>
  <path d="m109.8 19.4c-2.921 0.05678-12.33 2.847-11.82 7.662-1.251-2.005-3.713-1.673-4.823 0.801 2.394-8.046-6.908-12.68-11.44-7.011-4.404-1.544-9.48 2.772-8.442 6.702-1.786-0.2475-3.7 0.7829-3.8 2.64-0.1 1.857 1.401 2.703 3.128 2.703 18.73 0.02899 19.09 2e-3 37.2 0.6078z" fill="#fcfcfe" stroke-width="1.1" style="paint-order:stroke markers fill"/>
  <path d="m45.67 2.58c-4.878-8.41e-5 -8.91 4.767-9.19 10.87-3.379-3.277-7.338 2.287-4.138 5.281-2.786 1.269-4.646 4.226-4.759 7.565-4.162 1.023-7.361 3.274-8.645 6.082-1.153-0.9621-2.631-1.677-4.28-2.071 2.97-2.868 1.254-7.039-2.607-6.899-3.861 0.1396-5.382 4.231-2.746 6.776-4.307 0.8131-7.323 3.698-7.323 7.005-1.39e-5 3.991 1.548 8.608 6.911 8.608 19.42-0.0022 41.46 0.5299 55.94 0.4405 2.516-2.33e-4 4.93-0.9176 6.715-2.552 3.458-0.3631 6.01-2.377 6.01-4.745 1.94e-4 -1.751-1.666-4.285-3.674-4.207-0.4409-3.654-4.227-6.865-9.229-6.039 4.801-7.762-0.9062-17.42-9.797-13.93 1.531-5.671-1.399-12.09-9.191-12.18z" fill="#ededf9" stroke-width="1.567" style="paint-order:stroke markers fill"/>
  <path d="m73.88 34.73c-9.787 0.01642-17.59 7.269-14.5 17.51-5.039-1.621-8.796 2.627-8.83 6.628-1.69e-4 3.743 3.269 6.778 7.301 6.778 16.52-0.4218 26.88-0.3382 38.82 0.0026 5.515 1.41e-4 9.986-4.139 9.986-9.245-0.0111-5.825-5.516-10.66-10.86-9.209 2.662-6.942-5.658-12.44-10.92-7.782-2.725-3.084-5.754-4.629-10.99-4.686z" fill="#fcfcfe" stroke-width="2.528" style="paint-order:stroke markers fill"/>
 </g>
</svg>
