<?xml version="1.0" encoding="UTF-8"?>
<svg width="109.8mm" height="202.4mm" version="1.1" viewBox="0 0 109.8 202.4" xmlns="http://www.w3.org/2000/svg" xmlns:cc="http://creativecommons.org/ns#" xmlns:dc="http://purl.org/dc/elements/1.1/" xmlns:rdf="http://www.w3.org/1999/02/22-rdf-syntax-ns#">
 <metadata>
  <rdf:RDF>
   <cc:Work rdf:about="">
    <dc:format>image/svg+xml</dc:format>
    <dc:type rdf:resource="http://purl.org/dc/dcmitype/StillImage"/>
   </cc:Work>
  </rdf:RDF>
 </metadata>
 <defs>
  <linearGradient id="linearGradient3298" x1="56.92" x2="79.94" y1="10.12" y2="166.5" gradientUnits="userSpaceOnUse">
   <stop stop-color="#fafaed" offset="0"/>
   <stop stop-color="#dcf7ff" offset="1"/>
  </linearGradient>
 </defs>
 <rect x="5.551e-17" y=".2465" width="109.8" height="202.4" fill="url(#linearGradient3298)" opacity=".99" stroke-linecap="round" stroke-linejoin="round" stroke-width="1.647" style="paint-order:stroke markers fill"/>
 <g fill="#d8e5e9" stroke-linecap="round" stroke-linejoin="round">
  <path d="m58.23 20.15c-4.835 0.02209-8.909 3.482-9.534 8.098-4.788-0.2407-8.641 4.646-8.73 7.913 0.01223 4.387 3.516 7.939 7.83 7.932h43.16c4.16-1.051 3.699-6.359-0.7639-6.371-0.9585-7.869-11-7.499-12.65-1.415-0.8226-0.8851-1.971-1.454-3.221-1.597 3.639-2.839-1.615-10.52-6.592-7.16-0.9368-4.323-4.904-7.416-9.49-7.403z" stroke-width="3.973" style="paint-order:stroke markers fill"/>
  <path d="m92.51 48.08c-2.13 0.0098-4.026 1.253-4.748 3.114-2.537 0.3012-4.435 2.308-4.43 4.683 0.0079 2.599 2.281 4.701 5.081 4.698l9.005 0.02987c1.856-0.0024 3.879-1.313 4.003-3.146 4.272-4.216-2.962-6.911-4.207-6.471-0.7888-1.765-2.648-2.913-4.706-2.906z" stroke-width="3.973" style="paint-order:stroke markers fill"/>
  <path d="m15.5 44.29c-1.152 0.0042-2.177 0.5361-2.568 1.332-1.372 0.1288-2.399 0.9873-2.396 2.003 0.0043 1.112 1.234 2.011 2.748 2.009l4.871 0.01278c1.004-1e-3 2.098-0.5616 2.165-1.345 2.311-1.803-1.602-2.957-2.275-2.768-0.4266-0.755-1.432-1.246-2.545-1.243z" stroke-width="1.911" style="paint-order:stroke markers fill"/>
  <path d="m38.63 53.25c-1.152 0.0042-2.177 0.5361-2.568 1.332-1.372 0.1288-2.399 0.9873-2.396 2.003 0.0043 1.112 1.234 2.011 2.748 2.009l4.871 0.01278c1.004-1e-3 2.098-0.5616 2.165-1.345 2.311-1.803-1.602-2.957-2.275-2.768-0.4266-0.755-1.432-1.246-2.545-1.243z" stroke-width="1.911" style="paint-order:stroke markers fill"/>
 </g>
</svg>
