<?xml version="1.0" encoding="UTF-8"?>
<svg width="109.8mm" height="202.4mm" version="1.1" viewBox="0 0 109.8 202.4" xmlns="http://www.w3.org/2000/svg" xmlns:cc="http://creativecommons.org/ns#" xmlns:dc="http://purl.org/dc/elements/1.1/" xmlns:rdf="http://www.w3.org/1999/02/22-rdf-syntax-ns#">
 <metadata>
  <rdf:RDF>
   <cc:Work rdf:about="">
    <dc:format>image/svg+xml</dc:format>
    <dc:type rdf:resource="http://purl.org/dc/dcmitype/StillImage"/>
   </cc:Work>
  </rdf:RDF>
 </metadata>
 <defs>
  <linearGradient id="linearGradient3298" x1="56.92" x2="79.94" y1="10.12" y2="166.5" gradientUnits="userSpaceOnUse">
   <stop stop-color="#bdb1ff" offset="0"/>
   <stop stop-color="#efa7a7" offset="1"/>
  </linearGradient>
 </defs>
 <rect x="5.551e-17" y=".2464" width="109.8" height="202.4" fill="url(#linearGradient3298)" opacity=".99" stroke-linecap="round" stroke-linejoin="round" stroke-width="1.647" style="paint-order:stroke markers fill"/>
 <g stroke-linecap="round" stroke-linejoin="round">
  <g stroke-width="3.066">
   <path d="m71.98 32.22c-3.732 0.01705-6.877 2.688-7.36 6.251-3.696-0.1858-6.67 3.586-6.739 6.108 0.0094 3.387 2.714 6.128 6.044 6.123h33.31c3.211-0.8113 2.856-4.909-0.5896-4.918-0.7399-6.074-8.493-5.788-9.768-1.093-0.635-0.6832-1.521-1.123-2.486-1.233 2.809-2.192-1.247-8.123-5.089-5.527-0.7231-3.337-3.786-5.724-7.325-5.714z" fill="#ec9358" style="paint-order:stroke markers fill"/>
   <path d="m101.5 58.52c-1.644 0.0077-3.107 0.9675-3.665 2.403-1.958 0.2325-3.424 1.782-3.42 3.615 0.0062 2.006 1.761 3.629 3.922 3.626l6.951 0.02308c1.433-0.0015 2.994-1.013 3.09-2.429 3.298-3.255-2.286-5.335-3.247-4.995-0.6088-1.363-2.044-2.248-3.632-2.243z" fill="#ffebb1" style="paint-order:stroke markers fill"/>
   <path d="m20.33 48.52c-1.644 0.0077-3.107 0.9675-3.665 2.403-1.958 0.2325-3.424 1.782-3.42 3.615 0.0062 2.006 1.761 3.629 3.922 3.626l6.951 0.02308c1.433-0.0015 2.994-1.013 3.09-2.429 3.298-3.255-2.286-5.335-3.247-4.995-0.6088-1.363-2.044-2.248-3.632-2.243z" fill="#ffebb1" style="paint-order:stroke markers fill"/>
  </g>
  <path d="m39 50.85c-0.8892 0.0031-1.681 0.4138-1.982 1.028-1.059 0.09946-1.852 0.7621-1.849 1.546 0.0033 0.8581 0.9527 1.552 2.121 1.551l3.76 0.0099c0.7749-7.72e-4 1.619-0.4335 1.671-1.038 1.784-1.392-1.236-2.283-1.756-2.137-0.3293-0.5828-1.105-0.9616-1.965-0.9591z" fill="#ffca5b" stroke-width="1.475" style="paint-order:stroke markers fill"/>
  <path d="m56.85 57.77c-0.8892 0.0031-1.681 0.4138-1.982 1.028-1.059 0.09946-1.852 0.7621-1.849 1.546 0.0031 0.8581 0.9527 1.552 2.121 1.551l3.76 0.0099c0.7749-7.72e-4 1.619-0.4335 1.671-1.038 1.784-1.392-1.236-2.283-1.756-2.137-0.3293-0.5828-1.105-0.9616-1.965-0.9591z" fill="#ffca5b" stroke-width="1.475" style="paint-order:stroke markers fill"/>
 </g>
</svg>
