<?xml version="1.0" encoding="UTF-8"?>
<svg width="109.8mm" height="202.4mm" version="1.1" viewBox="0 0 109.8 202.4" xmlns="http://www.w3.org/2000/svg" xmlns:cc="http://creativecommons.org/ns#" xmlns:dc="http://purl.org/dc/elements/1.1/" xmlns:rdf="http://www.w3.org/1999/02/22-rdf-syntax-ns#">
 <metadata>
  <rdf:RDF>
   <cc:Work rdf:about="">
    <dc:format>image/svg+xml</dc:format>
    <dc:type rdf:resource="http://purl.org/dc/dcmitype/StillImage"/>
   </cc:Work>
  </rdf:RDF>
 </metadata>
 <defs>
  <linearGradient id="linearGradient3298" x1="56.92" x2="79.94" y1="10.12" y2="166.5" gradientUnits="userSpaceOnUse">
   <stop stop-color="#4f37a2" offset="0"/>
   <stop stop-color="#120a0a" offset="1"/>
  </linearGradient>
 </defs>
 <g stroke-linecap="round" stroke-linejoin="round">
  <rect x="5.551e-17" y=".2465" width="109.8" height="202.4" fill="url(#linearGradient3298)" opacity=".99" stroke-width="1.647" style="paint-order:stroke markers fill"/>
  <path d="m25.02 50.05c-2.897-0.1096-5.886 2.585-6.306 5.412-0.9622-0.4562-1.852-0.5602-3.737-0.527-1.883 0.03322-7.954 1.665-7.622 4.481-0.8066-1.173-2.394-0.9788-3.11 0.4684 1.543-4.705-1.571-6.265-4.227-5.368l-0.02066 8.546c12.08 0.01697 17.57-0.4644 29.24-0.1102 2.941 4.7e-5 5.324-1.854 5.324-4.143 7e-6 -1.056-0.5192-2.073-1.451-2.842 0.7125-0.2592 1.168-0.8187 1.168-1.434-1.76e-4 -0.8732-0.9034-1.581-2.017-1.581-1.114 4.7e-5 -2.017 0.7077-2.017 1.581-0.6258-2.223-2.334-4.38-5.229-4.488z" fill="#6f6fcf" stroke-width=".6756" style="paint-order:stroke markers fill"/>
  <path d="m109.8 11.84c-1.635 0.03179-6.902 1.594-6.616 4.289-0.7002-1.122-2.078-0.9364-2.7 0.4484 1.34-4.504-3.867-7.098-6.403-3.924-2.465-0.8642-5.306 1.552-4.725 3.751-0.9997-0.1385-2.071 0.4382-2.127 1.478-0.05597 1.039 0.7842 1.513 1.751 1.513 10.48 0.01623 10.69 0.0011 20.82 0.3402z" fill="#6f6fcf" stroke-width=".6157" style="paint-order:stroke markers fill"/>
  <path d="m58.47 15.61c-2.73-4.7e-5 -4.987 2.668-5.144 6.084-1.891-1.834-4.107 1.28-2.316 2.956-1.559 0.7103-2.601 2.365-2.664 4.234-2.33 0.5726-4.12 1.833-4.839 3.404-0.6454-0.5385-1.473-0.9387-2.396-1.159 1.662-1.605 0.7019-3.94-1.459-3.862-2.161 0.07814-3.013 2.368-1.537 3.793-2.411 0.4551-4.099 2.07-4.099 3.921-8e-6 2.234 0.8665 4.818 3.868 4.818 10.87-0.0011 23.21 0.2966 31.31 0.2466 1.408-1.29e-4 2.76-0.5136 3.759-1.428 1.936-0.2032 3.364-1.331 3.364-2.656 1.1e-4 -0.9801-0.9325-2.398-2.056-2.355-0.2468-2.045-2.366-3.843-5.166-3.38 2.687-4.345-0.5072-9.751-5.484-7.797 0.857-3.174-0.7831-6.767-5.145-6.818z" fill="#7f7fd4" stroke-width=".8771" style="paint-order:stroke markers fill"/>
  <path d="m82.99 42.52c-5.478 0.0092-9.846 4.069-8.116 9.801-2.821-0.9073-4.923 1.47-4.943 3.71-9.4e-5 2.095 1.83 3.794 4.087 3.794 9.247-0.2361 15.05-0.1893 21.73 0.0017 3.087 7.8e-5 5.59-2.317 5.59-5.175-6e-3 -3.26-3.088-5.967-6.079-5.155 1.49-3.886-3.167-6.963-6.112-4.356-1.525-1.726-3.221-2.591-6.152-2.623z" fill="#6f6fcf" stroke-width="1.415" style="paint-order:stroke markers fill"/>
 </g>
</svg>
