<?xml version="1.0" encoding="UTF-8"?>
<svg width="109.8mm" height="202.4mm" version="1.1" viewBox="0 0 109.8 202.4" xmlns="http://www.w3.org/2000/svg" xmlns:cc="http://creativecommons.org/ns#" xmlns:dc="http://purl.org/dc/elements/1.1/" xmlns:rdf="http://www.w3.org/1999/02/22-rdf-syntax-ns#">
 <metadata>
  <rdf:RDF>
   <cc:Work rdf:about="">
    <dc:format>image/svg+xml</dc:format>
    <dc:type rdf:resource="http://purl.org/dc/dcmitype/StillImage"/>
   </cc:Work>
  </rdf:RDF>
 </metadata>
 <defs>
  <linearGradient id="linearGradient3298" x1="56.92" x2="79.94" y1="10.12" y2="166.5" gradientUnits="userSpaceOnUse">
   <stop stop-color="#a5d5f9" offset="0"/>
   <stop stop-color="#fff" stop-opacity="0" offset="1"/>
  </linearGradient>
 </defs>
 <rect x="5.551e-17" y=".2465" width="109.8" height="202.4" fill="url(#linearGradient3298)" opacity=".99" stroke-linecap="round" stroke-linejoin="round" stroke-width="1.647" style="paint-order:stroke markers fill"/>
 <path d="m25.6 57.68c-2.964-0.1236-6.024 2.916-6.451 6.105-0.9844-0.5148-1.895-0.6317-3.822-0.5943-1.927 0.03746-8.135 1.878-7.799 5.055-0.8254-1.323-2.45-1.104-3.182 0.5285 1.58-5.309-1.608-7.066-4.325-6.054l-0.02114 9.639c12.36 0.01913 17.97-0.524 29.92-0.1243 3.009 5.4e-5 5.448-2.091 5.448-4.671 7e-6 -1.192-0.5312-2.338-1.485-3.205 0.7291-0.2923 1.196-0.9237 1.196-1.618-1.79e-4 -0.985-0.9244-1.783-2.064-1.783-1.14 5.8e-5 -2.064 0.7983-2.064 1.783-0.6404-2.507-2.388-4.938-5.352-5.062z" fill="#fff" stroke-linecap="round" stroke-linejoin="round" stroke-width=".7258" style="paint-order:stroke markers fill"/>
 <g transform="translate(2.779)" stroke-linecap="round" stroke-linejoin="round">
  <path d="m107 34.72c-1.927 0.03746-8.135 1.878-7.799 5.055-0.8254-1.323-2.45-1.104-3.182 0.5285 1.58-5.309-4.558-8.366-7.548-4.626-2.906-1.019-6.255 1.829-5.57 4.422-1.178-0.1633-2.441 0.5165-2.507 1.742-0.06598 1.225 0.9244 1.783 2.064 1.783 12.36 0.01913 12.6 0.0013 24.54 0.401z" fill="#fcfcfe" stroke-width=".7258" style="paint-order:stroke markers fill"/>
  <path d="m64.71 23.63c-3.218-5.5e-5 -5.879 3.145-6.063 7.172-2.229-2.162-4.841 1.509-2.73 3.484-1.838 0.8373-3.065 2.788-3.14 4.991-2.746 0.675-4.857 2.16-5.704 4.013-0.7607-0.6348-1.736-1.106-2.824-1.366 1.96-1.892 0.8274-4.644-1.72-4.552-2.547 0.09211-3.551 2.792-1.812 4.471-2.842 0.5365-4.832 2.44-4.832 4.622-9e-6 2.633 1.021 5.679 4.56 5.679 12.81-0.0015 27.35 0.3496 36.91 0.2906 1.66-1.54e-4 3.253-0.6054 4.43-1.684 2.282-0.2396 3.965-1.568 3.965-3.131 1.28e-4 -1.155-1.099-2.827-2.424-2.776-0.2909-2.411-2.789-4.529-6.089-3.984 3.168-5.121-0.5979-11.49-6.464-9.191 1.01-3.742-0.923-7.977-6.064-8.036z" fill="#ededf9" stroke-width="1.034" style="paint-order:stroke markers fill"/>
  <path d="m83.32 44.84c-6.457 0.01083-11.61 4.796-9.567 11.55-3.325-1.07-5.803 1.733-5.826 4.373-1.11e-4 2.47 2.157 4.472 4.817 4.472 10.9-0.2783 17.73-0.2231 25.61 0.0017 3.639 9.3e-5 6.589-2.731 6.589-6.1-7e-3 -3.843-3.639-7.033-7.165-6.076 1.756-4.58-3.733-8.208-7.205-5.134-1.798-2.035-3.796-3.054-7.251-3.092z" fill="#fcfcfe" stroke-width="1.668" style="paint-order:stroke markers fill"/>
 </g>
</svg>
