<?xml version="1.0" encoding="UTF-8"?>
<svg width="109.8mm" height="202.4mm" version="1.1" viewBox="0 0 109.8 202.4" xmlns="http://www.w3.org/2000/svg" xmlns:cc="http://creativecommons.org/ns#" xmlns:dc="http://purl.org/dc/elements/1.1/" xmlns:rdf="http://www.w3.org/1999/02/22-rdf-syntax-ns#">
 <metadata>
  <rdf:RDF>
   <cc:Work rdf:about="">
    <dc:format>image/svg+xml</dc:format>
    <dc:type rdf:resource="http://purl.org/dc/dcmitype/StillImage"/>
   </cc:Work>
  </rdf:RDF>
 </metadata>
 <defs>
  <linearGradient id="linearGradient3298" x1="56.92" x2="28.49" y1="10.12" y2="167.3" gradientUnits="userSpaceOnUse">
   <stop stop-color="#4f37a2" offset="0"/>
   <stop stop-color="#120a0a" offset="1"/>
  </linearGradient>
 </defs>
 <rect x="5.551e-17" y=".2465" width="109.8" height="202.4" fill="url(#linearGradient3298)" opacity=".99" stroke-linecap="round" stroke-linejoin="round" stroke-width="1.647" style="paint-order:stroke markers fill"/>
 <g fill="#6f6fcf">
  <path d="m87.69 4.287c-1.869 0.4038-2.919 2.038-1.891 3.607-6.098 0.2423-8.305 8.566-5.601 13.54-5.227-1.621-10.84 4.371-8.827 9.468-2.995-0.4742-3.542 3.724-1.011 4.752-0.8398 1.178-1.358 2.565-1.502 4.017-3.208-2.859-7.562 0.6772-7.649 3.716-4.5e-5 2.717 2.07 4.92 4.624 4.92 15.33-0.04497 30.14-1.401 43.85-1.816v-16.74c-1.26-1.195-3.244-1.168-4.35 0.1365-0.753-3.063-2.156-5.276-3.815-6.02 0.6129-1.575-0.4269-3.306-1.63-3.841 2.557-4.228-2.521-10.9-7.246-9.258 1.306-2.201-0.8577-4.481-2.65-4.533-0.5686-1.124-1.243-1.921-2.3-1.951z" stroke-width=".2471"/>
  <path d="m0 11.49v24.45c8.134-0.2358 16.02-0.2526 23.57 0.1762 1.291-2.09e-4 2.543-0.3725 3.552-1.056 6.899 2.734 8.625-6.56 2.53-6.723 0.2792-2.286-4.779-3.163-6.826-1.857-2.186-5.562-10.24-2.474-8.039 2.273-1.111 0.02355-2.168 0.4302-2.941 1.132-0.5727-0.6993-1.402-1.203-2.349-1.424 2.604-7.241-3.726-15.39-9.194-16.51-0.09397-0.1622-0.1957-0.3152-0.3023-0.4615z" stroke-width=".3714"/>
  <path d="m33.51 53.86c-3.879-0.1583-7.883 3.734-8.445 7.819-1.289-0.6591-2.481-0.8092-5.005-0.7613-2.522 0.048-10.65 2.405-10.21 6.474-1.08-1.694-3.206-1.414-4.165 0.6767 2.067-6.797-2.105-9.051-5.662-7.755l-0.02767 12.35c16.17 0.0245 23.53-0.6709 39.16-0.1592 3.938 6.8e-5 7.131-2.679 7.131-5.985 9e-6 -1.526-0.6954-2.995-1.943-4.105 0.9542-0.3744 1.565-1.183 1.565-2.072-2.37e-4 -1.262-1.21-2.284-2.702-2.284-1.492 6.8e-5 -2.701 1.022-2.702 2.284-0.8382-3.211-3.126-6.327-7.004-6.484z" stroke-linecap="round" stroke-linejoin="round" stroke-width=".9397" style="paint-order:stroke markers fill"/>
 </g>
</svg>
