<?xml version="1.0" encoding="UTF-8"?>
<svg width="109.8mm" height="202.4mm" version="1.1" viewBox="0 0 109.8 202.4" xmlns="http://www.w3.org/2000/svg" xmlns:cc="http://creativecommons.org/ns#" xmlns:dc="http://purl.org/dc/elements/1.1/" xmlns:rdf="http://www.w3.org/1999/02/22-rdf-syntax-ns#">
 <metadata>
  <rdf:RDF>
   <cc:Work rdf:about="">
    <dc:format>image/svg+xml</dc:format>
    <dc:type rdf:resource="http://purl.org/dc/dcmitype/StillImage"/>
   </cc:Work>
  </rdf:RDF>
 </metadata>
 <defs>
  <linearGradient id="linearGradient3298" x1="56.92" x2="79.94" y1="10.12" y2="166.5" gradientUnits="userSpaceOnUse">
   <stop stop-color="#e3deff" offset="0"/>
   <stop stop-color="#f2b7b7" offset="1"/>
  </linearGradient>
 </defs>
 <rect x="5.551e-17" y=".2465" width="109.8" height="202.4" fill="url(#linearGradient3298)" opacity=".99" stroke-linecap="round" stroke-linejoin="round" stroke-width="1.647" style="paint-order:stroke markers fill"/>
 <path transform="scale(.2646)" d="m291.9 32.69c-10.62 2.294-16.58 11.58-10.74 20.49-34.64 1.377-47.18 48.66-31.82 76.93-29.69-9.208-61.55 24.83-50.15 53.78-17.01-2.694-20.12 21.15-5.744 27-4.771 6.693-7.716 14.57-8.531 22.82-18.22-16.24-42.95 3.847-43.45 21.11-2.6e-4 15.43 11.76 27.95 26.27 27.95 87.09-0.2554 171.2-7.956 249.1-10.32v-95.09c-7.157-6.789-18.43-6.634-24.71 0.7754-4.278-17.4-12.25-29.97-21.67-34.2 3.482-8.947-2.425-18.78-9.262-21.82 14.52-24.02-14.32-61.89-41.16-52.59 7.419-12.51-4.872-25.45-15.05-25.75-3.23-6.383-7.064-10.91-13.06-11.08z" fill="#fff" stroke-width="1.404"/>
 <path transform="scale(.2646)" d="m0 263.7v92.42c30.74-0.8912 60.53-0.9548 89.09 0.666 4.878-7.9e-4 9.612-1.408 13.43-3.992 26.08 10.33 32.6-24.79 9.561-25.41 1.055-8.639-18.06-11.96-25.8-7.02-8.263-21.02-38.7-9.35-30.38 8.59-4.2 0.08901-8.193 1.626-11.12 4.279-2.164-2.643-5.301-4.545-8.879-5.383 9.842-27.37-14.08-58.15-34.75-62.41-0.3552-0.6129-0.7398-1.191-1.143-1.744z" fill="#fff" stroke-width="1.404"/>
</svg>
