<?xml version="1.0" encoding="UTF-8"?>
<svg width="109.8mm" height="202.4mm" version="1.1" viewBox="0 0 109.8 202.4" xmlns="http://www.w3.org/2000/svg" xmlns:cc="http://creativecommons.org/ns#" xmlns:dc="http://purl.org/dc/elements/1.1/" xmlns:rdf="http://www.w3.org/1999/02/22-rdf-syntax-ns#">
 <metadata>
  <rdf:RDF>
   <cc:Work rdf:about="">
    <dc:format>image/svg+xml</dc:format>
    <dc:type rdf:resource="http://purl.org/dc/dcmitype/StillImage"/>
   </cc:Work>
  </rdf:RDF>
 </metadata>
 <defs>
  <linearGradient id="linearGradient3298" x1="56.92" x2="79.94" y1="10.12" y2="166.5" gradientUnits="userSpaceOnUse">
   <stop stop-color="#89c8f7" offset="0"/>
   <stop stop-color="#abe2fa" offset="1"/>
  </linearGradient>
 </defs>
 <rect x="5.551e-17" y=".2465" width="109.8" height="202.4" fill="url(#linearGradient3298)" opacity=".99" stroke-linecap="round" stroke-linejoin="round" stroke-width="1.647" style="paint-order:stroke markers fill"/>
 <path d="m40.73 10.71c-2.809 0.6069-4.387 3.062-2.842 5.421-9.165 0.3642-12.48 12.88-8.419 20.35-7.856-2.436-16.29 6.569-13.27 14.23-4.501-0.7127-5.324 5.597-1.52 7.143-1.262 1.771-2.041 3.855-2.257 6.038-4.821-4.297-11.37 1.018-11.5 5.585-6.66e-5 4.084 3.111 7.394 6.949 7.394 32.38-0.09497 63.23-4.095 90.08-2.571 1.291-2.1e-4 2.543-0.3727 3.552-1.057 6.899 2.734 8.625-6.559 2.53-6.722 0.2792-2.286-4.779-3.164-6.827-1.858-2.186-5.562-10.24-2.474-8.039 2.273-1.111 0.02355-2.167 0.4301-2.941 1.132-0.5727-0.6993-1.403-1.203-2.35-1.424 2.604-7.241-3.725-15.39-9.194-16.51-1.68-2.898-5.48-3.256-7.442-0.9428-1.132-4.603-3.24-7.93-5.735-9.048 0.9213-2.367-0.6418-4.969-2.451-5.774 3.843-6.354-3.789-16.38-10.89-13.92 1.963-3.309-1.289-6.735-3.983-6.813-0.8546-1.689-1.869-2.887-3.457-2.932z" fill="#fff" stroke-width=".3714"/>
</svg>
