<?xml version="1.0" encoding="UTF-8"?>
<svg width="109.8mm" height="202.4mm" version="1.1" viewBox="0 0 109.8 202.4" xmlns="http://www.w3.org/2000/svg" xmlns:cc="http://creativecommons.org/ns#" xmlns:dc="http://purl.org/dc/elements/1.1/" xmlns:rdf="http://www.w3.org/1999/02/22-rdf-syntax-ns#">
 <metadata>
  <rdf:RDF>
   <cc:Work rdf:about="">
    <dc:format>image/svg+xml</dc:format>
    <dc:type rdf:resource="http://purl.org/dc/dcmitype/StillImage"/>
   </cc:Work>
  </rdf:RDF>
 </metadata>
 <defs>
  <linearGradient id="linearGradient3298" x1="60.26" x2="61.73" y1="-1.71" y2="111.6" gradientUnits="userSpaceOnUse">
   <stop stop-color="#495a66" offset="0"/>
   <stop stop-color="#636363" offset="1"/>
  </linearGradient>
 </defs>
 <rect x="5.551e-17" y=".2465" width="109.8" height="202.4" fill="url(#linearGradient3298)" opacity=".99" stroke-linecap="round" stroke-linejoin="round" stroke-width="1.647" style="paint-order:stroke markers fill"/>
 <g fill="#273036">
  <path d="m78.39 18.58c-17.03-0.2452-7.926 23.34 5.335 13.73 1.634 4.434 9.373 4.813 10.83 0.369 12.56 2.482 15.91-16.58 1.281-15.16-1.254-9.81-17.42-8.019-17.45 1.062z" stroke-width=".2646"/>
  <path d="m27.93 12.23a20.7 13.79 0 0 1-16.62 5.575 20.7 13.79 0 0 1-10.32-1.847c0.5973 4.538 5.098 8.643 10.97 6.375 2.011 7.415 11.72 6.825 13.75 0.8883 7.984 7.046 18.06-2.706 14.03-9.051 1.47-0.4218 2.667-1.014 3.63-1.716a20.41 13.4 0 0 1-7.286 0.8945 20.41 13.4 0 0 1-8.159-1.118z" stroke-width=".2646"/>
  <path d="m48.85 40.84c-1.276-5.327-11.99-5.262-12.08 0.4354-9.095-2.002-10.29 9.072-2.243 9.692-1.043 4.817 5.405 7.204 8.59 4.37 2.925 6.282 12.5 3.516 11.91-1.253 9.035 1.426 9.776-9.014 1.552-9.845 1.32-3.673-5.639-6.449-7.729-3.399z" stroke-width=".1792"/>
 </g>
</svg>
