<?xml version="1.0" encoding="UTF-8"?>
<svg width="109.8mm" height="202.4mm" version="1.1" viewBox="0 0 109.8 202.4" xmlns="http://www.w3.org/2000/svg" xmlns:cc="http://creativecommons.org/ns#" xmlns:dc="http://purl.org/dc/elements/1.1/" xmlns:rdf="http://www.w3.org/1999/02/22-rdf-syntax-ns#">
 <metadata>
  <rdf:RDF>
   <cc:Work rdf:about="">
    <dc:format>image/svg+xml</dc:format>
    <dc:type rdf:resource="http://purl.org/dc/dcmitype/StillImage"/>
   </cc:Work>
  </rdf:RDF>
 </metadata>
 <defs>
  <linearGradient id="linearGradient3298" x1="60.26" x2="61.73" y1="-1.71" y2="111.6" gradientUnits="userSpaceOnUse">
   <stop stop-color="#8d8d8d" offset="0"/>
   <stop stop-color="#8e8e8e" offset="1"/>
  </linearGradient>
 </defs>
 <rect x="5.551e-17" y=".2465" width="109.8" height="202.4" fill="url(#linearGradient3298)" opacity=".99" stroke-linecap="round" stroke-linejoin="round" stroke-width="1.647" style="paint-order:stroke markers fill"/>
 <path d="m79.21 36.72c-17.03-0.2452-7.926 23.34 5.335 13.73 1.634 4.434 9.373 4.813 10.83 0.369 12.56 2.482 15.91-16.58 1.281-15.16-1.254-9.81-17.42-8.019-17.45 1.062z" fill="#414f59" stroke-width=".2646"/>
 <path d="m40.33 9.663c-5.476-10.85-28.57-5.237-25.85 7.11-20.66 0.3236-17.58 24.84 0.109 22.07 0.2076 10.93 15.35 12.79 20.78 5.046 9.525 12.07 28.78 1.205 25.07-8.786 20.23-1.535 16.5-24.45-1.677-22.05 0.9737-8.604-15.47-11.04-18.42-3.391z" fill="#576b78" stroke-width=".3975"/>
</svg>
