<svg id="SVGRoot" width="24px" height="24px" version="1.1" viewBox="0 0 24 24" xmlns="http://www.w3.org/2000/svg">
 <path d="m0.2852 15.43c-0.04006 6.24e-4 -0.0625 0.003906-0.0625 0.003906 0.7228 1.342-0.846 4.324 1.191 7.229 0.3651 0.5208 0.6233 0.8758 0.9453 1.334h4.514c-0.3375-0.9204-0.7073-1.929-1.156-3.066-2.088-5.283-5.046-5.504-5.432-5.498v-0.001953z" fill="#78fa90" fill-opacity=".4157" stroke-width=".02659"/>
 <path d="m23.47 15.57c-0.9301 0.01982-3.728 0.4022-5.555 5.025-0.4703 1.19-0.8037 2.347-1.082 3.404h4.906c0.3035-0.4201 0.5337-0.7083 0.875-1.195 2.037-2.905 0.4687-5.887 1.191-7.229 0 0-0.02049-0.003306-0.06055-0.003906-0.04843-6.38e-4 -0.1425-0.004785-0.2754-0.001954z" fill="#78fa90" fill-opacity=".4157" stroke-width=".02659"/>
 <g transform="matrix(.1909 0 0 .1909 -7.231 -9.112)">
  <ellipse transform="matrix(.9779 -.209 .214 .9768 0 0)" cx="32.9" cy="161.4" rx="13.36" ry="18.94" fill="#924019" style="paint-order:stroke markers fill"/>
  <path d="m161.1 104c0 24.65-4.138 31.4-49.49 31.03-28.62-0.2385-56.88 0.2438-59.89-24.22-6.481-52.62 24.01-62.78 52.64-62.78 28.62 0 56.75 31.32 56.75 55.97z" fill="#924019" style="paint-order:stroke markers fill"/>
  <path d="m148.1 119.8c-0.0922 33.03-13.58 47.92-32.8 47.92-26.79 0-46.41-14.09-46.41-47.92 1e-6 -37.04 15.85-47.3 47.17-47.17 21.51 0.09118 32.16 6.116 32.05 47.17z" fill="#f9bb78" style="paint-order:stroke markers fill"/>
 </g>
 <g stroke-width=".1909">
  <rect x="10.89" y="12.94" width="1.928" height="2.686" ry=".9517" fill="#c65722" style="paint-order:stroke markers fill"/>
  <path d="m15.13 5.686c6.027 2.184 5.922 8.078 5.922 8.078s4.149-9.43-1.567-11.27c-5.714-1.837-6.064-0.5938-6.064-0.5938z" fill="#924019"/>
  <rect x="17.84" y="12.86" width="1.928" height="2.686" ry=".9517" fill="#c65722" style="paint-order:stroke markers fill"/>
  <path d="m16.65 5.104c-5.332 6.461-9.453 8.227-10.39 7.65-0.9382-0.5773-3.102-3.608-1.371-5.556 1.732-1.949 4.615-3.509 6.929-3.897 2.314-0.3872 4.834 1.804 4.834 1.804z" fill="#924019"/>
  <path d="m7.058 15c-2.423-2.205-3.584-3.969-3.685-2.499-0.1009 1.47 0.656 4.166 1.615 4.41 0.959 0.245 1.766-0.09801 1.766-0.09801" fill="#f9bb78"/>
  <path d="m10.44 21.26s-0.08294 1.486-0.3047 2.738h4.445c-0.02074-0.7632 0.04492-1.439 0.04492-1.439l-4.186-1.299z" fill="#f9bb78"/>
 </g>
 <path d="m7.814 18.92a3.491 2.676 72.81 0 0-0.3828 0.03906 3.491 2.676 72.81 0 0-1.816 3.9 3.491 2.676 72.81 0 0 0.4453 1.141h4.775a3.491 2.676 72.81 0 0 0.04492-2.164 3.491 2.676 72.81 0 0-3.066-2.916z" fill="#924019" stroke-width=".1908" style="paint-order:stroke markers fill"/>
 <g shape-rendering="auto">
  <path d="m11.24 12.6c-0.868 0.1063-1.38 0.6201-1.38 0.6201a0.2475 0.2475 0 0 0 0.00187 0.3501 0.2475 0.2475 0 0 0 0.3501-0.0019s0.3832-0.3906 1.088-0.4769c0.3372-0.04128 0.6983 0.0363 0.9688 0.1346 0.1352 0.04916 0.2483 0.103 0.3207 0.1439 0.03136 0.01772 0.05055 0.03116 0.06227 0.03953a0.2475 0.2475 0 0 0 3.72e-4 3.72e-4 0.2475 0.2475 0 0 0 0.195 0.09471 0.2475 0.2475 0 0 0 0.2476-0.2476c0-0.1432-0.05316-0.1595-0.07495-0.1831-0.0218-0.0236-0.03912-0.03756-0.0578-0.05183-0.03736-0.02855-0.07881-0.05441-0.129-0.08278-0.1004-0.05674-0.2342-0.1202-0.3949-0.1786-0.3214-0.1168-0.7488-0.2157-1.198-0.1607z" color="#000000" color-rendering="auto" dominant-baseline="auto" fill="#5e2910" image-rendering="auto" solid-color="#000000" stop-color="#000000" style="font-feature-settings:normal;font-variant-alternates:normal;font-variant-caps:normal;font-variant-east-asian:normal;font-variant-ligatures:normal;font-variant-numeric:normal;font-variant-position:normal;font-variation-settings:normal;inline-size:0;isolation:auto;mix-blend-mode:normal;shape-margin:0;shape-padding:0;text-decoration-color:#000000;text-decoration-line:none;text-decoration-style:solid;text-indent:0;text-orientation:mixed;text-transform:none;white-space:normal"/>
  <path d="m18.45 12.49c-0.7097 0.1104-1.111 0.6306-1.111 0.6306a0.2196 0.2196 0 0 0 0.03803 0.308 0.2196 0.2196 0 0 0 0.3084-0.03841s0.3036-0.3843 0.8319-0.4665c0.2472-0.03845 0.5201 0.03452 0.7271 0.1301 0.1035 0.04781 0.1902 0.1006 0.2454 0.1402 0.02399 0.01722 0.0384 0.02987 0.04699 0.03766a0.2196 0.2196 0 0 0 0.1879 0.1063 0.2196 0.2196 0 0 0 0.2196-0.2196c0-0.1011-0.03291-0.1222-0.04923-0.1447-0.01631-0.02244-0.03011-0.03689-0.04512-0.05146-0.03002-0.02914-0.06362-0.05563-0.104-0.08465-0.08083-0.05804-0.1883-0.1226-0.3177-0.1823-0.2588-0.1195-0.6067-0.223-0.9785-0.1652z" color="#000000" color-rendering="auto" dominant-baseline="auto" fill="#5e2910" image-rendering="auto" solid-color="#000000" stop-color="#000000" style="font-feature-settings:normal;font-variant-alternates:normal;font-variant-caps:normal;font-variant-east-asian:normal;font-variant-ligatures:normal;font-variant-numeric:normal;font-variant-position:normal;font-variation-settings:normal;inline-size:0;isolation:auto;mix-blend-mode:normal;shape-margin:0;shape-padding:0;text-decoration-color:#000000;text-decoration-line:none;text-decoration-style:solid;text-indent:0;text-orientation:mixed;text-transform:none;white-space:normal"/>
  <path d="m11.34 10.44c-0.8626 0.1056-1.964 0.5433-1.964 0.5433a0.3133 0.3133 0 0 0-0.1786 0.4053 0.3133 0.3133 0 0 0 0.4053 0.1786s1.103-0.4183 1.813-0.5053c0.661-0.08091 1.401 0.2607 1.401 0.2607a0.3133 0.3133 0 0 0 0.4191-0.1439 0.3133 0.3133 0 0 0-0.1439-0.4191s-0.8406-0.4312-1.753-0.3196z" color="#000000" color-rendering="auto" dominant-baseline="auto" fill="#924019" image-rendering="auto" solid-color="#000000" stop-color="#000000" style="font-feature-settings:normal;font-variant-alternates:normal;font-variant-caps:normal;font-variant-east-asian:normal;font-variant-ligatures:normal;font-variant-numeric:normal;font-variant-position:normal;font-variation-settings:normal;inline-size:0;isolation:auto;mix-blend-mode:normal;shape-margin:0;shape-padding:0;text-decoration-color:#000000;text-decoration-line:none;text-decoration-style:solid;text-indent:0;text-orientation:mixed;text-transform:none;white-space:normal"/>
  <path d="m18.85 10.3c-0.797-0.0309-1.42 0.4948-1.42 0.4948a0.3133 0.3133 0 0 0-0.05109 0.44 0.3133 0.3133 0 0 0 0.4404 0.05071s0.5172-0.3784 1.007-0.3595c0.2485 0.0096 0.5916 0.1214 0.858 0.2375 0.2664 0.1161 0.4542 0.2271 0.4542 0.2271a0.3133 0.3133 0 0 0 0.4292-0.1096 0.3133 0.3133 0 0 0-0.11-0.4292s-0.2207-0.1307-0.5232-0.2625c-0.3025-0.1318-0.6892-0.2741-1.084-0.2894z" color="#000000" color-rendering="auto" dominant-baseline="auto" fill="#924019" image-rendering="auto" solid-color="#000000" stop-color="#000000" style="font-feature-settings:normal;font-variant-alternates:normal;font-variant-caps:normal;font-variant-east-asian:normal;font-variant-ligatures:normal;font-variant-numeric:normal;font-variant-position:normal;font-variation-settings:normal;inline-size:0;isolation:auto;mix-blend-mode:normal;shape-margin:0;shape-padding:0;text-decoration-color:#000000;text-decoration-line:none;text-decoration-style:solid;text-indent:0;text-orientation:mixed;text-transform:none;white-space:normal"/>
  <path d="m17.07 16.15a0.1945 0.1945 0 0 0-0.02984 0.0023 0.1945 0.1945 0 0 0-0.1637 0.2211s0.02477 0.3914-0.1402 0.5217c-0.2035 0.1607-0.5687 0.1525-0.5687 0.1525a0.1945 0.1945 0 0 0-0.2081 0.1801 0.1945 0.1945 0 0 0 0.1805 0.2081s0.4739 0.05162 0.8371-0.2353c0.4018-0.3173 0.2841-0.8845 0.2841-0.8845a0.1945 0.1945 0 0 0-0.1913-0.166z" color="#000000" color-rendering="auto" dominant-baseline="auto" fill="#7f3816" image-rendering="auto" solid-color="#000000" stop-color="#000000" style="font-feature-settings:normal;font-variant-alternates:normal;font-variant-caps:normal;font-variant-east-asian:normal;font-variant-ligatures:normal;font-variant-numeric:normal;font-variant-position:normal;font-variation-settings:normal;inline-size:0;isolation:auto;mix-blend-mode:normal;shape-margin:0;shape-padding:0;text-decoration-color:#000000;text-decoration-line:none;text-decoration-style:solid;text-indent:0;text-orientation:mixed;text-transform:none;white-space:normal"/>
  <path d="m13.99 18.28a0.2598 0.2598 0 0 0-0.1521 0.05556 0.2598 0.2598 0 0 0-0.04437 0.3647s0.3715 0.4871 1.008 0.6354c0.6861 0.1598 1.292-0.2923 1.292-0.2923a0.2598 0.2598 0 0 0 0.06749-0.3613 0.2598 0.2598 0 0 0-0.3613-0.06749s-0.4977 0.3043-0.8804 0.2152c-0.432-0.1006-0.7171-0.4501-0.7171-0.4501a0.2598 0.2598 0 0 0-0.2125-0.09956z" color="#000000" color-rendering="auto" dominant-baseline="auto" fill="#ea3838" image-rendering="auto" solid-color="#000000" stop-color="#000000" style="font-feature-settings:normal;font-variant-alternates:normal;font-variant-caps:normal;font-variant-east-asian:normal;font-variant-ligatures:normal;font-variant-numeric:normal;font-variant-position:normal;font-variation-settings:normal;inline-size:0;isolation:auto;mix-blend-mode:normal;shape-margin:0;shape-padding:0;text-decoration-color:#000000;text-decoration-line:none;text-decoration-style:solid;text-indent:0;text-orientation:mixed;text-transform:none;white-space:normal"/>
 </g>
</svg>
