<?xml version="1.0" encoding="UTF-8"?>
<svg width="600" height="800" version="1.1" viewBox="0 0 158.75 211.67" xmlns="http://www.w3.org/2000/svg" xmlns:cc="http://creativecommons.org/ns#" xmlns:dc="http://purl.org/dc/elements/1.1/" xmlns:rdf="http://www.w3.org/1999/02/22-rdf-syntax-ns#">
 <metadata>
  <rdf:RDF>
   <cc:Work rdf:about="">
    <dc:format>image/svg+xml</dc:format>
    <dc:type rdf:resource="http://purl.org/dc/dcmitype/StillImage"/>
    <dc:title/>
   </cc:Work>
  </rdf:RDF>
 </metadata>
 <path d="m153.89 210.77c-1.0158-2.0315-7.4962-17.083-14.221-22.855s-24.136-10.329-24.136-10.329l-62.348-6.0112s-17.711 6.7002-23.728 13.801-8.1262 25.902-8.1262 25.902" fill="#fff"/>
 <g fill="none" stroke-linecap="round" stroke-linejoin="round">
  <circle r="0" stroke="#c53822" stroke-width="2.257" style="paint-order:stroke markers fill"/>
  <circle r="0" stroke="#924019" stroke-width="1.288" style="paint-order:stroke markers fill"/>
  <circle transform="scale(1,-1)" r="0" stroke="#924019" stroke-width="3.595" style="paint-order:stroke markers fill"/>
  <circle transform="scale(1,-1)" r="0" stroke="#924019" stroke-width="3.595" style="paint-order:stroke markers fill"/>
  <circle transform="scale(1,-1)" r="0" stroke="#4d4320" stroke-width="4.378" style="paint-order:stroke markers fill"/>
  <circle transform="scale(1,-1)" r="0" stroke="#4d4320" stroke-width="3.52" style="paint-order:stroke markers fill"/>
 </g>
 <path d="m4.3414 99.184c-0.25638 4e-3 -0.39121 0.0225-0.39121 0.0225 4.6252 8.586-5.4146 27.666 7.6235 46.255 11.197 15.971 19.104 27.434 24.925 33.509l6.9784-3.2852 9.7081-4.1082c-3.6965-8.8758-7.8796-21.504-14.075-37.196-13.36-33.81-32.293-35.224-34.764-35.189z" fill="#78f991" fill-opacity=".4179" stroke-width=".17014"/>
 <path d="m154.47 100.08c-2.4792-0.0329-23.945-1.6708-37.303 32.142-6.7313 17.038-9.4463 33.506-12.365 42.443l3.8458 1.3037 12.667 3.6358c5.9187-5.9154 14.073-16.346 25.92-33.251 13.038-18.589 2.9983-37.668 7.6235-46.255 0 0-0.13483-0.0187-0.39121-0.0222z" fill="#78f991" fill-opacity=".4179" stroke-width=".17014"/>
 <path d="m96.141 144.8s-1.636 14.258 1.8473 20.318c3.4833 6.06 17.545 12.474 17.545 12.474l-23.092 17.545-39.256-23.556s7.8866-2.4607 11.545-8.313 4.6183-26.781 4.6183-26.781z" fill="#f9bb78" stroke-width="1.2218"/>
 <g transform="matrix(1.2161 .11763 -.11763 1.2161 -26.86 -69.746)">
  <ellipse transform="matrix(.9779 -.209 .214 .9768 0 0)" cx="32.9" cy="161.4" rx="13.36" ry="18.94" fill="#924019" style="paint-order:stroke markers fill"/>
  <path d="m161.1 104c0 24.65-4.138 31.4-49.49 31.03-28.62-0.2385-56.88 0.2438-59.89-24.22-6.481-52.62 24.01-62.78 52.64-62.78 28.62 0 56.75 31.32 56.75 55.97z" fill="#924019" style="paint-order:stroke markers fill"/>
  <path d="m148.1 119.8c-0.0922 33.03-13.58 47.92-32.8 47.92-26.79 0-46.41-14.09-46.41-47.92 1e-6 -37.04 15.85-47.3 47.17-47.17 21.51 0.09118 32.16 6.116 32.05 47.17z" fill="#f9bb78" style="paint-order:stroke markers fill"/>
 </g>
 <g stroke-width="1.2218">
  <path d="m106.43 38.288c37.047 17.626 32.747 55.102 32.747 55.102s32.236-57.507-3.0357-72.74c-35.266-15.222-38.258-7.518-38.258-7.518z" fill="#924019"/>
  <path d="m116.52 35.52c-37.946 37.868-65.278 46.578-70.906 42.327-5.6202-4.2555-17.539-24.896-5.3111-36.234 12.232-11.349 31.555-19.509 46.533-20.552 14.978-1.0406 29.68 14.469 29.68 14.469z" fill="#924019"/>
  <path d="m49.297 92.651c-14.074-15.539-20.381-27.491-21.931-18.189-1.5487 9.3018 1.6119 26.94 7.5698 29.087 5.9576 2.1511 11.312 0.46407 11.312 0.46407" fill="#f9bb78"/>
 </g>
 <g shape-rendering="auto">
  <path d="m79.388 66.223c-5.5595 0.1411-12.845 2.2506-12.845 2.2506a2.0047 2.0047 0 0 0-1.3875 2.4718 2.0047 2.0047 0 0 0 2.4718 1.3874s7.2836-1.985 11.862-2.1012c4.2602-0.10813 8.7655 2.5236 8.7655 2.5236a2.0047 2.0047 0 0 0 2.7584-0.65859 2.0047 2.0047 0 0 0-0.6586-2.7584s-5.0889-3.2645-10.967-3.1154z" color="#000000" color-rendering="auto" dominant-baseline="auto" fill="#924019" image-rendering="auto" solid-color="#000000" stop-color="#000000" style="font-feature-settings:normal;font-variant-alternates:normal;font-variant-caps:normal;font-variant-east-asian:normal;font-variant-ligatures:normal;font-variant-numeric:normal;font-variant-position:normal;font-variation-settings:normal;inline-size:0;isolation:auto;mix-blend-mode:normal;shape-margin:0;shape-padding:0;text-decoration-color:#000000;text-decoration-line:none;text-decoration-style:solid;text-indent:0;text-orientation:mixed;text-transform:none;white-space:normal"/>
  <path d="m127.28 69.94c-5.0573-0.6878-9.352 2.2768-9.352 2.2768a2.0047 2.0047 0 0 0-0.59651 2.7713 2.0047 2.0047 0 0 0 2.7739 0.59435s3.5274-2.092 6.6345-1.6694c1.5768 0.21438 3.6937 1.138 5.319 2.0416 1.6253 0.90367 2.7531 1.7263 2.7531 1.7263a2.0047 2.0047 0 0 0 2.8014-0.43386 2.0047 2.0047 0 0 0-0.43625-2.8016s-1.325-0.9683-3.1707-1.9945c-1.8457-1.0262-4.221-2.1703-6.7265-2.511z" color="#000000" color-rendering="auto" dominant-baseline="auto" fill="#924019" image-rendering="auto" solid-color="#000000" stop-color="#000000" style="font-feature-settings:normal;font-variant-alternates:normal;font-variant-caps:normal;font-variant-east-asian:normal;font-variant-ligatures:normal;font-variant-numeric:normal;font-variant-position:normal;font-variation-settings:normal;inline-size:0;isolation:auto;mix-blend-mode:normal;shape-margin:0;shape-padding:0;text-decoration-color:#000000;text-decoration-line:none;text-decoration-style:solid;text-indent:0;text-orientation:mixed;text-transform:none;white-space:normal"/>
  <path d="m112.37 106.14a1.2446 1.2446 0 0 0-0.1914-4e-3 1.2446 1.2446 0 0 0-1.179 1.3077s-0.0833 2.5082-1.2145 3.2365c-1.3952 0.89836-3.7162 0.6211-3.7162 0.6211a1.2446 1.2446 0 0 0-1.4363 1.019 1.2446 1.2446 0 0 0 1.0214 1.4366s2.9866 0.62079 5.4773-0.98298c2.7547-1.7738 2.3549-5.4589 2.3549-5.4589a1.2446 1.2446 0 0 0-1.1163-1.1748z" color="#000000" color-rendering="auto" dominant-baseline="auto" fill="#7f3816" image-rendering="auto" solid-color="#000000" stop-color="#000000" style="font-feature-settings:normal;font-variant-alternates:normal;font-variant-caps:normal;font-variant-east-asian:normal;font-variant-ligatures:normal;font-variant-numeric:normal;font-variant-position:normal;font-variation-settings:normal;inline-size:0;isolation:auto;mix-blend-mode:normal;shape-margin:0;shape-padding:0;text-decoration-color:#000000;text-decoration-line:none;text-decoration-style:solid;text-indent:0;text-orientation:mixed;text-transform:none;white-space:normal"/>
  <path d="m78.551 84.451c-6.8701-0.45691-10.535 5.3672-10.535 5.3672a1.8124 1.8124 0 0 0 0.57812 2.4961 1.8124 1.8124 0 0 0 2.4961-0.57812s2.4588-3.9847 7.2207-3.668c4.2501 0.28266 6.7832 5.1855 6.7832 5.1855a1.8124 1.8124 0 0 0 2.418 0.84961 1.8124 1.8124 0 0 0 0.84961-2.4199s-3.0855-6.7852-9.8105-7.2324z" color="#000000" color-rendering="auto" dominant-baseline="auto" fill="#5e2910" image-rendering="auto" solid-color="#000000" stop-color="#000000" style="font-feature-settings:normal;font-variant-alternates:normal;font-variant-caps:normal;font-variant-east-asian:normal;font-variant-ligatures:normal;font-variant-numeric:normal;font-variant-position:normal;font-variation-settings:normal;inline-size:0;isolation:auto;mix-blend-mode:normal;shape-margin:0;shape-padding:0;text-decoration-color:#000000;text-decoration-line:none;text-decoration-style:solid;text-indent:0;text-orientation:mixed;text-transform:none;white-space:normal"/>
  <path d="m124.43 87.867c-6.8701-0.45691-10.535 5.3672-10.535 5.3672a1.8124 1.8124 0 0 0 0.57813 2.4961 1.8124 1.8124 0 0 0 2.498-0.57617s2.4569-3.9866 7.2188-3.6699c4.2501 0.28266 6.7832 5.1855 6.7832 5.1855a1.8124 1.8124 0 0 0 2.418 0.84961 1.8124 1.8124 0 0 0 0.84961-2.4199s-3.0855-6.7852-9.8106-7.2324z" color="#000000" color-rendering="auto" dominant-baseline="auto" fill="#5e2910" image-rendering="auto" solid-color="#000000" stop-color="#000000" style="font-feature-settings:normal;font-variant-alternates:normal;font-variant-caps:normal;font-variant-east-asian:normal;font-variant-ligatures:normal;font-variant-numeric:normal;font-variant-position:normal;font-variation-settings:normal;inline-size:0;isolation:auto;mix-blend-mode:normal;shape-margin:0;shape-padding:0;text-decoration-color:#000000;text-decoration-line:none;text-decoration-style:solid;text-indent:0;text-orientation:mixed;text-transform:none;white-space:normal"/>
  <path d="m87.721 114.42c-0.46117 2e-3 -0.85443 0.33473-0.93359 0.78906 0 0-0.50577 2.9062-0.20508 6.2949 0.30069 3.3888 1.4088 7.4439 4.9062 9.4668 1.4191 0.82082 3.1082 0.47255 4.7188-0.23242s3.255-1.8295 4.7656-3.0156c3.0213-2.3723 5.502-5.0215 5.502-5.0215 0.58214-0.62083 0.12001-1.6353-0.73047-1.6035 0 0-6.0061 0.16525-8.9258-0.62304-1.5348-0.41438-3.7305-1.8566-5.4453-3.207-1.7148-1.3504-2.9844-2.5801-2.9844-2.5801-0.17911-0.17309-0.41889-0.26915-0.66797-0.26758zm0.74805 2.8516c0.56312 0.50941 0.73388 0.71198 1.7246 1.4922 1.7974 1.4155 3.966 3.4305 6.0714 3.9989 2.2566 0.60926 5.0007 0.25199 7.0478 0.25305-0.92899 0.92903-1.6025 1.7068-3.5156 3.209-1.4386 1.1296-2.9957 2.1733-4.3535 2.7676-1.3578 0.59432-2.404 0.67594-3.002 0.33008-2.6752-1.5473-3.6854-4.8805-3.9609-7.9863-0.13773-1.5522-0.09238-3.0023-0.01172-4.0644z" color="#000000" color-rendering="auto" dominant-baseline="auto" fill="#ea3838" image-rendering="auto" solid-color="#000000" stop-color="#000000" style="font-feature-settings:normal;font-variant-alternates:normal;font-variant-caps:normal;font-variant-east-asian:normal;font-variant-ligatures:normal;font-variant-numeric:normal;font-variant-position:normal;font-variation-settings:normal;inline-size:0;isolation:auto;mix-blend-mode:normal;shape-margin:0;shape-padding:0;text-decoration-color:#000000;text-decoration-line:none;text-decoration-style:solid;text-indent:0;text-orientation:mixed;text-transform:none;white-space:normal"/>
 </g>
 <ellipse transform="matrix(.98163 -.19081 .2342 .97219 0 0)" cx="20.194" cy="151.5" rx="17.166" ry="22.31" fill="#924019" stroke-width="1.2218" style="paint-order:stroke markers fill"/>
</svg>
