<?xml version="1.0" encoding="UTF-8" standalone="no"?>
<svg
   xmlns:dc="http://purl.org/dc/elements/1.1/"
   xmlns:cc="http://creativecommons.org/ns#"
   xmlns:rdf="http://www.w3.org/1999/02/22-rdf-syntax-ns#"
   xmlns:svg="http://www.w3.org/2000/svg"
   xmlns="http://www.w3.org/2000/svg"
   xmlns:sodipodi="http://sodipodi.sourceforge.net/DTD/sodipodi-0.dtd"
   xmlns:inkscape="http://www.inkscape.org/namespaces/inkscape"
   width="600"
   height="800"
   version="1.1"
   viewBox="0 0 158.75 211.67"
   id="svg961"
   sodipodi:docname="down.svg"
   inkscape:version="1.0.1 (3bc2e813f5, 2020-09-07)">
  <defs
     id="defs965" />
  <sodipodi:namedview
     pagecolor="#ffffff"
     bordercolor="#666666"
     borderopacity="1"
     objecttolerance="10"
     gridtolerance="10"
     guidetolerance="10"
     inkscape:pageopacity="0"
     inkscape:pageshadow="2"
     inkscape:window-width="1797"
     inkscape:window-height="782"
     id="namedview963"
     showgrid="false"
     inkscape:zoom="0.9775"
     inkscape:cx="300"
     inkscape:cy="318.15857"
     inkscape:window-x="26"
     inkscape:window-y="23"
     inkscape:window-maximized="0"
     inkscape:current-layer="svg961" />
  <metadata
     id="metadata901">
    <rdf:RDF>
      <cc:Work
         rdf:about="">
        <dc:format>image/svg+xml</dc:format>
        <dc:type
           rdf:resource="http://purl.org/dc/dcmitype/StillImage" />
        <dc:title></dc:title>
      </cc:Work>
    </rdf:RDF>
  </metadata>
  <path
     d="m153.89 210.77c-1.0158-2.0315-7.4962-17.083-14.221-22.855s-24.136-10.329-24.136-10.329l-62.348-6.0112s-17.711 6.7002-23.728 13.801-8.1262 25.902-8.1262 25.902"
     fill="#fff"
     id="path903" />
  <g
     fill="none"
     stroke-linecap="round"
     stroke-linejoin="round"
     id="g917">
    <circle
       r="0"
       stroke="#c53822"
       stroke-width="2.257"
       style="paint-order:stroke markers fill"
       id="circle905" />
    <circle
       r="0"
       stroke="#924019"
       stroke-width="1.288"
       style="paint-order:stroke markers fill"
       id="circle907" />
    <circle
       transform="scale(1,-1)"
       r="0"
       stroke="#924019"
       stroke-width="3.595"
       style="paint-order:stroke markers fill"
       id="circle909" />
    <circle
       transform="scale(1,-1)"
       r="0"
       stroke="#924019"
       stroke-width="3.595"
       style="paint-order:stroke markers fill"
       id="circle911" />
    <circle
       transform="scale(1,-1)"
       r="0"
       stroke="#4d4320"
       stroke-width="4.378"
       style="paint-order:stroke markers fill"
       id="circle913" />
    <circle
       transform="scale(1,-1)"
       r="0"
       stroke="#4d4320"
       stroke-width="3.52"
       style="paint-order:stroke markers fill"
       id="circle915" />
  </g>
  <path
     d="m4.3414 99.184c-0.25638 4e-3 -0.39121 0.0225-0.39121 0.0225 4.6252 8.586-5.4146 27.666 7.6235 46.255 11.197 15.971 19.104 27.434 24.925 33.509l6.9784-3.2852 9.7081-4.1082c-3.6965-8.8758-7.8796-21.504-14.075-37.196-13.36-33.81-32.293-35.224-34.764-35.189z"
     fill="#78f991"
     fill-opacity=".4179"
     stroke-width=".17014"
     id="path919"
     style="fill:#78f991;fill-opacity:0.41960785" />
  <path
     d="m 157.0491,108.82062 c -2.4235,-0.52362 -23.13882,-6.38356 -42.93352,24.1109 -9.97469,15.36585 -15.89979,30.96904 -20.531893,39.15025 l 3.511109,2.04008 11.695084,6.07427 c 6.97372,-4.62496 17.0336,-13.23245 31.99614,-27.45401 16.46369,-15.63609 10.40462,-36.32646 16.64001,-43.8264 0,0 -0.12845,-0.0451 -0.37905,-0.0993 z"
     fill="#78f991"
     fill-opacity="0.4179"
     stroke-width="0.17014"
     id="path921" />
  <g
     transform="matrix(1.2218 0 0 1.2218 -43.753 -57.898)"
     id="g929">
    <ellipse
       transform="matrix(.9779 -.209 .214 .9768 0 0)"
       cx="32.9"
       cy="161.4"
       rx="13.36"
       ry="18.94"
       fill="#924019"
       style="paint-order:stroke markers fill"
       id="ellipse923" />
    <path
       d="m161.1 104c0 24.65-4.138 31.4-49.49 31.03-28.62-0.2385-56.88 0.2438-59.89-24.22-6.481-52.62 24.01-62.78 52.64-62.78 28.62 0 56.75 31.32 56.75 55.97z"
       fill="#924019"
       style="paint-order:stroke markers fill"
       id="path925" />
    <path
       d="m148.1 119.8c-0.0922 33.03-13.58 47.92-32.8 47.92-26.79 0-46.41-14.09-46.41-47.92 1e-6 -37.04 15.85-47.3 47.17-47.17 21.51 0.09118 32.16 6.116 32.05 47.17z"
       fill="#f9bb78"
       style="paint-order:stroke markers fill"
       id="path927" />
  </g>
  <g
     stroke-width="1.2218"
     id="g943">
    <rect
       x="72.182"
       y="83.218"
       width="12.34"
       height="17.19"
       ry="6.0906"
       fill="#c65722"
       style="paint-order:stroke markers fill"
       id="rect931" />
    <path
       d="m99.318 36.802c38.572 13.977 37.9 51.694 37.9 51.694s26.549-60.344-10.025-72.11c-36.568-11.756-38.804-3.7997-38.804-3.7997z"
       fill="#924019"
       id="path933" />
    <rect
       x="116.67"
       y="82.729"
       width="12.34"
       height="17.19"
       ry="6.0906"
       fill="#c65722"
       style="paint-order:stroke markers fill"
       id="rect935" />
    <path
       d="m109.09 33.076c-34.124 41.345-60.49 52.647-66.502 48.957-6.0038-3.6947-19.854-23.092-8.7748-35.554 11.083-12.474 29.53-22.456 44.339-24.937 14.808-2.4778 30.936 11.545 30.936 11.545z"
       fill="#924019"
       id="path937" />
    <path
       d="m47.685 96.413c-15.504-14.112-22.933-25.401-23.58-15.993-0.64596 9.4077 4.198 26.659 10.335 28.223 6.137 1.5676 11.304-0.62714 11.304-0.62714"
       fill="#f9bb78"
       id="path939" />
    <path
       d="m96.141 144.8s-1.636 14.258 1.8473 20.318c3.4833 6.06 17.545 12.474 17.545 12.474l-23.092 17.545-39.256-23.556s7.8866-2.4607 11.545-8.313 4.6183-26.781 4.6183-26.781z"
       fill="#f9bb78"
       id="path941" />
  </g>
  <ellipse
     transform="matrix(.98163 -.19081 .2342 .97219 0 0)"
     cx="20.194"
     cy="151.5"
     rx="17.166"
     ry="22.31"
     fill="#924019"
     stroke-width="1.2218"
     style="paint-order:stroke markers fill"
     id="ellipse945" />
  <path
     d="m 74.457,81.042 c -5.5549,0.67996 -8.8317,3.9684 -8.8317,3.9684 a 1.584,1.584 0 0 0 0.01197,2.2407 1.584,1.584 0 0 0 2.2407,-0.01222 c 0,0 2.4521,-2.4999 6.9632,-3.0521 2.158,-0.26416 4.4689,0.23232 6.1996,0.86146 0.86536,0.31456 1.5889,0.65927 2.0522,0.9211 0.20068,0.11338 0.32347,0.19942 0.39851,0.25295 a 1.584,1.584 0 0 0 0.0024,0.0024 1.584,1.584 0 0 0 1.248,0.60612 1.584,1.584 0 0 0 1.5845,-1.5845 c 0,-0.91615 -0.34017,-1.0207 -0.47965,-1.1717 -0.13949,-0.15102 -0.25032,-0.24035 -0.36988,-0.33169 -0.2391,-0.18268 -0.50439,-0.3482 -0.82566,-0.52976 -0.64252,-0.36311 -1.4986,-0.76916 -2.5271,-1.143 -2.057,-0.74773 -4.7922,-1.3804 -7.6672,-1.0285 z"
     color="#000000"
     color-rendering="auto"
     dominant-baseline="auto"
     fill="#5e2910"
     image-rendering="auto"
     solid-color="#000000"
     stop-color="#000000"
     style="font-variant-ligatures:normal;font-variant-position:normal;font-variant-caps:normal;font-variant-numeric:normal;font-variant-alternates:normal;font-variant-east-asian:normal;font-feature-settings:normal;font-variation-settings:normal;text-indent:0;text-decoration:none;text-decoration-line:none;text-decoration-style:solid;text-decoration-color:#000000;text-transform:none;text-orientation:mixed;white-space:normal;shape-padding:0;shape-margin:0;inline-size:0;isolation:auto;mix-blend-mode:normal;shape-rendering:auto"
     id="path947" />
  <path
     d="m 120.59,81.467807 c -4.5419,0.70631 -7.1088,4.0352 -7.1088,4.0352 a 1.4053,1.4053 0 0 0 0.2434,1.9711 1.4053,1.4053 0 0 0 1.9735,-0.24579 c 0,0 1.9426,-2.4594 5.3238,-2.9853 1.5822,-0.24606 3.3283,0.22094 4.6533,0.83282 0.66247,0.30595 1.217,0.64368 1.5702,0.89725 0.15357,0.1102 0.24572,0.19116 0.30068,0.24101 a 1.4053,1.4053 0 0 0 1.2027,0.68009 1.4053,1.4053 0 0 0 1.4055,-1.4055 c 0,-0.64682 -0.2106,-0.7823 -0.31499,-0.92588 -0.10434,-0.1436 -0.19269,-0.23607 -0.28874,-0.32931 -0.1921,-0.18647 -0.40715,-0.356 -0.66578,-0.54169 -0.51725,-0.37138 -1.2049,-0.78441 -2.0331,-1.1669 -1.6564,-0.76497 -3.8822,-1.4272 -6.2616,-1.0571 z"
     color="#000000"
     color-rendering="auto"
     dominant-baseline="auto"
     fill="#5e2910"
     image-rendering="auto"
     solid-color="#000000"
     stop-color="#000000"
     style="font-variant-ligatures:normal;font-variant-position:normal;font-variant-caps:normal;font-variant-numeric:normal;font-variant-alternates:normal;font-variant-east-asian:normal;font-feature-settings:normal;font-variation-settings:normal;text-indent:0;text-decoration:none;text-decoration-line:none;text-decoration-style:solid;text-decoration-color:#000000;text-transform:none;text-orientation:mixed;white-space:normal;shape-padding:0;shape-margin:0;inline-size:0;isolation:auto;mix-blend-mode:normal;shape-rendering:auto"
     id="path949" />
  <path
     d="m 73.132792,69.187947 c -5.382043,1.400605 -11.998026,5.11031 -11.998026,5.11031 a 2.0047,2.0047 0 0 0 -0.789509,2.722397 2.0047,2.0047 0 0 0 2.722396,0.789509 c 0,0 6.642029,-3.587983 11.074739,-4.741422 4.124208,-1.073268 9.109594,0.466005 9.109594,0.466005 a 2.0047,2.0047 0 0 0 2.536635,-1.268111 2.0047,2.0047 0 0 0 -1.268131,-2.536632 c 0,0 -5.697483,-2.02287 -11.388029,-0.542113 z"
     color="#000000"
     color-rendering="auto"
     dominant-baseline="auto"
     fill="#924019"
     image-rendering="auto"
     solid-color="#000000"
     stop-color="#000000"
     style="font-variant-ligatures:normal;font-variant-position:normal;font-variant-caps:normal;font-variant-numeric:normal;font-variant-alternates:normal;font-variant-east-asian:normal;font-feature-settings:normal;font-variation-settings:normal;text-indent:0;text-decoration:none;text-decoration-line:none;text-decoration-style:solid;text-decoration-color:#000000;text-transform:none;text-orientation:mixed;white-space:normal;shape-padding:0;shape-margin:0;inline-size:0;isolation:auto;mix-blend-mode:normal;shape-rendering:auto"
     id="path951" />
  <path
     d="m 122.6756,68.680603 c -5.05953,-0.670959 -9.34441,2.307921 -9.34441,2.307921 a 2.0047,2.0047 0 0 0 -0.58728,2.773215 2.0047,2.0047 0 0 0 2.77583,0.585109 c 0,0 3.52041,-2.103746 6.62895,-1.691486 1.57749,0.209132 3.69747,1.125688 5.32581,2.023961 1.62835,0.898254 2.75882,1.717101 2.75882,1.717101 a 2.0047,2.0047 0 0 0 2.79993,-0.443193 2.0047,2.0047 0 0 0 -0.44557,-2.800147 c 0,0 -1.32815,-0.963881 -3.17733,-1.983961 -1.84909,-1.020021 -4.22817,-2.156195 -6.73482,-2.488657 z"
     color="#000000"
     color-rendering="auto"
     dominant-baseline="auto"
     fill="#924019"
     image-rendering="auto"
     solid-color="#000000"
     stop-color="#000000"
     style="font-variant-ligatures:normal;font-variant-position:normal;font-variant-caps:normal;font-variant-numeric:normal;font-variant-alternates:normal;font-variant-east-asian:normal;font-feature-settings:normal;font-variation-settings:normal;text-indent:0;text-decoration:none;text-decoration-line:none;text-decoration-style:solid;text-decoration-color:#000000;text-transform:none;text-orientation:mixed;white-space:normal;shape-padding:0;shape-margin:0;inline-size:0;isolation:auto;mix-blend-mode:normal;shape-rendering:auto"
     id="path953" />
  <path
     d="m 111.76,103.77 a 1.2446,1.2446 0 0 0 -0.19091,0.0143 1.2446,1.2446 0 0 0 -1.0476,1.4151 c 0,0 0.15854,2.5045 -0.89724,3.3384 -1.3022,1.0285 -3.6391,0.976 -3.6391,0.976 a 1.2446,1.2446 0 0 0 -1.3316,1.1526 1.2446,1.2446 0 0 0 1.155,1.3316 c 0,0 3.0325,0.33036 5.3572,-1.5058 2.5712,-2.0308 1.8184,-5.6603 1.8184,-5.6603 a 1.2446,1.2446 0 0 0 -1.2242,-1.0619 z"
     color="#000000"
     color-rendering="auto"
     dominant-baseline="auto"
     fill="#7f3816"
     image-rendering="auto"
     solid-color="#000000"
     stop-color="#000000"
     style="font-variant-ligatures:normal;font-variant-position:normal;font-variant-caps:normal;font-variant-numeric:normal;font-variant-alternates:normal;font-variant-east-asian:normal;font-feature-settings:normal;font-variation-settings:normal;text-indent:0;text-decoration:none;text-decoration-line:none;text-decoration-style:solid;text-decoration-color:#000000;text-transform:none;text-orientation:mixed;white-space:normal;shape-padding:0;shape-margin:0;inline-size:0;isolation:auto;mix-blend-mode:normal;shape-rendering:auto"
     id="path955" />
  <path
     d="m 92.50894,126.10025 a 1.6626,1.6626 0 0 1 -0.928337,-0.46098 1.6626,1.6626 0 0 1 -0.02429,-2.35088 c 0,0 2.707579,-2.83542 6.862391,-3.32812 4.476926,-0.53103 8.011066,2.77323 8.011066,2.77323 a 1.6626,1.6626 0 0 1 0.17371,2.34587 1.6626,1.6626 0 0 1 -2.34588,0.17372 c 0,0 -2.95036,-2.28731 -5.447297,-1.99118 -2.818922,0.33433 -4.879024,2.35537 -4.879024,2.35537 a 1.6626,1.6626 0 0 1 -1.422287,0.4829 z"
     color="#000000"
     color-rendering="auto"
     dominant-baseline="auto"
     fill="#ea3838"
     image-rendering="auto"
     solid-color="#000000"
     stop-color="#000000"
     style="font-variant-ligatures:normal;font-variant-position:normal;font-variant-caps:normal;font-variant-numeric:normal;font-variant-alternates:normal;font-variant-east-asian:normal;font-feature-settings:normal;font-variation-settings:normal;text-indent:0;text-decoration:none;text-decoration-line:none;text-decoration-style:solid;text-decoration-color:#000000;text-transform:none;text-orientation:mixed;white-space:normal;shape-padding:0;shape-margin:0;inline-size:0;isolation:auto;mix-blend-mode:normal;shape-rendering:auto"
     id="path957" />
</svg>
