<?xml version="1.0" encoding="UTF-8" standalone="no"?>
<svg
   xmlns:dc="http://purl.org/dc/elements/1.1/"
   xmlns:cc="http://creativecommons.org/ns#"
   xmlns:rdf="http://www.w3.org/1999/02/22-rdf-syntax-ns#"
   xmlns:svg="http://www.w3.org/2000/svg"
   xmlns="http://www.w3.org/2000/svg"
   xmlns:sodipodi="http://sodipodi.sourceforge.net/DTD/sodipodi-0.dtd"
   xmlns:inkscape="http://www.inkscape.org/namespaces/inkscape"
   width="600"
   height="800"
   version="1.1"
   viewBox="0 0 158.75 211.66668"
   id="svg875"
   sodipodi:docname="tipica-peace.svg"
   inkscape:version="1.0.2 (e86c870879, 2021-01-15, custom)">
  <metadata
     id="metadata881">
    <rdf:RDF>
      <cc:Work
         rdf:about="">
        <dc:format>image/svg+xml</dc:format>
        <dc:type
           rdf:resource="http://purl.org/dc/dcmitype/StillImage" />
        <dc:title></dc:title>
      </cc:Work>
    </rdf:RDF>
  </metadata>
  <defs
     id="defs879" />
  <sodipodi:namedview
     pagecolor="#ffffff"
     bordercolor="#666666"
     borderopacity="1"
     objecttolerance="10"
     gridtolerance="10"
     guidetolerance="10"
     inkscape:pageopacity="0"
     inkscape:pageshadow="2"
     inkscape:window-width="1920"
     inkscape:window-height="1017"
     id="namedview877"
     showgrid="false"
     inkscape:zoom="0.5209506"
     inkscape:cx="265.98775"
     inkscape:cy="154.92564"
     inkscape:window-x="-8"
     inkscape:window-y="-8"
     inkscape:window-maximized="1"
     inkscape:current-layer="svg875"
     inkscape:document-rotation="0"
     units="px" />
  <path
     style="fill:#ffffff;fill-opacity:1;stroke:none;stroke-width:0.264583px;stroke-linecap:butt;stroke-linejoin:miter;stroke-opacity:1"
     d="m 153.88936,210.77255 c -1.01578,-2.03154 -7.49624,-17.0832 -14.2208,-22.85485 -6.72456,-5.77165 -24.13551,-10.32921 -24.13551,-10.32921 l -62.347597,-6.01118 c 0,0 -17.710858,6.70017 -23.728085,13.80096 -6.017227,7.10079 -8.12617,25.90216 -8.12617,25.90216"
     id="path903"
     sodipodi:nodetypes="czcczc" />
  <g
     fill="none"
     stroke-linecap="round"
     stroke-linejoin="round"
     id="g851">
    <circle
       stroke="#c53822"
       stroke-width="2.257"
       style="paint-order:stroke markers fill"
       id="circle845"
       cx="0"
       cy="0"
       r="0" />
    <circle
       stroke="#924019"
       stroke-width="1.288"
       style="paint-order:stroke markers fill"
       id="circle847"
       cx="0"
       cy="0"
       r="0" />
    <circle
       transform="scale(1,-1)"
       stroke="#924019"
       stroke-width="3.595"
       style="paint-order:stroke markers fill"
       id="circle849"
       cx="0"
       cy="0"
       r="0" />
  </g>
  <circle
     transform="scale(1,-1)"
     fill="none"
     stroke="#924019"
     stroke-linecap="round"
     stroke-linejoin="round"
     stroke-width="3.595"
     style="paint-order:stroke markers fill"
     id="circle855"
     cx="0"
     cy="0"
     r="0" />
  <circle
     transform="scale(1,-1)"
     fill="none"
     stroke="#4d4320"
     stroke-linecap="round"
     stroke-linejoin="round"
     stroke-width="4.378"
     style="paint-order:stroke markers fill"
     id="circle859"
     cx="0"
     cy="0"
     r="0" />
  <circle
     transform="scale(1,-1)"
     fill="none"
     stroke="#4d4320"
     stroke-linecap="round"
     stroke-linejoin="round"
     stroke-width="3.52"
     style="paint-order:stroke markers fill"
     id="circle871"
     cx="0"
     cy="0"
     r="0" />
  <path
     d="m 4.3413908,99.184134 c -0.2563841,0.004 -0.3912087,0.0225 -0.3912087,0.0225 4.6251871,8.586026 -5.4145695,27.665896 7.6235149,46.255276 11.197297,15.97117 19.104393,27.4345 24.925263,33.50878 l 6.97841,-3.28518 9.708083,-4.1082 C 49.488951,162.70153 45.305827,150.07297 39.110165,134.38108 25.750358,100.57107 6.8175,99.157244 4.3465318,99.192154 Z"
     fill="#78f991"
     fill-opacity="0.4179"
     id="path833"
     style="stroke-width:0.170137"
     sodipodi:nodetypes="ccccccccc" />
  <path
     d="m 154.46906,100.07602 c -2.47925,-0.0329 -23.94491,-1.670826 -37.30306,32.14162 -6.7313,17.03765 -9.44631,33.50597 -12.36504,42.44285 l 3.84575,1.3037 12.66661,3.63584 c 5.91872,-5.91545 14.07291,-16.34645 25.92028,-33.25145 13.03809,-18.58939 2.99833,-37.66751 7.62352,-46.25529 0,0 -0.13483,-0.0187 -0.39121,-0.0222 z"
     fill="#78f991"
     fill-opacity="0.4179"
     id="path835"
     style="stroke-width:0.170137"
     sodipodi:nodetypes="ccccccccc" />
  <g
     id="g843"
     transform="matrix(1.2217832,0,0,1.2217832,-43.75327,-57.897999)">
    <ellipse
       transform="matrix(0.9779,-0.209,0.214,0.9768,0,0)"
       cx="32.900002"
       cy="161.39999"
       rx="13.36"
       ry="18.940001"
       fill="#924019"
       style="paint-order:stroke markers fill"
       id="ellipse837" />
    <path
       d="m 161.1,104 c 0,24.65 -4.138,31.4 -49.49,31.03 -28.62,-0.2385 -56.88,0.2438 -59.89,-24.22 -6.481,-52.62 24.01,-62.78 52.64,-62.78 28.62,0 56.75,31.32 56.75,55.97 z"
       fill="#924019"
       style="paint-order:stroke markers fill"
       id="path839" />
    <path
       d="m 148.1,119.8 c -0.0922,33.03 -13.58,47.92 -32.8,47.92 -26.79,0 -46.41,-14.09 -46.41,-47.92 10e-7,-37.04 15.85,-47.3 47.17,-47.17 21.51,0.09118 32.16,6.116 32.05,47.17 z"
       fill="#f9bb78"
       style="paint-order:stroke markers fill"
       id="path841" />
  </g>
  <rect
     x="72.18174"
     y="83.217964"
     width="12.340011"
     height="17.190489"
     ry="6.0905895"
     fill="#c65722"
     style="stroke-width:1.22178;paint-order:stroke markers fill"
     id="rect853" />
  <path
     d="m 99.317543,36.802417 c 38.571697,13.977199 37.899717,51.693647 37.899717,51.693647 0,0 26.54935,-60.343872 -10.02473,-72.109645 C 90.624555,4.6304207 88.388692,12.586674 88.388692,12.586674 Z"
     fill="#924019"
     id="path857"
     style="stroke-width:1.22178" />
  <rect
     x="116.66687"
     y="82.729248"
     width="12.340011"
     height="17.190489"
     ry="6.0905895"
     fill="#c65722"
     style="stroke-width:1.22178;paint-order:stroke markers fill"
     id="rect861" />
  <path
     d="M 109.09181,33.075978 C 74.967404,74.421121 48.601322,85.722616 42.590149,82.032831 36.586306,78.338158 22.736172,58.941128 33.815302,46.47894 44.898097,34.004533 63.345802,24.022564 78.153814,21.542345 92.961827,19.064568 109.08937,33.086974 109.08937,33.086974 Z"
     fill="#924019"
     id="path863"
     style="stroke-width:1.22178" />
  <path
     d="M 47.684985,96.413214 C 32.180556,82.301623 24.752114,71.012346 24.104569,80.420077 c -0.645957,9.407731 4.198047,26.659303 10.335064,28.223183 6.137017,1.56755 11.303938,-0.62714 11.303938,-0.62714"
     fill="#f9bb78"
     id="path865"
     style="stroke-width:1.22178" />
  <path
     d="m 96.140907,144.79583 c 0,0 -1.635968,14.25821 1.847336,20.31825 3.483307,6.06005 17.544807,12.47441 17.544807,12.47441 l -23.091703,17.5448 -39.255894,-23.55598 c 0,0 7.88661,-2.46067 11.544629,-8.31301 3.658019,-5.85234 4.618341,-26.78149 4.618341,-26.78149 z"
     fill="#f9bb78"
     id="path867"
     style="stroke-width:1.22178" />
  <ellipse
     transform="matrix(0.98162788,-0.19080542,0.23419736,0.97218907,0,0)"
     cx="20.194323"
     cy="151.49979"
     rx="17.165567"
     ry="22.310013"
     fill="#924019"
     style="stroke-width:1.22177;paint-order:stroke markers fill"
     id="ellipse873" />
  <path
     style="color:#000000;font-style:normal;font-variant:normal;font-weight:normal;font-stretch:normal;font-size:medium;line-height:normal;font-family:sans-serif;font-variant-ligatures:normal;font-variant-position:normal;font-variant-caps:normal;font-variant-numeric:normal;font-variant-alternates:normal;font-variant-east-asian:normal;font-feature-settings:normal;font-variation-settings:normal;text-indent:0;text-align:start;text-decoration:none;text-decoration-line:none;text-decoration-style:solid;text-decoration-color:#000000;letter-spacing:normal;word-spacing:normal;text-transform:none;writing-mode:lr-tb;direction:ltr;text-orientation:mixed;dominant-baseline:auto;baseline-shift:baseline;text-anchor:start;white-space:normal;shape-padding:0;shape-margin:0;inline-size:0;clip-rule:nonzero;display:inline;overflow:visible;visibility:visible;isolation:auto;mix-blend-mode:normal;color-interpolation:sRGB;color-interpolation-filters:linearRGB;solid-color:#000000;solid-opacity:1;vector-effect:none;fill:#5e2910;fill-opacity:1;fill-rule:nonzero;stroke:none;stroke-width:1.22178;stroke-linecap:round;stroke-linejoin:miter;stroke-miterlimit:4;stroke-dasharray:none;stroke-dashoffset:0;stroke-opacity:1;color-rendering:auto;image-rendering:auto;shape-rendering:auto;text-rendering:auto;enable-background:accumulate;stop-color:#000000"
     d="m 74.456641,81.041659 c -5.554894,0.679959 -8.831678,3.968413 -8.831678,3.968413 a 1.5839911,1.5839911 0 0 0 0.01197,2.240726 1.5839911,1.5839911 0 0 0 2.240732,-0.01222 c 0,0 2.452076,-2.49989 6.963209,-3.052075 2.158044,-0.264162 4.468879,0.232322 6.199583,0.861455 0.865365,0.31456 1.588917,0.659274 2.052217,0.921102 0.200678,0.113381 0.323467,0.199419 0.398509,0.252946 a 1.5839911,1.5839911 0 0 0 0.0024,0.0024 1.5839911,1.5839911 0 0 0 1.248027,0.606115 1.5839911,1.5839911 0 0 0 1.584506,-1.584494 c 0,-0.916154 -0.340169,-1.020654 -0.479647,-1.171678 C 85.706978,83.923324 85.59615,83.834 85.476586,83.742659 85.237483,83.559978 84.972197,83.394463 84.650929,83.212894 84.008406,82.84978 83.152339,82.443733 82.123842,82.069867 80.06686,81.322136 77.331646,80.68946 74.456686,81.04137 Z"
     id="path883" />
  <path
     style="color:#000000;font-style:normal;font-variant:normal;font-weight:normal;font-stretch:normal;font-size:medium;line-height:normal;font-family:sans-serif;font-variant-ligatures:normal;font-variant-position:normal;font-variant-caps:normal;font-variant-numeric:normal;font-variant-alternates:normal;font-variant-east-asian:normal;font-feature-settings:normal;font-variation-settings:normal;text-indent:0;text-align:start;text-decoration:none;text-decoration-line:none;text-decoration-style:solid;text-decoration-color:#000000;letter-spacing:normal;word-spacing:normal;text-transform:none;writing-mode:lr-tb;direction:ltr;text-orientation:mixed;dominant-baseline:auto;baseline-shift:baseline;text-anchor:start;white-space:normal;shape-padding:0;shape-margin:0;inline-size:0;clip-rule:nonzero;display:inline;overflow:visible;visibility:visible;isolation:auto;mix-blend-mode:normal;color-interpolation:sRGB;color-interpolation-filters:linearRGB;solid-color:#000000;solid-opacity:1;vector-effect:none;fill:#5e2910;fill-opacity:1;fill-rule:nonzero;stroke:none;stroke-width:1.22178;stroke-linecap:round;stroke-linejoin:miter;stroke-miterlimit:4;stroke-dasharray:none;stroke-dashoffset:0;stroke-opacity:1;color-rendering:auto;image-rendering:auto;shape-rendering:auto;text-rendering:auto;enable-background:accumulate;stop-color:#000000"
     d="m 120.59089,80.328162 c -4.54193,0.706313 -7.10877,4.03522 -7.10877,4.03522 a 1.4053195,1.4053195 0 0 0 0.2434,1.971079 1.4053195,1.4053195 0 0 0 1.97346,-0.245787 c 0,0 1.94255,-2.459425 5.32383,-2.985256 1.5822,-0.246055 3.32833,0.220935 4.65328,0.832817 0.66247,0.305946 1.21702,0.643684 1.57017,0.897253 0.15357,0.110205 0.24572,0.19116 0.30068,0.241009 a 1.4053195,1.4053195 0 0 0 1.20269,0.680093 1.4053195,1.4053195 0 0 0 1.40553,-1.405527 c 0,-0.646824 -0.2106,-0.782296 -0.31499,-0.92588 -0.10434,-0.143596 -0.19269,-0.236073 -0.28874,-0.329307 -0.1921,-0.186468 -0.40715,-0.356003 -0.66578,-0.54169 -0.51725,-0.371385 -1.2049,-0.784409 -2.03312,-1.1669 -1.65644,-0.764971 -3.88224,-1.427153 -6.26164,-1.057124 z"
     id="path883-1" />
  <path
     style="color:#000000;font-style:normal;font-variant:normal;font-weight:normal;font-stretch:normal;font-size:medium;line-height:normal;font-family:sans-serif;font-variant-ligatures:normal;font-variant-position:normal;font-variant-caps:normal;font-variant-numeric:normal;font-variant-alternates:normal;font-variant-east-asian:normal;font-feature-settings:normal;font-variation-settings:normal;text-indent:0;text-align:start;text-decoration:none;text-decoration-line:none;text-decoration-style:solid;text-decoration-color:#000000;letter-spacing:normal;word-spacing:normal;text-transform:none;writing-mode:lr-tb;direction:ltr;text-orientation:mixed;dominant-baseline:auto;baseline-shift:baseline;text-anchor:start;white-space:normal;shape-padding:0;shape-margin:0;inline-size:0;clip-rule:nonzero;display:inline;overflow:visible;visibility:visible;isolation:auto;mix-blend-mode:normal;color-interpolation:sRGB;color-interpolation-filters:linearRGB;solid-color:#000000;solid-opacity:1;vector-effect:none;fill:#924019;fill-opacity:1;fill-rule:nonzero;stroke:none;stroke-width:1.22178;stroke-linecap:round;stroke-linejoin:miter;stroke-miterlimit:4;stroke-dasharray:none;stroke-dashoffset:0;stroke-opacity:1;color-rendering:auto;image-rendering:auto;shape-rendering:auto;text-rendering:auto;enable-background:accumulate;stop-color:#000000"
     d="m 75.091395,67.210695 c -5.520086,0.675695 -12.568617,3.476828 -12.568617,3.476828 a 2.0047202,2.0047202 0 0 0 -1.143035,2.593907 2.0047202,2.0047202 0 0 0 2.593903,1.143027 c 0,0 7.058613,-2.676976 11.604554,-3.233425 4.22997,-0.517779 8.967703,1.668015 8.967703,1.668015 a 2.0047202,2.0047202 0 0 0 2.682193,-0.921102 2.0047202,2.0047202 0 0 0 -0.921115,-2.682193 c 0,0 -5.379548,-2.759434 -11.215586,-2.045057 z"
     id="path883-7" />
  <path
     style="color:#000000;font-style:normal;font-variant:normal;font-weight:normal;font-stretch:normal;font-size:medium;line-height:normal;font-family:sans-serif;font-variant-ligatures:normal;font-variant-position:normal;font-variant-caps:normal;font-variant-numeric:normal;font-variant-alternates:normal;font-variant-east-asian:normal;font-feature-settings:normal;font-variation-settings:normal;text-indent:0;text-align:start;text-decoration:none;text-decoration-line:none;text-decoration-style:solid;text-decoration-color:#000000;letter-spacing:normal;word-spacing:normal;text-transform:none;writing-mode:lr-tb;direction:ltr;text-orientation:mixed;dominant-baseline:auto;baseline-shift:baseline;text-anchor:start;white-space:normal;shape-padding:0;shape-margin:0;inline-size:0;clip-rule:nonzero;display:inline;overflow:visible;visibility:visible;isolation:auto;mix-blend-mode:normal;color-interpolation:sRGB;color-interpolation-filters:linearRGB;solid-color:#000000;solid-opacity:1;vector-effect:none;fill:#924019;fill-opacity:1;fill-rule:nonzero;stroke:none;stroke-width:1.22178;stroke-linecap:round;stroke-linejoin:miter;stroke-miterlimit:4;stroke-dasharray:none;stroke-dashoffset:0;stroke-opacity:1;color-rendering:auto;image-rendering:auto;shape-rendering:auto;text-rendering:auto;enable-background:accumulate;stop-color:#000000"
     d="m 123.12036,66.299122 c -5.10004,-0.197709 -9.08939,3.166618 -9.08939,3.166618 a 2.0047202,2.0047202 0 0 0 -0.32693,2.815831 2.0047202,2.0047202 0 0 0 2.81822,0.32453 c 0,0 3.30956,-2.421855 6.443,-2.300385 1.59012,0.06158 3.78608,0.777091 5.49086,1.520069 1.70478,0.742991 2.9065,1.45325 2.9065,1.45325 a 2.0047202,2.0047202 0 0 0 2.74663,-0.70156 2.0047202,2.0047202 0 0 0 -0.70395,-2.74663 c 0,0 -1.41205,-0.836237 -3.34797,-1.679952 -1.93593,-0.843714 -4.41034,-1.753833 -6.93697,-1.851771 z"
     id="path883-1-6" />
  <path
     style="color:#000000;font-style:normal;font-variant:normal;font-weight:normal;font-stretch:normal;font-size:medium;line-height:normal;font-family:sans-serif;font-variant-ligatures:normal;font-variant-position:normal;font-variant-caps:normal;font-variant-numeric:normal;font-variant-alternates:normal;font-variant-east-asian:normal;font-feature-settings:normal;font-variation-settings:normal;text-indent:0;text-align:start;text-decoration:none;text-decoration-line:none;text-decoration-style:solid;text-decoration-color:#000000;letter-spacing:normal;word-spacing:normal;text-transform:none;writing-mode:lr-tb;direction:ltr;text-orientation:mixed;dominant-baseline:auto;baseline-shift:baseline;text-anchor:start;white-space:normal;shape-padding:0;shape-margin:0;inline-size:0;clip-rule:nonzero;display:inline;overflow:visible;visibility:visible;isolation:auto;mix-blend-mode:normal;color-interpolation:sRGB;color-interpolation-filters:linearRGB;solid-color:#000000;solid-opacity:1;vector-effect:none;fill:#7f3816;fill-opacity:1;fill-rule:nonzero;stroke:none;stroke-width:1.22178;stroke-linecap:round;stroke-linejoin:miter;stroke-miterlimit:4;stroke-dasharray:none;stroke-dashoffset:0;stroke-opacity:1;color-rendering:auto;image-rendering:auto;shape-rendering:auto;text-rendering:auto;enable-background:accumulate;stop-color:#000000"
     d="m 111.75921,103.77112 a 1.2445633,1.2445633 0 0 0 -0.19091,0.0143 1.2445633,1.2445633 0 0 0 -1.04758,1.41509 c 0,0 0.15854,2.50454 -0.89724,3.33842 -1.30221,1.02851 -3.6391,0.976 -3.6391,0.976 a 1.2445633,1.2445633 0 0 0 -1.33155,1.15258 1.2445633,1.2445633 0 0 0 1.15496,1.33155 c 0,0 3.03251,0.33036 5.35724,-1.50575 2.57115,-2.03075 1.81836,-5.66029 1.81836,-5.66029 a 1.2445633,1.2445633 0 0 0 -1.22418,-1.0619 z"
     id="path929" />
  <path
     style="color:#000000;font-style:normal;font-variant:normal;font-weight:normal;font-stretch:normal;font-size:medium;line-height:normal;font-family:sans-serif;font-variant-ligatures:normal;font-variant-position:normal;font-variant-caps:normal;font-variant-numeric:normal;font-variant-alternates:normal;font-variant-east-asian:normal;font-feature-settings:normal;font-variation-settings:normal;text-indent:0;text-align:start;text-decoration:none;text-decoration-line:none;text-decoration-style:solid;text-decoration-color:#000000;letter-spacing:normal;word-spacing:normal;text-transform:none;writing-mode:lr-tb;direction:ltr;text-orientation:mixed;dominant-baseline:auto;baseline-shift:baseline;text-anchor:start;white-space:normal;shape-padding:0;shape-margin:0;inline-size:0;clip-rule:nonzero;display:inline;overflow:visible;visibility:visible;isolation:auto;mix-blend-mode:normal;color-interpolation:sRGB;color-interpolation-filters:linearRGB;solid-color:#000000;solid-opacity:1;vector-effect:none;fill:#ea3838;fill-opacity:1;fill-rule:nonzero;stroke:none;stroke-width:1.22178;stroke-linecap:round;stroke-linejoin:miter;stroke-miterlimit:4;stroke-dasharray:none;stroke-dashoffset:0;stroke-opacity:1;color-rendering:auto;image-rendering:auto;shape-rendering:auto;text-rendering:auto;enable-background:accumulate;stop-color:#000000"
     d="m 92.048409,117.41118 a 1.6625781,1.6625781 0 0 0 -0.973602,0.35555 1.6625781,1.6625781 0 0 0 -0.283979,2.3338 c 0,0 2.377566,3.11726 6.452542,4.06624 4.3908,1.02259 8.26852,-1.87084 8.26852,-1.87084 a 1.6625781,1.6625781 0 0 0 0.43192,-2.31232 1.6625781,1.6625781 0 0 0 -2.31232,-0.43193 c 0,0 -3.18513,1.94723 -5.634047,1.37689 -2.764676,-0.64384 -4.588847,-2.88025 -4.588847,-2.88025 a 1.6625781,1.6625781 0 0 0 -1.360187,-0.63714 z"
     id="path929-0" />
</svg>
