<?xml version="1.0" encoding="UTF-8" standalone="no"?>
<svg
   xmlns:dc="http://purl.org/dc/elements/1.1/"
   xmlns:cc="http://creativecommons.org/ns#"
   xmlns:rdf="http://www.w3.org/1999/02/22-rdf-syntax-ns#"
   xmlns:svg="http://www.w3.org/2000/svg"
   xmlns="http://www.w3.org/2000/svg"
   xmlns:sodipodi="http://sodipodi.sourceforge.net/DTD/sodipodi-0.dtd"
   xmlns:inkscape="http://www.inkscape.org/namespaces/inkscape"
   width="600"
   height="800"
   version="1.1"
   viewBox="0 0 158.75 211.67"
   id="svg927"
   sodipodi:docname="sleep.svg"
   inkscape:version="1.0.2 (e86c870879, 2021-01-15)">
  <defs
     id="defs931" />
  <sodipodi:namedview
     pagecolor="#ffffff"
     bordercolor="#666666"
     borderopacity="1"
     objecttolerance="10"
     gridtolerance="10"
     guidetolerance="10"
     inkscape:pageopacity="0"
     inkscape:pageshadow="2"
     inkscape:window-width="1298"
     inkscape:window-height="725"
     id="namedview929"
     showgrid="false"
     inkscape:zoom="0.34559844"
     inkscape:cx="-169.17623"
     inkscape:cy="242.79633"
     inkscape:window-x="26"
     inkscape:window-y="23"
     inkscape:window-maximized="0"
     inkscape:current-layer="svg927" />
  <metadata
     id="metadata867">
    <rdf:RDF>
      <cc:Work
         rdf:about="">
        <dc:format>image/svg+xml</dc:format>
        <dc:type
           rdf:resource="http://purl.org/dc/dcmitype/StillImage" />
        <dc:title></dc:title>
      </cc:Work>
    </rdf:RDF>
  </metadata>
  <path
     d="m6.4784 42.399c-0.30481 0.0048-0.46511 0.02675-0.46511 0.02675 5.4989 10.208-6.4374 32.892 9.0635 54.992 13.312 18.988 22.713 32.616 29.633 39.839l8.2965-3.9057 11.542-4.8842c-4.3947-10.552-9.368-25.566-16.734-44.222-15.884-40.196-38.393-41.877-41.331-41.836z"
     fill="#78f991"
     fill-opacity=".4179"
     stroke-width=".20228"
     id="path869" />
  <path
     d="m137.33 31.185c-2.9422 0.18119-28.537 0.14586-41.371 41.42-6.4672 20.798-8.2234 40.563-10.89 51.417l4.6753 1.204 15.341 3.1854c6.4916-7.5388 15.233-20.629 27.777-41.723 13.806-23.197 0.20915-44.924 4.93-55.516 0 0-0.16152-0.01023-0.46578 0.0084z"
     fill="#78f991"
     fill-opacity=".4179"
     stroke-width=".20228"
     id="path871" />
  <path
     d="m2.7979 178.28 13.744-45.401 32.752-21.149 56.176-2.4426 25.715-5.8237 6.7376 7.4589 17.516 64.499-3.6844 4.1291-40.921-6.0196z"
     fill="#fffcfa"
     id="path873" />
  <g
     fill="none"
     stroke-linecap="round"
     stroke-linejoin="round"
     id="g889">
    <circle
       r="0"
       stroke="#c53822"
       stroke-width="2.257"
       style="paint-order:stroke markers fill"
       id="circle875" />
    <g
       stroke="#924019"
       id="g883">
      <circle
         r="0"
         stroke-width="1.288"
         style="paint-order:stroke markers fill"
         id="circle877" />
      <circle
         transform="scale(1,-1)"
         r="0"
         stroke-width="3.595"
         style="paint-order:stroke markers fill"
         id="circle879" />
      <circle
         transform="scale(1,-1)"
         r="0"
         stroke-width="3.595"
         style="paint-order:stroke markers fill"
         id="circle881" />
    </g>
    <circle
       transform="scale(1,-1)"
       r="0"
       stroke="#4d4320"
       stroke-width="4.378"
       style="paint-order:stroke markers fill"
       id="circle885" />
    <circle
       transform="scale(1,-1)"
       r="0"
       stroke="#4d4320"
       stroke-width="3.52"
       style="paint-order:stroke markers fill"
       id="circle887" />
  </g>
  <path
     d="m129.26 114.9c1.371 22.049-7.1553 25.28-47.743 27.472-25.614 1.3785-56.005-8.5882-60.058-30.303 8.5506-42.999 47.345-53.165 53.172-43.987 12.905-14.245 55.406 1.732 50.479 26.85 8.5376-1.1716 9.8442 10.841 9.8442 10.841z"
     fill="#924019"
     stroke-width=".89622"
     style="paint-order:stroke markers fill"
     id="path891" />
  <path
     d="m109.08 132.07c8.3949-12.885 11.114-23.332 12.35-22.174 2.1989 6.5583 3.3808 26.16-0.68608 28.405-4.0662 2.248-8.14 1.6461-8.14 1.6461"
     fill="#f9bb78"
     stroke-width=".89624"
     id="path893" />
  <path
     d="m44.796 146.52c5.9627 15.434 7.9897 16.166 10.392 18.502 2.836 2.7571 24.659 8.5402 29.883 7.627 17.921-3.1331 33.627-13.319 28.419-44.033-5.5494-32.729-24.437-37.438-51.57-30.246-18.634 4.941-26.508 12.573-17.134 48.152z"
     fill="#f9bb78"
     stroke-width=".89622"
     style="paint-order:stroke markers fill;fill:#efaf68;fill-opacity:1"
     id="path895" />
  <g
     fill="#924019"
     id="g905">
    <path
       d="m41.114 150.64c-4.5637-2.4316-21.411-20.989-13.867-30.618 7.5459-9.637 20.796-22.677 31.524-25.167 10.729-2.4882 12.116 23.532 12.116 23.532-14.745 8.9956-25.79 33.47-29.774 32.252z"
       stroke-width=".89624"
       id="path897" />
    <path
       d="m118.56 142.66c3.5782-3.7332-1.5972-34.413-11.767-41.21-10.174-6.8041-30.165-7.9551-41.135-6.9761-10.97 0.98071-0.74093 20.751-0.74093 20.751 7.7039 14.26 40.725 27.176 53.644 27.435z"
       stroke-width=".89624"
       id="path899" />
    <path
       d="m53.815 134.15c-4.0106 0.74599-9.0435 3.1176-9.0435 3.1176a1.4705 1.4705 0 0 0-0.71879 1.9511 1.4705 1.4705 0 0 0 1.9511 0.71871s5.0459-2.2812 8.3488-2.8956c3.0733-0.57165 6.6414 0.8129 6.6414 0.8129a1.4705 1.4705 0 0 0 1.9218-0.79647 1.4705 1.4705 0 0 0-0.79647-1.9218s-4.0641-1.7753-8.3046-0.98662z"
       color="#000000"
       color-rendering="auto"
       dominant-baseline="auto"
       image-rendering="auto"
       shape-rendering="auto"
       solid-color="#000000"
       stop-color="#000000"
       stroke-width=".73354"
       style="font-feature-settings:normal;font-variant-alternates:normal;font-variant-caps:normal;font-variant-east-asian:normal;font-variant-ligatures:normal;font-variant-numeric:normal;font-variant-position:normal;font-variation-settings:normal;inline-size:0;isolation:auto;mix-blend-mode:normal;shape-margin:0;shape-padding:0;text-decoration-color:#000000;text-decoration-line:none;text-decoration-style:solid;text-indent:0;text-orientation:mixed;text-transform:none;white-space:normal"
       id="path901" />
    <path
       d="m88.935 131.3c-3.7429 0.0874-6.5104 2.7321-6.5104 2.7321a1.4705 1.4705 0 0 0-0.11116 2.0764 1.4705 1.4705 0 0 0 2.0781 0.10929s2.3128-1.9238 4.6123-1.9775c1.167-0.0273 2.8073 0.39656 4.0892 0.86286 1.2819 0.46636 2.1941 0.93163 2.1941 0.93163a1.4705 1.4705 0 0 0 1.9789-0.63867 1.4705 1.4705 0 0 0-0.64042-1.9788s-1.0719-0.54794-2.5276-1.0775c-1.4558-0.52958-3.3088-1.0832-5.163-1.0399z"
       color="#000000"
       color-rendering="auto"
       dominant-baseline="auto"
       image-rendering="auto"
       shape-rendering="auto"
       solid-color="#000000"
       stop-color="#000000"
       stroke-width=".73354"
       style="font-feature-settings:normal;font-variant-alternates:normal;font-variant-caps:normal;font-variant-east-asian:normal;font-variant-ligatures:normal;font-variant-numeric:normal;font-variant-position:normal;font-variation-settings:normal;inline-size:0;isolation:auto;mix-blend-mode:normal;shape-margin:0;shape-padding:0;text-decoration-color:#000000;text-decoration-line:none;text-decoration-style:solid;text-indent:0;text-orientation:mixed;text-transform:none;white-space:normal"
       id="path903" />
  </g>
  <path
     d="m 87.939,145.16 c 0,0 4.6561,3.7437 9.2011,3.166 4.545,-0.57763 7.9883,-4.9658 7.9883,-4.9658"
     stroke="#5e2910"
     stroke-linecap="round"
     stroke-width="0.92794"
     id="path907"
     style="fill:none" />
  <path
     d="m 49.423,148.75 c 0,0 3.9804,4.237 8.5254,3.6594 4.545,-0.57763 8.6639,-5.4592 8.6639,-5.4592"
     stroke="#5e2910"
     stroke-linecap="round"
     stroke-width="0.92794"
     id="path909"
     style="fill:none" />
  <path
     d="m 71.042,153.96 c 0,0 0.480916,4.03759 0.88432,5.1581 0.403404,1.12051 0.95234,1.6581 0.95234,1.6581"
     stroke="#000000"
     stroke-width="0.19408px"
     id="path911"
     style="fill:none;stroke-width:1.33193347;stroke-linecap:round;stroke-miterlimit:4;stroke-dasharray:none;stroke:#924019;stroke-opacity:1"
     sodipodi:nodetypes="czc" />
  <path
     d="m 9.7613,187.74 c -8.8398,-0.40131 -12.03,-8.8525 1.3191,-15.71 13.349,-6.8571 74.46,-11.083 90.651,-5.9926 9.4742,0.73939 9.1009,7.4872 9.1009,7.4872 0,0 -37.477,10.525 -55.205,12.593 -17.729,2.0678 -37.026,2.0234 -45.866,1.6221 z"
     fill="#f9bb78"
     stroke="#000000"
     stroke-width="0.22188px"
     id="path915"
     style="stroke:none" />
  <path
     d="m 9.7613,187.74 c -8.8398,-0.40131 11.119,-3.4565 22.752,-3.239 11.633,0.21749 56.382,-8.0614 72.57,-12.96 9.4742,0.73939 5.7494,1.984 5.7494,1.984 0,0 -37.477,10.525 -55.205,12.593 -17.729,2.0678 -37.026,2.0234 -45.866,1.6221 z"
     fill="#d89b59"
     id="path917" />
  <path
     d="m 70.799,183.17 c 0,0 43.455,-16.999 57.733,-14.578 28.736,-0.15502 26.661,18.946 6.3073,21.903 -13.792,1.8187 -64.04,-7.3257 -64.04,-7.3257 z"
     fill="#f9bb78"
     id="path919" />
  <path
     d="m 70.799,183.17 c 5.3456,-1.979 12.727,-5.3976 12.727,-5.3976 6.7874,2.9415 52.25,7.1285 54.419,6.4341 7.1708,-2.2961 17.128,1.5772 -3.1055,6.2892 -13.792,1.8187 -64.04,-7.3257 -64.04,-7.3257 z"
     fill="#d89b59"
     id="path921" />
</svg>
