<?xml version="1.0" encoding="UTF-8"?>
<svg width="600" height="800" version="1.1" viewBox="0 0 158.8 211.7" xmlns="http://www.w3.org/2000/svg" xmlns:cc="http://creativecommons.org/ns#" xmlns:dc="http://purl.org/dc/elements/1.1/" xmlns:rdf="http://www.w3.org/1999/02/22-rdf-syntax-ns#">
 <metadata>
  <rdf:RDF>
   <cc:Work rdf:about="">
    <dc:format>image/svg+xml</dc:format>
    <dc:type rdf:resource="http://purl.org/dc/dcmitype/StillImage"/>
   </cc:Work>
  </rdf:RDF>
 </metadata>
 <path d="m6.478 42.4c-0.3048 0.0048-0.4651 0.02675-0.4651 0.02675 5.499 10.21-6.437 32.89 9.064 54.99 13.31 18.99 22.71 32.62 29.63 39.84l8.296-3.906 11.54-4.884c-4.395-10.55-9.368-25.57-16.73-44.22-15.88-40.2-38.39-41.88-41.33-41.84z" fill="#78f991" fill-opacity=".4179" stroke-width=".2023"/>
 <path d="m137.3 31.18c-2.942 0.1812-28.54 0.1459-41.37 41.42-6.467 20.8-8.223 40.56-10.89 51.42l4.675 1.204 15.34 3.185c6.492-7.539 15.23-20.63 27.78-41.72 13.81-23.2 0.2092-44.92 4.93-55.52 0 0-0.1615-0.01023-0.4658 0.0084z" fill="#78f991" fill-opacity=".4179" stroke-width=".2023"/>
 <path d="m2.798 178.3 13.74-45.4 32.75-21.15 56.18-2.443 25.72-5.824 6.738 7.459 17.52 64.5-3.684 4.129-40.92-6.02z" fill="#fffcfa"/>
 <g fill="none" stroke-linecap="round" stroke-linejoin="round">
  <circle r="0" stroke="#c53822" stroke-width="2.257" style="paint-order:stroke markers fill"/>
  <g stroke="#924019">
   <circle r="0" stroke-width="1.288" style="paint-order:stroke markers fill"/>
   <circle transform="scale(1,-1)" r="0" stroke-width="3.595" style="paint-order:stroke markers fill"/>
   <circle transform="scale(1,-1)" r="0" stroke-width="3.595" style="paint-order:stroke markers fill"/>
  </g>
  <circle transform="scale(1,-1)" r="0" stroke="#4d4320" stroke-width="4.378" style="paint-order:stroke markers fill"/>
  <circle transform="scale(1,-1)" r="0" stroke="#4d4320" stroke-width="3.52" style="paint-order:stroke markers fill"/>
 </g>
 <path d="m129.3 114.9c1.371 22.05-7.155 25.28-47.74 27.47-25.61 1.378-56-8.588-60.06-30.3 8.551-43 47.34-53.16 53.17-43.99 12.9-14.24 55.41 1.732 50.48 26.85 8.538-1.172 9.844 10.84 9.844 10.84z" fill="#924019" stroke-width=".8962" style="paint-order:stroke markers fill"/>
 <path d="m109.1 132.1c8.395-12.88 11.11-23.33 12.35-22.17 2.199 6.558 3.381 26.16-0.6861 28.4-4.066 2.248-8.14 1.646-8.14 1.646" fill="#f9bb78" stroke-width=".8962"/>
 <path d="m44.8 146.5c5.963 15.43 7.99 16.17 10.39 18.5 2.836 2.757 24.66 8.54 29.88 7.627 17.92-3.133 33.63-13.32 28.42-44.03-5.549-32.73-24.44-37.44-51.57-30.25-18.63 4.941-26.51 12.57-17.13 48.15z" fill="#efaf68" stroke-width=".8962" style="paint-order:stroke markers fill"/>
 <g fill="#924019">
  <path d="m41.11 150.6c-4.564-2.432-21.41-20.99-13.87-30.62 7.546-9.637 20.8-22.68 31.52-25.17 10.73-2.488 12.12 23.53 12.12 23.53-14.74 8.996-25.79 33.47-29.77 32.25z" stroke-width=".8962"/>
  <path d="m118.6 142.7c3.578-3.733-1.597-34.41-11.77-41.21-10.17-6.804-30.16-7.955-41.14-6.976-10.97 0.9807-0.7409 20.75-0.7409 20.75 7.704 14.26 40.72 27.18 53.64 27.44z" stroke-width=".8962"/>
  <path d="m53.82 134.2c-4.011 0.746-9.044 3.118-9.044 3.118a1.47 1.47 0 0 0-0.7188 1.951 1.47 1.47 0 0 0 1.951 0.7187s5.046-2.281 8.349-2.896c3.073-0.5716 6.641 0.8129 6.641 0.8129a1.47 1.47 0 0 0 1.922-0.7965 1.47 1.47 0 0 0-0.7965-1.922s-4.064-1.775-8.305-0.9866z" color="#000000" color-rendering="auto" dominant-baseline="auto" image-rendering="auto" shape-rendering="auto" solid-color="#000000" stop-color="#000000" stroke-width=".7335" style="font-feature-settings:normal;font-variant-alternates:normal;font-variant-caps:normal;font-variant-east-asian:normal;font-variant-ligatures:normal;font-variant-numeric:normal;font-variant-position:normal;font-variation-settings:normal;inline-size:0;isolation:auto;mix-blend-mode:normal;shape-margin:0;shape-padding:0;text-decoration-color:#000000;text-decoration-line:none;text-decoration-style:solid;text-indent:0;text-orientation:mixed;text-transform:none;white-space:normal"/>
  <path d="m88.94 131.3c-3.743 0.0874-6.51 2.732-6.51 2.732a1.47 1.47 0 0 0-0.1112 2.076 1.47 1.47 0 0 0 2.078 0.1093s2.313-1.924 4.612-1.978c1.167-0.0273 2.807 0.3966 4.089 0.8629 1.282 0.4664 2.194 0.9316 2.194 0.9316a1.47 1.47 0 0 0 1.979-0.6387 1.47 1.47 0 0 0-0.6404-1.979s-1.072-0.5479-2.528-1.078c-1.456-0.5296-3.309-1.083-5.163-1.04z" color="#000000" color-rendering="auto" dominant-baseline="auto" image-rendering="auto" shape-rendering="auto" solid-color="#000000" stop-color="#000000" stroke-width=".7335" style="font-feature-settings:normal;font-variant-alternates:normal;font-variant-caps:normal;font-variant-east-asian:normal;font-variant-ligatures:normal;font-variant-numeric:normal;font-variant-position:normal;font-variation-settings:normal;inline-size:0;isolation:auto;mix-blend-mode:normal;shape-margin:0;shape-padding:0;text-decoration-color:#000000;text-decoration-line:none;text-decoration-style:solid;text-indent:0;text-orientation:mixed;text-transform:none;white-space:normal"/>
 </g>
 <g fill="none" stroke-linecap="round">
  <path d="m87.94 145.2s4.656 3.744 9.201 3.166c4.545-0.5776 7.988-4.966 7.988-4.966" stroke="#5e2910" stroke-width=".9279"/>
  <path d="m49.42 148.8s3.98 4.237 8.525 3.659c4.545-0.5776 8.664-5.459 8.664-5.459" stroke="#5e2910" stroke-width=".9279"/>
  <path d="m71.04 154s0.4809 4.038 0.8843 5.158 0.9523 1.658 0.9523 1.658" stroke="#924019" stroke-width="1.332"/>
 </g>
 <path d="m9.761 187.7c-8.84-0.4013-12.03-8.852 1.319-15.71 13.35-6.857 74.46-11.08 90.65-5.993 9.474 0.7394 9.101 7.487 9.101 7.487s-37.48 10.52-55.2 12.59c-17.73 2.068-37.03 2.023-45.87 1.622z" fill="#f9bb78" stroke="#000" stroke-width=".2219px"/>
 <path d="m9.761 187.7c-8.84-0.4013 11.12-3.456 22.75-3.239 11.63 0.2175 56.38-8.061 72.57-12.96 9.474 0.7394 5.749 1.984 5.749 1.984s-37.48 10.52-55.2 12.59c-17.73 2.068-37.03 2.023-45.87 1.622z" fill="#d89b59"/>
 <path d="m70.8 183.2s43.46-17 57.73-14.58c28.74-0.155 26.66 18.95 6.307 21.9-13.79 1.819-64.04-7.326-64.04-7.326z" fill="#f9bb78"/>
 <path d="m70.8 183.2c5.346-1.979 12.73-5.398 12.73-5.398 6.787 2.942 52.25 7.128 54.42 6.434 7.171-2.296 17.13 1.577-3.106 6.289-13.79 1.819-64.04-7.326-64.04-7.326z" fill="#d89b59"/>
</svg>
