<?xml version="1.0" encoding="UTF-8" standalone="no"?>
<svg
   xmlns:dc="http://purl.org/dc/elements/1.1/"
   xmlns:cc="http://creativecommons.org/ns#"
   xmlns:rdf="http://www.w3.org/1999/02/22-rdf-syntax-ns#"
   xmlns:svg="http://www.w3.org/2000/svg"
   xmlns="http://www.w3.org/2000/svg"
   xmlns:sodipodi="http://sodipodi.sourceforge.net/DTD/sodipodi-0.dtd"
   xmlns:inkscape="http://www.inkscape.org/namespaces/inkscape"
   width="600"
   height="800"
   version="1.1"
   viewBox="0 0 158.75 211.67"
   id="svg889"
   sodipodi:docname="sleep.svg"
   inkscape:version="1.0.1 (3bc2e813f5, 2020-09-07)">
  <defs
     id="defs893" />
  <sodipodi:namedview
     pagecolor="#ffffff"
     bordercolor="#666666"
     borderopacity="1"
     objecttolerance="10"
     gridtolerance="10"
     guidetolerance="10"
     inkscape:pageopacity="0"
     inkscape:pageshadow="2"
     inkscape:window-width="1848"
     inkscape:window-height="1016"
     id="namedview891"
     showgrid="false"
     inkscape:zoom="1.00875"
     inkscape:cx="300"
     inkscape:cy="400"
     inkscape:window-x="0"
     inkscape:window-y="0"
     inkscape:window-maximized="1"
     inkscape:current-layer="svg889"
     inkscape:document-rotation="0" />
  <metadata
     id="metadata833">
    <rdf:RDF>
      <cc:Work
         rdf:about="">
        <dc:format>image/svg+xml</dc:format>
        <dc:type
           rdf:resource="http://purl.org/dc/dcmitype/StillImage" />
        <dc:title></dc:title>
      </cc:Work>
    </rdf:RDF>
  </metadata>
  <path
     d="m153.89 210.77c-1.0158-2.0315-7.4962-17.083-14.221-22.855s-24.136-10.329-24.136-10.329l-62.348-6.0112s-17.711 6.7002-23.728 13.801-8.1262 25.902-8.1262 25.902"
     fill="#fff"
     id="path835" />
  <g
     fill="none"
     stroke-linecap="round"
     stroke-linejoin="round"
     id="g849">
    <circle
       r="0"
       stroke="#c53822"
       stroke-width="2.257"
       style="paint-order:stroke markers fill"
       id="circle837" />
    <circle
       r="0"
       stroke="#924019"
       stroke-width="1.288"
       style="paint-order:stroke markers fill"
       id="circle839" />
    <circle
       transform="scale(1,-1)"
       r="0"
       stroke="#924019"
       stroke-width="3.595"
       style="paint-order:stroke markers fill"
       id="circle841" />
    <circle
       transform="scale(1,-1)"
       r="0"
       stroke="#924019"
       stroke-width="3.595"
       style="paint-order:stroke markers fill"
       id="circle843" />
    <circle
       transform="scale(1,-1)"
       r="0"
       stroke="#4d4320"
       stroke-width="4.378"
       style="paint-order:stroke markers fill"
       id="circle845" />
    <circle
       transform="scale(1,-1)"
       r="0"
       stroke="#4d4320"
       stroke-width="3.52"
       style="paint-order:stroke markers fill"
       id="circle847" />
  </g>
  <path
     d="m4.3414 99.184c-0.25638 4e-3 -0.39121 0.0225-0.39121 0.0225 4.6252 8.586-5.4146 27.666 7.6235 46.255 11.197 15.971 19.104 27.434 24.925 33.509l6.9784-3.2852 9.7081-4.1082c-3.6965-8.8758-7.8796-21.504-14.075-37.196-13.36-33.81-32.293-35.224-34.764-35.189z"
     fill="#78f991"
     fill-opacity=".4179"
     stroke-width=".17014"
     id="path851" />
  <path
     d="m154.47 100.08c-2.4792-0.0329-23.945-1.6708-37.303 32.142-6.7313 17.038-9.4463 33.506-12.365 42.443l3.8458 1.3037 12.667 3.6358c5.9187-5.9154 14.073-16.346 25.92-33.251 13.038-18.589 2.9983-37.668 7.6235-46.255 0 0-0.13483-0.0187-0.39121-0.0222z"
     fill="#78f991"
     fill-opacity=".4179"
     stroke-width=".17014"
     id="path853" />
  <path
     d="m96.141 144.8s-1.636 14.258 1.8473 20.318c3.4833 6.06 17.545 12.474 17.545 12.474l-23.092 17.545-39.256-23.556s7.8866-2.4607 11.545-8.313 4.6183-26.781 4.6183-26.781z"
     fill="#f9bb78"
     stroke-width="1.2218"
     id="path855" />
  <g
     transform="matrix(1.2161 .11763 -.11763 1.2161 -26.86 -69.746)"
     id="g863">
    <ellipse
       transform="matrix(.9779 -.209 .214 .9768 0 0)"
       cx="32.9"
       cy="161.4"
       rx="13.36"
       ry="18.94"
       fill="#924019"
       style="paint-order:stroke markers fill"
       id="ellipse857" />
    <path
       d="m161.1 104c0 24.65-4.138 31.4-49.49 31.03-28.62-0.2385-56.88 0.2438-59.89-24.22-6.481-52.62 24.01-62.78 52.64-62.78 28.62 0 56.75 31.32 56.75 55.97z"
       fill="#924019"
       style="paint-order:stroke markers fill"
       id="path859" />
    <path
       d="m148.1 119.8c-0.0922 33.03-13.58 47.92-32.8 47.92-26.79 0-46.41-14.09-46.41-47.92 1e-6 -37.04 15.85-47.3 47.17-47.17 21.51 0.09118 32.16 6.116 32.05 47.17z"
       fill="#f9bb78"
       style="paint-order:stroke markers fill"
       id="path861" />
  </g>
  <g
     stroke-width="1.2218"
     id="g871">
    <path
       d="m106.43 38.288c37.047 17.626 32.747 55.102 32.747 55.102s32.236-57.507-3.0357-72.74c-35.266-15.222-38.258-7.518-38.258-7.518z"
       fill="#924019"
       id="path865" />
    <path
       d="m116.52 35.52c-37.946 37.868-65.278 46.578-70.906 42.327-5.6202-4.2555-17.539-24.896-5.3111-36.234 12.232-11.349 31.555-19.509 46.533-20.552 14.978-1.0406 29.68 14.469 29.68 14.469z"
       fill="#924019"
       id="path867" />
    <path
       d="m49.297 92.651c-14.074-15.539-20.381-27.491-21.931-18.189-1.5487 9.3018 1.6119 26.94 7.5698 29.087 5.9576 2.1511 11.312 0.46407 11.312 0.46407"
       fill="#f9bb78"
       id="path869" />
  </g>
  <path
     d="m 81.481217,72.932973 c -5.5595,0.1411 -12.845,2.2506 -12.845,2.2506 a 2.0047,2.0047 0 0 0 -1.3875,2.4718 2.0047,2.0047 0 0 0 2.4718,1.3874 c 0,0 7.2836,-1.985 11.862,-2.1012 4.2602,-0.10813 8.7655,2.5236 8.7655,2.5236 a 2.0047,2.0047 0 0 0 2.7584,-0.65859 2.0047,2.0047 0 0 0 -0.6586,-2.7584 c 0,0 -5.0889,-3.2645 -10.967,-3.1154 z"
     color="#000000"
     color-rendering="auto"
     dominant-baseline="auto"
     fill="#924019"
     image-rendering="auto"
     solid-color="#000000"
     stop-color="#000000"
     style="font-variant-ligatures:normal;font-variant-position:normal;font-variant-caps:normal;font-variant-numeric:normal;font-variant-alternates:normal;font-variant-east-asian:normal;font-feature-settings:normal;font-variation-settings:normal;text-indent:0;text-decoration:none;text-decoration-line:none;text-decoration-style:solid;text-decoration-color:#000000;text-transform:none;text-orientation:mixed;white-space:normal;shape-padding:0;shape-margin:0;inline-size:0;isolation:auto;mix-blend-mode:normal;shape-rendering:auto"
     id="path873" />
  <path
     d="m 127.28,77.875371 c -5.0573,-0.6878 -9.352,2.2768 -9.352,2.2768 a 2.0047,2.0047 0 0 0 -0.59651,2.7713 2.0047,2.0047 0 0 0 2.7739,0.59435 c 0,0 3.5274,-2.092 6.6345,-1.6694 1.5768,0.21438 3.6937,1.138 5.319,2.0416 1.6253,0.90367 2.7531,1.7263 2.7531,1.7263 a 2.0047,2.0047 0 0 0 2.8014,-0.43386 2.0047,2.0047 0 0 0 -0.43625,-2.8016 c 0,0 -1.325,-0.9683 -3.1707,-1.9945 -1.8457,-1.0262 -4.221,-2.1703 -6.7265,-2.511 z"
     color="#000000"
     color-rendering="auto"
     dominant-baseline="auto"
     fill="#924019"
     image-rendering="auto"
     solid-color="#000000"
     stop-color="#000000"
     style="font-variant-ligatures:normal;font-variant-position:normal;font-variant-caps:normal;font-variant-numeric:normal;font-variant-alternates:normal;font-variant-east-asian:normal;font-feature-settings:normal;font-variation-settings:normal;text-indent:0;text-decoration:none;text-decoration-line:none;text-decoration-style:solid;text-decoration-color:#000000;text-transform:none;text-orientation:mixed;white-space:normal;shape-padding:0;shape-margin:0;inline-size:0;isolation:auto;mix-blend-mode:normal;shape-rendering:auto"
     id="path875" />
  <path
     d="m 112.37,106.14 a 1.2446,1.2446 0 0 0 -0.1914,-0.004 1.2446,1.2446 0 0 0 -1.179,1.3077 c 0,0 -0.0833,2.5082 -1.2145,3.2365 -1.3952,0.89836 -3.7162,0.6211 -3.7162,0.6211 a 1.2446,1.2446 0 0 0 -1.4363,1.019 1.2446,1.2446 0 0 0 1.0214,1.4366 c 0,0 2.9866,0.62079 5.4773,-0.98298 2.7547,-1.7738 2.3549,-5.4589 2.3549,-5.4589 a 1.2446,1.2446 0 0 0 -1.1163,-1.1748 z"
     color="#000000"
     color-rendering="auto"
     dominant-baseline="auto"
     fill="#7f3816"
     image-rendering="auto"
     solid-color="#000000"
     stop-color="#000000"
     style="font-variant-ligatures:normal;font-variant-position:normal;font-variant-caps:normal;font-variant-numeric:normal;font-variant-alternates:normal;font-variant-east-asian:normal;font-feature-settings:normal;font-variation-settings:normal;text-indent:0;text-decoration:none;text-decoration-line:none;text-decoration-style:solid;text-decoration-color:#000000;text-transform:none;text-orientation:mixed;white-space:normal;shape-padding:0;shape-margin:0;inline-size:0;isolation:auto;mix-blend-mode:normal;shape-rendering:auto"
     id="path877" />
  <path
     d="m 185.11074,83.113974 c -6.8701,-0.45691 -10.535,5.3672 -10.535,5.3672 a 1.8124,1.8124 0 0 0 0.57813,2.4961 1.8124,1.8124 0 0 0 2.498,-0.57617 c 0,0 2.4569,-3.9866 7.2188,-3.6699 4.2501,0.28266 6.7832,5.1855 6.7832,5.1855 a 1.8124,1.8124 0 0 0 2.418,0.849613 1.8124,1.8124 0 0 0 0.84961,-2.419903 c 0,0 -3.0855,-6.7852 -9.8106,-7.2324 z"
     color="#000000"
     color-rendering="auto"
     dominant-baseline="auto"
     fill="#5e2910"
     image-rendering="auto"
     solid-color="#000000"
     stop-color="#000000"
     style="font-variant-ligatures:normal;font-variant-position:normal;font-variant-caps:normal;font-variant-numeric:normal;font-variant-alternates:normal;font-variant-east-asian:normal;font-feature-settings:normal;font-variation-settings:normal;text-indent:0;text-decoration:none;text-decoration-line:none;text-decoration-style:solid;text-decoration-color:#000000;text-transform:none;text-orientation:mixed;white-space:normal;shape-padding:0;shape-margin:0;inline-size:0;isolation:auto;mix-blend-mode:normal;shape-rendering:auto"
     id="path881" />
  <ellipse
     transform="matrix(.98163 -.19081 .2342 .97219 0 0)"
     cx="20.194"
     cy="151.5"
     rx="17.166"
     ry="22.31"
     fill="#924019"
     stroke-width="1.2218"
     style="paint-order:stroke markers fill"
     id="ellipse887" />
  <path
     style="fill:none;stroke:#5e2910;stroke-width:3.78360125;stroke-linecap:round;stroke-linejoin:miter;stroke-miterlimit:4;stroke-dasharray:none;stroke-opacity:1"
     d="m 116.11233,96.641444 c 9.90261,-1.853551 9.30297,-1.185498 17.59512,2.474362"
     id="path2181"
     sodipodi:nodetypes="cc" />
  <path
     style="fill:none;stroke:#5e2910;stroke-width:3.7836;stroke-linecap:round;stroke-linejoin:miter;stroke-miterlimit:4;stroke-dasharray:none;stroke-opacity:1"
     d="m 71.261864,91.874754 c 9.90261,-1.853551 9.30297,-1.185498 17.59512,2.474362"
     id="path2181-3"
     sodipodi:nodetypes="cc" />
  <path
     style="fill:none;stroke:#ea3838;stroke-width:3.04275635;stroke-linecap:round;stroke-linejoin:miter;stroke-miterlimit:4;stroke-dasharray:none;stroke-opacity:1"
     d="m 89.496247,122.69581 c 9.045412,4.43599 8.646412,3.63182 17.615533,2.32451"
     id="path2181-5"
     sodipodi:nodetypes="cc" />
</svg>
