<?xml version="1.0" encoding="UTF-8"?>
<svg width="109.8mm" height="202.4mm" version="1.1" viewBox="0 0 109.8 202.4" xmlns="http://www.w3.org/2000/svg" xmlns:cc="http://creativecommons.org/ns#" xmlns:dc="http://purl.org/dc/elements/1.1/" xmlns:rdf="http://www.w3.org/1999/02/22-rdf-syntax-ns#">
 <metadata>
  <rdf:RDF>
   <cc:Work rdf:about="">
    <dc:format>image/svg+xml</dc:format>
    <dc:type rdf:resource="http://purl.org/dc/dcmitype/StillImage"/>
   </cc:Work>
  </rdf:RDF>
 </metadata>
 <g fill="#e4fef9" fill-opacity=".6376" stroke-width=".06421">
  <rect transform="rotate(12.15)" x="66.76" y="22.09" width=".771" height="16.69"/>
  <rect transform="rotate(12.15)" x="34.51" y="77.37" width=".771" height="16.69"/>
  <rect transform="rotate(12.15)" x="34.01" y="1.8" width=".771" height="16.69"/>
  <rect transform="rotate(12.15)" x="113.8" y="45.54" width=".771" height="16.69"/>
  <rect transform="rotate(12.15)" x="83.11" y="63.2" width=".771" height="16.69"/>
  <rect transform="rotate(12.15)" x="45.55" y="41.43" width=".771" height="16.69"/>
  <rect transform="rotate(12.15)" x="98.55" y="4.541" width=".771" height="16.69"/>
  <rect transform="rotate(12.15)" x="120.3" y="99.14" width=".771" height="16.69"/>
  <rect transform="rotate(12.15)" x="91.82" y="93.21" width=".771" height="16.69"/>
  <rect transform="rotate(12.15)" x="125.8" y="148.8" width=".771" height="16.69"/>
  <rect transform="rotate(12.15)" x="59.23" y="164.7" width=".771" height="16.69"/>
  <rect transform="rotate(12.15)" x="23.44" y="24.36" width=".771" height="16.69"/>
  <rect transform="rotate(12.15)" x="75.54" y="-9.183" width=".771" height="16.69"/>
  <rect transform="rotate(12.15)" x="75.54" y="-9.183" width=".771" height="16.69"/>
  <rect transform="rotate(12.15)" x="57.43" y="117" width=".771" height="16.69"/>
  <rect transform="rotate(12.15)" x="84.79" y="147.4" width=".771" height="16.69"/>
  <rect transform="rotate(12.15)" x="84.79" y="147.4" width=".771" height="16.69"/>
 </g>
</svg>
