<?xml version="1.0" encoding="UTF-8"?>
<svg width="600" height="800" version="1.1" viewBox="0 0 159 212" xml:space="preserve" xmlns="http://www.w3.org/2000/svg" xmlns:cc="http://creativecommons.org/ns#" xmlns:dc="http://purl.org/dc/elements/1.1/" xmlns:rdf="http://www.w3.org/1999/02/22-rdf-syntax-ns#" xmlns:xlink="http://www.w3.org/1999/xlink"><defs><linearGradient id="linearGradient3572-6" x1="-715" x2="-745" y1="-415" y2="-340" gradientTransform="matrix(.421 0 0 .421 339 222)" gradientUnits="userSpaceOnUse" xlink:href="#linearGradient3524"/><linearGradient id="linearGradient3524"><stop stop-color="#c8b7b7" stop-opacity="0" offset="0"/><stop stop-color="#382b2b" offset="1"/></linearGradient><linearGradient id="linearGradient3542-3" x1="-645" x2="-655" y1="-435" y2="-405" gradientTransform="matrix(.45 0 0 .45 349 229)" gradientUnits="userSpaceOnUse" xlink:href="#linearGradient3532"/><linearGradient id="linearGradient3532"><stop stop-color="#62544b" stop-opacity="0" offset="0"/><stop stop-color="#473d37" offset="1"/></linearGradient><linearGradient id="linearGradient3534-7" x1="-590" x2="-610" y1="-425" y2="-390" gradientTransform="matrix(.45 0 0 .45 351 228)" gradientUnits="userSpaceOnUse" xlink:href="#linearGradient3532"/><linearGradient id="linearGradient3526-5" x1="-575" x2="-510" y1="-415" y2="-260" gradientTransform="matrix(.421 0 0 .421 332 219)" gradientUnits="userSpaceOnUse" xlink:href="#linearGradient3524"/><linearGradient id="linearGradient3558-1" x1="-740" x2="-765" y1="-375" y2="-295" gradientTransform="matrix(.421 0 0 .421 339 222)" gradientUnits="userSpaceOnUse"><stop stop-color="#62544b" stop-opacity="0" offset="0"/><stop stop-color="#473d37" stop-opacity=".903" offset="1"/></linearGradient><linearGradient id="linearGradient3550-1" x1="-685" x2="-700" y1="-445" y2="-400" gradientTransform="matrix(.45 0 0 .45 349 229)" gradientUnits="userSpaceOnUse" xlink:href="#linearGradient3532"/></defs><metadata><rdf:RDF><cc:Work rdf:about=""><dc:format>image/svg+xml</dc:format><dc:type rdf:resource="http://purl.org/dc/dcmitype/StillImage"/></cc:Work></rdf:RDF></metadata><g fill="none" stroke-linecap="round" stroke-linejoin="round"><circle r="0" stroke="#c53822" stroke-width="2.26" style="paint-order:stroke markers fill"/><g stroke="#924019"><circle r="0" stroke-width="1.29" style="paint-order:stroke markers fill"/><circle transform="scale(1,-1)" r="0" stroke-width="3.6" style="paint-order:stroke markers fill"/><circle transform="scale(1,-1)" r="0" stroke-width="3.6" style="paint-order:stroke markers fill"/></g><circle transform="scale(1,-1)" r="0" stroke="#4d4320" stroke-width="4.38" style="paint-order:stroke markers fill"/><circle transform="scale(1,-1)" r="0" stroke="#4d4320" stroke-width="3.52" style="paint-order:stroke markers fill"/></g><path d="m59.4 142-0.0111 9.19c-1.91 5.15-15.8 8.69-15.8 8.69l21.7 30.4 43.4-27.3s-12.6-1.21-16.2-11.5c-2.27-3.06-3.49-28.4-3.49-28.4z" fill="#ffd2b3"/><path d="m58.4 164 25.1-17.4 6.27-2.32-0.769-11.6-28.6 14.7z" fill="#cc9d7c" stroke-width=".934"/><g><path d="m55 154s-27.7 8.73-34.4 17.2c-5.58 4.23-8.11 25.4-8.11 25.4l-2.2 15.8h105l0.0207-10.2 1.41 1.18 2.11 8.99h29.5l-1.65-4.27s-4.77-22.8-10.9-30.6c-2.59-3.65-32.3-25.3-40.6-22.5-8.37 2.75-28.3 15.5-28.3 15.5l-11.8-16.6z" fill="#62c30d"/><path d="m94.8 153-26.2 15.2-11-15.5s-16.2 4.6-8.33 14.2c5.83 8.69 13.8 8.49 19.1 3.87 2.34 4.32 17.8 7.87 29.2-1.21 9.48-5.54-2.77-16.5-2.77-16.5z" fill="#fff"/><path d="m99.5 136c6.5 0.142 30.9-22.7 30.9-22.7l-2.02-46.1-96-6.3-6.57 40.3 10.4 27.7z" fill="#605349" stroke="#000" stroke-width=".248px"/><path d="m33.3 102s-2.22 11.9 0.898 21.5c0.802 8.66 7.25 21.3 24.7 22.8 21.9 1.3 32.6-7.1 34.9-12.2 4.5-4.06 7.59-12.7 7.59-12.7 15.8 0.285 22-16.1 19.8-22 0 0-2.4-5.14-9.67 0.563 3.63-8.98 8.6-25.3 8.6-25.3-0.114-44.4-96.6-38.9-90.5-4.1 0.464 4.92 3.11 21.1 3.69 31.5z" fill="#ffd2b3"/><path d="m47.2 129c1.45-0.279 4.14 3.36 6.21 3.09 3.04-0.393 7.84-1.44 8.65-2.3 0.849-0.625 0.0822-1.72 1.18-1.98 1.72-0.101 0.0604 2.35-1.08 3.49 0 0-5.63 2.36-8.19 2.52-2.37 0.152-7.66-4.68-6.77-4.82z" fill="#f85400"/></g><path d="m58.9 17.1c-25.2 0.42-37 53.4-54.8 40 1.96 13.6 16.7 5.2 16.7 5.2s-18.5 23.6-12.6 35.8c6.69 13.4 28.5 21.2 35.8 14.7-14.7 6.31-12.6-18.9-12.6-18.9s1.94-18 8.03-30.8c24.2-15.4 31.9-13.4 31.9-13.4s18.9 17.7 27.4 23.1c8.43 5.43 18.9 10.5 18.9 10.5s4.21 11.8 4.21 23.1c0 6.31-2.1 16.8-14.7 14.7 6.31 4.21 16.8 4.21 29.5-8.42 12.6-12.6 10.5-21 4.21-33.7 4.21 0 8.42 4.21 15.7-10.1-28.4 20.6-28.4-67.7-78.8-46.7-4.2 1.37-2.97 1.11-4.33 0.155 0.0095-0.0132 0.125-0.155 0.125-0.155-5.31-3.75-10.1-5.27-14.5-5.2z" fill="#605349"/><path d="m42.1 41s-16.1 14.9-19.6 31.7c-3.54 16.7 0.669 20.9 11.2 27.2-14.7-31.6 18.9-52.6 18.9-52.6z" fill="url(#linearGradient3572-6)"/><path d="m74.4 30.5c-11.3-25.4 19.6-38.8 33.7-12.6 0 0-13.7-15-26.3-8.7-12.6 6.31-7.35 21.3-7.35 21.3" fill="#5a4e45" fill-opacity=".825"/><path d="m90.1 33.5s23.8 21.1 27.4 37.9c3.54 16.7-2.1 33.7-16.8 37.9 25.3-21-23.1-69.4-23.1-69.4z" fill="url(#linearGradient3526-5)"/><path d="m30.2 55.8s-15.4 16.9-18.9 33.7c-3.54 16.7 4.21 25.3 14.7 27.4-14.7-12.6 4.21-46.3 4.21-46.3z" fill="url(#linearGradient3558-1)"/><g transform="matrix(1.13 0 0 1.16 .174 -2.26)"><path d="m47.5 25.8c-27 33.8-15.8 56.3 24.8 49.5-29.3-9.01-2.25-45-2.25-45z" fill="url(#linearGradient3542-3)"/><path d="m67.5 25.4c-13.5 36 0 56.3 40.5 54.1-18-2.25-27-40.5-22.5-45-7.71-8.49-18-9.01-18-9.01z" fill="url(#linearGradient3534-7)"/><path d="m31.7 25.8c-6.76 18-15.8 42.8 4.5 54.1-15.8-22.5 13.5-47.3 13.5-47.3z" fill="url(#linearGradient3550-1)"/></g><g><ellipse cx="72.1" cy="104" rx="5.6" ry="6.93" fill="#1e1006" style="paint-order:stroke fill markers"/><ellipse cx="39.7" cy="99.5" rx="5.25" ry="7.41" fill="#1e1006" style="paint-order:stroke fill markers"/><path d="m64 99.4s3.76-4.44 6.3-5.7c2.66-1.32 8.76-1.63 8.76-1.63s-7.02-0.833-9.95 0.74c-2.45 1.32-5.11 6.6-5.11 6.6z" fill="#867163"/></g><path d="m48.4 96.9c0-0.515-0.926-3.47-2.58-4.9-1.65-1.43-7.13-2.51-7.13-2.51s5.77-0.283 7.75 1.45c1.57 1.38 1.95 5.96 1.95 5.96z" fill="#1e1e1e" fill-opacity=".538"/><g><path d="m64.6 105c1.01-10.6 10.5-9.46 13.9-9.4s11 5.21 17 6.01c0 0-7.3 0.61-8.61 6.55-0.287-2.35-2.46-8.98-9.31-10 0 0-11.1-2.31-13 6.88z" fill="#453b34"/><path d="m47.2 101c0.363-5.32-4.22-8.41-8.36-8.28-4.14 0.135-5.55 4.75-4.17 8.32-1.04-2.38-1.22-5.77-3.86-6.1 2.56-0.728 4.85-4 7.8-4.04 2.95-0.0344 10.5 2.95 8.6 10.1z" fill="#453b34"/><path d="m46.7 119s1.42-1.21 2.58-1.15c0.884 0.0954 2.19 1.6 2.19 1.6s-0.64 2.79-2.02 2.73c-1.94-0.14-2.75-3.18-2.75-3.18z" fill="#a19289"/><ellipse cx="42.3" cy="96.7" rx=".759" ry="1.43" fill="#e3dbdb" style="paint-order:stroke fill markers"/><ellipse cx="74.4" cy="101" rx=".759" ry="1.43" fill="#e3dbdb" style="paint-order:stroke fill markers"/></g><ellipse cx="88.5" cy="120" rx="5.21" ry="3.54" fill="#ffa3a3" stroke-width="1.02" style="paint-order:stroke fill markers"/></svg>
