<?xml version="1.0" encoding="UTF-8" standalone="no"?>
<svg
   width="24"
   height="24"
   version="1.1"
   viewBox="0 0 6.36 6.36"
   id="svg1424"
   sodipodi:docname="avatar.svg"
   inkscape:version="1.1.2 (1:1.1+202202050942+0a00cf5339)"
   xmlns:inkscape="http://www.inkscape.org/namespaces/inkscape"
   xmlns:sodipodi="http://sodipodi.sourceforge.net/DTD/sodipodi-0.dtd"
   xmlns="http://www.w3.org/2000/svg"
   xmlns:svg="http://www.w3.org/2000/svg"
   xmlns:rdf="http://www.w3.org/1999/02/22-rdf-syntax-ns#"
   xmlns:cc="http://creativecommons.org/ns#"
   xmlns:dc="http://purl.org/dc/elements/1.1/">
  <defs
     id="defs1428" />
  <sodipodi:namedview
     id="namedview1426"
     pagecolor="#ffffff"
     bordercolor="#999999"
     borderopacity="1"
     inkscape:pageshadow="0"
     inkscape:pageopacity="0"
     inkscape:pagecheckerboard="0"
     showgrid="false"
     inkscape:zoom="10.59187"
     inkscape:cx="-4.4845715"
     inkscape:cy="-5.0510437"
     inkscape:window-width="1920"
     inkscape:window-height="940"
     inkscape:window-x="0"
     inkscape:window-y="0"
     inkscape:window-maximized="1"
     inkscape:current-layer="svg1424" />
  <metadata
     id="metadata1378">
    <rdf:RDF>
      <cc:Work
         rdf:about="">
        <dc:format>image/svg+xml</dc:format>
        <dc:type
           rdf:resource="http://purl.org/dc/dcmitype/StillImage" />
      </cc:Work>
    </rdf:RDF>
  </metadata>
  <g
     transform="translate(-45.39 -10.64)"
     fill="none"
     stroke-linecap="round"
     stroke-linejoin="round"
     id="g1394">
    <circle
       r="0"
       stroke="#c53822"
       stroke-width="2.26"
       style="paint-order:stroke markers fill"
       id="circle1380" />
    <g
       stroke="#924019"
       id="g1388">
      <circle
         r="0"
         stroke-width="1.29"
         style="paint-order:stroke markers fill"
         id="circle1382" />
      <circle
         transform="scale(1,-1)"
         r="0"
         stroke-width="3.6"
         style="paint-order:stroke markers fill"
         id="circle1384" />
      <circle
         transform="scale(1,-1)"
         r="0"
         stroke-width="3.6"
         style="paint-order:stroke markers fill"
         id="circle1386" />
    </g>
    <circle
       transform="scale(1,-1)"
       r="0"
       stroke="#4d4320"
       stroke-width="4.38"
       style="paint-order:stroke markers fill"
       id="circle1390" />
    <circle
       transform="scale(1,-1)"
       r="0"
       stroke="#4d4320"
       stroke-width="3.52"
       style="paint-order:stroke markers fill"
       id="circle1392" />
  </g>
  <ellipse
     transform="matrix(0.99964641,-0.02659066,0.05712108,0.99836726,0,0)"
     cx="2.9703741"
     cy="5.8301516"
     rx="0.36080599"
     ry="0.16916016"
     fill="#c2b5b8"
     stroke-width="0.0852282"
     id="ellipse1396" />
  <path
     d="m 5.60368,3.352016 c 0,0 0.426144,-0.716416 0.2525984,-1.383424 0.038106,-0.3699424 0.020381,-0.827584 0.020381,-0.827584 0,0 0.019269,-0.558928 -0.3872352,-0.5830144 C 5.0830432,0.5335984 4.081296,1.7870176 4.081296,1.7870176 L 3.9435712,2.400912 Z"
     fill="#4f473a"
     id="path1398"
     style="stroke-width:0.06176" />
  <path
     d="m 0.996384,3.46936 c 0,0 -0.5070496,-0.691712 -0.4094688,-1.364896 -0.080288,-0.3668544 -0.114256,-0.821408 -0.114256,-0.821408 0,0 -0.0827584,-0.55584 0.3199168,-0.60216 0.4026752,-0.0458877 1.544,1.148736 1.544,1.148736 l 0.206896,0.6046304 z"
     fill="#4f473a"
     id="path1400"
     style="stroke-width:0.06176" />
  <path
     d="M 5.60368,3.352016 C 5.643577,3.1259744 5.5030112,2.7875296 5.3893728,2.598544 5.4597792,2.2915968 5.4844832,2.1977216 5.5104224,2.0340576 5.282528,2.0837744 5.1225696,2.2131616 4.9576704,2.3348288 4.9343869,2.119904 4.9369808,2.0420864 4.8847936,1.7505792 4.7649792,1.8518656 4.634048,1.903744 4.5296736,2.1217568 4.3826848,2.085936 4.2431072,1.8753344 4.1177344,1.6424992 3.5736288,1.5840125 2.7713664,1.6359526 2.3884544,1.7258752 2.2451712,1.7594109 2.2569056,1.9970016 2.1395616,2.045792 1.8190272,1.8920096 1.7430624,1.8623648 1.6022496,1.783312 1.6794496,1.9815616 1.7270048,2.07976 1.8153216,2.21872 1.5960736,2.22133 1.4305568,2.153254 1.1915456,2.1143456 1.3477984,2.3632384 1.3867072,2.4280864 1.468848,2.5997792 1.2347776,2.6172572 1.067408,2.6905662 1.067408,2.6905662 1.052215,2.800499 1.060368,3.3946302 1.0566,3.4996222 c 0.3254752,0.5089024 0.4699936,0.889344 0.660832,1.20432 0.2180128,0.1679872 0.67936,0.3940288 0.67936,0.3940288 0,0 0.1531648,0.827584 0.938752,0.4514656 C 4.224888,5.826739 4.32988,5.0263294 4.32988,5.0263294 c 0,0 0.515696,-0.2451872 0.67936,-0.4298496 C 5.111144,4.253712 5.3631248,3.694784 5.5965776,3.348928 Z"
     fill="#ecf1f0"
     id="path1402"
     style="stroke-width:0.06176" />
  <path
     d="M 3.127104,3.104976 C 4.61552,3.086448 5.208416,4.08696 4.714336,4.599568 4.5593184,4.7613792 4.30672,5.0942656 4.072032,5.1424384 3.5328672,5.2536064 2.583616,5.4555616 1.972192,4.8367264 c -0.6126592,-0.6176 -0.086464,-1.66752 1.154912,-1.72928 z"
     fill="#c2b5b8"
     id="path1404"
     style="stroke-width:0.06176" />
  <path
     d="M 1.657216,3.784336 C 1.6406026,4.3315296 1.984544,4.438992 2.2420832,4.420464 2.4996224,4.3994038 2.6416704,4.0208768 2.5045632,3.8096576 2.367456,3.5984384 1.8499072,3.5941152 1.6584512,3.7836566 Z"
     fill="#3275ad"
     stroke="#000000"
     stroke-width="0.0441584px"
     id="path1410" />
  <ellipse
     transform="matrix(0.99202976,0.12600378,0.11098019,0.99382262,0,0)"
     cx="1.7430328"
     cy="3.7308149"
     rx="0.1000482"
     ry="0.28229359"
     fill="#171314"
     id="ellipse1412"
     style="stroke-width:0.0617646" />
  <path
     d="M 4.8008,3.710224 C 4.8798528,4.2549472 4.5494368,4.383408 4.2906624,4.377232 4.0312704,4.3698826 3.8472256,4.000496 3.9596288,3.7824832 4.072032,3.5644704 4.5834048,3.5329728 4.7995648,3.7114592 Z"
     fill="#3275ad"
     stroke="#000000"
     stroke-width="0.0441584px"
     id="path1414" />
  <ellipse
     transform="matrix(0.99098167,0.13399752,0.0225943,0.99974472,0,0)"
     cx="4.3037291"
     cy="3.3162277"
     rx="0.07164292"
     ry="0.27799097"
     fill="#171314"
     id="ellipse1416"
     style="stroke-width:0.0617685" />
  <ellipse
     transform="matrix(0.99313011,0.11701533,-0.09970171,0.99501737,0,0)"
     cx="2.3272378"
     cy="3.5428584"
     rx="0.096950501"
     ry="0.1031374"
     fill="#ffffff"
     fill-opacity="0.909"
     id="ellipse1418"
     style="stroke-width:0.0617554" />
  <ellipse
     transform="matrix(0.99313011,0.11701533,-0.09970171,0.99501737,0,0)"
     cx="4.5009046"
     cy="3.2587669"
     rx="0.096950501"
     ry="0.1031374"
     fill="#ffffff"
     fill-opacity="0.909"
     id="ellipse1420"
     style="stroke-width:0.0617554" />
  <g
     id="g1270"
     transform="matrix(0.06182738,0,0,0.06182738,-1.4432591,-1.7093024)">
    <path
       d="m 77.847921,86.254938 5.081635,14.844922 c 0.692144,2.1247 7.343723,3.10697 10.445565,7.84268 l -6.6144,12.272 c 0,0 -6.5208,1.8616 -10.2336,-0.20592 -5.6264,2.548 -9.9112,1.0296 -10.0048,0.52936 -0.09662,-0.4992 -4.1912,-10.0464 -4.1912,-10.0464 1.4458,-5.68981 7.240156,-9.05616 7.36008,-10.3272 l 3.4216,-14.768002 z"
       fill="#111012"
       id="path856"
       style="stroke-width:1.04"
       sodipodi:nodetypes="cccccccccc" />
    <path
       d="m 70.151921,113.71094 c -1.1024,2.9016 4.888,4.2432 4.888,4.2432 l 1.4352,3.1096 1.976,-3.536 c 0,0 6.864,-1.6952 5.3768,-4.6488 -6.2192,2.5584 -9.1624,2.5896 -13.728,0.83512 z"
       fill="#a16952"
       id="path858"
       style="stroke-width:1.04" />
  </g>
</svg>
