<?xml version="1.0" encoding="UTF-8"?>
<svg width="600mm" height="800mm" version="1.1" viewBox="0 0 601 801" xmlns="http://www.w3.org/2000/svg" xmlns:cc="http://creativecommons.org/ns#" xmlns:dc="http://purl.org/dc/elements/1.1/" xmlns:rdf="http://www.w3.org/1999/02/22-rdf-syntax-ns#">
 <metadata>
  <rdf:RDF>
   <cc:Work rdf:about="">
    <dc:format>image/svg+xml</dc:format>
    <dc:type rdf:resource="http://purl.org/dc/dcmitype/StillImage"/>
   </cc:Work>
  </rdf:RDF>
 </metadata>
 <g transform="translate(-45 -11)" fill="none" stroke-linecap="round" stroke-linejoin="round">
  <circle r="0" stroke="#c53822" stroke-width="2.3" style="paint-order:stroke markers fill"/>
  <g stroke="#924019">
   <circle r="0" stroke-width="1.3" style="paint-order:stroke markers fill"/>
   <circle transform="scale(1,-1)" r="0" stroke-width="3.6" style="paint-order:stroke markers fill"/>
   <circle transform="scale(1,-1)" r="0" stroke-width="3.6" style="paint-order:stroke markers fill"/>
  </g>
  <circle transform="scale(1,-1)" r="0" stroke="#4d4320" stroke-width="4.4" style="paint-order:stroke markers fill"/>
  <circle transform="scale(1,-1)" r="0" stroke="#4d4320" stroke-width="3.5" style="paint-order:stroke markers fill"/>
 </g>
 <g transform="matrix(1.1 0 0 1.1 -38 -121)">
  <path d="m340 398-185 105s-24 86-18 132c3.8 31 23 69 42 165l204 0.046c28-79 34-154 31-211-2.2-32-15-71-30-108-15-36-45-82-45-82z" fill="#e1e9e8" stroke-width=".94"/>
  <path d="m329 366-152 8.2-22 129s4.3 62 8.8 105c4.6 42 20 149 20 149l2.6 43 43-0.38 1.3-42s4.2-87 16-104c4.7 3.6 7.9 13 12 15-0.59-6.8 5-13 8.9-17 5.3 23 27 38 27 38s22 9.1 40-6c46-30 70-211 24-169 0.68-31-29-148-29-148z" fill="#ecf1f0" stroke-width=".94"/>
  <ellipse transform="matrix(1 -.027 .057 1 0 0)" cx="228" cy="393" rx="22" ry="10" fill="#c2b5b8" stroke-width="5.1"/>
  <g stroke-width="3.7">
   <path d="m388 280s26-43 15-83c2.3-22 1.2-50 1.2-50s1.2-34-23-35c-24-1.5-84 74-84 74l-8.3 37z" fill="#4f473a"/>
   <path d="m112 287s-30-42-25-82c-4.8-22-6.9-49-6.9-49s-5-33 19-36c24-2.8 93 69 93 69l12 36z" fill="#4f473a"/>
   <path d="m388 280c2.4-14-6-34-13-45 4.2-18 5.7-24 7.3-34-14 3-23 11-33 18-1.4-13-1.2-18-4.4-35-7.2 6.1-15 9.2-21 22-8.8-2.1-17-15-25-29-33-3.5-81-0.39-104 5-8.6 2-7.9 16-15 19-19-9.2-24-11-32-16 4.6 12 7.5 18 13 26-13 0.16-23-3.9-37-6.3 9.4 15 12 19 17 29-14 1-24 5.4-24 5.4-0.91 6.6-0.42 42-0.65 49 2.6 29 2 36 13 55 13 10 70 53 70 53 19 26 102 45 113-5.7 0 0 44-33 54-44 6.1-21 20-41 22-67z" fill="#ecf1f0"/>
   <path d="m240 228c103 0.36 128 53 97 102-9.3 9.7-22 33-50 30-5.8 45-64 52-74-3-18-2.6-26-3.7-40-15-37-37-27-111 67-115z" fill="#c2b5b8"/>
  </g>
  <path d="m151 269c-1 33 20 39 35 38 15-1.3 21-23 16-37-6.5-17-41-21-51-1.6z" fill="#3275ad" stroke="#000" stroke-width="2.6px"/>
  <ellipse transform="matrix(1 .082 .17 .99 0 0)" cx="136" cy="270" rx="9.2" ry="17" fill="#171314" stroke-width="4.6"/>
  <path d="m340 264c4.7 33-15 40-31 40-16-0.44-23-21-20-36 4-18 37-22 50-4.3z" fill="#3275ad" stroke="#000" stroke-width="2.6px"/>
  <ellipse transform="matrix(1 .063 .048 1 0 0)" cx="302" cy="255" rx="9.2" ry="17" fill="#171314" stroke-width="5.4"/>
  <ellipse transform="matrix(.99 .12 -.1 1 0 0)" cx="195" cy="248" rx="5.8" ry="6.2" fill="#fff" fill-opacity=".91" stroke-width="3.7"/>
  <ellipse transform="matrix(.99 .12 -.1 1 0 0)" cx="326" cy="231" rx="5.8" ry="6.2" fill="#fff" fill-opacity=".91" stroke-width="3.7"/>
  <g transform="matrix(3.6 0 0 3.6 -2.6 -30)">
   <path d="m90 149c-9.2 1.4 2.2 13 2.2 13l-3.3 11c-2 4.5-0.63 21 9.4 13 5.2-4.2 9.8-27 9.8-27l6.7-4.7s4.8-12-2.4-9.9c1.8-7.2-5.2-8.1-8.3-5-1.5-8.1-9.4-2.6-8.3 0.93-4-6.3-12-1.3-6 8.5z" fill="#c2b5b8" stroke-width=".27"/>
   <g fill="#4f473a" stroke-linejoin="bevel">
    <ellipse transform="rotate(-14)" cx="56" cy="161" rx="3.1" ry="4.6" stroke-width=".42"/>
    <ellipse transform="matrix(.96 -.28 .21 .98 0 0)" cx="57" cy="172" rx="1.9" ry="3.2" stroke-width=".27"/>
    <ellipse transform="rotate(4.9)" cx="112" cy="132" rx="3.1" ry="4.6" stroke-width=".42"/>
    <g transform="matrix(.67 0 0 .67 48 184)">
     <ellipse transform="matrix(.87 .49 -.39 .92 0 0)" cx="55" cy="-80" rx="5.5" ry="8.9" stroke-width=".79"/>
     <ellipse transform="matrix(.98 .19 -.16 .99 0 0)" cx="64" cy="-59" rx="4.4" ry="6.7" stroke-width=".61"/>
     <ellipse transform="matrix(.83 .55 -.52 .85 0 0)" cx="49" cy="-82" rx="4.4" ry="6.7" stroke-width=".61"/>
    </g>
    <ellipse transform="rotate(28)" cx="162" cy="76" rx="3.1" ry="4.6" stroke-width=".42"/>
    <ellipse transform="rotate(47)" cx="186" cy="20" rx="3.1" ry="4.6" stroke-width=".42"/>
   </g>
  </g>
  <path d="m383 744s69-115 82-180c13-66-2.5-200-2.5-200s29 40 37 86c7.7 46 8.5 135-4.9 188s-79 164-79 164l-34-0.99z" fill="#e1e9e8"/>
  <path d="m466 563-2.5-200s29 40 37 86c9.1 165-34 114-34 114z" fill="#c2b5b8"/>
  <path d="m225 365c7.2-5.9 24-10 24-10s24 0.47 26 13c-8.9 15-26 14-26 14s-17-3-25-17z" fill="#ff8080"/>
  <path d="m255 259 20 40 15 6 2.2 10 19 9.3s-15 28-24 35c-5.6 15-23 14-36-0.59-16 18-32 7.5-36 1.5-0.34-1.4-15-29-15-29l10-12-1.4-14 17-4.7 12-41z" fill="#111012" stroke-width="3.3"/>
  <path d="m228 327c-3.9 13 17 19 17 19l5.1 14 7-16s24-7.5 19-21c-20-2.9-33-1.5-49 3.7z" fill="#a16952" stroke-width="4.1"/>
 </g>
</svg>
