<?xml version="1.0" encoding="UTF-8" standalone="no"?>
<svg
   width="600"
   height="800"
   version="1.1"
   viewBox="0 0 159 212"
   id="svg878"
   sodipodi:docname="down.svg"
   inkscape:version="1.1.2 (1:1.1+202202050942+0a00cf5339)"
   xmlns:inkscape="http://www.inkscape.org/namespaces/inkscape"
   xmlns:sodipodi="http://sodipodi.sourceforge.net/DTD/sodipodi-0.dtd"
   xmlns="http://www.w3.org/2000/svg"
   xmlns:svg="http://www.w3.org/2000/svg"
   xmlns:rdf="http://www.w3.org/1999/02/22-rdf-syntax-ns#"
   xmlns:cc="http://creativecommons.org/ns#"
   xmlns:dc="http://purl.org/dc/elements/1.1/">
  <defs
     id="defs882" />
  <sodipodi:namedview
     id="namedview880"
     pagecolor="#ffffff"
     bordercolor="#999999"
     borderopacity="1"
     inkscape:pageshadow="0"
     inkscape:pageopacity="0"
     inkscape:pagecheckerboard="0"
     showgrid="false"
     inkscape:zoom="0.25"
     inkscape:cx="-910"
     inkscape:cy="-254"
     inkscape:window-width="1920"
     inkscape:window-height="940"
     inkscape:window-x="0"
     inkscape:window-y="0"
     inkscape:window-maximized="1"
     inkscape:current-layer="svg878"
     inkscape:snap-others="false"
     inkscape:snap-nodes="false" />
  <metadata
     id="metadata824">
    <rdf:RDF>
      <cc:Work
         rdf:about="">
        <dc:format>image/svg+xml</dc:format>
        <dc:type
           rdf:resource="http://purl.org/dc/dcmitype/StillImage" />
      </cc:Work>
    </rdf:RDF>
  </metadata>
  <g
     transform="translate(-45.386879,-10.638262)"
     fill="none"
     stroke-linecap="round"
     stroke-linejoin="round"
     id="g840">
    <circle
       r="0"
       stroke="#c53822"
       stroke-width="2.26"
       style="paint-order:stroke markers fill"
       id="circle826"
       cx="0"
       cy="0" />
    <g
       stroke="#924019"
       id="g834">
      <circle
         r="0"
         stroke-width="1.29"
         style="paint-order:stroke markers fill"
         id="circle828"
         cx="0"
         cy="0" />
      <circle
         transform="scale(1,-1)"
         r="0"
         stroke-width="3.6"
         style="paint-order:stroke markers fill"
         id="circle830"
         cx="0"
         cy="0" />
      <circle
         transform="scale(1,-1)"
         r="0"
         stroke-width="3.6"
         style="paint-order:stroke markers fill"
         id="circle832"
         cx="0"
         cy="0" />
    </g>
    <circle
       transform="scale(1,-1)"
       r="0"
       stroke="#4d4320"
       stroke-width="4.38"
       style="paint-order:stroke markers fill"
       id="circle836"
       cx="0"
       cy="0" />
    <circle
       transform="scale(1,-1)"
       r="0"
       stroke="#4d4320"
       stroke-width="3.52"
       style="paint-order:stroke markers fill"
       id="circle838"
       cx="0"
       cy="0" />
  </g>
  <g
     id="g3554"
     transform="matrix(-1,0,0,1,157.89822,-0.74953319)">
    <path
       d="m 100.52512,105.65614 -51.979199,29.4372 c 0,0 -5.996295,37.3932 -4.383879,50.388 1.07406,8.7516 8.160327,19.94304 10.255407,26.52 h 65.504401 c 3.28848,-7.10736 7.21344,-18.88224 6.47088,-25.0614 -0.93881,-7.956 -9.04332,-16.25676 -9.04332,-16.25676 0,0 -0.31029,-31.5588 -4.42884,-41.9016 -4.1106,-10.23672 -12.597,-23.12544 -12.597,-23.12544 z"
       fill="#e1e9e8"
       id="path842"
       style="stroke-width:0.2652"
       sodipodi:nodetypes="cccccccccc" />
    <path
       d="m 97.607921,95.843738 -45.084,5.277482 -3.68628,33.15 c 0,0 1.204008,17.47668 2.482272,29.4372 1.280916,11.90748 5.48964,41.9016 5.48964,41.9016 l 0.499765,6.32369 13.423235,0.0146 -0.726648,-6.33828 c 0,0 1.178003,-24.50233 4.516555,-29.06264 1.315168,1.01768 2.213279,3.54588 3.234987,4.12593 -0.165115,-1.92245 1.414731,-3.57202 2.485178,-4.87177 1.477022,6.43606 -0.354924,16.85138 -0.354924,16.85138 l -2.400676,11.87186 -0.515907,7.34396 h 17.42364 l 0.49062,-3.76584 c 0,0 13.976042,-41.6364 14.373842,-59.1396 C 109.6411,131.43359 97.696498,95.923308 97.696498,95.923308 Z"
       fill="#ecf1f0"
       id="path844"
       style="stroke-width:0.2652"
       sodipodi:nodetypes="ccccccccccccccccccc" />
  </g>
  <ellipse
     transform="matrix(0.99831175,0.05808313,-0.02755396,0.99962032,0,0)"
     cx="93.846725"
     cy="144.01608"
     rx="6.0757489"
     ry="2.8485518"
     fill="#c2b5b8"
     stroke-width="1.43519"
     id="ellipse846" />
  <path
     d="m 131.73876,112.5955 c 0,0 7.18796,-11.41359 5.22635,-22.852572 3.07218,-3.170946 10.17189,-4.456668 10.17189,-4.456668 0,0 3.75996,-4.829694 -2.30401,-8.004513 -7.51887,-4.564524 -35.90498,4.675831 -35.90498,4.675831 l -3.68913,12.314114 z"
     fill="#4f473a"
     id="path848"
     style="stroke-width:1.04"
     sodipodi:nodetypes="ccccccc" />
  <path
     d="m 54.265762,108.00017 c 0,0 -7.522267,-12.328653 -4.925839,-23.484977 -0.824476,-6.26984 -0.7468,-13.94519 -0.7468,-13.94519 0,0 -0.596669,-9.444348 6.225812,-9.647839 6.821865,-0.196238 24.270109,21.474454 24.270109,21.474454 l 2.61006,10.439868 z"
     fill="#4f473a"
     id="path850"
     style="stroke-width:1.04" />
  <path
     d="m 131.73876,112.5955 c 0.99149,-3.73591 -0.88487,-9.61494 -2.52235,-12.947833 1.61867,-5.049955 2.16693,-6.58989 2.83535,-9.299051 -3.89468,0.509505 -6.76296,2.452592 -9.70315,4.259105 -0.0845,-3.639396 0.0699,-4.941401 -0.39039,-9.906954 -2.15468,1.528779 -4.42548,2.212702 -6.4874,5.722031 -2.41529,-0.81046 -4.45721,-4.543007 -6.2291,-8.628373 -9.04622,-1.756564 -22.581384,-2.028084 -29.13438,-1.064828 -2.451929,0.358552 -2.593545,4.361805 -4.631974,5.013273 -5.159144,-3.036996 -6.391521,-3.642637 -8.641588,-5.169687 1.012882,3.43642 1.670902,5.151845 2.954786,7.609284 -3.682475,-0.268643 -6.362695,-1.646641 -10.317628,-2.640023 2.267155,4.398793 2.827613,5.542313 3.961234,8.540176 -3.952368,-0.04023 -6.86511,0.951366 -6.86511,0.951366 -0.411549,1.822916 -1.121251,11.803454 -1.334051,13.559744 4.736089,9.0026 6.618928,15.59193 9.372243,21.14881 3.418696,3.12927 10.837587,7.57933 10.837587,7.57933 0,0 1.39085,14.10425 15.108091,8.91263 14.52721,5.91995 17.42926,-7.36054 17.42926,-7.36054 0,0 9.0022,-3.37925 12.01141,-6.24452 2.19821,-5.60612 7.22253,-14.62536 11.63239,-20.09587 z"
     fill="#ecf1f0"
     id="path852"
     style="stroke-width:1.04" />
  <path
     d="m 90.536264,104.92191 c 25.000526,1.80975 33.523256,19.44206 24.502746,27.33918 -2.83159,2.49416 -7.54421,7.71977 -11.55068,8.19369 -9.20503,1.09712 -25.420249,3.13327 -34.797645,-8.12129 -9.399881,-11.2356 0.925022,-28.10251 21.842059,-27.37012 z"
     fill="#c2b5b8"
     id="path854"
     style="stroke-width:1.04" />
  <path
     d="m 94.037037,114.09099 3.89568,16.19568 c 0.956972,2.10046 7.727893,2.9089 9.656283,7.7243 l -8.554564,12.35494 c 0,0 -5.729355,0.61664 -9.253912,-1.7576 -5.821808,2.06282 -9.324135,1.11363 -9.375075,0.60727 -0.05403,-0.50559 -3.964803,-11.29129 -3.964803,-11.29129 -0.252484,-5.38207 7.374669,-7.02011 8.20746,-9.66745 l 4.658827,-14.42555 z"
     fill="#111012"
     id="path856"
     style="stroke-width:1.04"
     sodipodi:nodetypes="cccccccccc" />
  <path
     d="m 84.045627,140.7974 c -1.343946,2.79792 4.511464,4.64155 4.511464,4.64155 l 1.166955,3.21988 2.26809,-3.35614 c 0,0 6.982816,-1.10837 5.750848,-4.17721 -6.413362,2.02303 -9.348649,1.8051 -13.749434,-0.32937 z"
     fill="#a16952"
     id="path858"
     style="stroke-width:1.04" />
  <path
     style="color:#000000;fill:#3275ad;stroke-width:0.7436px;stroke-linejoin:bevel;-inkscape-stroke:none"
     d="m 63.786817,116.64036 c 1.721062,9.05656 7.767195,9.56982 11.933689,8.32664 4.157266,-1.28482 5.113072,-8.02559 2.089223,-10.99842 -3.023849,-2.97283 -11.548255,-1.15775 -14.005082,2.65611 z"
     id="path2636" />
  <path
     style="color:#000000;fill:#000000;stroke-linejoin:bevel;-inkscape-stroke:none"
     d="m 70.522744,112.38778 c -2.84821,0.56526 -5.620452,1.95427 -6.962618,3.95789 l -0.01945,0.0164 -0.0027,0.0111 -0.0019,6e-4 -0.113843,0.33637 c 0.875198,4.60546 2.888386,7.12854 5.250457,8.28986 2.362072,1.16133 5.010268,0.96205 7.154164,0.32236 l 0.0043,7.5e-4 c 2.246195,-0.69422 3.594585,-2.8426 3.992368,-5.15993 0.397784,-2.31734 -0.126116,-4.86024 -1.752185,-6.45887 -1.66345,-1.63538 -4.660837,-1.88946 -7.548651,-1.31635 z m 0.143756,0.72857 c 2.744553,-0.54469 5.522385,-0.22024 6.882782,1.1172 1.397777,1.3742 1.90502,3.68695 1.541546,5.80441 -0.363357,2.11678 -1.56783,3.98229 -3.477828,4.57353 -2.022257,0.60306 -4.480353,0.76957 -6.612608,-0.27877 -2.09979,-1.03237 -3.933633,-3.26477 -4.797473,-7.58016 1.166537,-1.72516 3.76285,-3.10023 6.463581,-3.63621 z"
     id="path2638" />
  <ellipse
     transform="matrix(0.98690707,0.16128989,0.03472558,0.99939689,0,0)"
     cx="71.138382"
     cy="106.46757"
     rx="2.1881797"
     ry="4.7548475"
     fill="#171314"
     id="ellipse862"
     style="stroke-width:1.18548" />
  <ellipse
     transform="matrix(0.97966856,0.20062279,-0.18353096,0.98301393,0,0)"
     cx="89.842651"
     cy="98.525681"
     rx="1.6325862"
     ry="1.7367698"
     fill="#ffffff"
     fill-opacity="0.909"
     id="ellipse870"
     style="stroke-width:1.03992" />
  <path
     style="color:#000000;fill:#3275ad;stroke-width:0.7436px;stroke-linejoin:bevel;-inkscape-stroke:none"
     d="m 118.53792,119.54167 c -1.86766,9.07877 -7.83568,9.22082 -11.89818,7.64107 -4.06556,-1.60186 -4.86464,-8.50533 -1.83614,-11.314 3.02849,-2.80867 11.3068,-0.37894 13.70769,3.68543 z"
     id="path2042" />
  <path
     style="color:#000000;fill:#000000;stroke-linejoin:bevel;-inkscape-stroke:none"
     d="m 111.99357,114.77526 c -2.81929,-0.78416 -5.76475,-0.73451 -7.44203,0.82103 -1.63756,1.5187 -2.20059,4.06274 -1.85732,6.43579 0.34328,2.37306 1.61419,4.63122 3.80872,5.49588 l 0.002,5.2e-4 c 2.09207,0.81352 4.69881,1.19848 7.05625,0.17147 2.35744,-1.02698 4.39157,-3.46737 5.34107,-8.08293 l -0.07,-0.25137 c -1.27913,-2.16536 -4.01925,-3.80622 -6.83855,-4.59038 z m -0.20048,0.71667 c 2.63847,0.73385 5.17528,2.31375 6.32266,4.17684 -0.93483,4.30874 -2.77996,6.44557 -4.85268,7.34851 -2.10848,0.91853 -4.51748,0.58516 -6.48757,-0.18057 -1.87103,-0.7372 -3.03093,-2.7314 -3.34646,-4.91271 -0.31554,-2.18131 0.23667,-4.49362 1.62761,-5.78359 1.3512,-1.25313 4.05924,-1.39312 6.73644,-0.64848 z"
     id="path2044"
     sodipodi:nodetypes="sssccsccssscscssss" />
  <ellipse
     transform="matrix(0.99158887,0.12942765,-0.10551444,0.99441777,0,0)"
     cx="124.40898"
     cy="104.54197"
     rx="2.0260799"
     ry="4.6983953"
     fill="#171314"
     id="ellipse866"
     style="stroke-width:1.35041" />
  <ellipse
     transform="matrix(0.97966856,0.20062279,-0.18353096,0.98301393,0,0)"
     cx="126.44585"
     cy="93.741753"
     rx="1.6325862"
     ry="1.7367698"
     fill="#ffffff"
     fill-opacity="0.909"
     id="ellipse872"
     style="stroke-width:1.03992" />
</svg>
