<?xml version="1.0" encoding="UTF-8" standalone="no"?>
<svg
   width="600"
   height="800"
   version="1.1"
   viewBox="0 0 159 212"
   id="svg878"
   sodipodi:docname="down.svg"
   inkscape:version="1.1.1 (1:1.1+202109281944+c3084ef5ed)"
   xmlns:inkscape="http://www.inkscape.org/namespaces/inkscape"
   xmlns:sodipodi="http://sodipodi.sourceforge.net/DTD/sodipodi-0.dtd"
   xmlns="http://www.w3.org/2000/svg"
   xmlns:svg="http://www.w3.org/2000/svg"
   xmlns:rdf="http://www.w3.org/1999/02/22-rdf-syntax-ns#"
   xmlns:cc="http://creativecommons.org/ns#"
   xmlns:dc="http://purl.org/dc/elements/1.1/">
  <defs
     id="defs882" />
  <sodipodi:namedview
     id="namedview880"
     pagecolor="#ffffff"
     bordercolor="#999999"
     borderopacity="1"
     inkscape:pageshadow="0"
     inkscape:pageopacity="0"
     inkscape:pagecheckerboard="0"
     showgrid="false"
     inkscape:zoom="0.35355339"
     inkscape:cx="-374.76659"
     inkscape:cy="912.16775"
     inkscape:window-width="1848"
     inkscape:window-height="1016"
     inkscape:window-x="0"
     inkscape:window-y="0"
     inkscape:window-maximized="1"
     inkscape:current-layer="svg878"
     inkscape:snap-others="false"
     inkscape:snap-nodes="false" />
  <metadata
     id="metadata824">
    <rdf:RDF>
      <cc:Work
         rdf:about="">
        <dc:format>image/svg+xml</dc:format>
        <dc:type
           rdf:resource="http://purl.org/dc/dcmitype/StillImage" />
      </cc:Work>
    </rdf:RDF>
  </metadata>
  <g
     transform="translate(-45.386879,-10.638262)"
     fill="none"
     stroke-linecap="round"
     stroke-linejoin="round"
     id="g840">
    <circle
       r="0"
       stroke="#c53822"
       stroke-width="2.26"
       style="paint-order:stroke markers fill"
       id="circle826"
       cx="0"
       cy="0" />
    <g
       stroke="#924019"
       id="g834">
      <circle
         r="0"
         stroke-width="1.29"
         style="paint-order:stroke markers fill"
         id="circle828"
         cx="0"
         cy="0" />
      <circle
         transform="scale(1,-1)"
         r="0"
         stroke-width="3.6"
         style="paint-order:stroke markers fill"
         id="circle830"
         cx="0"
         cy="0" />
      <circle
         transform="scale(1,-1)"
         r="0"
         stroke-width="3.6"
         style="paint-order:stroke markers fill"
         id="circle832"
         cx="0"
         cy="0" />
    </g>
    <circle
       transform="scale(1,-1)"
       r="0"
       stroke="#4d4320"
       stroke-width="4.38"
       style="paint-order:stroke markers fill"
       id="circle836"
       cx="0"
       cy="0" />
    <circle
       transform="scale(1,-1)"
       r="0"
       stroke="#4d4320"
       stroke-width="3.52"
       style="paint-order:stroke markers fill"
       id="circle838"
       cx="0"
       cy="0" />
  </g>
  <path
     d="m 100.52512,105.65614 -51.979199,29.4372 c 0,0 -5.996295,37.3932 -4.383879,50.388 1.07406,8.7516 8.160327,19.94304 10.255407,26.52 h 65.504401 c 3.28848,-7.10736 7.21344,-18.88224 6.47088,-25.0614 -0.93881,-7.956 -9.04332,-16.25676 -9.04332,-16.25676 0,0 -0.31029,-31.5588 -4.42884,-41.9016 -4.1106,-10.23672 -12.597,-23.12544 -12.597,-23.12544 z"
     fill="#e1e9e8"
     id="path842"
     style="stroke-width:0.2652"
     sodipodi:nodetypes="cccccccccc" />
  <path
     d="m 97.607921,95.843738 -45.084,5.277482 -3.68628,33.15 c 0,0 1.204008,17.47668 2.482272,29.4372 1.280916,11.90748 5.48964,41.9016 5.48964,41.9016 l 0.499765,6.32369 13.423235,0.0146 -0.726648,-6.33828 c 0,0 1.178003,-24.50233 4.516555,-29.06264 1.315168,1.01768 2.213279,3.54588 3.234987,4.12593 -0.165115,-1.92245 1.414731,-3.57202 2.485178,-4.87177 1.477022,6.43606 -0.354924,16.85138 -0.354924,16.85138 l -2.400676,11.87186 -0.515907,7.34396 h 17.42364 l 0.49062,-3.76584 c 0,0 13.976042,-41.6364 14.373842,-59.1396 C 109.6411,131.43359 97.696498,95.923308 97.696498,95.923308 Z"
     fill="#ecf1f0"
     id="path844"
     style="stroke-width:0.2652"
     sodipodi:nodetypes="ccccccccccccccccccc" />
  <g
     id="g1811"
     transform="translate(0,-6.438373)">
    <g
       id="g3963"
       transform="translate(-1.098003,32.997949)">
      <ellipse
         transform="matrix(0.99831175,0.05808313,-0.02755396,0.99962032,0,0)"
         cx="76.32016"
         cy="117.44699"
         rx="6.0757489"
         ry="2.8485518"
         fill="#c2b5b8"
         stroke-width="1.43519"
         id="ellipse846" />
      <path
         d="m 114.97386,85.018497 c 0,0 7.18796,-11.413593 5.22635,-22.852578 1.16646,-6.152972 6.83222,-12.629486 6.83222,-12.629486 0,0 0.12345,-5.456739 -5.94052,-8.631558 -6.78391,-0.988318 -28.9288,13.475694 -28.9288,13.475694 l -3.689124,12.314114 z"
         fill="#4f473a"
         id="path848"
         style="stroke-width:1.04"
         sodipodi:nodetypes="ccccccc" />
      <path
         d="m 37.500867,80.423162 c 0,0 -7.522267,-12.328654 -4.925839,-23.484978 -0.824476,-6.26984 -0.7468,-13.94519 -0.7468,-13.94519 0,0 -0.596669,-9.444348 6.225812,-9.647839 6.821865,-0.196238 24.270109,21.474454 24.270109,21.474454 l 2.61006,10.439868 z"
         fill="#4f473a"
         id="path850"
         style="stroke-width:1.04" />
      <path
         d="m 114.97386,85.018497 c 0.99149,-3.735908 -0.88487,-9.614944 -2.52235,-12.947839 1.61867,-5.049955 2.16693,-6.58989 2.83535,-9.299051 -3.89468,0.509505 -6.76296,2.452592 -9.70315,4.259105 -0.0845,-3.639396 0.0699,-4.941401 -0.39039,-9.906954 -2.15468,1.528779 -4.42548,2.212702 -6.487396,5.722031 -2.415289,-0.81046 -4.457206,-4.543007 -6.229104,-8.628373 -9.046218,-1.756564 -22.581379,-2.028084 -29.134375,-1.064828 -2.451929,0.358552 -2.593545,4.361805 -4.631974,5.013273 -5.159144,-3.036996 -6.391521,-3.642637 -8.641588,-5.169687 1.012882,3.43642 1.670902,5.151845 2.954786,7.609284 -3.682475,-0.268643 -6.362695,-1.646641 -10.317628,-2.640023 2.267155,4.398793 2.827613,5.542313 3.961234,8.540176 -3.952368,-0.04023 -6.86511,0.951366 -6.86511,0.951366 -0.411549,1.822916 -1.121251,11.803457 -1.334051,13.55975 4.736089,9.002593 6.618928,15.591925 9.372243,21.148803 3.418696,3.12927 10.837587,7.57933 10.837587,7.57933 0,0 1.39085,14.10425 15.108091,8.91263 14.527214,5.91995 17.429259,-7.36054 17.429259,-7.36054 0,0 9.002196,-3.37925 12.011406,-6.24452 2.19821,-5.606119 7.22253,-14.625361 11.63239,-20.095866 z"
         fill="#ecf1f0"
         id="path852"
         style="stroke-width:1.04" />
      <path
         d="m 73.771369,77.344909 c 25.000527,1.809741 33.523251,19.442059 24.502741,27.339171 -2.831581,2.49416 -7.544209,7.71977 -11.550673,8.19369 -9.205032,1.09712 -25.420251,3.13327 -34.797647,-8.12129 -9.399881,-11.235593 0.925022,-28.102501 21.842059,-27.37012 z"
         fill="#c2b5b8"
         id="path854"
         style="stroke-width:1.04" />
      <path
         d="m 77.272142,86.513981 3.89568,16.195679 3.830047,0.49744 0.814914,3.5553 5.011325,3.67156 -7.628996,11.66836 c 0,0 -6.654926,1.30322 -10.179483,-1.07102 -5.821808,2.06282 -9.962775,0.18733 -10.013715,-0.31903 -0.05403,-0.50559 -3.326163,-10.36499 -3.326163,-10.36499 l 3.19243,-4.03958 0.02968,-4.93438 4.98535,-0.69349 4.658827,-14.425546 z"
         fill="#111012"
         id="path856"
         style="stroke-width:1.04" />
      <path
         d="m 67.280732,113.22039 c -1.343946,2.79792 4.511464,4.64155 4.511464,4.64155 l 1.166955,3.21988 2.26809,-3.35614 c 0,0 6.982816,-1.10837 5.750848,-4.17721 -6.413362,2.02303 -9.348649,1.8051 -13.749434,-0.32937 z"
         fill="#a16952"
         id="path858"
         style="stroke-width:1.04" />
      <g
         id="g3944"
         transform="rotate(-17.352427,55.489778,91.520682)">
        <path
           style="color:#000000;fill:#3275ad;stroke-width:0.7436px;stroke-linejoin:bevel;-inkscape-stroke:none"
           d="m 48.140203,86.649664 c -1.058372,9.15769 4.559514,11.450833 8.907161,11.506881 4.351255,0.01356 7.273985,-6.135361 5.274398,-9.874751 -1.999586,-3.73939 -10.677377,-4.549307 -14.159866,-1.641769 z"
           id="path2636" />
        <path
           style="color:#000000;fill:#000000;stroke-linejoin:bevel;-inkscape-stroke:none"
           d="m 55.837891,84.599609 c -2.887169,-0.309945 -5.947513,0.189036 -7.826172,1.701172 l -0.02344,0.0098 -0.0059,0.0098 h -0.002 l -0.208985,0.28711 c -0.538205,4.656886 0.630857,7.665559 2.539063,9.478515 1.908206,1.812957 4.495313,2.412567 6.732422,2.441407 l 0.0039,0.002 c 2.351017,0.0073 4.278788,-1.641143 5.349609,-3.734375 1.070822,-2.093232 1.329181,-4.676651 0.253907,-6.6875 -1.099993,-2.057076 -3.885185,-3.193557 -6.8125,-3.507813 z m -0.08008,0.738282 c 2.782094,0.298665 5.336737,1.43683 6.236329,3.11914 0.924311,1.728537 0.718693,4.087318 -0.259766,6 -0.978146,1.912071 -2.684186,3.333444 -4.683594,3.328125 -2.110083,-0.02752 -4.505967,-0.601714 -6.228515,-2.238281 -1.696321,-1.611648 -2.780894,-4.289386 -2.31836,-8.666016 1.627972,-1.298727 4.516233,-1.836865 7.253906,-1.542968 z"
           id="path2638" />
      </g>
      <ellipse
         transform="matrix(0.98690707,0.16128989,0.03472558,0.99939689,0,0)"
         cx="53.142586"
         cy="81.220108"
         rx="2.1881797"
         ry="4.7548475"
         fill="#171314"
         id="ellipse862"
         style="stroke-width:1.18548" />
      <ellipse
         transform="matrix(0.97966856,0.20062279,-0.18353096,0.98301393,0,0)"
         cx="68.298019"
         cy="74.869186"
         rx="1.6325862"
         ry="1.7367698"
         fill="#ffffff"
         fill-opacity="0.909"
         id="ellipse870"
         style="stroke-width:1.03992" />
      <g
         id="g3938"
         transform="rotate(15.028408,93.499174,93.885463)">
        <path
           style="color:#000000;fill:#3275ad;stroke-width:0.7436px;stroke-linejoin:bevel;-inkscape-stroke:none"
           d="m 100.99198,89.884964 c 0.55033,9.25254 -5.17674,10.937226 -9.509915,10.464906 -4.341867,-0.492885 -6.90367,-6.953039 -4.707043,-10.450929 2.196627,-3.497889 10.821826,-3.297808 14.194478,0.005 z"
           id="path2042" />
        <path
           style="color:#000000;fill:#000000;stroke-linejoin:bevel;-inkscape-stroke:none"
           d="m 93.435547,86.978516 c -2.926202,-0.0263 -5.758043,0.785406 -6.97461,2.722656 -1.187753,1.891369 -1.071858,4.494385 -0.125,6.697265 0.946859,2.202881 2.759839,4.054263 5.103516,4.320313 h 0.002 c 2.231464,0.24323 4.848863,-0.0609 6.859375,-1.664063 2.010512,-1.603132 3.342282,-4.487499 3.062502,-9.191406 l -0.13281,-0.224607 c -1.796846,-1.759631 -4.868724,-2.633859 -7.794926,-2.660156 z m -0.0078,0.74414 c 2.738514,0.02461 5.598226,0.892674 7.189453,2.394531 0.2144,4.403768 -1.013549,6.945949 -2.78125,8.355469 -1.798193,1.433835 -4.211233,1.736514 -6.3125,1.507813 -1.998185,-0.226832 -3.635507,-1.852067 -4.505859,-3.876953 -0.870351,-2.024887 -0.936605,-4.401295 0.07227,-6.007813 0.980058,-1.560636 3.559179,-2.398019 6.33789,-2.373047 z"
           id="path2044"
           sodipodi:nodetypes="sssccsccssscscssss" />
      </g>
      <ellipse
         transform="matrix(0.99158887,0.12942765,-0.10551444,0.99441777,0,0)"
         cx="103.0977"
         cy="79.378838"
         rx="2.0260799"
         ry="4.6983953"
         fill="#171314"
         id="ellipse866"
         style="stroke-width:1.35041" />
      <ellipse
         transform="matrix(0.97966856,0.20062279,-0.18353096,0.98301393,0,0)"
         cx="104.90122"
         cy="70.085258"
         rx="1.6325862"
         ry="1.7367698"
         fill="#ffffff"
         fill-opacity="0.909"
         id="ellipse872"
         style="stroke-width:1.03992" />
    </g>
  </g>
</svg>
