<?xml version="1.0" encoding="UTF-8" standalone="no"?>
<svg
   width="600"
   height="800"
   version="1.1"
   viewBox="0 0 159 212"
   id="svg3430"
   sodipodi:docname="greeting.svg"
   inkscape:version="1.1.2 (1:1.1+202202050942+0a00cf5339)"
   xmlns:inkscape="http://www.inkscape.org/namespaces/inkscape"
   xmlns:sodipodi="http://sodipodi.sourceforge.net/DTD/sodipodi-0.dtd"
   xmlns="http://www.w3.org/2000/svg"
   xmlns:svg="http://www.w3.org/2000/svg"
   xmlns:rdf="http://www.w3.org/1999/02/22-rdf-syntax-ns#"
   xmlns:cc="http://creativecommons.org/ns#"
   xmlns:dc="http://purl.org/dc/elements/1.1/">
  <defs
     id="defs3434" />
  <sodipodi:namedview
     id="namedview3432"
     pagecolor="#ffffff"
     bordercolor="#999999"
     borderopacity="1"
     inkscape:pageshadow="0"
     inkscape:pageopacity="0"
     inkscape:pagecheckerboard="0"
     showgrid="false"
     inkscape:zoom="0.31775611"
     inkscape:cx="-429.57475"
     inkscape:cy="105.42677"
     inkscape:window-width="1920"
     inkscape:window-height="940"
     inkscape:window-x="0"
     inkscape:window-y="0"
     inkscape:window-maximized="1"
     inkscape:current-layer="svg3430" />
  <metadata
     id="metadata3354">
    <rdf:RDF>
      <cc:Work
         rdf:about="">
        <dc:format>image/svg+xml</dc:format>
        <dc:type
           rdf:resource="http://purl.org/dc/dcmitype/StillImage" />
      </cc:Work>
    </rdf:RDF>
  </metadata>
  <g
     transform="translate(-45.4 -10.5)"
     fill="none"
     stroke-linecap="round"
     stroke-linejoin="round"
     id="g3370">
    <circle
       r="0"
       stroke="#c53822"
       stroke-width="2.26"
       style="paint-order:stroke markers fill"
       id="circle3356" />
    <g
       stroke="#924019"
       id="g3364">
      <circle
         r="0"
         stroke-width="1.29"
         style="paint-order:stroke markers fill"
         id="circle3358" />
      <circle
         transform="scale(1,-1)"
         r="0"
         stroke-width="3.6"
         style="paint-order:stroke markers fill"
         id="circle3360" />
      <circle
         transform="scale(1,-1)"
         r="0"
         stroke-width="3.6"
         style="paint-order:stroke markers fill"
         id="circle3362" />
    </g>
    <circle
       transform="scale(1,-1)"
       r="0"
       stroke="#4d4320"
       stroke-width="4.38"
       style="paint-order:stroke markers fill"
       id="circle3366" />
    <circle
       transform="scale(1,-1)"
       r="0"
       stroke="#4d4320"
       stroke-width="3.52"
       style="paint-order:stroke markers fill"
       id="circle3368" />
  </g>
  <path
     d="m 96.17,142.99 -14.976,32.864 -1.2168,9.1624 c 0,0 -12.376,6.6248 -13.728,3.5568 -1.3728,-3.068 11.544,-37.232 11.544,-37.232 z"
     fill="#c1cdda"
     id="path3372"
     style="stroke-width:1.04" />
  <g
     fill="#4f473a"
     id="g3382"
     transform="matrix(1.04,0,0,1.04,-3.15,-3.65)">
    <path
       d="m 72.2,61.6 c 0,0 4.08,-33.4 10.8,-45.1 C 89.75,4.9 111.8,3.4 110.8,5.6 109.32,8.89 97.6,7.76 90,15 82.38,22.24 82.88,68.5 82.88,68.5 Z"
       id="path3374" />
    <path
       d="m 70.9,179 c -0.458,-0.687 -2.38,-0.756 -3.63,0.469 -1.25,1.22 -0.743,5.28 -0.15,6.27 0.594,0.989 3.45,0.846 3.88,-0.197 0.431,-1.04 0.356,-5.85 -0.102,-6.54 z"
       id="path3376" />
    <path
       d="m 64.2,159 c -0.0884,-0.942 -2.03,-2.04 -4,-1.46 -1.97,0.578 -3.71,4.96 -3.66,6.28 0.059,1.32 3.08,2.7 4.11,1.87 1.03,-0.828 3.64,-5.75 3.55,-6.7 z"
       id="path3378" />
    <path
       d="m 68.2,160 c -0.0884,-0.942 -2.03,-2.04 -4,-1.46 -1.97,0.578 -3.71,4.96 -3.66,6.28 0.059,1.32 3.08,2.7 4.11,1.87 1.03,-0.828 3.64,-5.75 3.55,-6.7 z"
       id="path3380" />
  </g>
  <path
     d="m 78.802,145.07 c 0,0 -2.6208,9.6824 -2.132,16.64 -0.29016,5.3976 3.7752,18.2 6.6976,24.232 1.5392,6.2296 2.8288,13 2.8288,13 l 2.2984,3.1096 0.12272,2.5064 -17.056,0.8996 -1.092,-14.56 -9.4432,-25.376 -1.7576,-22.152 c 0,0 -8.3824,-10.92 -10.816,-33.072 -2.4752,-22.152 23.504,-49.92 23.504,-49.92 l 11.128,7.124 14.976,60.84 z"
     fill="#e1e9e8"
     id="path3384"
     style="stroke-width:1.04" />
  <path
     d="m 71.522,205.39 1.5288,-9.7448 c 1.2064,-3.3488 6.9472,-11.232 13.104,3.2344 l 2.2984,3.1096 0.12272,2.5064 z"
     fill="#bbadb0"
     id="path3386"
     style="stroke-width:1.04" />
  <g
     fill="#4f473a"
     id="g3396"
     transform="matrix(1.04,0,0,1.04,-3.15,-3.65)">
    <path
       d="m 84.2,199 c -0.805,0.691 0.019,5.25 1.58,6.33 0.681,0.336 3.42,-0.0429 3.64,-0.936 0.274,-1.36 -1.12,-4.6 -2.27,-5.45 -1.15,-0.85 -2.03,-0.55 -2.94,0.0536 z"
       id="path3388" />
    <path
       d="m 84.2,199 c -0.662,-0.699 -1.73,-1.43 -3.98,-0.897 -2.26,0.532 -0.0549,5.66 0.468,7.14 0.523,1.48 4.3,0.5 4.69,-0.549 0.388,-1.05 -0.509,-4.99 -1.17,-5.69 z"
       id="path3390" />
    <path
       d="m 79.3,199 c -0.373,-0.913 -3.6,-0.604 -4.1,0.198 -0.5,0.802 -0.469,5.73 0.171,6.79 0.64,1.06 5.24,0.88 5.37,-0.391 0.131,-1.27 -1.07,-5.68 -1.44,-6.59 z"
       id="path3392" />
    <path
       d="m 75.2,199 c -0.458,-0.687 -2.38,-0.756 -3.63,0.469 -1.25,1.22 -0.743,5.28 -0.15,6.27 0.594,0.989 3.45,0.846 3.88,-0.197 0.431,-1.04 0.356,-5.85 -0.102,-6.54 z"
       id="path3394" />
  </g>
  <path
     d="m 98.514256,108.63657 c 2.392004,13.312 11.722494,22.8515 -4.382656,38.72143 -9.1208,7.3632 -30.992,3.484 -36.192,-6.2296 -5.2312,-9.724 4.1496,-21.944 11.856,-27.04 7.6856,-5.0856 21.854656,-12.55607 28.718656,-5.45183 z"
     fill="#e1e9e8"
     id="path3398"
     style="stroke-width:1.04"
     sodipodi:nodetypes="cccccc" />
  <ellipse
     transform="matrix(0.99124536,-0.13203268,0.16990692,0.98546012,0,0)"
     cx="78.985664"
     cy="143.14632"
     rx="4.6788416"
     ry="2.0291111"
     fill="#c2b5b8"
     stroke-width="1.06096"
     id="ellipse3400" />
  <path
     d="m 129.19542,99.214976 c 0,0 4.576,-9.1416 1.4768,-16.744 0.0138,-4.4512 -0.80496,-9.8384 -0.80496,-9.8384 0,0 -0.47424,-6.6664 -5.7616,-6.3856 -5.2832,0.28184 -16.64,16.536 -16.64,16.536 l -0.98176,7.488 z"
     fill="#4f473a"
     id="path3402"
     style="stroke-width:1.04" />
  <path
     d="m 69.915421,106.70298 c 0,0 -7.4464,-7.540004 -7.0512,-15.600004 -1.508,-4.2432 -2.5376,-9.6096 -2.5376,-9.6096 0,0 -1.7888,-6.4896 3.3488,-7.6024 5.1376,-1.1128 21.424,11.44 21.424,11.44 l 3.4528,6.8952 z"
     fill="#4f473a"
     id="path3404"
     style="stroke-width:1.04" />
  <path
     d="m 129.19542,99.214976 c 0.22256,-2.7456 -2.028,-6.5624 -3.744,-8.632 0.5096,-3.744 0.70928,-4.8984 0.82992,-6.8744 -2.8808,0.91104 -4.7736,2.6728 -6.7496,4.3472 -0.57824,-2.5168 -0.64584,-3.4528 -1.6952,-6.8432 -1.4144,1.3728 -3.0368,2.1736 -4.0976,4.9088 -1.9448,-0.21944 -4.0144,-2.5272 -5.9384,-5.1168 -7.1032,0.06978 -17.367999,1.8096 -22.151999,3.4112 -1.8096,0.60008 -1.352,3.4112 -2.7976,4.1496 -4.3368,-1.3728 -5.356,-1.6224 -7.28,-2.3608 1.248,2.2464 1.9968,3.3488 3.3176,4.8776 -2.8288,0.33904 -5.0544,-0.234 -8.1848,-0.36504 2.34,2.7456 2.9224,3.4528 4.212,5.3768 -3.0056,0.53664 -5.0648,1.6432 -5.0648,1.6432 -0.05387,1.3312 0.8164,8.351204 0.90896,9.640804 4.8568,5.5848 7.2176,9.9112 10.0984,13.416 3.0368,1.6952 9.2456,3.7336 9.2456,3.7336 0,0 3.0472,9.6304 12.687999,4.0456 11.856,2.0384 12.168,-7.6232 12.168,-7.6232 0,0 6.344,-3.64 8.2472,-6.0632 0.87152,-4.2224 3.4008,-11.232 5.9696,-15.600004 z"
     fill="#ecf1f0"
     id="path3406"
     style="stroke-width:1.04" />
  <path
     d="m 97.059421,99.734976 c 19.239999,-2.3088 28.079999,8.725604 22.463999,15.496004 -1.7992,2.1424 -4.628,6.448 -7.5504,7.3424 -6.812,2.08 -18.823999,5.8136 -27.559999,-0.67912 -8.7152,-6.5 -3.2656,-19.656 12.688,-22.152004 z"
     fill="#c2b5b8"
     id="path3408"
     style="stroke-width:1.04" />
  <path
     d="m 105.3501,105.87606 3.96112,9.09894 c 0.56117,1.63436 4.3251,1.48224 5.241,5.40086 l -1.46273,9.13029 c 0,0 -3.44325,1.63926 -6.44885,0.4859 -4.1184,2.2672 -9.224438,1.99941 -9.338838,1.65621 -0.11232,-0.34424 -6.357581,-6.89296 -6.357581,-6.89296 0.806533,-7.63285 8.164152,-6.12468 8.525052,-8.32868 l 1.755847,-9.96565 z"
     fill="#111012"
     id="path3410"
     style="stroke-width:1.04"
     sodipodi:nodetypes="cccccccccc" />
  <path
     d="m 101.23264,125.33285 c -0.62296,2.1424 4.0664,2.5896 4.0664,2.5896 l 1.3416,2.0696 1.248,-2.6624 c 0,0 5.1272,-1.768 3.7648,-3.7336 -4.576,2.3296 -6.8224,2.5896 -10.4,1.7264 z"
     fill="#a16952"
     id="path3412"
     style="stroke-width:1.04" />
  <path
     d="m 120.06295,101.89568 c 1.49459,6.3648 -2.05281,8.3512 -4.96096,8.632 -2.90814,0.27768 -5.38413,-3.8584 -4.36673,-6.604 1.00841,-2.7456 6.71666,-3.8376 9.3637,-2.028 z"
     fill="#4b79a4"
     stroke="#000000"
     stroke-width="0.511893px"
     id="path3418" />
  <ellipse
     transform="matrix(0.99988298,0.01529821,0.1330153,0.99111398,0,0)"
     cx="101.96367"
     cy="104.5966"
     rx="0.92882872"
     ry="3.3172185"
     fill="#171314"
     id="ellipse3420"
     style="stroke-width:1.04" />
  <path
     d="m 82.898082,107.7483 c 1.357403,6.39697 6.009643,6.61101 9.195291,5.56361 3.185786,-1.04636 3.890331,-5.87473 1.561094,-7.90165 -2.329238,-2.02693 -8.83582,-0.4701 -10.808198,2.3429 z"
     fill="#4b79a4"
     stroke="#000000"
     stroke-width="0.55016px"
     id="path3414" />
  <ellipse
     transform="matrix(0.9936231,0.11275256,0.12348328,0.99234665,0,0)"
     cx="78.910919"
     cy="100.09336"
     rx="1.3000398"
     ry="3.3803465"
     fill="#171314"
     id="ellipse3416"
     style="stroke-width:1.04007" />
  <ellipse
     cx="71.75444"
     cy="117.83301"
     rx="1.2584001"
     ry="1.2376001"
     fill="#ffffff"
     fill-opacity="0.909"
     id="ellipse3424"
     style="stroke-width:1.04"
     transform="rotate(-7.6569255)" />
  <ellipse
     cx="112.12714"
     cy="104.81286"
     rx="1.2584001"
     ry="1.2376001"
     fill="#ffffff"
     fill-opacity="0.909"
     id="ellipse3426"
     style="stroke-width:1.04" />
</svg>
