<?xml version="1.0" encoding="UTF-8"?>
<svg width="600" height="800" version="1.1" viewBox="0 0 159 212" xmlns="http://www.w3.org/2000/svg" xmlns:cc="http://creativecommons.org/ns#" xmlns:dc="http://purl.org/dc/elements/1.1/" xmlns:rdf="http://www.w3.org/1999/02/22-rdf-syntax-ns#">
 <metadata>
  <rdf:RDF>
   <cc:Work rdf:about="">
    <dc:format>image/svg+xml</dc:format>
    <dc:type rdf:resource="http://purl.org/dc/dcmitype/StillImage"/>
   </cc:Work>
  </rdf:RDF>
 </metadata>
 <g transform="translate(-45.4 -10.5)" fill="none" stroke-linecap="round" stroke-linejoin="round">
  <circle r="0" stroke="#c53822" stroke-width="2.26" style="paint-order:stroke markers fill"/>
  <g stroke="#924019">
   <circle r="0" stroke-width="1.29" style="paint-order:stroke markers fill"/>
   <circle transform="scale(1,-1)" r="0" stroke-width="3.6" style="paint-order:stroke markers fill"/>
   <circle transform="scale(1,-1)" r="0" stroke-width="3.6" style="paint-order:stroke markers fill"/>
  </g>
  <circle transform="scale(1,-1)" r="0" stroke="#4d4320" stroke-width="4.38" style="paint-order:stroke markers fill"/>
  <circle transform="scale(1,-1)" r="0" stroke="#4d4320" stroke-width="3.52" style="paint-order:stroke markers fill"/>
 </g>
 <g transform="matrix(1.04 0 0 1.04 -3.15 -3.65)">
  <path d="m95.5 141-14.4 31.6-1.17 8.81s-11.9 6.37-13.2 3.42c-1.32-2.95 11.1-35.8 11.1-35.8z" fill="#c1cdda"/>
  <g fill="#4f473a">
   <path d="m72.2 61.6s4.08-33.4 10.8-45.1c6.75-11.6 28.8-13.1 27.8-10.9-1.48 3.29-13.2 2.16-20.8 9.4-7.62 7.24-7.12 53.5-7.12 53.5z"/>
   <path d="m70.9 179c-0.458-0.687-2.38-0.756-3.63 0.469-1.25 1.22-0.743 5.28-0.15 6.27 0.594 0.989 3.45 0.846 3.88-0.197 0.431-1.04 0.356-5.85-0.102-6.54z"/>
   <path d="m64.2 159c-0.0884-0.942-2.03-2.04-4-1.46-1.97 0.578-3.71 4.96-3.66 6.28 0.059 1.32 3.08 2.7 4.11 1.87 1.03-0.828 3.64-5.75 3.55-6.7z"/>
   <path d="m68.2 160c-0.0884-0.942-2.03-2.04-4-1.46-1.97 0.578-3.71 4.96-3.66 6.28 0.059 1.32 3.08 2.7 4.11 1.87 1.03-0.828 3.64-5.75 3.55-6.7z"/>
  </g>
  <path d="m78.8 143s-2.52 9.31-2.05 16c-0.279 5.19 3.63 17.5 6.44 23.3 1.48 5.99 2.72 12.5 2.72 12.5l2.21 2.99 0.118 2.41-16.4 0.865-1.05-14-9.08-24.4-1.69-21.3s-8.06-10.5-10.4-31.8c-2.38-21.3 22.6-48 22.6-48l10.7 6.85 14.4 58.5z" fill="#e1e9e8"/>
  <path d="m71.8 201 1.47-9.37c1.16-3.22 6.68-10.8 12.6 3.11l2.21 2.99 0.118 2.41z" fill="#bbadb0"/>
  <g fill="#4f473a">
   <path d="m84.2 199c-0.805 0.691 0.019 5.25 1.58 6.33 0.681 0.336 3.42-0.0429 3.64-0.936 0.274-1.36-1.12-4.6-2.27-5.45-1.15-0.85-2.03-0.55-2.94 0.0536z"/>
   <path d="m84.2 199c-0.662-0.699-1.73-1.43-3.98-0.897-2.26 0.532-0.0549 5.66 0.468 7.14 0.523 1.48 4.3 0.5 4.69-0.549 0.388-1.05-0.509-4.99-1.17-5.69z"/>
   <path d="m79.3 199c-0.373-0.913-3.6-0.604-4.1 0.198s-0.469 5.73 0.171 6.79c0.64 1.06 5.24 0.88 5.37-0.391 0.131-1.27-1.07-5.68-1.44-6.59z"/>
   <path d="m75.2 199c-0.458-0.687-2.38-0.756-3.63 0.469-1.25 1.22-0.743 5.28-0.15 6.27 0.594 0.989 3.45 0.846 3.88-0.197 0.431-1.04 0.356-5.85-0.102-6.54z"/>
  </g>
  <g>
   <path d="m94.9 113c2.3 12.8 7.41 25.2-1.36 32.2-8.77 7.08-29.8 3.35-34.8-5.99-5.03-9.35 3.99-21.1 11.4-26 7.39-4.89 18.2-7.11 24.8-0.279z" fill="#e1e9e8"/>
   <ellipse transform="matrix(.991 -.132 .17 .986 0 0)" cx="68.6" cy="138" rx="4.5" ry="1.95" fill="#c2b5b8" stroke-width="1.02"/>
   <path d="m117 96.8s4.4-8.79 1.42-16.1c0.0133-4.28-0.774-9.46-0.774-9.46s-0.456-6.41-5.54-6.14c-5.08 0.271-16 15.9-16 15.9l-0.944 7.2z" fill="#4f473a"/>
   <path d="m60 104s-7.16-7.25-6.78-15c-1.45-4.08-2.44-9.24-2.44-9.24s-1.72-6.24 3.22-7.31c4.94-1.07 20.6 11 20.6 11l3.32 6.63z" fill="#4f473a"/>
   <path d="m117 96.8c0.214-2.64-1.95-6.31-3.6-8.3 0.49-3.6 0.682-4.71 0.798-6.61-2.77 0.876-4.59 2.57-6.49 4.18-0.556-2.42-0.621-3.32-1.63-6.58-1.36 1.32-2.92 2.09-3.94 4.72-1.87-0.211-3.86-2.43-5.71-4.92-6.83 0.0671-16.7 1.74-21.3 3.28-1.74 0.577-1.3 3.28-2.69 3.99-4.17-1.32-5.15-1.56-7-2.27 1.2 2.16 1.92 3.22 3.19 4.69-2.72 0.326-4.86-0.225-7.87-0.351 2.25 2.64 2.81 3.32 4.05 5.17-2.89 0.516-4.87 1.58-4.87 1.58-0.0518 1.28 0.785 8.03 0.874 9.27 4.67 5.37 6.94 9.53 9.71 12.9 2.92 1.63 8.89 3.59 8.89 3.59s2.93 9.26 12.2 3.89c11.4 1.96 11.7-7.33 11.7-7.33s6.1-3.5 7.93-5.83c0.838-4.06 3.27-10.8 5.74-15z" fill="#ecf1f0"/>
   <path d="m86.1 97.3c18.5-2.22 27 8.39 21.6 14.9-1.73 2.06-4.45 6.2-7.26 7.06-6.55 2-18.1 5.59-26.5-0.653-8.38-6.25-3.14-18.9 12.2-21.3z" fill="#c2b5b8"/>
   <path d="m89.8 103 5.04 10.3 2.86-0.193 1.07 2.27 4.15 1.77-3.97 8.85s-4.67 1.79-7.56 0.681c-3.96 2.18-7.23 1.49-7.34 1.16-0.108-0.331-3.83-6.48-3.83-6.48l1.77-3.14-0.649-3.3 3.54-1.15 1.43-10.3z" fill="#111012"/>
   <path d="m86.2 122c-0.599 2.06 3.91 2.49 3.91 2.49l1.29 1.99 1.2-2.56s4.93-1.7 3.62-3.59c-4.4 2.24-6.56 2.49-10 1.66z" fill="#a16952"/>
   <path d="m68.6 107c0.474 6.27 4.88 7.07 8.05 6.48 3.17-0.589 4.46-5.1 2.5-7.33-1.96-2.23-8.36-1.58-10.6 0.848z" fill="#4b79a4" stroke="#000" stroke-width=".529px"/>
   <ellipse transform="matrix(1 .00782 .227 .974 0 0)" cx="49.7" cy="111" rx="1.25" ry="3.25" fill="#171314"/>
   <path d="m107 102c1.66 6.12-2.28 8.03-5.51 8.3-3.23 0.267-5.98-3.71-4.85-6.35 1.12-2.64 7.46-3.69 10.4-1.95z" fill="#4b79a4" stroke="#000" stroke-width=".529px"/>
   <ellipse transform="matrix(1 .0153 .133 .991 0 0)" cx="88.3" cy="104" rx=".893" ry="3.19" fill="#171314"/>
  </g>
  <ellipse cx="72.4" cy="107" rx="1.21" ry="1.19" fill="#fff" fill-opacity=".909"/>
  <ellipse cx="99.7" cy="104" rx="1.21" ry="1.19" fill="#fff" fill-opacity=".909"/>
 </g>
</svg>
