<?xml version="1.0" encoding="UTF-8" standalone="no"?>
<svg
   width="600"
   height="800"
   version="1.1"
   viewBox="0 0 159 212"
   id="svg878"
   sodipodi:docname="peace.svg"
   inkscape:version="1.1.1 (1:1.1+202109281944+c3084ef5ed)"
   xmlns:inkscape="http://www.inkscape.org/namespaces/inkscape"
   xmlns:sodipodi="http://sodipodi.sourceforge.net/DTD/sodipodi-0.dtd"
   xmlns="http://www.w3.org/2000/svg"
   xmlns:svg="http://www.w3.org/2000/svg"
   xmlns:rdf="http://www.w3.org/1999/02/22-rdf-syntax-ns#"
   xmlns:cc="http://creativecommons.org/ns#"
   xmlns:dc="http://purl.org/dc/elements/1.1/">
  <defs
     id="defs882" />
  <sodipodi:namedview
     id="namedview880"
     pagecolor="#ffffff"
     bordercolor="#999999"
     borderopacity="1"
     inkscape:pageshadow="0"
     inkscape:pageopacity="0"
     inkscape:pagecheckerboard="0"
     showgrid="false"
     inkscape:zoom="1"
     inkscape:cx="425.5"
     inkscape:cy="380.5"
     inkscape:window-width="1848"
     inkscape:window-height="1016"
     inkscape:window-x="0"
     inkscape:window-y="0"
     inkscape:window-maximized="1"
     inkscape:current-layer="svg878" />
  <metadata
     id="metadata824">
    <rdf:RDF>
      <cc:Work
         rdf:about="">
        <dc:format>image/svg+xml</dc:format>
        <dc:type
           rdf:resource="http://purl.org/dc/dcmitype/StillImage" />
      </cc:Work>
    </rdf:RDF>
  </metadata>
  <g
     id="g1823"
     transform="translate(0.01312141,-0.1382621)">
    <g
       transform="translate(-45.4,-10.5)"
       fill="none"
       stroke-linecap="round"
       stroke-linejoin="round"
       id="g840">
      <circle
         r="0"
         stroke="#c53822"
         stroke-width="2.26"
         style="paint-order:stroke markers fill"
         id="circle826"
         cx="0"
         cy="0" />
      <g
         stroke="#924019"
         id="g834">
        <circle
           r="0"
           stroke-width="1.29"
           style="paint-order:stroke markers fill"
           id="circle828"
           cx="0"
           cy="0" />
        <circle
           transform="scale(1,-1)"
           r="0"
           stroke-width="3.6"
           style="paint-order:stroke markers fill"
           id="circle830"
           cx="0"
           cy="0" />
        <circle
           transform="scale(1,-1)"
           r="0"
           stroke-width="3.6"
           style="paint-order:stroke markers fill"
           id="circle832"
           cx="0"
           cy="0" />
      </g>
      <circle
         transform="scale(1,-1)"
         r="0"
         stroke="#4d4320"
         stroke-width="4.38"
         style="paint-order:stroke markers fill"
         id="circle836"
         cx="0"
         cy="0" />
      <circle
         transform="scale(1,-1)"
         r="0"
         stroke="#4d4320"
         stroke-width="3.52"
         style="paint-order:stroke markers fill"
         id="circle838"
         cx="0"
         cy="0" />
    </g>
    <path
       d="m 100.512,105.7944 -51.9792,29.4372 c 0,0 -5.996295,37.3932 -4.383879,50.388 1.07406,8.7516 8.160327,19.94304 10.255407,26.52 h 65.504402 c 3.28848,-7.10736 7.21344,-18.88224 6.47088,-25.0614 -0.93881,-7.956 -9.04332,-16.25676 -9.04332,-16.25676 0,0 -0.31029,-31.5588 -4.42884,-41.9016 -4.1106,-10.23672 -12.597,-23.12544 -12.597,-23.12544 z"
       fill="#e1e9e8"
       id="path842"
       style="stroke-width:0.2652"
       sodipodi:nodetypes="cccccccccc" />
    <path
       d="m 97.5948,95.982 -45.084,5.27748 -3.68628,33.15 c 0,0 1.204008,17.47668 2.482272,29.4372 1.280916,11.90748 5.48964,41.9016 5.48964,41.9016 l 0.499765,6.32369 13.423235,0.0146 -0.726648,-6.33828 c 0,0 1.178003,-24.50233 4.516555,-29.06264 1.315168,1.01768 2.213279,3.54588 3.234987,4.12593 -0.165115,-1.92245 1.414731,-3.57202 2.485178,-4.87177 1.477022,6.43606 -0.354924,16.85138 -0.354924,16.85138 l -2.400676,11.87186 -0.515907,7.34396 h 17.42364 l 0.49062,-3.76584 c 0,0 13.976043,-41.6364 14.373843,-59.1396 0.38188,-17.52972 -11.562723,-53.04 -11.562723,-53.04 z"
       fill="#ecf1f0"
       id="path844"
       style="stroke-width:0.2652"
       sodipodi:nodetypes="ccccccccccccccccccc" />
    <g
       transform="matrix(1.04,0,0,1.04,-7.4452,-5.7508)"
       id="g874">
      <g
         id="g868">
        <ellipse
           transform="matrix(1,-0.0266,0.0571,0.998,0,0)"
           cx="73.599998"
           cy="125"
           rx="5.8400002"
           ry="2.74"
           fill="#c2b5b8"
           stroke-width="1.38"
           id="ellipse846" />
        <path
           d="m 118,84.1 c 0,0 6.9,-11.6 4.09,-22.4 0.617,-5.99 0.33,-13.4 0.33,-13.4 0,0 0.312,-9.05 -6.27,-9.44 -6.58,-0.395 -22.8,19.9 -22.8,19.9 l -2.23,9.94 z"
           fill="#4f473a"
           id="path848" />
        <path
           d="m 43.4,86 c 0,0 -8.21,-11.2 -6.63,-22.1 -1.3,-5.94 -1.85,-13.3 -1.85,-13.3 0,0 -1.34,-9 5.18,-9.75 6.52,-0.743 25,18.6 25,18.6 l 3.35,9.79 z"
           fill="#4f473a"
           id="path850" />
        <path
           d="m 118,84.1 c 0.646,-3.66 -1.63,-9.14 -3.47,-12.2 1.14,-4.97 1.54,-6.49 1.96,-9.14 -3.69,0.805 -6.28,2.9 -8.95,4.87 -0.377,-3.48 -0.335,-4.74 -1.18,-9.46 -1.94,1.64 -4.06,2.48 -5.75,6.01 -2.38,-0.58 -4.64,-3.99 -6.67,-7.76 -8.81,-0.947 -21.8,-0.106 -28,1.35 -2.32,0.543 -2.13,4.39 -4.03,5.18 -5.19,-2.49 -6.42,-2.97 -8.7,-4.25 1.25,3.21 2.02,4.8 3.45,7.05 -3.55,0.0422 -6.23,-1.06 -10.1,-1.69 2.53,4.03 3.16,5.08 4.49,7.86 -3.79,0.283 -6.5,1.47 -6.5,1.47 -0.246,1.78 -0.114,11.4 -0.175,13.1 5.27,8.24 7.61,14.4 10.7,19.5 3.53,2.72 11,6.38 11,6.38 0,0 2.48,13.4 15.2,7.31 14.4,4.49 16.1,-8.47 16.1,-8.47 0,0 8.35,-3.97 11,-6.96 1.65,-5.55 5.73,-14.6 9.51,-20.2 z"
           fill="#ecf1f0"
           id="path852" />
        <path
           d="m 77.9,80.1 c 24.1,-0.3 33.7,15.9 25.7,24.2 -2.51,2.62 -6.6,8.01 -10.4,8.79 -8.73,1.8 -24.1,5.07 -34,-4.95 -9.92,-10 -1.4,-27 18.7,-28 z"
           fill="#c2b5b8"
           id="path854" />
        <path
           d="m 82,88.6 5.05,15.2 3.71,0.165 1.07,3.34 5.1,3.11 -6.36,11.8 c 0,0 -6.27,1.79 -9.84,-0.198 -5.41,2.45 -9.53,0.99 -9.62,0.509 -0.0929,-0.48 -4.03,-9.66 -4.03,-9.66 l 2.73,-4.13 -0.373,-4.73 4.72,-1.07 3.29,-14.2 z"
           fill="#111012"
           id="path856" />
        <path
           d="m 74.6,115 c -1.06,2.79 4.7,4.08 4.7,4.08 l 1.38,2.99 1.9,-3.4 c 0,0 6.6,-1.63 5.17,-4.47 -5.98,2.46 -8.81,2.49 -13.2,0.803 z"
           fill="#a16952"
           id="path858" />
        <path
           d="m 54.1,91.1 c -0.269,8.86 5.3,10.6 9.47,10.3 4.17,-0.341 6.47,-6.47 4.25,-9.89 -2.22,-3.42 -10.6,-3.49 -13.7,-0.421 z"
           fill="#3275ad"
           stroke="#000000"
           stroke-width="0.715px"
           id="path860" />
        <ellipse
           transform="matrix(0.992,0.126,0.111,0.994,0,0)"
           cx="52.700001"
           cy="87.300003"
           rx="1.62"
           ry="4.5700002"
           fill="#171314"
           id="ellipse862" />
        <path
           d="m 105,89.9 c 1.28,8.82 -4.07,10.9 -8.26,10.8 -4.2,-0.119 -7.18,-6.1 -5.36,-9.63 1.82,-3.53 10.1,-4.04 13.6,-1.15 z"
           fill="#3275ad"
           stroke="#000000"
           stroke-width="0.715px"
           id="path864" />
        <ellipse
           transform="matrix(0.991,0.134,0.0226,1,0,0)"
           cx="96.599998"
           cy="79.900002"
           rx="1.16"
           ry="4.5"
           fill="#171314"
           id="ellipse866" />
      </g>
      <ellipse
         transform="matrix(0.993,0.117,-0.0997,0.995,0,0)"
         cx="67.800003"
         cy="83.800003"
         rx="1.5700001"
         ry="1.67"
         fill="#ffffff"
         fill-opacity="0.909"
         id="ellipse870" />
      <ellipse
         transform="matrix(0.993,0.117,-0.0997,0.995,0,0)"
         cx="103"
         cy="79.199997"
         rx="1.5700001"
         ry="1.67"
         fill="#ffffff"
         fill-opacity="0.909"
         id="ellipse872" />
    </g>
  </g>
</svg>
