<?xml version="1.0" encoding="UTF-8"?>
<svg width="600" height="800" version="1.1" viewBox="0 0 159 212" xmlns="http://www.w3.org/2000/svg" xmlns:cc="http://creativecommons.org/ns#" xmlns:dc="http://purl.org/dc/elements/1.1/" xmlns:rdf="http://www.w3.org/1999/02/22-rdf-syntax-ns#">
 <metadata>
  <rdf:RDF>
   <cc:Work rdf:about="">
    <dc:format>image/svg+xml</dc:format>
    <dc:type rdf:resource="http://purl.org/dc/dcmitype/StillImage"/>
   </cc:Work>
  </rdf:RDF>
 </metadata>
 <g transform="translate(-45.4 -10.5)" fill="none" stroke-linecap="round" stroke-linejoin="round">
  <circle r="0" stroke="#c53822" stroke-width="2.26" style="paint-order:stroke markers fill"/>
  <g stroke="#924019">
   <circle r="0" stroke-width="1.29" style="paint-order:stroke markers fill"/>
   <circle transform="scale(1,-1)" r="0" stroke-width="3.6" style="paint-order:stroke markers fill"/>
   <circle transform="scale(1,-1)" r="0" stroke-width="3.6" style="paint-order:stroke markers fill"/>
  </g>
  <circle transform="scale(1,-1)" r="0" stroke="#4d4320" stroke-width="4.38" style="paint-order:stroke markers fill"/>
  <circle transform="scale(1,-1)" r="0" stroke="#4d4320" stroke-width="3.52" style="paint-order:stroke markers fill"/>
 </g>
 <g transform="matrix(1.04 0 0 1.04 -3.15 -3.65)">
  <path transform="matrix(.255 0 0 .255 3.03 3.49)" d="m379 399-196 111s-8.24 141-2.16 190c4.05 33 16.4 75.2 24.3 100h247c12.4-26.8 27.2-71.2 24.4-94.5-3.54-30-34.1-61.3-34.1-61.3s-1.17-119-16.7-158c-15.5-38.6-47.5-87.2-47.5-87.2z" fill="#e1e9e8"/>
  <path transform="matrix(.255 0 0 .255 3.03 3.49)" d="m368 362-170 19.9-13.9 125s4.54 65.9 9.36 111c4.83 44.9 20.7 158 20.7 158l-5 23.9h57.5l-2.74-23.9 15.6-101 23-11.4 2.75 60-15.9 48 0.814 28h65.7l1.85-14.2s52.7-157 54.2-223c1.44-66.1-43.6-200-43.6-200z" fill="#ecf1f0"/>
  <g transform="translate(-4.13 -2.02)">
   <g>
    <ellipse transform="matrix(1 -.0266 .0571 .998 0 0)" cx="73.6" cy="125" rx="5.84" ry="2.74" fill="#c2b5b8" stroke-width="1.38"/>
    <path d="m118 84.1s6.9-11.6 4.09-22.4c0.617-5.99 0.33-13.4 0.33-13.4s0.312-9.05-6.27-9.44c-6.58-0.395-22.8 19.9-22.8 19.9l-2.23 9.94z" fill="#4f473a"/>
    <path d="m43.4 86s-8.21-11.2-6.63-22.1c-1.3-5.94-1.85-13.3-1.85-13.3s-1.34-9 5.18-9.75c6.52-0.743 25 18.6 25 18.6l3.35 9.79z" fill="#4f473a"/>
    <path d="m118 84.1c0.646-3.66-1.63-9.14-3.47-12.2 1.14-4.97 1.54-6.49 1.96-9.14-3.69 0.805-6.28 2.9-8.95 4.87-0.377-3.48-0.335-4.74-1.18-9.46-1.94 1.64-4.06 2.48-5.75 6.01-2.38-0.58-4.64-3.99-6.67-7.76-8.81-0.947-21.8-0.106-28 1.35-2.32 0.543-2.13 4.39-4.03 5.18-5.19-2.49-6.42-2.97-8.7-4.25 1.25 3.21 2.02 4.8 3.45 7.05-3.55 0.0422-6.23-1.06-10.1-1.69 2.53 4.03 3.16 5.08 4.49 7.86-3.79 0.283-6.5 1.47-6.5 1.47-0.246 1.78-0.114 11.4-0.175 13.1 5.27 8.24 7.61 14.4 10.7 19.5 3.53 2.72 11 6.38 11 6.38s2.48 13.4 15.2 7.31c14.4 4.49 16.1-8.47 16.1-8.47s8.35-3.97 11-6.96c1.65-5.55 5.73-14.6 9.51-20.2z" fill="#ecf1f0"/>
    <path d="m77.9 80.1c24.1-0.3 33.7 15.9 25.7 24.2-2.51 2.62-6.6 8.01-10.4 8.79-8.73 1.8-24.1 5.07-34-4.95-9.92-10-1.4-27 18.7-28z" fill="#c2b5b8"/>
    <path d="m82 88.6 5.05 15.2 3.71 0.165 1.07 3.34 5.1 3.11-6.36 11.8s-6.27 1.79-9.84-0.198c-5.41 2.45-9.53 0.99-9.62 0.509-0.0929-0.48-4.03-9.66-4.03-9.66l2.73-4.13-0.373-4.73 4.72-1.07 3.29-14.2z" fill="#111012"/>
    <path d="m74.6 115c-1.06 2.79 4.7 4.08 4.7 4.08l1.38 2.99 1.9-3.4s6.6-1.63 5.17-4.47c-5.98 2.46-8.81 2.49-13.2 0.803z" fill="#a16952"/>
    <path d="m54.1 91.1c-0.269 8.86 5.3 10.6 9.47 10.3 4.17-0.341 6.47-6.47 4.25-9.89-2.22-3.42-10.6-3.49-13.7-0.421z" fill="#3275ad" stroke="#000" stroke-width=".715px"/>
    <ellipse transform="matrix(.992 .126 .111 .994 0 0)" cx="52.7" cy="87.3" rx="1.62" ry="4.57" fill="#171314"/>
    <path d="m105 89.9c1.28 8.82-4.07 10.9-8.26 10.8-4.2-0.119-7.18-6.1-5.36-9.63 1.82-3.53 10.1-4.04 13.6-1.15z" fill="#3275ad" stroke="#000" stroke-width=".715px"/>
    <ellipse transform="matrix(.991 .134 .0226 1 0 0)" cx="96.6" cy="79.9" rx="1.16" ry="4.5" fill="#171314"/>
   </g>
   <ellipse transform="matrix(.993 .117 -.0997 .995 0 0)" cx="67.8" cy="83.8" rx="1.57" ry="1.67" fill="#fff" fill-opacity=".909"/>
   <ellipse transform="matrix(.993 .117 -.0997 .995 0 0)" cx="103" cy="79.2" rx="1.57" ry="1.67" fill="#fff" fill-opacity=".909"/>
  </g>
 </g>
</svg>
