<?xml version="1.0" encoding="UTF-8"?>
<svg width="600" height="800" version="1.1" viewBox="0 0 159 212" xmlns="http://www.w3.org/2000/svg" xmlns:cc="http://creativecommons.org/ns#" xmlns:dc="http://purl.org/dc/elements/1.1/" xmlns:rdf="http://www.w3.org/1999/02/22-rdf-syntax-ns#">
 <metadata>
  <rdf:RDF>
   <cc:Work rdf:about="">
    <dc:format>image/svg+xml</dc:format>
    <dc:type rdf:resource="http://purl.org/dc/dcmitype/StillImage"/>
   </cc:Work>
  </rdf:RDF>
 </metadata>
 <g transform="translate(-45.387 -10.638)" fill="none" stroke-linecap="round" stroke-linejoin="round">
  <circle r="0" stroke="#c53822" stroke-width="2.26" style="paint-order:stroke markers fill"/>
  <g stroke="#924019">
   <circle r="0" stroke-width="1.29" style="paint-order:stroke markers fill"/>
   <circle transform="scale(1,-1)" r="0" stroke-width="3.6" style="paint-order:stroke markers fill"/>
   <circle transform="scale(1,-1)" r="0" stroke-width="3.6" style="paint-order:stroke markers fill"/>
  </g>
  <circle transform="scale(1,-1)" r="0" stroke="#4d4320" stroke-width="4.38" style="paint-order:stroke markers fill"/>
  <circle transform="scale(1,-1)" r="0" stroke="#4d4320" stroke-width="3.52" style="paint-order:stroke markers fill"/>
 </g>
 <path d="m90.741 106.16-51.979 29.437s-5.9963 37.393-4.3839 50.388c1.0741 8.7516 8.1603 19.943 10.255 26.52h65.504c3.2885-7.1074 7.2134-18.882 6.4709-25.061-0.93881-7.956-9.0433-16.257-9.0433-16.257s-0.31029-31.559-4.4288-41.902c-4.1106-10.237-12.597-23.125-12.597-23.125z" fill="#e1e9e8" stroke-width=".2652"/>
 <path d="m87.824 96.349-45.084 5.2775-3.6863 33.15s1.204 17.477 2.4823 29.437c1.2809 11.907 5.4896 41.902 5.4896 41.902l0.49976 6.3237 13.423 0.0146-0.72665-6.3383s1.178-24.502 4.5166-29.063c1.3152 1.0177 2.2133 3.5459 3.235 4.1259-0.16512-1.9224 1.4147-3.572 2.4852-4.8718 1.477 6.4361-0.35492 16.851-0.35492 16.851l-2.4007 11.872-0.51591 7.344h17.424l0.49062-3.7658s13.976-41.636 14.374-59.14c0.38188-17.53-11.563-53.04-11.563-53.04z" fill="#ecf1f0" stroke-width=".2652"/>
 <g stroke-width="1.04">
  <path d="m102.58 83.868s10.481-9.3369 11.084-20.927c2.4912-5.7457 4.5316-13.183 4.5316-13.183s3.1489-8.8756-3.255-11.327c-6.4004-2.4562-37.171 8.2611-37.171 8.2611l2.9903 13.473z" fill="#4f473a"/>
  <path d="m28.014 62.346s-4.6264-13.681 0.36023-23.993c0.57475-6.2976 2.3387-13.768 2.3387-13.768s1.4952-9.3443 8.1954-8.0422c6.698 1.309 19.544 27.703 19.544 27.703l-0.34157 9.3422z" fill="#4f473a"/>
  <path d="m101.71 83.592c1.7889-3.4264-5.251-10.564-6.1153-14.175 2.6898-4.5703 3.5891-7.9848 4.8371-10.481-3.9114-0.35959-7.2596 2.5826-10.525 3.6982 0.71809-3.5688 1.1551-4.805 1.7982-9.7502-2.4382 1.0174-7.3246 0.08403-10.108 3.0539-2.1779-1.3218-3.3488-5.4121-4.1788-9.7872-8.4383-3.7032-12.462-4.4989-19.066-5.0006-2.4707-0.18952-3.4894 3.6846-5.6212 3.8717-4.3648-4.0974-5.4338-4.9592-7.2929-6.9438 0.23225 3.575 0.49685 5.3932 1.2088 8.0728-3.5332-1.072-5.8447-3.0058-9.4843-4.8447 1.2441 4.7897 1.5394 6.0285 1.9858 9.2023-3.8467-0.90855-6.9062-0.58189-6.9062-0.58189-0.80242 1.6878-3.6899 11.268-4.2838 12.934 2.64 9.8238 3.0274 16.666 4.4911 22.692 2.6467 3.8046 1.6628 7.8414 1.5871 15.304-0.70664 4.9829 8.9001 5.023 16.505 0.57988 12.869 8.9702 22.212 2.5637 22.212 2.5637s9.3893-2.3174 12.955-4.4507c3.3774-4.9854 10.398-11.678 15.903-16.044z" fill="#ecf1f0"/>
 </g>
 <path d="m58.665 55.831c21.397 6.8694 25.074 25.829 15.536 31.701-2.9971 1.858-8.2137 5.9998-11.805 5.6451-8.2529-0.80704-22.813-2.1276-28.591-15.033-5.8013-12.891 6.7794-27.257 24.847-22.273z" fill="#c2b5b8" stroke-width=".98348"/>
 <path d="m64.633 72.443c-1.752 0.51183-3.072 1.5896-4.1211 3.0938l1.9199 1.2266c1.162-1.4273 2.7686-2.5752 4.4082-2.0469 5.1358 2.4292 9.1636 4.9542 13.986 8.0488l1.2363-1.9141c-4.6771-2.6134-9.1818-6.3799-14.48-8.2891-1.059-0.36568-2.0619-0.34412-2.9492-0.11914z" color="#000000" fill="#4f473a" style="-inkscape-stroke:none"/>
 <path d="m35.135 101.52c-0.09332-1.7407 0.72279-4.4338 3.5903-6.0548s9.7193-1.2794 10.167 1.9983c-1.9537 7.6289-5.6942 9.4846-11.709 6.7948-1.5788-0.75525-1.9555-0.99759-2.0488-2.7383z" fill="#c2b5b8"/>
 <path d="m34.618 82.122 0.1173 2.2649 2.2799 3.2029-1.9113 11.652s4.4192 2.7464 5.308 2.7476c0.88878 1e-3 8.6816-8.8148 8.6816-8.8148l-3.4309-8.3009z" fill="#faa"/>
 <path d="m58.568 66.566-5.6985 10.511c-0.423 1.7612 4.5025 7.1692 4.8086 11.99l-9.0721 4.3103s-5.324-7.7803-9.198-9.7662c-5.6791-1.5944-3.7451 1.6798-6.1435-0.89828-1.648-3.6398 1.2644-8.8549 1.2644-8.8549 3.7756-2.8223 5.9476-1.8776 6.6284-2.6247l13.553-7.2947z" fill="#111012" stroke-width=".91749"/>
 <path d="m36.704 74.999c-1.7107 2.59 0.9372 3.8724 0.9372 3.8724l0.71981 3.3483 1.3325-2.8619s7.8972 0.78685 7.0925-2.4206c-6.9282 0.02188-5.5767 1.1839-10.082-1.9383z" fill="#a16952" stroke-width="1.04"/>
 <path d="m34.182 59.506-0.29492 1.9121c2.4781 0.47545 8.3063 1.7249 6.2168 5.6855l1.6582 0.99414s1.5848-2.7013-0.14258-5.2656c-1.9668-2.1832-4.6572-2.8454-7.4375-3.3262z" color="#000000" fill="#4f473a" style="-inkscape-stroke:none"/>
 <path d="m104.66 196.36s18.93-31.55 22.496-49.382c3.5665-18.107-0.68585-54.869-0.68585-54.869s7.956 10.974 10.151 23.594c2.1124 12.62 2.3319 37.036-1.3443 51.577s-21.673 44.992-21.673 44.992l-9.3277-0.2716z" fill="#e1e9e8" stroke-width=".27434"/>
 <path d="m127.43 146.7-0.68586-54.869s7.956 10.974 10.151 23.594c2.4965 45.267-9.3277 31.275-9.3277 31.275z" fill="#c2b5b8" stroke-width=".27434"/>
</svg>
