<?xml version="1.0" encoding="UTF-8"?>
<svg width="600" height="800" version="1.1" viewBox="0 0 159 212" xmlns="http://www.w3.org/2000/svg" xmlns:cc="http://creativecommons.org/ns#" xmlns:dc="http://purl.org/dc/elements/1.1/" xmlns:rdf="http://www.w3.org/1999/02/22-rdf-syntax-ns#">
 <metadata>
  <rdf:RDF>
   <cc:Work rdf:about="">
    <dc:format>image/svg+xml</dc:format>
    <dc:type rdf:resource="http://purl.org/dc/dcmitype/StillImage"/>
   </cc:Work>
  </rdf:RDF>
 </metadata>
 <path d="m82.156 195.91-81.875-2.3547 0.26314-58.983 94.919 10.31z" fill="#ecf1f0"/>
 <path d="m101.79 205.11c-16.494-3.749-76.363-0.77622-83.214-8.3429-6.8508-7.5667-8.4774-23.623-2.5385-30.481s21.525-9.318 23.799-1.434 1.3315 7.9775 0.90299 15.55c12.696 2.6488 60.814 6.853 60.814 6.853s12.704 6.4233 0.23676 17.854z" fill="#e1e9e8"/>
 <g transform="translate(-22.416 5.3986)">
  <path d="m135.34 197.05c-0.0316-1.713-13.056 2.8125-9.2511-7.262 1.6436-5.3874 16.68-6.7999 19.338-4.5451l12.058 3.3665-1.8114 5.7605z" fill="#bbadb0"/>
  <g fill="#4f473a">
   <path d="m154.37 189.05c0.80355 4.2525 0.67337 5.7505 1.224 10.71 0.78665 0.62584 2.7784-0.41439 3.1248-1.8076 0.46608-2.1341 0.49808-7.092-0.80472-8.5987-1.3028-1.5067-2.3839-1.1441-3.5441-0.3033z"/>
   <path d="m155.77 191.46c-0.88739-3.032-3.896-3.0508-6.6654-2.6356-2.7694 0.41519-0.14595 9.4136 0.33538 11.245 0.48131 1.8316 5.9151 0.80174 6.487-0.42162 0.5719-1.2234 0.73041-5.1559-0.15699-8.1879z"/>
   <path d="m149.37 190.71c-1.4689-2.9509-5.1358-1.5062-5.8075-0.58901-0.67167 0.91723-1.3803 9.0118-0.7155 10.352 0.66484 1.3399 6.161 1.3715 6.4456-0.14565 0.28455-1.5171 0.60843-8.5502 0.0774-9.617z"/>
   <path d="m143.07 190.65c-0.48302-0.87242-2.794-1.1488-4.4167 0.20129-1.6227 1.3502-3.6768 4.9798-3.0609 6.2298 0.61589 1.25 6.3244 4.039 6.947 2.8272 0.6226-1.2117 2.0333-5.1589 0.53058-9.2583s0 0 0 0z"/>
  </g>
 </g>
 <g transform="translate(-45.387 -10.638)" fill="none" stroke-linecap="round" stroke-linejoin="round">
  <circle r="0" stroke="#c53822" stroke-width="2.26" style="paint-order:stroke markers fill"/>
  <g stroke="#924019">
   <circle r="0" stroke-width="1.29" style="paint-order:stroke markers fill"/>
   <circle transform="scale(1,-1)" r="0" stroke-width="3.6" style="paint-order:stroke markers fill"/>
   <circle transform="scale(1,-1)" r="0" stroke-width="3.6" style="paint-order:stroke markers fill"/>
  </g>
  <circle transform="scale(1,-1)" r="0" stroke="#4d4320" stroke-width="4.38" style="paint-order:stroke markers fill"/>
  <circle transform="scale(1,-1)" r="0" stroke="#4d4320" stroke-width="3.52" style="paint-order:stroke markers fill"/>
 </g>
 <g transform="rotate(20.864 110.69 101.4)">
  <g stroke-width="1.04">
   <path d="m156.61 160.02s4.0593-13.437-1.4822-23.635c-0.87755-6.2008-3.0233-13.608-3.0233-13.608s-1.9519-9.2131-8.6933-7.9581c-6.7407 1.2494-18.03 25.798-18.03 25.798l0.23878 10.592z" fill="#4f473a"/>
   <path d="m81.782 180.62s-11.092-9.2487-12.228-20.647c-2.8-5.6702-5.1987-12.961-5.1987-12.961s-3.6068-8.7488 2.7865-11.139c6.3951-2.3831 29.894 12.513 29.894 12.513l5.8336 9.0428z" fill="#4f473a"/>
   <path d="m156.61 160.02c-0.26467-3.8562-3.9346-8.8175-6.5584-11.445-0.0941-5.3022-0.0711-6.9366-0.31093-9.7167-3.523 1.7368-5.6126 4.5002-7.8142 7.1575-1.2522-3.4182-1.5254-4.7006-3.5606-9.2532-1.5474 2.1413-3.4769 3.5202-4.2986 7.5066-2.5476 0.0107-5.683-2.8652-8.6763-6.1622-9.1299 1.2508-22.031 5.3534-27.925 8.376-2.2058 1.1292-1.0504 4.9647-2.7704 6.238-5.8624-1.2134-7.2242-1.3898-9.8462-2.1108 2.0658 2.927 3.2412 4.3391 5.2482 6.252-3.5728 0.93178-6.554 0.4905-10.618 0.82393 3.5632 3.4341 4.4621 4.3362 6.5009 6.8092-3.7547 1.235-6.1928 3.1119-6.1928 3.1119 0.19754 1.8583 2.7403 11.536 3.1046 13.267 7.3834 6.9974 11.288 12.629 15.685 17.003 4.2444 1.8614 12.701 3.6847 12.701 3.6847s5.8596 12.905 17.174 3.5714c15.66 0.92532 14.13-12.582 14.13-12.582s7.434-6.0987 9.36-9.7806c0.27535-6.0154 2.1269-16.172 4.5397-22.772z" fill="#ecf1f0"/>
  </g>
  <ellipse transform="matrix(.98131 -.19246 .17285 .98495 0 0)" cx="90.448" cy="225.36" rx="7.4315" ry="4.1128" fill="#c2b5b8" stroke-width="1.9072"/>
  <path d="m115.13 166.02c24.251-6.3392 37.999 7.6083 32.003 17.99-1.8773 3.2733-4.6557 9.7383-8.296 11.477-8.3611 4.0035-23.056 11.154-35.559 3.5197-12.518-7.6092-8.176-26.903 11.862-32.947z" fill="#c2b5b8" stroke-width="1.04"/>
  <g transform="rotate(-13.936 451.84 -48.093)">
   <g transform="matrix(-1 0 0 1 155.71 0)" stroke-width="1.04">
    <path d="m77.848 86.255 5.0816 14.845c0.69214 2.1247 7.3437 3.107 10.446 7.8427 0 0-4.5687 7.9008-6.8784 10.912-1.8592 1.8969-9.6009 2.2511-10.793-1.2259-4.0344 4.6354-9.2702 1.9706-9.3638 1.4704-0.09662-0.4992-4.0089-8.607-4.0089-8.607 1.4458-5.6898 7.2402-9.0562 7.3601-10.327l3.4216-14.768z" fill="#111012"/>
    <path d="m69.381 111.28c-1.1024 2.9016 4.888 4.2432 4.888 4.2432l1.4352 3.1096 1.976-3.536s6.864-1.6952 5.3768-4.6488c-6.2192 2.5584-9.1624 2.5896-13.728 0.83512z" fill="#a16952"/>
   </g>
  </g>
  <path d="m115.33 184.71-0.97039-3.0317s-12.152 1.0814-15.919-0.10425c-3.767-1.1856-6.4034-4.4118-6.4034-4.4118" fill="none" stroke="#4f473a" stroke-width="1.4575"/>
  <path d="m135.78 181.31 0.013-3.2809s5.366-0.73901 7.691-2.1379 5.7087-6.0223 5.7087-6.0223" fill="none" stroke="#4f473a" stroke-width="1.4575"/>
 </g>
</svg>
