<?xml version="1.0" encoding="UTF-8" standalone="no"?>
<svg
   width="600"
   height="800"
   version="1.1"
   viewBox="0 0 159 212"
   id="svg878"
   sodipodi:docname="faq.svg"
   inkscape:version="1.1.2 (1:1.1+202202050942+0a00cf5339)"
   xmlns:inkscape="http://www.inkscape.org/namespaces/inkscape"
   xmlns:sodipodi="http://sodipodi.sourceforge.net/DTD/sodipodi-0.dtd"
   xmlns="http://www.w3.org/2000/svg"
   xmlns:svg="http://www.w3.org/2000/svg"
   xmlns:rdf="http://www.w3.org/1999/02/22-rdf-syntax-ns#"
   xmlns:cc="http://creativecommons.org/ns#"
   xmlns:dc="http://purl.org/dc/elements/1.1/">
  <defs
     id="defs882" />
  <sodipodi:namedview
     id="namedview880"
     pagecolor="#ffffff"
     bordercolor="#999999"
     borderopacity="1"
     inkscape:pageshadow="0"
     inkscape:pageopacity="0"
     inkscape:pagecheckerboard="0"
     showgrid="false"
     inkscape:zoom="0.5"
     inkscape:cx="-421"
     inkscape:cy="401"
     inkscape:window-width="1920"
     inkscape:window-height="940"
     inkscape:window-x="0"
     inkscape:window-y="0"
     inkscape:window-maximized="1"
     inkscape:current-layer="svg878" />
  <metadata
     id="metadata824">
    <rdf:RDF>
      <cc:Work
         rdf:about="">
        <dc:format>image/svg+xml</dc:format>
        <dc:type
           rdf:resource="http://purl.org/dc/dcmitype/StillImage" />
      </cc:Work>
    </rdf:RDF>
  </metadata>
  <g
     transform="translate(-45.386879,-10.638262)"
     fill="none"
     stroke-linecap="round"
     stroke-linejoin="round"
     id="g840">
    <circle
       r="0"
       stroke="#c53822"
       stroke-width="2.26"
       style="paint-order:stroke markers fill"
       id="circle826"
       cx="0"
       cy="0" />
    <g
       stroke="#924019"
       id="g834">
      <circle
         r="0"
         stroke-width="1.29"
         style="paint-order:stroke markers fill"
         id="circle828"
         cx="0"
         cy="0" />
      <circle
         transform="scale(1,-1)"
         r="0"
         stroke-width="3.6"
         style="paint-order:stroke markers fill"
         id="circle830"
         cx="0"
         cy="0" />
      <circle
         transform="scale(1,-1)"
         r="0"
         stroke-width="3.6"
         style="paint-order:stroke markers fill"
         id="circle832"
         cx="0"
         cy="0" />
    </g>
    <circle
       transform="scale(1,-1)"
       r="0"
       stroke="#4d4320"
       stroke-width="4.38"
       style="paint-order:stroke markers fill"
       id="circle836"
       cx="0"
       cy="0" />
    <circle
       transform="scale(1,-1)"
       r="0"
       stroke="#4d4320"
       stroke-width="3.52"
       style="paint-order:stroke markers fill"
       id="circle838"
       cx="0"
       cy="0" />
  </g>
  <path
     d="m 100.52512,105.65614 -51.979199,29.4372 c 0,0 -5.996295,37.3932 -4.383879,50.388 1.07406,8.7516 8.160327,19.94304 10.255407,26.52 h 65.504401 c 3.28848,-7.10736 7.21344,-18.88224 6.47088,-25.0614 -0.93881,-7.956 -9.04332,-16.25676 -9.04332,-16.25676 0,0 -0.31029,-31.5588 -4.42884,-41.9016 -4.1106,-10.23672 -12.597,-23.12544 -12.597,-23.12544 z"
     fill="#e1e9e8"
     id="path842"
     style="stroke-width:0.2652"
     sodipodi:nodetypes="cccccccccc" />
  <path
     d="m 97.607921,95.843738 -45.084,5.277482 -3.68628,33.15 c 0,0 1.204008,17.47668 2.482272,29.4372 1.280916,11.90748 5.48964,41.9016 5.48964,41.9016 l 0.499765,6.32369 13.423235,0.0146 -0.726648,-6.33828 c 0,0 1.178003,-24.50233 4.516555,-29.06264 1.315168,1.01768 2.213279,3.54588 3.234987,4.12593 -0.165115,-1.92245 1.414731,-3.57202 2.485178,-4.87177 1.477022,6.43606 -0.354924,16.85138 -0.354924,16.85138 l -2.400676,11.87186 -0.515907,7.34396 h 17.42364 l 0.49062,-3.76584 c 0,0 13.976042,-41.6364 14.373842,-59.1396 C 109.6411,131.43359 97.696498,95.923308 97.696498,95.923308 Z"
     fill="#ecf1f0"
     id="path844"
     style="stroke-width:0.2652"
     sodipodi:nodetypes="ccccccccccccccccccc" />
  <path
     d="m 114.62654,71.686593 c 0,0 4.05927,-13.437165 -1.48223,-23.634714 -0.87755,-6.200773 -3.02326,-13.608446 -3.02326,-13.608446 0,0 -1.95186,-9.213103 -8.69333,-7.958142 -6.740706,1.249413 -18.029591,25.79762 -18.029591,25.79762 l 0.238781,10.591867 z"
     fill="#4f473a"
     id="path848"
     style="stroke-width:1.04" />
  <path
     d="m 39.802155,92.28981 c 0,0 -11.092381,-9.248743 -12.227719,-20.646814 -2.800021,-5.670143 -5.198674,-12.961473 -5.198674,-12.961473 0,0 -3.606848,-8.74885 2.786501,-11.138982 6.395103,-2.383067 29.893503,12.512745 29.893503,12.512745 l 5.833591,9.042813 z"
     fill="#4f473a"
     id="path850"
     style="stroke-width:1.04" />
  <path
     d="m 114.62654,71.686593 c -0.26467,-3.856164 -3.93463,-8.817527 -6.55836,-11.445379 -0.0941,-5.302195 -0.0711,-6.936654 -0.31093,-9.716729 -3.52301,1.736807 -5.61258,4.500202 -7.81421,7.157461 -1.252189,-3.418239 -1.525393,-4.700587 -3.560563,-9.253244 -1.547434,2.141315 -3.476936,3.520206 -4.298626,7.506644 -2.547617,0.01068 -5.682949,-2.865254 -8.676293,-6.162181 -9.129901,1.250788 -22.031193,5.353344 -27.924703,8.375952 -2.205771,1.129198 -1.050413,4.964721 -2.770374,6.238038 -5.862401,-1.213413 -7.224175,-1.389835 -9.846185,-2.11077 2.065757,2.927041 3.241239,4.339101 5.24823,6.252044 -3.572754,0.931782 -6.553985,0.490504 -10.618113,0.823926 3.563161,3.434131 4.462073,4.336188 6.500877,6.809154 -3.754694,1.234954 -6.19282,3.111882 -6.19282,3.111882 0.197535,1.858326 2.740337,11.535569 3.10457,13.266806 7.383379,6.997352 11.288267,12.629063 15.684693,17.002983 4.244427,1.86136 12.701286,3.68467 12.701286,3.68467 0,0 5.859635,12.90461 17.173653,3.57141 15.659808,0.92532 14.129618,-12.58214 14.129618,-12.58214 0,0 7.434,-6.098732 9.35996,-9.780557 0.27535,-6.015384 2.12686,-16.172273 4.53969,-22.771635 z"
     fill="#ecf1f0"
     id="path852"
     style="stroke-width:1.04" />
  <ellipse
     transform="matrix(0.98130519,-0.19245813,0.17284847,0.98494843,0,0)"
     cx="65.655357"
     cy="132.36781"
     rx="7.4314909"
     ry="4.1128454"
     fill="#c2b5b8"
     stroke-width="1.90724"
     id="ellipse846" />
  <ellipse
     transform="matrix(0.98356825,-0.18053669,0.18429755,0.9828705,0,0)"
     cx="65.453705"
     cy="131.60222"
     rx="4.9400997"
     ry="2.5700912"
     fill="#c2b5b8"
     stroke-width="1.22925"
     id="ellipse846-3"
     style="fill:#ff5555" />
  <path
     d="m 73.148217,77.693062 c 24.251091,-6.339246 37.998893,7.608275 32.002733,17.989985 -1.87732,3.273285 -4.65566,9.738323 -8.295961,11.477443 -8.361097,4.00354 -23.056328,11.15403 -35.559014,3.51966 C 48.77811,103.07098 53.120027,83.777358 73.158236,77.733438 Z"
     fill="#c2b5b8"
     id="path854"
     style="stroke-width:1.04" />
  <g
     id="g1270"
     transform="rotate(-13.936162,69.49501,79.48365)">
    <g
       id="g7158"
       transform="matrix(-1,0,0,1,155.70624,0)">
      <path
         d="m 77.847921,86.254938 5.081635,14.844922 c 0.692144,2.1247 7.343723,3.10697 10.445565,7.84268 0,0 -4.568741,7.90081 -6.878401,10.91153 -1.859191,1.89692 -9.600948,2.25112 -10.792877,-1.22586 -4.034417,4.63535 -9.27019,1.9706 -9.36379,1.47036 -0.09662,-0.4992 -4.008932,-8.60699 -4.008932,-8.60699 1.4458,-5.68981 7.240156,-9.05616 7.36008,-10.3272 l 3.4216,-14.768002 z"
         fill="#111012"
         id="path856"
         style="stroke-width:1.04"
         sodipodi:nodetypes="cccccccccc" />
      <path
         d="m 69.380643,111.27541 c -1.1024,2.9016 4.888,4.2432 4.888,4.2432 l 1.4352,3.1096 1.976,-3.536 c 0,0 6.864,-1.6952 5.3768,-4.6488 -6.2192,2.5584 -9.1624,2.5896 -13.728,0.83512 z"
         fill="#a16952"
         id="path858"
         style="stroke-width:1.04" />
    </g>
  </g>
  <path
     d="m 54.564495,91.157768 c 1.947677,9.010552 8.00478,9.371992 12.138782,8.024698 4.123733,-1.388679 4.910167,-8.151304 1.812706,-11.047356 -3.097462,-2.896051 -11.573661,-0.867734 -13.934056,3.006546 z"
     fill="#3275ad"
     stroke="#000000"
     stroke-width="0.7436px"
     id="path860" />
  <ellipse
     transform="matrix(0.99317587,-0.11662628,0.34706635,0.93784058,0,0)"
     cx="30.147739"
     cy="101.05958"
     rx="1.6847495"
     ry="4.7536483"
     fill="#171314"
     id="ellipse862"
     style="stroke-width:1.04008" />
  <path
     d="m 104.88189,78.940249 c 3.5012,8.582189 -1.37804,12.021751 -5.632416,12.9703 -4.269233,0.931875 -8.775293,-4.358857 -7.822383,-8.377857 0.952911,-4.019 9.182899,-6.607715 13.439619,-4.567246 z"
     fill="#3275ad"
     stroke="#000000"
     stroke-width="0.7436px"
     id="path864" />
  <ellipse
     transform="matrix(0.99408384,-0.10861542,0.26270834,0.96487529,0,0)"
     cx="75.093491"
     cy="95.549957"
     rx="1.2064223"
     ry="4.6811953"
     fill="#171314"
     id="ellipse866"
     style="stroke-width:1.04014" />
  <ellipse
     transform="matrix(0.99207905,-0.12561516,0.14287365,0.98974094,0,0)"
     cx="46.049934"
     cy="96.932442"
     rx="1.6325861"
     ry="1.7367697"
     fill="#ffffff"
     fill-opacity="0.909"
     id="ellipse870"
     style="stroke-width:1.03992" />
  <ellipse
     transform="matrix(0.99207905,-0.12561516,0.14287365,0.98974094,0,0)"
     cx="82.360947"
     cy="94.281631"
     rx="1.6325861"
     ry="1.7367697"
     fill="#ffffff"
     fill-opacity="0.909"
     id="ellipse872"
     style="stroke-width:1.03992" />
</svg>
