<?xml version="1.0" encoding="UTF-8"?>
<!-- Created with Inkscape (http://www.inkscape.org/) -->
<svg width="127mm" height="29.72mm" version="1.1" viewBox="0 0 127 29.72" xmlns="http://www.w3.org/2000/svg" xmlns:xlink="http://www.w3.org/1999/xlink">
 <defs>
  <linearGradient id="linearGradient2204" x1="92.23" x2="91.65" y1="226.9" y2="248.7" gradientTransform="matrix(.7447 0 0 1.362 -12.28 -70.86)" gradientUnits="userSpaceOnUse">
   <stop stop-color="#e0e0e0" offset="0"/>
   <stop stop-color="#efefef" stop-opacity="0" offset="1"/>
  </linearGradient>
 </defs>
 <g transform="translate(-2.758 -237.2)">
  <rect x="2.758" y="237.2" width="127" height="29.72" fill="url(#linearGradient2204)"/>
  <g fill="#0f7609" fill-opacity=".2105" stroke-width=".1493">
   <path d="m66.8 251.8s11.03-5.207 13.89-5.937c2.863-0.7285 2.615-0.2474 2.615-0.2474s-5.145 5.245-7.811 6.537c-2.666 1.293-7.422 1.556-7.422 1.556z"/>
   <path d="m66.8 251.8 0.3535 2.722s4.96 1.244 6.681 1.166c1.72-0.0779 4.311-0.53 4.311-0.53s1.079-0.6315-1.025-1.838c-2.104-1.206-10.32-1.52-10.32-1.52z"/>
   <path d="m66.8 251.8 1.378 0.53s3.945 5.601 4.524 6.292c0.5796 0.6882-1.873-0.6361-1.873-0.6361l-3.642-3.57z"/>
   <path d="m65.71 251.8s-11.03-5.207-13.89-5.937c-2.865-0.7288-2.615-0.2474-2.615-0.2474s5.145 5.245 7.811 6.537c2.666 1.293 7.422 1.556 7.422 1.556z"/>
   <path d="m65.71 251.8-0.3533 2.722s-4.96 1.244-6.681 1.166c-1.72-0.0779-4.311-0.53-4.311-0.53s-1.079-0.6315 1.025-1.838c2.105-1.206 10.32-1.52 10.32-1.52z"/>
   <path d="m65.71 251.8-1.378 0.53s-3.945 5.601-4.524 6.292c-0.5796 0.6882 1.873-0.6361 1.873-0.6361l3.642-3.57z"/>
  </g>
 </g>
</svg>
